<svg width="147" height="28" viewBox="0 0 147 28" fill="none" xmlns="http://www.w3.org/2000/svg">
<path fill-rule="evenodd" clip-rule="evenodd" d="M14.0046 28C10.8707 28 8.36857 24.5549 8.02681 19.9778C3.44965 19.636 0 17.1277 0 14C0 10.8723 3.44965 8.36399 8.03139 8.02223C8.37315 3.4466 10.8753 0 14.0092 0C17.143 0 19.6436 3.44508 19.9869 8.02223C24.5641 8.36399 28.0031 10.8662 28.0031 14C28.0031 17.1338 24.5595 19.636 19.9823 19.9778C19.6391 24.5534 17.1384 28 14.0046 28ZM14.0046 25.7602C15.2252 25.7602 16.1009 24.6297 16.5144 23.9568C17.3337 22.6203 17.7838 20.8276 17.7853 18.8991C17.7877 18.0435 17.6941 17.1904 17.5061 16.3557C16.2871 18.3041 13.5804 19.7016 10.2727 19.9717C10.4069 21.4867 10.8296 22.8736 11.4932 23.9568C11.9067 24.6297 12.784 25.7602 14.0046 25.7602ZM12.3744 12.9108C12.159 13.2332 12.044 13.6122 12.044 14C12.044 14.52 12.2506 15.0186 12.6183 15.3863C12.9859 15.754 13.4846 15.9605 14.0046 15.9605C14.3923 15.9605 14.7714 15.8456 15.0938 15.6301C15.4162 15.4147 15.6675 15.1085 15.8159 14.7503C15.9643 14.392 16.0031 13.9978 15.9275 13.6175C15.8518 13.2372 15.6651 12.8879 15.3909 12.6137C15.1167 12.3395 14.7674 12.1528 14.3871 12.0771C14.0068 12.0015 13.6125 12.0403 13.2543 12.1887C12.8961 12.3371 12.5899 12.5884 12.3744 12.9108ZM25.7572 14C25.7572 12.7794 24.6282 11.9037 23.9538 11.4902C22.6279 10.6709 20.8322 10.2208 18.8976 10.2269C18.042 10.2245 17.1889 10.3181 16.3542 10.5061C18.3025 11.7252 19.7001 14.4303 19.9686 17.738C21.4837 17.6053 22.8721 17.1826 23.9538 16.5174C24.6343 16.0963 25.7572 15.2206 25.7572 14ZM13.9985 2.23976C12.7779 2.23976 11.9006 3.37031 11.4871 4.04316H11.4932C10.68 5.37969 10.2223 7.17241 10.2223 9.10091C10.2186 9.95622 10.3102 10.8093 10.4954 11.6443C11.716 9.69594 14.4211 8.29839 17.7289 8.02986C17.5961 6.51329 17.1735 5.12642 16.5083 4.04316C16.0948 3.37031 15.219 2.23976 13.9985 2.23976ZM8.02681 10.2696C6.51177 10.4024 5.12489 10.825 4.04163 11.4902H4.04773C3.37489 11.9037 2.23823 12.7809 2.23823 14.0015C2.23823 15.2221 3.36879 16.0979 4.04163 16.5113C5.37511 17.323 7.17088 17.7807 9.09786 17.7807C9.95344 17.7833 10.8066 17.6897 11.6412 17.5015C9.69442 16.2825 8.29686 13.5774 8.02681 10.2696ZM93.374 9.8592C93.9877 9.86656 94.5923 10.0082 95.1454 10.2742L95.1393 7.96883C94.58 7.77446 93.9921 7.67493 93.3999 7.67437C91.7888 7.67437 90.6216 8.54861 89.9976 10.6846V7.93832H87.709V20.0617H89.9976V15.6234C89.9976 12.43 90.9588 9.8592 93.374 9.8592ZM38.2956 16.4534H36.1992C36.303 18.9464 38.5366 20.3226 40.7169 20.3272C43.2358 20.3272 45.4161 18.951 45.4161 16.6914C45.4161 15.3182 44.7677 13.8047 42.2487 13.1822L40.4575 12.7413C39.6779 12.5597 38.8997 12.1173 38.8997 11.2873C38.8997 10.352 39.6779 9.6517 40.8466 9.6517C41.8047 9.6517 42.7674 10.2742 42.7934 11.2079H44.9751C44.9751 8.76678 42.8452 7.67742 40.7947 7.67742C38.3535 7.67742 36.6401 9.20924 36.6401 11.2079C36.6401 13.1609 37.8088 14.1419 39.8335 14.6866L41.4889 15.0772C42.4501 15.2877 43.1519 15.7531 43.1519 16.6609C43.1519 17.648 42.2365 18.3483 40.7108 18.3483C39.2308 18.3483 38.3215 17.4924 38.2956 16.4534ZM55.9466 20.0617H58.2062V7.93832L55.9451 7.94595V14.5065C55.9191 17.1277 53.8945 18.0889 52.2071 18.0889C50.5196 18.0889 49.299 16.8424 49.299 14.8178V7.93832H47.041V14.9475C47.0166 18.3483 48.8856 20.3226 51.9233 20.3226C53.2735 20.3226 55.2204 19.6726 55.9466 18.1667V20.0617ZM86.0139 14.9734H76.1486C76.4858 17.1277 78.0436 18.1927 80.1155 18.1927C81.5939 18.1927 82.9701 17.5702 83.646 16.3496L85.6188 17.1277C84.5508 19.2317 82.3736 20.3226 80.0377 20.3226C76.5835 20.3226 73.8067 17.8036 73.8067 13.9619C73.8067 10.1201 76.5835 7.67895 80.0377 7.67895C83.4919 7.67895 86.0597 10.1201 86.0597 13.9619C86.0658 14.299 86.0399 14.6361 86.014 14.9732L86.0139 14.9734ZM83.8078 13.0266C83.5224 10.9501 82.0425 9.80732 80.0438 9.80732C77.9917 9.80732 76.5347 10.8448 76.1746 13.0266H83.8078ZM107.781 13.0525V20.0617H105.522V13.1822C105.522 11.1576 104.275 9.91107 102.588 9.91107C100.9 9.91107 98.8758 10.8723 98.8758 13.4935V20.0541H96.6162V7.93832H98.8758V9.78139C99.602 8.30144 101.576 7.67895 102.901 7.67895C105.911 7.67895 107.807 9.6517 107.781 13.0525ZM115.44 7.67895C111.988 7.67895 109.106 10.1186 109.106 13.9619C109.106 17.8036 111.986 20.3226 115.44 20.3226C118.895 20.3226 121.801 17.8036 121.801 13.9619C121.801 10.1201 118.893 7.67895 115.44 7.67895ZM115.44 9.80732C117.674 9.80732 119.543 11.4688 119.543 13.9619C119.543 16.4793 117.674 18.1957 115.44 18.1927C113.234 18.1927 111.391 16.4793 111.391 13.9619C111.391 11.4688 113.234 9.80732 115.44 9.80732ZM131.34 7.93832H133.777L128.714 20.0617H126.508L121.473 7.93832H123.888L127.626 17.1811L131.34 7.93832ZM143.906 20.0617H146.164V7.93832H143.906V9.83326C143.1 8.40519 141.387 7.67895 139.57 7.67895C136.247 7.67895 133.52 10.1445 133.52 13.9863C133.52 17.8036 136.273 20.3226 139.596 20.3226C141.335 20.3226 143.1 19.5429 143.906 18.1408V20.0617ZM139.777 9.80732C141.77 9.80732 143.906 11.3391 143.906 13.9619H143.901C143.901 16.5571 141.953 18.1957 139.777 18.1927C137.576 18.1927 135.81 16.3755 135.81 13.9619C135.81 11.5207 137.57 9.80732 139.777 9.80732ZM72.5586 14.0137C72.5586 17.8555 69.8322 20.3226 66.5091 20.3226C64.692 20.3226 62.9786 19.5948 62.1731 18.1667V26.4056H59.915V7.94442H62.1731V9.8653C62.9786 8.46316 64.7439 7.68505 66.4832 7.68505C69.8062 7.67895 72.5586 10.1964 72.5586 14.0137ZM70.2701 14.0397C70.2701 11.6245 68.5048 9.80732 66.2727 9.80732C64.1168 9.80732 62.17 11.4429 62.17 14.0397C62.1625 14.5833 62.2632 15.123 62.4663 15.6273C62.6693 16.1316 62.9707 16.5905 63.3527 16.9773C63.7348 17.364 64.19 17.6709 64.6918 17.8801C65.1936 18.0893 65.732 18.1966 66.2757 18.1957C68.5048 18.1957 70.2731 16.4793 70.2731 14.0397H70.2701Z" fill="#4589FF"/>
</svg>
