<svg xmlns="http://www.w3.org/2000/svg" width="100" height="100"><path fill="#134B45" fill-rule="evenodd" d="M99.796 48.633a10.29 10.29 0 0 0-.576-1.89 10.005 10.005 0 0 0-.926-1.728 10.945 10.945 0 0 0-1.255-1.543 10.19 10.19 0 0 0-1.546-1.254 9.555 9.555 0 0 0-1.735-.923c-.62-.26-1.257-.447-1.89-.576-3.296-.663-6.79.418-9.132 2.753-.462.476-.896.98-1.257 1.543a9.99 9.99 0 0 0-.923 1.728c-.261.621-.45 1.256-.58 1.89-.057.294-.097.588-.132.88l-7.29 1.212-6.936-42.607a2.526 2.526 0 0 0-2.405-2.116c-1.137-.05-2.271.767-2.551 1.938L43.117 81.702l-13.533-45.45c-.326-1.092-1.29-1.822-2.486-1.804a2.527 2.527 0 0 0-2.393 1.924l-5.682 23.239-16.908 2.807a2.525 2.525 0 0 0-2.08 2.901 2.531 2.531 0 0 0 2.909 2.076l18.555-3.08a2.526 2.526 0 0 0 2.041-1.892l3.86-15.79 13.566 45.562A2.531 2.531 0 0 0 43.39 94l.071-.001a2.527 2.527 0 0 0 2.39-1.94L62.657 21.4l5.313 32.634a2.524 2.524 0 0 0 2.91 2.083l9.687-1.607a10.123 10.123 0 0 0 2.168 3.235c1.878 1.888 4.494 2.955 7.152 2.955.65 0 1.329-.057 1.98-.187a11.46 11.46 0 0 0 1.89-.577c.607-.26 1.199-.578 1.735-.938a9.374 9.374 0 0 0 1.546-1.253A10.143 10.143 0 0 0 100 50.608c0-.649-.072-1.312-.204-1.975"/></svg>