<svg xmlns="http://www.w3.org/2000/svg" width="100" height="100" fill="none"><path fill="#000" fill-rule="evenodd" d="M96.808 48.71a9.723 9.723 0 0 0-.541-1.782 9.44 9.44 0 0 0-.87-1.63 10.31 10.31 0 0 0-1.18-1.455 9.579 9.579 0 0 0-1.454-1.183 8.975 8.975 0 0 0-1.63-.87 9.441 9.441 0 0 0-1.778-.544c-3.097-.625-6.382.394-8.583 2.597a9.376 9.376 0 0 0-1.182 1.455 9.44 9.44 0 0 0-.867 1.63 9.536 9.536 0 0 0-.545 1.783c-.054.277-.092.555-.125.83l-6.852 1.143-6.52-40.186a2.377 2.377 0 0 0-2.261-1.996c-1.069-.048-2.135.723-2.398 1.827L43.53 79.901l-12.72-42.87c-.307-1.029-1.213-1.717-2.337-1.7a2.377 2.377 0 0 0-2.25 1.815l-5.341 21.918-15.894 2.647a2.38 2.38 0 0 0 .78 4.695L23.209 63.5a2.378 2.378 0 0 0 1.919-1.783l3.628-14.893 12.752 42.973a2.38 2.38 0 0 0 2.279 1.702l.066-.001a2.377 2.377 0 0 0 2.246-1.83l15.8-66.645 4.994 30.78c.102.624.447 1.183.96 1.551.514.37 1.151.519 1.775.414l9.106-1.516a9.55 9.55 0 0 0 2.038 3.05c1.765 1.782 4.224 2.788 6.723 2.788.61 0 1.249-.054 1.86-.177a10.681 10.681 0 0 0 1.777-.543 9.964 9.964 0 0 0 1.631-.886 8.816 8.816 0 0 0 1.453-1.181A9.583 9.583 0 0 0 97 50.574c0-.612-.068-1.238-.192-1.863Z" clip-rule="evenodd"/></svg>