<svg xmlns="http://www.w3.org/2000/svg" width="100" height="100"><path fill="#134B45" d="M31.54 68.45c7.56.73 34.88 2.18 49.91-12.85C96.51 40.54 95.04 13.23 94.3 5.68c-7.56-.73-34.88-2.19-49.91 12.84C29.33 33.58 30.8 60.9 31.54 68.45zM99.25 2.93c.22 1.5 5.25 37.03-14.1 56.38a44.74 44.74 0 0 1-14.6 9.49l-5.41 21.32a2.62 2.62 0 0 1-4.39 1.2L43.5 74.09c-1 .03-1.98.05-2.9.05-6.85 0-11.54-.69-11.8-.72a2.62 2.62 0 0 1-2.21-2.21c-.1-.6-.93-6.57-.7-14.75L8.66 39.23a2.62 2.62 0 0 1-.68-2.54 2.62 2.62 0 0 1 1.88-1.85l21.26-5.4a44.84 44.84 0 0 1 9.55-14.62C48.74 6.76 61.08 1.77 76.35.4c11.38-1.02 20.32.28 20.7.33a2.62 2.62 0 0 1 2.2 2.2zM72.27 40.08a8.69 8.69 0 0 0 2.56-6.18 8.69 8.69 0 0 0-2.56-6.18 8.69 8.69 0 0 0-6.19-2.57c-2.33 0-4.53.91-6.18 2.57a8.7 8.7 0 0 0-2.56 6.18 8.7 8.7 0 0 0 2.56 6.18 8.68 8.68 0 0 0 6.18 2.56c2.34 0 4.53-.9 6.19-2.56zM56.2 24.01a14 14 0 0 1 19.77 0 14 14 0 0 1 0 19.78 13.94 13.94 0 0 1-9.89 4.09A14 14 0 0 1 56.2 24zm-23.8 55.7a2.62 2.62 0 0 1 1.7 3.3 23.5 23.5 0 0 1-5.6 9.6C22.14 98.99 12.38 100 6.8 100c-2.45 0-4.1-.2-4.3-.22A2.62 2.62 0 0 1 .21 97.5c-.08-.69-2-16.87 7.16-26.02a23.46 23.46 0 0 1 9.6-5.6 2.62 2.62 0 0 1 3.3 1.7 2.62 2.62 0 0 1-1.7 3.28c-3.1 1-5.62 2.45-7.5 4.32-5.64 5.64-5.97 15.28-5.81 19.53 4.26.16 13.91-.19 19.53-5.8a18.34 18.34 0 0 0 4.32-7.5 2.62 2.62 0 0 1 3.29-1.7z"/></svg>