<svg width="100" height="100" xmlns="http://www.w3.org/2000/svg"><path d="M70.957 50.134 8.483 57.233V23.709l62.941-7.151L90.12 30.989 70.957 50.134zm24.98-21.572L73.9 11.553a2.734 2.734 0 0 0-1.99-.555l-21.988 2.499V2.736c0-.78-.334-1.522-.917-2.04a2.733 2.733 0 0 0-2.135-.68L35.988 1.255a2.738 2.738 0 0 0-2.432 2.717v11.386L5.431 18.553A2.738 2.738 0 0 0 3 21.27v39.027a2.734 2.734 0 0 0 2.742 2.734c.101 0 .206-.006.31-.017l27.504-3.125v36.508a2.734 2.734 0 0 0 2.742 2.734c.102 0 .207-.006.31-.017l10.882-1.237a2.736 2.736 0 0 0 2.432-2.718V58.03l22.61-2.57a2.746 2.746 0 0 0 1.63-.784l22.036-22.019a2.727 2.727 0 0 0-.262-4.093z" fill="#134B45" fill-rule="evenodd"/></svg>