<svg xmlns="http://www.w3.org/2000/svg" width="100" height="100" fill="none" viewBox="0 0 96 89"><path fill="#134B45" fill-rule="evenodd" d="M95.022 69.74 53.542 3.07A6.475 6.475 0 0 0 47.814.003C45.463.07 43.39 1.335 42.27 3.388v.001L.79 79.447a6.41 6.41 0 0 0 .33 6.703 6.502 6.502 0 0 0 6.136 2.807l82.963-9.388a6.482 6.482 0 0 0 5.122-3.604 6.395 6.395 0 0 0-.319-6.226ZM50.7 65.453a4.443 4.443 0 0 0-.374-.695 3.726 3.726 0 0 0-.493-.601c-1.495-1.497-4.173-1.497-5.655 0a4.016 4.016 0 0 0-1.173 2.833c0 1.042.428 2.085 1.173 2.833A3.992 3.992 0 0 0 47.004 71a4.015 4.015 0 0 0 2.828-1.176 4.414 4.414 0 0 0 .867-1.31c.092-.24.173-.494.226-.748a5.24 5.24 0 0 0 .067-.775c0-.268-.028-.535-.067-.789a4.988 4.988 0 0 0-.226-.748ZM47 27c-2.21 0-4 1.794-4 4.009v20.257a4.005 4.005 0 0 0 4 4.009c2.209 0 4-1.796 4-4.01V31.01A4.005 4.005 0 0 0 47 27Z" clip-rule="evenodd"/></svg>