<svg width="100" height="100" xmlns="http://www.w3.org/2000/svg"><path d="M68.108 59.605c15.12-1.717 27.42-15.747 27.42-31.274 0-7.56-2.888-14.293-8.132-18.958-4.343-3.862-9.89-5.912-15.863-5.912-1 0-2.011.058-3.032.173-15.119 1.718-27.42 15.747-27.42 31.274 0 7.56 2.889 14.292 8.132 18.958 5.068 4.508 11.778 6.546 18.895 5.739zm-3.83 9.457 8.263-.938-3.226-4.74c-.149-.22-.375-.33-.675-.33l-.04.001c-.385.013-.915.226-1.246.79l-3.076 5.217zM29.224 29.564a3.605 3.605 0 0 0 3.612-3.599 3.605 3.605 0 0 0-3.612-3.597c-10.726 0-19.453 8.903-19.453 19.848a3.604 3.604 0 0 0 3.61 3.597 3.604 3.604 0 0 0 3.612-3.597c0-6.977 5.488-12.652 12.231-12.652zM99 28.331c0 15.755-11.442 30.118-26.26 33.923l4.285 6.293a1.732 1.732 0 0 1-1.24 2.691l-6.403.728-2.021 3.563c-.994 1.754-1.27 3.691-.772 5.452.415 1.474 1.362 2.685 2.668 3.41 4.514 2.513 6.002 8.35 3.385 13.296a1.739 1.739 0 0 1-2.345.723 1.724 1.724 0 0 1-.725-2.337c1.758-3.323.894-7.045-2.008-8.659-2.118-1.179-3.651-3.13-4.318-5.496-.748-2.655-.36-5.528 1.093-8.092l.78-1.377-3.902.445a1.74 1.74 0 0 1-1.653-.776 1.724 1.724 0 0 1-.04-1.82l4.194-7.117c-5.471-.252-10.598-2.01-14.9-5.179-4.033 4.72-9.371 8.288-15.368 9.894l3.623 5.321c.34.502.395 1.144.14 1.695a1.74 1.74 0 0 1-1.38.996l-5.532.629-1.724 3.043c-.848 1.498-1.083 3.145-.662 4.641.351 1.244 1.15 2.266 2.25 2.876 4.074 2.268 5.42 7.529 3.062 11.981a1.74 1.74 0 0 1-2.346.721 1.728 1.728 0 0 1-.725-2.337c1.494-2.823.77-5.978-1.684-7.342a8.167 8.167 0 0 1-3.9-4.963c-.672-2.39-.323-4.975.982-7.28l.486-.857-3.029.344a1.74 1.74 0 0 1-1.653-.775 1.724 1.724 0 0 1-.04-1.82l3.517-5.965c-5.47-.327-10.537-2.363-14.586-5.965C4.93 58.107 2 51.321 2 43.726 2 28.46 14.125 14.661 29.028 12.97c5.225-.593 10.231.375 14.565 2.696C49.153 7.344 58.071 1.335 68.108.196c8.11-.92 15.783 1.421 21.599 6.595C95.7 12.121 99 19.773 99 28.331zM69.693 10.943a3.605 3.605 0 0 1 3.611 3.599 3.604 3.604 0 0 1-3.61 3.597c-7.934 0-14.39 6.669-14.39 14.864a3.605 3.605 0 0 1-3.611 3.599 3.605 3.605 0 0 1-3.61-3.599c0-12.165 9.694-22.06 21.61-22.06z" fill="#134B45" fill-rule="evenodd"/></svg>