<svg xmlns="http://www.w3.org/2000/svg" width="100" height="100" fill="none"><path fill="#000" fill-rule="evenodd" d="M77.883 53.262 54.08 79.447V11.03C54.08 8.806 52.253 7 50 7c-2.255 0-4.081 1.806-4.081 4.03v69.983L21.787 59.896a4.117 4.117 0 0 0-5.761.343 3.997 3.997 0 0 0 .348 5.69l30.92 27.057c.07.06.147.103.219.158.099.077.196.153.303.22.12.076.246.138.373.2.1.05.197.103.303.143.151.06.305.1.46.141.092.024.18.057.273.074.256.048.514.078.773.078h.001c.284 0 .562-.03.83-.085.018-.004.033-.012.049-.016.254-.055.5-.13.734-.23.074-.03.142-.077.214-.114.173-.086.344-.173.502-.282.08-.055.152-.126.23-.186.14-.115.279-.229.404-.36.022-.025.051-.04.073-.065l30.921-34.016a3.996 3.996 0 0 0-.311-5.692 4.116 4.116 0 0 0-5.762.308Z" clip-rule="evenodd"/></svg>