<svg width="100" height="100" xmlns="http://www.w3.org/2000/svg"><path d="m52.275 58.086 4.231 3.714a2.371 2.371 0 0 0 3.327-.199 2.321 2.321 0 0 0-.2-3.3l-8.153-7.157c-.035-.032-.077-.052-.114-.082a2.51 2.51 0 0 0-.207-.148 2.688 2.688 0 0 0-.194-.103 1.833 1.833 0 0 0-.435-.164 2.042 2.042 0 0 0-.217-.05 2.276 2.276 0 0 0-.25-.026c-.049-.003-.096-.015-.146-.015-.023 0-.044.007-.067.007a2.204 2.204 0 0 0-.247.025c-.073.01-.145.016-.217.034a1.83 1.83 0 0 0-.215.065c-.073.025-.147.047-.216.077s-.132.069-.195.106c-.069.037-.138.073-.201.119-.06.04-.112.09-.167.136-.064.053-.127.105-.183.164-.014.016-.033.027-.048.043l-8.15 9a2.32 2.32 0 0 0 .18 3.299c.45.4 1.014.598 1.574.598.648 0 1.29-.261 1.757-.776l4.037-4.457v13.39L9.716 76.659V32.44l37.843-4.274v11.063l-4.196-3.684a2.374 2.374 0 0 0-3.328.2 2.321 2.321 0 0 0 .2 3.298l7.928 6.962a2.35 2.35 0 0 0 1.754.788c.012 0 .023-.003.032-.003l.018-.003c.147-.002.291-.014.428-.044.49-.092.954-.335 1.312-.73l8.15-8.998c.87-.962.79-2.439-.18-3.3a2.373 2.373 0 0 0-3.331.178l-4.07 4.496V27.633l38.008-4.291v44.22l-38.009 4.291V58.086zM94.212 9.593a2.367 2.367 0 0 0-1.837-.579l-85.284 9.63A2.345 2.345 0 0 0 5 20.966v67.697c0 .666.287 1.3.788 1.744a2.365 2.365 0 0 0 1.837.578l85.284-9.63A2.345 2.345 0 0 0 95 79.034V11.337c0-.667-.287-1.301-.788-1.744z" fill="#134B45" fill-rule="evenodd"/></svg>