<svg width="100" height="100" xmlns="http://www.w3.org/2000/svg"><path d="M84.04 69.185c-2.357.27-4.55-.386-6.177-1.84-1.608-1.439-2.495-3.511-2.495-5.838 0-5.079 4.132-9.682 9.21-10.26.346-.04.69-.06 1.027-.06 1.962 0 3.762.659 5.15 1.9 1.61 1.437 2.495 3.511 2.495 5.838 0 5.078-4.132 9.681-9.21 10.26m-35.033 3.999c-2.348.266-4.549-.385-6.177-1.842-1.61-1.438-2.496-3.512-2.496-5.837 0-2.033.67-3.985 1.789-5.636.006-.01.017-.017.024-.027.007-.01.01-.023.018-.034 1.681-2.446 4.358-4.22 7.379-4.565.346-.04.688-.058 1.027-.058 1.96 0 3.76.657 5.15 1.9 1.608 1.437 2.496 3.511 2.496 5.838 0 5.077-4.132 9.682-9.21 10.26m44.911-23.645c-2.012-1.8-4.52-2.845-7.235-3.062a2.291 2.291 0 0 0-.462-.423L65.588 32.117c-4.641-3.136-8.15-2.104-9.832-1.21-3.046 1.623-4.866 5.251-4.866 9.708v1.914a2.377 2.377 0 0 0 2.375 2.379 2.377 2.377 0 0 0 2.375-2.379v-1.914c0-2.667.878-4.726 2.346-5.507 1.277-.68 3.033-.343 4.946.951L80.016 47.6c-3.408 1.465-6.228 4.195-7.863 7.505a18.507 18.507 0 0 0-5.63-.213c-1.848.21-3.676.693-5.371 1.392a11.997 11.997 0 0 0-2.268-2.747c-2.651-2.37-6.156-3.44-9.877-3.018-3.603.41-6.87 2.22-9.282 4.819L16.699 39.783c-4.64-3.135-8.153-2.103-9.833-1.208C3.82 40.196 2 43.825 2 48.28v1.915a2.377 2.377 0 0 0 2.375 2.378 2.377 2.377 0 0 0 2.375-2.378V48.28c0-2.667.876-4.724 2.344-5.507 1.275-.678 3.033-.342 4.95.951l23.002 15.54c-.927 1.932-1.461 4.053-1.461 6.24 0 3.7 1.449 7.033 4.081 9.386C41.94 76.922 44.84 78 47.963 78c.521 0 1.05-.03 1.581-.091 7.401-.844 13.422-7.567 13.422-14.986 0-.74-.074-1.46-.187-2.164a15.347 15.347 0 0 1 4.281-1.143c1.276-.144 2.53-.12 3.695.06a13.696 13.696 0 0 0-.137 1.83c0 3.701 1.451 7.035 4.082 9.388 2.273 2.03 5.174 3.108 8.296 3.108.522 0 1.05-.03 1.582-.09C91.979 73.067 98 66.345 98 58.925c0-3.7-1.45-7.035-4.082-9.387" fill-rule="evenodd" fill="#134B45"/></svg>