<svg xmlns="http://www.w3.org/2000/svg" width="100" height="100" fill="none"><path fill="#000" fill-rule="evenodd" d="m63.272 61.662-4.044 1.315a2.375 2.375 0 0 0-1.611 1.903L53.88 89.203l-6.845.786-3.656-22.948a2.37 2.37 0 0 0-2.11-1.996l-3.541-.338v-8.07c0-7.245 5.849-13.81 13.039-14.637 3.386-.391 6.544.565 8.896 2.684 2.327 2.094 3.61 5.104 3.61 8.473v8.505Zm-.46-20.537c-3.373-3.035-7.836-4.406-12.58-3.862C40.73 38.354 33 47.046 33 56.637v10.24c0 1.23.927 2.258 2.142 2.374l3.86.367 3.724 23.377a2.37 2.37 0 0 0 2.601 1.99l10.88-1.25a2.373 2.373 0 0 0 2.069-2.003l3.789-24.668 4.295-1.396A2.379 2.379 0 0 0 68 63.399V53.157c0-4.746-1.843-9.02-5.188-12.032ZM50.767 9.832a9.278 9.278 0 0 1 1.091-.064c2.087 0 4.004.706 5.482 2.038 1.714 1.543 2.658 3.766 2.658 6.259 0 5.423-4.38 10.339-9.766 10.959-2.5.29-4.839-.413-6.574-1.976C41.943 25.506 41 23.284 41 20.791c0-5.423 4.38-10.34 9.766-10.959ZM40.509 30.607c2.36 2.122 5.37 3.249 8.614 3.249.543 0 1.091-.033 1.644-.096 7.697-.884 13.959-7.926 13.959-15.695 0-3.87-1.505-7.357-4.238-9.817-2.753-2.477-6.397-3.595-10.256-3.154-7.698.884-13.96 7.926-13.96 15.697 0 3.87 1.506 7.355 4.237 9.816Z" clip-rule="evenodd"/></svg>