<svg xmlns="http://www.w3.org/2000/svg" width="100" height="100" fill="none"><path fill="#000" fill-rule="evenodd" d="M63.885 41.476a2.367 2.367 0 0 1-2.09 2.619l-8.637.98a2.372 2.372 0 0 1-2.63-2.082 2.367 2.367 0 0 1 2.091-2.619l8.636-.982a2.372 2.372 0 0 1 2.63 2.084Zm20.332-4.642L72.834 35.8a2.384 2.384 0 0 0-1.818.608 2.365 2.365 0 0 0-.773 1.748v40.233l-40.486 4.594V43.288a2.36 2.36 0 0 0-.974-1.91 2.392 2.392 0 0 0-2.124-.344l-11.085 3.523-4.209-11.004 23.302-11.461c1.85 7.441 7.199 11.99 13.877 11.99.566 0 1.142-.034 1.725-.1 7.223-.819 13.138-6.66 15.071-14.878a2.33 2.33 0 0 0 .048-.668l23.146 6.133-4.317 12.265ZM60.21 19.757c-1.804 5.319-5.773 8.99-10.48 9.523-4.773.552-8.622-2.312-10.212-7.489C46.15 23.731 53.562 23 60.21 19.757Zm33.514 2.075a2.376 2.376 0 0 0-1.488-1.18l-28.585-7.573a2.388 2.388 0 0 0-1.966.343c-7.351 5.084-16.442 6.14-23.721 2.758a2.389 2.389 0 0 0-2.057.023L7.324 30.263a2.362 2.362 0 0 0-1.168 2.964l5.777 15.108a2.374 2.374 0 0 0 2.943 1.411l10.13-3.219v39.107c0 .673.288 1.316.793 1.764a2.382 2.382 0 0 0 1.852.586l45.236-5.133a2.37 2.37 0 0 0 2.107-2.35V40.746l10.636.968a2.369 2.369 0 0 0 2.457-1.574l5.78-16.419a2.361 2.361 0 0 0-.143-1.89Z" clip-rule="evenodd"/></svg>