<svg xmlns="http://www.w3.org/2000/svg" width="100" height="100"><path fill="#134B45" fill-rule="evenodd" d="M85.38 54.627c.552-2.842-1.998-5.285-4.234-6.833-5.017-3.472-13.095-5.84-22.052-6.862.011 12.293-.042 12.624-.06 12.752-.156.976-.969 2.735-4.682 3.546a16.731 16.731 0 0 1-3.515.357c-2.809 0-5.6-.632-7.209-1.744-1.264-.878-1.607-1.865-1.672-2.54-.053-.539-.057-6.446-.046-12.628-3.307.265-6.56.705-9.643 1.378-11.304 2.464-15.984 6.697-16.594 9.836-.554 2.844 1.997 4.9 4.234 6.448 9.934 6.872 31.86 9.447 48.88 5.74 11.302-2.463 15.982-6.31 16.592-9.45zm-.019 7.737c.028-.4.04-.556.044-1.322-3.548 2.607-8.452 4.713-14.425 6.17-19.157 4.677-44.002 1.31-55.443-7.502-.002 1.257.01 1.978.056 2.654.742 11.178 3.622 13.772 4.825 14.37 1.6.795 2.095.328 3.294-.796 1.12-1.05 2.815-2.644 5.56-1.834 1.755.514 3.24 2.248 4.96 4.254 1.698 1.984 3.623 4.233 5.302 4.458 1.44.194 2.9-1.194 4.446-2.657 1.784-1.688 3.805-3.6 6.475-3.6 2.717 0 4.75 1.916 6.545 3.61 1.548 1.46 3.01 2.84 4.419 2.647 1.677-.226 3.603-2.474 5.301-4.458 1.72-2.006 3.207-3.74 4.961-4.254 2.748-.806 4.526.789 5.704 1.845 1.34 1.204 1.785 1.519 3.1.81 2.806-1.509 4.471-8.317 4.876-14.395zM45.345 28.078c-.035 9.297-.065 22.928-.01 24.756.038.042.106.102.215.176 1.362.943 5.019 1.528 8.085.862 1.26-.275 1.861-.657 2.045-.834.035-1.547.016-15.645-.01-25.224a1.484 1.484 0 0 1-.015-.076 1.218 1.218 0 0 0-.193-.16c-1.366-.944-5.021-1.53-8.086-.862-1.16.252-1.758.595-1.988.785a1.7 1.7 0 0 1-.043.577zm43.51 25.159c.038 2.995.357 29.351-.094 32.214-.89 5.665-7.911 10.331-19.259 12.804C64.071 99.44 58.144 100 52.232 100c-13.472 0-26.88-2.913-34.244-8.01-3.53-2.441-5.466-5.177-5.754-8.132-.27-2.752-.263-10.44-.193-17.286.064-6.224.141-14.539.299-15.346 1.075-5.537 8.077-10.104 19.21-12.53 3.308-.722 6.807-1.185 10.367-1.454.01-3.919.023-7.561.031-9.586 0-.052.003-.105.008-.155a2.948 2.948 0 0 1 .412-1.657c.684-1.164 2.168-2.024 4.291-2.486 3.718-.81 8.43-.202 10.723 1.387.977.675 1.393 1.442 1.556 2.073.083.196.13.41.13.628.01 3.922.017 7.251.022 10.084 9.69 1.076 18.503 3.644 23.976 7.43 4.159 2.88 5.533 5.772 5.756 8.129.006.052.033.096.033.148zM50.503 5.269c-1.65 3.191-3.09 6.32-3.16 7.133.002 1.745 1.417 3.187 3.158 3.187 1.734 0 3.146-1.434 3.154-3.2-.072-.834-1.506-3.948-3.152-7.12zM50.501 19C46.915 19 44 16.027 44 12.372c0-2.038 3.159-8.081 5.042-11.503A1.666 1.666 0 0 1 50.498 0h.003a1.67 1.67 0 0 1 1.455.866C53.473 3.605 57 10.21 57 12.372 57 16.027 54.083 19 50.5 19z"/></svg>