<svg xmlns="http://www.w3.org/2000/svg" width="100" height="100" fill="none"><path fill="#000" d="M61.867 32.699a2.362 2.362 0 0 1-.264-4.71l5.853-.667v-5.835a2.362 2.362 0 0 1 2.363-2.362 2.362 2.362 0 0 1 2.363 2.362v5.297l5.318-.605a2.347 2.347 0 0 1 2.614 2.08 2.363 2.363 0 0 1-2.08 2.615l-5.852.665v5.837a2.363 2.363 0 0 1-4.726 0v-5.298l-5.317.606a2.52 2.52 0 0 1-.272.015ZM38.191 68.186l-4.662 5.193 4.47 3.959a2.362 2.362 0 1 1-3.133 3.536l-4.494-3.98-4.683 5.214a2.351 2.351 0 0 1-1.76.784 2.361 2.361 0 0 1-1.758-3.94l4.663-5.191-4.47-3.96a2.362 2.362 0 0 1-.202-3.335 2.365 2.365 0 0 1 3.335-.202l4.494 3.98 4.683-5.214a2.363 2.363 0 0 1 3.517 3.156ZM22.953 37.147a2.361 2.361 0 1 1-.535-4.695l14.991-1.707a2.362 2.362 0 1 1 .536 4.695l-14.992 1.707Z"/><path fill="#000" d="M91.21 5.6c.502.448.79 1.089.79 1.762V86.61c0 1.2-.902 2.211-2.096 2.346l-39.636 4.515h-.005L10.63 97.985a2.358 2.358 0 0 1-1.84-.585A2.363 2.363 0 0 1 8 95.639V16.39c0-1.2.902-2.21 2.096-2.346L89.37 5.015a2.356 2.356 0 0 1 1.84.585Zm-3.936 39.277V10.008l-34.912 3.977v34.869l34.912-3.977Zm-39.638 9.27-34.91 3.976v34.87l34.91-3.977V54.148Zm13.61 23.384 17.68-2.014a2.36 2.36 0 0 0 2.08-2.614 2.346 2.346 0 0 0-2.614-2.08L60.71 72.837a2.362 2.362 0 1 0 .536 4.695Zm0-10.27 17.68-2.015a2.36 2.36 0 0 0 2.08-2.614 2.345 2.345 0 0 0-2.614-2.08L60.71 62.568a2.36 2.36 0 1 0 .536 4.693Zm-13.61-17.869V14.523L12.726 18.5v34.868l34.91-3.976Z"/></svg>