<svg width="100" height="100" xmlns="http://www.w3.org/2000/svg"><path d="m89.36 6-36.54 4.18v36.65l36.54-4.18V6zM83.3 61.86a2.82 2.82 0 0 0-3.12-2.49l-18.82 2.15a2.83 2.83 0 0 0-2.48 3.13 2.82 2.82 0 0 0 3.12 2.5l18.82-2.16a2.82 2.82 0 0 0 2.48-3.13zm0 10.98a2.82 2.82 0 0 0-3.12-2.5L61.36 72.5a2.83 2.83 0 0 0-2.48 3.13 2.82 2.82 0 0 0 3.12 2.5l18.82-2.16a2.82 2.82 0 0 0 2.48-3.13zM47.18 10.82 10.63 15v36.65l36.55-4.18V10.82zm0 42.35-36.55 4.18V94l36.55-4.18V53.17zM95 2.83v84.69a2.82 2.82 0 0 1-2.5 2.81l-42.18 4.83-42.18 4.82a2.8 2.8 0 0 1-2.2-.7A2.83 2.83 0 0 1 5 97.17v-84.7a2.83 2.83 0 0 1 2.5-2.8L91.86.02A2.82 2.82 0 0 1 95 2.82zm-74.63 80.3a2.8 2.8 0 0 0 3.98-.22l4.79-5.34 4.55 4.05a2.81 2.81 0 0 0 3.98-.24 2.84 2.84 0 0 0-.24-4l-4.53-4.02 4.76-5.32a2.83 2.83 0 0 0-.22-4 2.81 2.81 0 0 0-3.98.22l-4.78 5.34-4.55-4.05a2.81 2.81 0 0 0-3.98.24 2.83 2.83 0 0 0 .24 4l4.53 4.02-4.76 5.32a2.84 2.84 0 0 0 .21 4zm42.26-52.92c.1 0 .21 0 .32-.02l5.32-.6v5.32a2.82 2.82 0 0 0 2.82 2.82 2.82 2.82 0 0 0 2.82-2.82v-5.97l5.96-.68a2.82 2.82 0 0 0 2.48-3.13 2.82 2.82 0 0 0-3.12-2.5l-5.32.61v-5.32a2.82 2.82 0 0 0-2.82-2.83 2.82 2.82 0 0 0-2.82 2.83v5.97l-5.96.68a2.83 2.83 0 0 0-2.48 3.13 2.82 2.82 0 0 0 2.8 2.51zm-44.5 2.26a2.83 2.83 0 0 1 2.48-3.13l15.96-1.82A2.82 2.82 0 0 1 39.69 30a2.83 2.83 0 0 1-2.48 3.13l-15.96 1.82a2.82 2.82 0 0 1-3.12-2.49z" fill="#134B45"/></svg>