<svg width="100" height="100" xmlns="http://www.w3.org/2000/svg"><path d="M94.42 36.8v-9.73l-15.76 2.05v9.74l15.77-2.05zM58.46 75.84c10.27-1.17 18.6-10.42 18.6-20.65 0-10.24-8.33-17.6-18.6-16.43-10.27 1.17-18.6 10.41-18.6 20.65 0 10.24 8.33 17.6 18.6 16.43zM27.44 30.62l8.29-1.08-11.11-7.76-15.15 1.97 11.11 7.76 6.86-.9zM17.35 84.16V35.52l-12.2-8.53v48.5l12.2 8.67zM78.99 14.7l-46.81 6.1 11.1 7.76 46.82-6.1-11.11-7.76zm20.57 9.35.01.1V79.1a2.57 2.57 0 0 1-2.24 2.54L20.26 91.69l-.33.02c-.24 0-.48-.04-.7-.1l-.12-.04a2.64 2.64 0 0 1-.62-.3l-.06-.03L1.08 78.9A2.56 2.56 0 0 1 0 76.8V22.07c0-.13.03-.26.06-.4 0-.07 0-.14.02-.2l.01-.04c.06-.24.15-.46.28-.66v-.02c.13-.21.29-.4.47-.56.06-.06.14-.1.2-.15.12-.08.22-.17.34-.24l.07-.02.26-.1c.15-.05.3-.1.45-.12l.08-.03L79.32 9.5a2.58 2.58 0 0 1 1.8.44l17.36 12.12.07.07.15.1.28.3.07.08c.14.18.24.38.33.59l.05.17c.05.17.1.34.11.51l.02.18zm-41.1 19.66C66 42.85 72.1 48.24 72.1 55.74S66 70.02 58.46 70.87c-7.53.86-13.63-4.53-13.63-12.03 0-7.5 6.1-14.28 13.63-15.13zm3.65 14.2a5.19 5.19 0 0 0 4.52-5.02 3.95 3.95 0 0 0-4.52-3.99c-2.5.29-4.51 2.53-4.51 5.02s2.02 4.27 4.51 3.99z" fill="#134B45"/></svg>