<svg xmlns="http://www.w3.org/2000/svg" width="100" height="100" fill="none"><path fill="#000" d="M45.872 58.228c0-7.024 5.7-13.367 12.731-14.167 7.03-.801 12.73 4.245 12.73 11.269s-5.7 13.367-12.73 14.167c-7.032.8-12.73-4.246-12.73-11.269Zm11.921-4.607c0 2.33 1.889 4 4.22 3.736 2.33-.265 4.218-2.369 4.218-4.696 0-2.329-1.889-4.001-4.218-3.737-2.331.267-4.22 2.369-4.22 4.697Z"/><path fill="#000" d="M96.978 25.54c.005.039.01.078.012.117l.005.042a.327.327 0 0 1 .005.05v51.454a2.4 2.4 0 0 1-2.092 2.38L22.92 88.98a2.306 2.306 0 0 1-.31.021 2.421 2.421 0 0 1-.703-.114c-.02-.005-.04-.01-.06-.018a2.462 2.462 0 0 1-.578-.286.14.14 0 0 0-.025-.013c-.01-.004-.02-.008-.03-.015L5.008 77.021A2.403 2.403 0 0 1 4 75.064V23.797c0-.095.017-.186.035-.278l.017-.097a.637.637 0 0 0 .007-.087.508.508 0 0 1 .011-.11l.008-.02a.1.1 0 0 0 .007-.015 2.3 2.3 0 0 1 .256-.619l.003-.009a2.438 2.438 0 0 1 .437-.533c.036-.032.077-.058.117-.084a1.307 1.307 0 0 0 .162-.116 1.57 1.57 0 0 1 .234-.162.118.118 0 0 1 .03-.01l.025-.01a1.16 1.16 0 0 1 .16-.059c.03-.01.06-.019.088-.03.138-.049.274-.096.417-.119a.219.219 0 0 0 .034-.01.23.23 0 0 1 .044-.013l71.99-9.396c.591-.078 1.2.072 1.69.416l16.205 11.347c.014.01.025.022.037.034.01.012.02.023.034.033l.053.037a.634.634 0 0 1 .08.058c.092.078.168.17.244.261l.019.023.032.035a.269.269 0 0 1 .036.039c.127.167.226.353.304.547.02.047.033.094.048.142l.005.019a2.339 2.339 0 0 1 .109.528Zm-8.826-1.371-10.374-7.265-43.724 5.706 10.376 7.264 43.722-5.705ZM8.807 73.826l11.4 8.113V36.394l-11.4-7.981v45.413ZM77.47 39.522l14.724-1.92v-9.118L77.47 30.407v9.115ZM58.603 74.138c9.596-1.093 17.375-9.75 17.375-19.336 0-9.588-7.78-16.475-17.375-15.381-9.595 1.092-17.375 9.75-17.375 19.336 0 9.587 7.78 16.473 17.375 15.38Zm-35.38-41.496 14.147-1.846-10.376-7.264-14.146 1.845 10.376 7.265Z"/></svg>