<svg xmlns="http://www.w3.org/2000/svg" width="100" height="100" fill="none"><path fill="#000" fill-rule="evenodd" d="M14.196 6.878a2.116 2.116 0 0 0-2.856.298 2.133 2.133 0 0 0 .185 3.003L85.04 93.116l.156.126a2.108 2.108 0 0 0 2.835-.313 2.134 2.134 0 0 0-.185-3.004L14.331 6.988l-.135-.11Zm-7.084 13.23c0-.846.452-1.597 1.14-2.013l3.645 4.112-.043.005v13.683c0 1.3-1.061 2.356-2.371 2.356a2.364 2.364 0 0 1-2.371-2.356V20.109ZM31.899 15.2l3.82 4.311 57.539-6.514v65.985l-4.384.496 3.821 4.31 3.202-.362A2.362 2.362 0 0 0 98 81.085v-70.73a2.35 2.35 0 0 0-.793-1.757 2.38 2.38 0 0 0-1.846-.583l-63.462 7.184Zm32.605 67.038.548-.062 3.82 4.31-3.83.433a2.367 2.367 0 0 1-2.624-2.073 2.358 2.358 0 0 1 2.086-2.608Zm-57.401 6.67c0-2.533 2.064-4.822 4.614-5.11 2.55-.288 4.615 1.53 4.615 4.065 0 2.532-2.065 4.82-4.615 5.108-2.55.29-4.614-1.531-4.614-4.064ZM40.1 57.1c-7.895-7.003-18.366-10.163-29.496-8.907-2.229.254-3.832 2.256-3.577 4.472.252 2.216 2.26 3.798 4.498 3.556 8.795-.997 17.019 1.458 23.16 6.905 6.08 5.39 9.428 13.119 9.428 21.758 0 2.23 1.82 4.04 4.065 4.04s4.064-1.81 4.064-4.04c0-10.972-4.312-20.84-12.142-27.784ZM27.593 70.863c-4.559-4.046-10.588-5.873-16.988-5.151-2.23.253-3.832 2.255-3.579 4.47.254 2.217 2.26 3.795 4.5 3.556 4.055-.459 7.846.659 10.655 3.151 2.776 2.463 4.304 6.01 4.304 9.991 0 2.231 1.819 4.04 4.065 4.04 2.245 0 4.064-1.809 4.064-4.04 0-6.313-2.492-12.002-7.02-16.017Z" clip-rule="evenodd"/></svg>