<svg width="100" height="100" xmlns="http://www.w3.org/2000/svg"><path d="M74.886 60.726a3.944 3.944 0 0 1-.808.712l-.1.064c-2.368 1.537-7.523 2.117-16.014-.312-2.909-.832-5.887-1.953-8.832-3.27 1.792-.452 3.336-1.36 4.324-3.136 2.198-3.953-.743-7.837-3.337-11.265-2.514-3.322-4.086-5.638-3.065-7.474.62-1.116 1.927-1.537 3.799-1.646 5.3 2.692 10.333 5.968 14.48 9.411l-4.456 4.358a1.74 1.74 0 0 0 .003 2.503 1.83 1.83 0 0 0 1.28.517c.465 0 .929-.173 1.283-.52l4.578-4.478c2.822 2.66 5.06 5.351 6.386 7.882 1.067 2.034 2.017 4.841.479 6.654zM56.194 72.664a46.084 46.084 0 0 1-5.547-1.383C39.49 67.791 27.32 60.289 20.782 53.258l.042-11.987c4.223 5.8 11.731 11.854 20.233 16.582.108.072.212.137.334.187 5.019 2.761 10.357 5.06 15.554 6.546 3.458.99 6.608 1.537 9.41 1.7l-10.161 6.378zm-18.149 11.39c-6.094-2.42-12.212-5.822-17.337-9.518l.035-10.11c6.833 5.666 16.461 11.07 25.433 13.875.242.077.469.136.706.207l-8.837 5.546zm-17.41 10.928.038-10.46a84.376 84.376 0 0 0 8.939 4.827l-8.977 5.633zm.968-65.067c1.018-1.199 3.255-2.109 6.88-2.109.637 0 1.319.031 2.042.09v10.338c0 .978.81 1.769 1.813 1.769 1 0 1.812-.791 1.812-1.77v-9.811c1.356.256 2.789.576 4.374 1.029 2.454.702 4.958 1.618 7.45 2.675a6.037 6.037 0 0 0-2.106 2.23c-2.199 3.954.74 7.838 3.336 11.266 2.515 3.322 4.087 5.638 3.064 7.472-.974 1.757-3.63 1.809-7.556 1.587-9.352-5.227-17.49-12.12-20.632-18.11-1.066-2.036-2.014-4.841-.477-6.656zM70.58 43.687 83.47 31.08a1.74 1.74 0 0 0-.003-2.503 1.845 1.845 0 0 0-2.564.003L67.905 41.295c-2.793-2.347-5.96-4.604-9.345-6.678 3.298-.006 6.446-.597 8.079-3.533 2.2-3.954-.741-7.838-3.334-11.267-2.516-3.324-4.088-5.64-3.066-7.477.862-1.546 3.1-1.615 6.674-1.574.507.008 1.018.015 1.528.015 1.002 0 1.813-.792 1.813-1.769 0-.978-.81-1.77-1.813-1.77-.493 0-.986-.006-1.473-.013-3.727-.061-7.945-.116-9.914 3.422-2.199 3.955.74 7.84 3.335 11.268 2.514 3.324 4.086 5.638 3.064 7.475-1.02 1.837-3.866 1.81-8.09 1.56-1.2-.07-2.44-.142-3.659-.127-3.995-1.97-8.122-3.615-12.16-4.77a51.111 51.111 0 0 0-5.394-1.249V1.77c0-.979-.812-1.77-1.812-1.77-1.002 0-1.813.791-1.813 1.77v22.597c-5.43-.388-9.534.719-11.715 3.292-1.005 1.186-1.877 3.008-1.584 5.622L17 98.225c0 .052.025.098.029.147.009.12.035.23.07.346.036.117.075.226.134.334.024.044.027.093.054.136.055.082.125.148.192.22.026.03.046.061.075.09.148.14.318.247.499.33.04.018.084.03.127.047.198.073.402.12.614.122.004 0 .007.003.011.003h.009c.21 0 .42-.05.622-.123.061-.02.115-.048.173-.077.06-.028.124-.043.184-.08l56.093-35.208c.054-.034.106-.065.157-.1l.091-.057c.023-.014.035-.038.058-.054a7.643 7.643 0 0 0 1.486-1.319c1.543-1.819 2.789-5.12-.043-10.522-1.495-2.85-3.962-5.843-7.055-8.773z" fill="#134B45" fill-rule="evenodd"/></svg>