<svg xmlns="http://www.w3.org/2000/svg" width="100" height="100" fill="none"><path fill="#000" fill-rule="evenodd" d="M96.094 44.875c-2.177 3.14-2.52 7.11-.882 10.25 2.491 4.77.304 11.04-4.778 13.7-3.336 1.75-5.582 5.19-5.788 8.88-.314 5.61-5.21 10.2-10.703 10.03-3.62-.11-7.162 1.88-9.153 5.13-3.032 4.94-9.34 6.62-13.764 3.67-2.914-1.94-6.808-1.94-10.056 0-4.934 2.96-10.948 1.28-13.126-3.67-1.432-3.26-4.64-5.24-8.27-5.13-5.513.18-9.624-4.42-8.976-10.03.431-3.69-1.226-7.13-4.268-8.88-4.62-2.65-5.729-8.93-2.423-13.7 2.178-3.14 2.521-7.11.883-10.25-2.492-4.77-.304-11.04 4.778-13.7 3.335-1.75 5.582-5.19 5.788-8.88.314-5.61 5.21-10.2 10.703-10.03 3.61.11 7.161-1.88 9.153-5.13 3.031-4.94 9.34-6.62 13.764-3.67 2.913 1.94 6.808 1.94 10.055 0 4.935-2.96 10.949-1.28 13.126 3.67 1.433 3.26 4.64 5.24 8.27 5.13 5.514-.18 9.624 4.42 8.977 10.03-.432 3.69 1.226 7.13 4.267 8.88 4.62 2.65 5.73 8.93 2.423 13.7ZM73.253 30.16a4.511 4.511 0 0 0-6.387.35L39.574 61.02 32.1 54.38l-.177-.15a4.503 4.503 0 0 0-6.21.53c-1.668 1.89-1.5 4.78.383 6.45l10.84 9.62.196.17a4.48 4.48 0 0 0 2.796.98c1.276 0 2.492-.54 3.365-1.51l30.304-33.86.147-.17c1.52-1.88 1.325-4.65-.49-6.28Z" clip-rule="evenodd"/></svg>