<svg width="100" height="100" xmlns="http://www.w3.org/2000/svg"><path d="M29.028 61.293l.21.181a5.806 5.806 0 0 1 0 8.499c-2.404 2.274-6.254 2.274-8.447.181L1.819 55.249C.543 54.039-.083 52.387.01 51.007c-.092-1.693.534-3.346 2.022-4.738l18.55-14.541c2.403-2.274 6.253-2.274 8.657 0 2.466 2.333 2.466 6.165-.21 8.68L15.724 50.85l13.304 10.443zM75.61 16.314L36.39 89.677c-1.64 2.705-4.405 3.352-7.705 2.425-3.703-1.042-4.751-5.399-2.988-8.299l39.22-73.362c1.706-2.815 5.43-3.767 8.346-2.164 2.976 1.63 4.01 5.305 2.347 8.037zm-4.848 23.91a5.806 5.806 0 0 1 0-8.5c2.403-2.273 6.253-2.273 8.447-.18L97.966 46.27l.211.182c1.275 1.209 1.906 2.862 1.814 4.238.092 1.693-.534 3.346-2.022 4.739L79.419 69.97c-2.403 2.274-6.253 2.274-8.656 0-2.467-2.334-2.467-6.165.21-8.68l13.305-10.444-13.515-10.622z" fill="#134B45"/></svg>