<svg xmlns="http://www.w3.org/2000/svg" width="100" height="100" fill="none"><path fill="#000" fill-rule="evenodd" d="M63.319 11.125a2.395 2.395 0 0 0-3.031 1.492L34.744 87.866a2.372 2.372 0 0 0 1.5 3.01c.255.085.512.124.766.124.998 0 1.93-.626 2.266-1.617L64.82 14.135a2.374 2.374 0 0 0-1.502-3.01Zm33.875 31.81L75.257 23.628a2.402 2.402 0 0 0-3.375.202 2.362 2.362 0 0 0 .204 3.353l20.135 17.722L71.892 67.4a2.363 2.363 0 0 0 .182 3.354 2.392 2.392 0 0 0 1.596.608 2.39 2.39 0 0 0 1.78-.788L97.389 46.3a2.374 2.374 0 0 0 .608-1.724 2.359 2.359 0 0 0-.802-1.642ZM25.549 30.002a2.402 2.402 0 0 1 3.377-.18 2.363 2.363 0 0 1 .182 3.354L8.779 55.67l20.135 17.72c.99.87 1.08 2.372.205 3.353a2.393 2.393 0 0 1-1.792.801 2.385 2.385 0 0 1-1.584-.598L3.806 57.64a2.366 2.366 0 0 1-.193-3.365L25.55 30.001Z" clip-rule="evenodd"/></svg>