<svg width="100" height="100" xmlns="http://www.w3.org/2000/svg"><path d="M52.29 16.16a2.55 2.55 0 0 1 .73-3.53 2.53 2.53 0 0 1 3.51.73l.7 1.06a11.46 11.46 0 0 1 1.08 10.43l-1.22 3.11a2.54 2.54 0 0 1-3.29 1.44 2.55 2.55 0 0 1-1.43-3.3l1.21-3.1a6.35 6.35 0 0 0-.6-5.78l-.7-1.06zm-27.57 0a2.55 2.55 0 0 1 .73-3.53 2.53 2.53 0 0 1 3.52.73l.7 1.06a11.47 11.47 0 0 1 1.08 10.43l-1.22 3.11a2.54 2.54 0 0 1-3.29 1.44 2.55 2.55 0 0 1-1.44-3.3l1.22-3.1a6.35 6.35 0 0 0-.6-5.78l-.7-1.06zm14.05-1.28a11.45 11.45 0 0 1-1-10.62l1.1-2.68A2.54 2.54 0 0 1 42.18.19a2.55 2.55 0 0 1 1.38 3.33l-1.1 2.69a6.34 6.34 0 0 0 .56 5.87l.7 1.06a11.47 11.47 0 0 1 1.07 10.44l-1.2 3.1a2.54 2.54 0 0 1-3.3 1.45 2.55 2.55 0 0 1-1.44-3.3l1.22-3.11a6.35 6.35 0 0 0-.6-5.78l-.7-1.06zm36.26 62.09a35.74 35.74 0 0 0 2.37-12.8V53.11a12.07 12.07 0 0 1-2.37 23.85zM41.7 94.9a30.71 30.71 0 0 1-30.62-30.74v-7.29a24.24 24.24 0 0 0 3.02 1.84l.31.16a37.02 37.02 0 0 0 1.7.8h.03c5.75 2.52 13.49 4.1 21.97 4.45l.65.02c.33.01.66.03 1 .03.64.02 1.3.03 1.94.03a86.8 86.8 0 0 0 1.95-.03l.99-.03.64-.02c8.5-.35 16.23-1.93 21.98-4.44l.03-.02a33.89 33.89 0 0 0 1.7-.8l.3-.15a24.31 24.31 0 0 0 3.03-1.84v7.3A30.71 30.71 0 0 1 41.7 94.9zm0-56.95c18.97 0 30.62 6.16 30.62 10.57 0 1.1-.72 2.29-2.07 3.47-6.59-3.78-17.05-6.02-28.55-6.02S19.74 48.21 13.15 52c-1.35-1.18-2.07-2.38-2.07-3.47 0-4.41 11.65-10.57 30.62-10.57zm35.66 10c-.67-9.81-18.68-15.1-35.66-15.1-17.3 0-35.7 5.5-35.7 15.68v15.64A35.8 35.8 0 0 0 41.7 100a35.69 35.69 0 0 0 30.9-17.93h2.3a17.15 17.15 0 0 0 2.46-34.12z" fill="#134B45"/></svg>