<svg xmlns="http://www.w3.org/2000/svg" width="100" height="100" fill="none"><path fill="#000" d="M45.623 32.88c15.989 0 32.951 4.972 33.592 14.194C86.998 48.204 93 54.914 93 63.019c0 8.894-7.222 16.132-16.1 16.132h-2.174C68.904 89.21 58.044 96 45.623 96 27.085 96 12 80.888 12 62.314v-14.7c0-9.57 17.324-14.734 33.623-14.734Zm0 4.793c-17.867 0-28.839 5.79-28.839 9.94 0 1.025.675 2.149 1.95 3.26 6.206-3.558 16.065-5.656 26.89-5.656 10.826 0 20.684 2.098 26.89 5.657 1.275-1.112 1.949-2.236 1.949-3.26 0-4.151-10.972-9.941-28.84-9.941Zm33.624 24.64c0 4.24-.793 8.297-2.228 12.038 6.185-.064 11.197-5.12 11.197-11.332 0-5.446-3.852-10.005-8.97-11.09v10.385Zm-62.463 0c0 15.933 12.937 28.894 28.84 28.894 15.901 0 28.839-12.961 28.839-28.893V55.46a22.89 22.89 0 0 1-2.847 1.727l-.14.07-.057.029a35.362 35.362 0 0 1-1.722.81c-5.416 2.368-12.701 3.847-20.698 4.174-.203.01-.406.018-.608.025l-.243.007a81.879 81.879 0 0 1-2.525.044c-.61 0-1.22-.01-1.833-.024-.234-.005-.467-.013-.7-.02h-.001l-.23-.007a46.61 46.61 0 0 1-.614-.025c-7.994-.327-15.276-1.806-20.696-4.174l-.03-.012a34.877 34.877 0 0 1-1.595-.75l-.085-.043c-.071-.035-.143-.07-.212-.107a22.844 22.844 0 0 1-2.843-1.724v6.854Zm26.085-46.322a10.746 10.746 0 0 1-.949-9.983l1.038-2.523a2.39 2.39 0 0 1 3.122-1.303 2.398 2.398 0 0 1 1.3 3.128l-1.037 2.522a5.948 5.948 0 0 0 .523 5.526l.655.995a10.763 10.763 0 0 1 1.017 9.81l-1.143 2.922a2.394 2.394 0 0 1-3.1 1.357 2.398 2.398 0 0 1-1.353-3.106l1.143-2.921a5.96 5.96 0 0 0-.562-5.428l-.655-.997Zm12.727 1.197a2.398 2.398 0 0 1 .688-3.318 2.389 2.389 0 0 1 3.311.687l.654.998a10.754 10.754 0 0 1 1.017 9.808l-1.142 2.922a2.393 2.393 0 0 1-3.1 1.356 2.397 2.397 0 0 1-1.353-3.106l1.143-2.92a5.96 5.96 0 0 0-.563-5.43l-.655-.997ZM30.319 13.87a2.397 2.397 0 0 0-.684 3.318l.654.997a5.956 5.956 0 0 1 .563 5.428l-1.142 2.921a2.395 2.395 0 0 0 2.226 3.272 2.39 2.39 0 0 0 2.226-1.522l1.144-2.922a10.764 10.764 0 0 0-1.02-9.81l-.654-.997a2.39 2.39 0 0 0-3.313-.685Z"/></svg>