<svg width="100" height="100" xmlns="http://www.w3.org/2000/svg"><path d="m77.174 32.866-53.426 6.07a4.048 4.048 0 0 1-4.487-3.558 4.043 4.043 0 0 1 3.57-4.472l53.425-6.07a4.047 4.047 0 0 1 4.487 3.559 4.043 4.043 0 0 1-3.57 4.47m0 21.77-53.425 6.069a4.05 4.05 0 0 1-4.487-3.556 4.044 4.044 0 0 1 3.57-4.473l53.425-6.068a4.046 4.046 0 0 1 4.487 3.558 4.041 4.041 0 0 1-3.57 4.47M96.315.897a3.53 3.53 0 0 0-2.762-.875L5.645 10.008A3.54 3.54 0 0 0 2.5 13.522v69.704a3.53 3.53 0 0 0 1.186 2.637 3.53 3.53 0 0 0 2.764.877l26.519-3.013L47.43 98.9a3.556 3.556 0 0 0 2.572 1.1c.057 0 .114-.002.172-.004a3.556 3.556 0 0 0 2.623-1.356L67.56 79.797l26.797-3.043A3.541 3.541 0 0 0 97.5 73.24V3.535A3.531 3.531 0 0 0 96.314.898" fill="#134B45" fill-rule="evenodd"/></svg>