<svg width="100" height="100" xmlns="http://www.w3.org/2000/svg"><path d="m32.994 78.573-19.247 2.072V13.022l56.274-6.059v26.713c0 1.295 1.063 2.347 2.374 2.347 1.31 0 2.373-1.052 2.373-2.347V4.347c0-.666-.287-1.302-.79-1.747a2.387 2.387 0 0 0-1.841-.586l-61.021 6.57A2.357 2.357 0 0 0 9 10.916v72.346c0 .666.286 1.3.788 1.746a2.387 2.387 0 0 0 1.842.586l21.878-2.357c1.303-.139 2.245-1.298 2.102-2.586-.14-1.288-1.306-2.217-2.616-2.079m45.348-31.38a2.39 2.39 0 0 1 3.34-.188l9.518 8.337c.473.414.76 1 .796 1.623a2.337 2.337 0 0 1-.603 1.701l-6.84 7.533L62.43 90.562a2.33 2.33 0 0 1-.772.563l-14.59 6.66a2.395 2.395 0 0 1-2.58-.382 2.329 2.329 0 0 1-.666-2.494l5.072-14.998a2.34 2.34 0 0 1 .486-.823l22.122-24.363zM73.46 59.596 53.241 81.86l-3.174 9.386 9.158-4.18 20.2-22.246-5.965-5.225zm-29.62.044a2.352 2.352 0 0 1-1.943 2.564l-.16.023-17.829 1.913a2.43 2.43 0 0 1-.259.013c-1.196 0-2.225-.89-2.357-2.093-.136-1.235.724-2.35 1.943-2.564l.16-.023 17.829-1.913c1.306-.133 2.475.792 2.616 2.08zm10.375-17.118a2.35 2.35 0 0 1-1.945 2.56l-.161.022-28.203 3c-.087.01-.172.015-.256.015-1.198 0-2.228-.893-2.358-2.096a2.35 2.35 0 0 1 1.946-2.562l.16-.022 28.203-3c1.301-.137 2.474.794 2.614 2.083zm7.105-16.848c.136 1.235-.726 2.35-1.945 2.561l-.161.023-35.309 3.755c-.085.01-.17.013-.256.013-1.198 0-2.227-.892-2.357-2.096a2.35 2.35 0 0 1 1.945-2.56l.161-.023 35.309-3.756a2.366 2.366 0 0 1 2.613 2.083z" fill="#134B45" fill-rule="evenodd"/></svg>