<svg xmlns="http://www.w3.org/2000/svg" width="100" height="100" fill="none"><path fill="#000" fill-rule="evenodd" d="M85.501 7.6a2.338 2.338 0 0 0-1.825-.586L61.72 9.542a2.361 2.361 0 0 0-2.079 2.353V84.18c0 .676.286 1.318.784 1.768a2.336 2.336 0 0 0 1.826.586l21.954-2.528a2.36 2.36 0 0 0 2.079-2.353V9.367A2.38 2.38 0 0 0 85.5 7.6Zm-3.904 71.938L64.33 81.526V14.009l17.267-1.988v67.517ZM15.08 14.995l21.954-2.528a2.334 2.334 0 0 1 1.826.586 2.38 2.38 0 0 1 .783 1.767v72.284a2.36 2.36 0 0 1-2.078 2.353L15.61 91.984a2.331 2.331 0 0 1-1.827-.586A2.38 2.38 0 0 1 13 89.632V17.348a2.36 2.36 0 0 1 2.079-2.353Zm2.608 71.983 17.268-1.988V17.474l-17.268 1.988v67.516Z" clip-rule="evenodd"/></svg>