<svg width="100" height="100" xmlns="http://www.w3.org/2000/svg"><path d="m82.55 23.87-8.43.96v8.44a2.52 2.52 0 0 1-2.52 2.53 2.52 2.52 0 0 1-2.51-2.53v-7.86l-7.86.9a2.52 2.52 0 0 1-2.8-2.23 2.52 2.52 0 0 1 2.22-2.79l8.44-.96v-8.44a2.52 2.52 0 0 1 2.51-2.52 2.52 2.52 0 0 1 2.52 2.52v7.86l7.86-.9a2.52 2.52 0 0 1 2.8 2.23 2.52 2.52 0 0 1-2.23 2.8zm-32.92 41.7c-.28.42-.42.9-.42 1.4v19.66l-8.33 5.95v-24.9a2.54 2.54 0 0 0-.52-1.54L13.23 30.78l36.07-4.12c.42 5.3 2.7 10.03 6.53 13.46a19.57 19.57 0 0 0 7.82 4.27L49.63 65.57zM87.38 5.04C83.08 1.2 77.37-.54 71.32.14 60.24 1.42 51.06 10.7 49.48 21.57l-41.25 4.7A2.52 2.52 0 0 0 6.2 27.8a2.53 2.53 0 0 0 .32 2.52l29.32 38.23v28.94c0 .94.53 1.8 1.37 2.24a2.51 2.51 0 0 0 2.61-.19L53.2 90a2.53 2.53 0 0 0 1.06-2.05V67.73L69.2 45.16h.12c.85 0 1.71-.05 2.58-.15C84.1 43.62 94 32.54 94 20.31c0-6.03-2.35-11.45-6.62-15.27z" fill="#134B45"/></svg>