<svg width="100" height="100" xmlns="http://www.w3.org/2000/svg"><path d="M42.607 68.522a2.338 2.338 0 0 1-2.05 2.59l-19.652 2.25a2.333 2.333 0 0 1-2.578-2.061 2.337 2.337 0 0 1 2.051-2.59l19.65-2.25a2.323 2.323 0 0 1 2.579 2.06M57.25 57.307a2.338 2.338 0 0 1-2.05 2.59l-34.296 3.926a2.333 2.333 0 0 1-2.578-2.061 2.337 2.337 0 0 1 2.051-2.59l34.295-3.927a2.33 2.33 0 0 1 2.578 2.062m29.015 17.617-73.06 8.363c-1.244.142-2.402-.198-3.25-.959-.835-.749-1.296-1.84-1.296-3.071V51.605l82.68-9.465v27.119c0 2.755-2.325 5.349-5.074 5.664M13.734 25.075l73.06-8.362a4.68 4.68 0 0 1 .552-.032c1.031 0 1.975.342 2.697.99.836.75 1.297 1.84 1.297 3.072v4.863L8.66 35.072V30.74c0-2.755 2.323-5.35 5.074-5.665M93.145 14.18c-1.85-1.661-4.29-2.409-6.88-2.117l-73.058 8.361C8.044 21.014 4 25.546 4 30.74v48.515c0 2.584 1.013 4.915 2.852 6.565C8.442 87.244 10.464 88 12.64 88c.36 0 .727-.021 1.094-.063l73.06-8.363C91.955 78.984 96 74.453 96 69.26V20.743c0-2.583-1.013-4.915-2.855-6.564" fill="#134B45" fill-rule="evenodd"/></svg>