<svg width="100" height="100" xmlns="http://www.w3.org/2000/svg"><path d="M44.96 10.011C34.688 12.7 25.24 19.135 18.635 28.195 11.337 38.206 8.27 50.433 10.224 61.74c1.68 9.725 6.928 18.03 14.782 23.387C42.7 97.2 68.622 91.214 82.788 71.781a48.18 48.18 0 0 0 4.434-7.363c-12.686 9.234-29.216 10.381-41.502 2-7.086-4.834-11.817-12.304-13.325-21.036-1.718-9.954.95-20.678 7.324-29.419a42.789 42.789 0 0 1 5.24-5.952M45.717 96c-8.254 0-16.354-2.27-23.33-7.029-8.903-6.073-14.85-15.463-16.745-26.44-2.165-12.54 1.202-26.055 9.237-37.078C24.185 12.687 38.684 4.668 53.661 4.005c1.082-.07 2.032.64 2.334 1.668a2.327 2.327 0 0 1-1.063 2.667c-4.497 2.618-8.352 6.105-11.458 10.364-5.634 7.731-8.003 17.166-6.497 25.886 1.29 7.48 5.327 13.865 11.362 17.984 12.835 8.755 31.143 5.384 42.578-7.847a2.327 2.327 0 0 1 2.835-.54 2.328 2.328 0 0 1 1.176 2.637c-1.61 6.323-4.43 12.277-8.384 17.7C76.437 88.389 60.825 95.999 45.717 96" fill="#134B45" fill-rule="evenodd"/></svg>