<svg xmlns="http://www.w3.org/2000/svg" width="100" height="100" fill="none"><path fill="#000" fill-rule="evenodd" d="M73.528 77.997a5.039 5.039 0 0 0 3.376 1.296 5.067 5.067 0 0 0 3.817-1.735c1.863-2.134 1.668-5.393-.437-7.283l-23.067-20.69 23.48-26.48c1.878-2.122 1.706-5.381-.39-7.285a5.047 5.047 0 0 0-7.193.395l-23.523 26.53-23.119-20.736a5.052 5.052 0 0 0-7.193.436c-1.863 2.133-1.668 5.393.437 7.282l23.067 20.691-23.48 26.48c-1.878 2.118-1.706 5.38.39 7.282a5.02 5.02 0 0 0 3.4 1.32 5.06 5.06 0 0 0 3.793-1.712L50.409 57.26l23.119 20.736Z" clip-rule="evenodd"/></svg>