<svg xmlns="http://www.w3.org/2000/svg" width="100" height="100" fill="none"><path fill="#000" fill-rule="evenodd" d="M95 27.385c0-1-.589-1.908-1.509-2.325-.918-.418-2-.269-2.767.385l-6.903 5.868-8.514-13.09a2.593 2.593 0 0 0-1.806-1.15 2.594 2.594 0 0 0-2.062.595l-10.4 8.861-8.987-11.532A2.598 2.598 0 0 0 50.01 14H50a2.6 2.6 0 0 0-2.04.984l-8.867 11.23-9.61-8.514a2.613 2.613 0 0 0-2.036-.636 2.592 2.592 0 0 0-1.825 1.093l-9.269 13.34-7.071-6.048a2.615 2.615 0 0 0-2.769-.392A2.559 2.559 0 0 0 5 27.385V71.39c0 .396.095.788.274 1.142C9.578 81.052 27.97 87 50 87c22.033 0 40.423-5.949 44.725-14.468.18-.354.274-.746.274-1.142V27.385ZM50 81.883c-20.818 0-36.317-5.59-39.823-11.155V64.24c7.407 6.004 22.11 9.918 39.824 9.918s32.416-3.914 39.822-9.918v6.487C86.32 76.294 70.82 81.883 50.001 81.883ZM26.11 46.605 10.177 32.98v22.09c0 6.608 16.355 13.971 39.824 13.971 23.467 0 39.822-7.363 39.822-13.971V32.959l-16.16 13.738a2.59 2.59 0 0 1-1.95.606 2.597 2.597 0 0 1-1.787-.984L49.987 20.733l-20.145 25.51a2.595 2.595 0 0 1-1.79.973 2.623 2.623 0 0 1-1.943-.611ZM50 41.683c-5.668 0-10.278 4.557-10.278 10.16 0 5.602 4.61 10.16 10.278 10.16 5.667 0 10.278-4.558 10.278-10.16 0-5.603-4.61-10.16-10.278-10.16Z" clip-rule="evenodd"/></svg>