<svg width="100" height="100" xmlns="http://www.w3.org/2000/svg"><path d="M38.58 51.5a11.43 11.43 0 0 1 22.84 0 11.43 11.43 0 0 1-22.84 0zM50 85.26c-23.13 0-40.35-6.28-44.25-12.53v-7.28C13.98 72.17 30.32 76.58 50 76.58s36.02-4.4 44.25-11.14v7.28C90.35 78.97 73.13 85.25 50 85.25zM5.75 30.32l17.7 15.3a2.88 2.88 0 0 0 4.15-.4l22.38-28.66L72.14 45.3a2.88 2.88 0 0 0 4.15.43L94.25 30.3v24.83c0 7.43-18.18 15.7-44.25 15.7-26.08 0-44.25-8.27-44.25-15.7v-24.8zM100 24.03a2.87 2.87 0 0 0-1.68-2.6 2.87 2.87 0 0 0-3.07.43l-7.67 6.59-9.46-14.7a2.88 2.88 0 0 0-4.3-.63l-11.55 9.95-9.99-12.95A2.88 2.88 0 0 0 50.01 9H50c-.89 0-1.72.4-2.27 1.1l-9.85 12.62-10.68-9.56a2.88 2.88 0 0 0-4.29.51l-10.3 14.99-7.85-6.8A2.88 2.88 0 1 0 0 24.04v49.42c0 .45.1.9.3 1.29C5.1 84.32 25.52 91 50 91c24.48 0 44.91-6.68 49.7-16.25.2-.4.3-.84.3-1.28V24.03z" fill="#134B45"/></svg>