<svg width="100" height="100" xmlns="http://www.w3.org/2000/svg"><path d="M90.919 23.18c-.013-.048-.028-.094-.043-.142a2.505 2.505 0 0 0-.212-.48c-.018-.034-.033-.068-.054-.101a2.465 2.465 0 0 0-.402-.477c-.012-.011-.02-.028-.033-.04L72.913 6.613c-.013-.011-.027-.016-.04-.027a2.48 2.48 0 0 0-.511-.335c-.046-.022-.093-.038-.139-.056a2.384 2.384 0 0 0-.465-.14c-.055-.011-.105-.024-.16-.03a2.524 2.524 0 0 0-.584-.013L11.17 12.845A2.451 2.451 0 0 0 9 15.282v77.266a2.446 2.446 0 0 0 2.724 2.437L88.83 86.18A2.45 2.45 0 0 0 91 83.744V23.775a2.49 2.49 0 0 0-.081-.595zM13.895 89.8V17.47l54.948-6.273v14.549c0 .699.298 1.365.818 1.83a2.439 2.439 0 0 0 1.906.607l14.538-1.66v55.032L13.895 89.8zm59.843-75.901 9.081 8.063-9.081 1.037v-9.1zM38.015 48.562c2.696-.308 4.312.492 5.677 2.053l-3.045 2.825c-.507-.768-1.554-1.251-2.632-1.13-1.936.222-3.014 1.712-3.014 3.618 0 1.97 1.078 3.245 3.014 3.024 1.363-.156 2.092-.875 2.727-1.582l2.886 2.212c-1.331 1.646-2.917 2.78-5.613 3.088-4.22.482-7.391-2.079-7.391-6.242 0-4.099 3.172-7.385 7.39-7.866zm11.95-1.365c2.222-.253 3.806.297 4.916 1.313L52.6 51.219c-.635-.469-1.587-.837-2.602-.72-.982.111-1.459.42-1.459.96 0 .763.857.76 2.696.963 1.966.22 4.442.86 4.442 3.72 0 2.477-1.302 4.66-5.552 5.145-3.14.36-4.979-.606-6.152-1.87l2.506-2.512c.919.785 2.094 1.191 3.362 1.047 1.394-.16 1.838-.465 1.838-1.037 0-.73-.856-.633-3.045-.956-1.839-.266-3.9-1.046-3.9-3.874 0-3.051 2.347-4.558 5.233-4.888zm20.172-2.016-7.232 14.647-.412.048-7.327-12.987 4.726-.54 1.903 3.818c.633 1.295 1.11 3.464 1.11 3.464s.444-2.274 1.046-3.709l1.84-4.245 4.346-.496z" fill="#134B45" fill-rule="evenodd"/></svg>