<svg xmlns="http://www.w3.org/2000/svg" width="100" height="100"><path fill="#134B45" fill-rule="evenodd" d="M47.084 49.904v5.792l5.833-.665v-5.79l-5.833.663zM44.62 60.91a2.462 2.462 0 0 1-2.464-2.46V47.71c0-1.251.94-2.302 2.185-2.444l10.76-1.223a2.46 2.46 0 0 1 2.744 2.443v10.741a2.46 2.46 0 0 1-2.185 2.444l-10.762 1.224c-.092.01-.185.016-.278.016zm2.464 11.02v5.79l5.833-.663v-5.79l-5.833.663zM44.62 82.936a2.458 2.458 0 0 1-2.464-2.46V69.735c0-1.251.94-2.302 2.185-2.444l10.76-1.224a2.458 2.458 0 0 1 2.744 2.444v10.741c0 1.251-.94 2.302-2.185 2.444L44.898 82.92c-.092.01-.185.016-.278.016zM24.363 52.488v5.79l5.833-.663v-5.79l-5.833.663zM21.9 63.494a2.461 2.461 0 0 1-2.464-2.46v-10.74c0-1.25.94-2.302 2.185-2.444l10.762-1.224a2.478 2.478 0 0 1 1.919.608c.524.467.823 1.135.823 1.836v10.74a2.46 2.46 0 0 1-2.185 2.444l-10.761 1.223a2.319 2.319 0 0 1-.279.017zm0 22.026a2.458 2.458 0 0 1-2.464-2.46V72.32c0-1.251.94-2.302 2.185-2.444l10.762-1.223a2.461 2.461 0 0 1 2.743 2.443v10.741a2.462 2.462 0 0 1-2.186 2.444l-10.761 1.224a2.61 2.61 0 0 1-.279.016zm45.44-27.194a2.458 2.458 0 0 1-2.464-2.46v-10.74c0-1.25.94-2.302 2.185-2.444l10.762-1.223a2.461 2.461 0 0 1 2.743 2.443v10.741a2.461 2.461 0 0 1-2.186 2.444l-10.761 1.225c-.093.01-.186.015-.279.015zm2.464 11.02v5.792l5.834-.665v-5.79l-5.834.663zM67.34 80.352a2.462 2.462 0 0 1-2.464-2.46V67.151a2.46 2.46 0 0 1 2.185-2.444l10.762-1.223a2.461 2.461 0 0 1 2.743 2.443v10.741a2.46 2.46 0 0 1-2.186 2.444l-10.761 1.224a2.61 2.61 0 0 1-.279.016zm20.733 5.772V30.898l-76.144 8.66v55.226l76.144-8.66zM29.745 9.823v11.195l5.551-.63V9.191l-5.551.63zm34.959-3.976v11.195l5.551-.63V5.215l-5.551.63zm27.474-.287c.522.467.822 1.134.822 1.835V88.32c0 1.25-.94 2.302-2.185 2.444l-81.072 9.22a2.468 2.468 0 0 1-1.92-.609A2.461 2.461 0 0 1 7 97.54V16.615c0-1.25.94-2.302 2.185-2.443l15.632-1.777V7.627c0-1.25.94-2.302 2.183-2.442l10.48-1.192a2.465 2.465 0 0 1 2.744 2.443v4.206l19.552-2.225V3.651a2.46 2.46 0 0 1 2.185-2.442L72.44.016a2.465 2.465 0 0 1 2.742 2.444v4.206l15.074-1.715a2.488 2.488 0 0 1 1.92.609z"/></svg>