<svg width="100" height="100" xmlns="http://www.w3.org/2000/svg"><path d="M71.072 6.013a2.42 2.42 0 0 1 .578.01c.038.006.072.016.107.021.184.034.361.086.528.16.023.009.045.016.066.026.192.092.368.208.528.347.007.006.017.009.023.015l17.303 15.359c.013.012.02.027.032.039.148.136.278.289.387.459.02.032.035.065.054.097.082.146.15.3.202.463.014.046.03.09.042.137.046.185.078.375.078.574v60.095c0 1.2-.9 2.212-2.092 2.349l-77.283 8.821A2.357 2.357 0 0 1 9 92.637V15.209c0-1.202.9-2.214 2.092-2.349zm-2.092 4.995-55.263 6.31v72.671l72.566-8.283V26.368l-14.677 1.675a2.357 2.357 0 0 1-2.625-2.348V11.008zm-26.966 27.96V61.95l-4.29.489.094-1.984c-.761 1.52-2.192 2.51-4.257 2.747-3.303.376-6.132-2.23-6.132-6.4s2.796-7.353 6.069-7.727c2.07-.237 3.265.415 4.117 1.561l.11.152V39.457l4.289-.49zm16.527 14.347c0 4.108-3.244 7.406-7.437 7.885-4.193.478-7.466-2.077-7.466-6.183 0-4.139 3.273-7.473 7.466-7.95 4.193-.48 7.437 2.111 7.437 6.248zm14.085-6.187.153.17-3.051 2.83c-.51-.77-1.557-1.254-2.639-1.131-1.937.221-3.018 1.714-3.018 3.624 0 1.973 1.081 3.25 3.018 3.029 1.282-.146 2.005-.788 2.613-1.452l.12-.133 2.892 2.217c-1.334 1.649-2.923 2.786-5.625 3.093-4.225.483-7.402-2.083-7.402-6.254 0-4.106 3.177-7.397 7.402-7.88 2.602-.297 4.2.434 5.537 1.887zM34.8 52.715c-1.81.206-2.953 1.578-2.953 3.584 0 2.133 1.142 3.212 2.953 3.005 1.843-.21 3.05-1.557 3.05-3.69 0-2.007-1.207-3.11-3.05-2.9zm16.304-1.957c-1.907.217-3.082 1.72-3.082 3.758 0 2.006 1.175 3.272 3.082 3.054 1.907-.217 3.052-1.748 3.052-3.754 0-2.037-1.145-3.275-3.052-3.058zM73.698 13.61v9.436l9.418-1.075-9.418-8.36z" fill="#134B45" fill-rule="evenodd"/></svg>