<svg width="100" height="100" xmlns="http://www.w3.org/2000/svg"><path d="M71.072 6.013a2.4 2.4 0 0 1 .581.01c.035.006.067.014.102.021.19.032.371.086.542.163l.05.02c.196.094.376.211.54.354.005.005.01.006.015.011l17.303 15.359c.013.012.02.027.032.039.148.136.278.289.387.459.02.032.035.065.054.097.082.146.15.3.2.463a2.312 2.312 0 0 1 .121.71H91v60.096c0 1.2-.9 2.212-2.092 2.349l-77.283 8.821A2.357 2.357 0 0 1 9 92.637V15.209c0-1.202.9-2.214 2.092-2.349zm-2.092 4.995-55.263 6.31v72.671l72.566-8.283V26.368l-14.677 1.675a2.357 2.357 0 0 1-2.625-2.348V11.008zM34.85 39.785v24.263l-4.29.517.096-2.095c-.762 1.603-2.193 2.65-4.258 2.9-3.305.397-6.132-2.354-6.132-6.756s2.795-7.763 6.067-8.158c2.076-.25 3.272.441 4.122 1.655l.105.154V40.303l4.29-.518zm16.527 14.349c0 4.107-3.243 7.405-7.436 7.884-4.194.478-7.468-2.077-7.468-6.183 0-4.139 3.274-7.473 7.468-7.95 4.193-.48 7.436 2.111 7.436 6.249zm14.084-6.188.153.17-3.05 2.83c-.508-.769-1.557-1.254-2.637-1.13-1.939.22-3.02 1.713-3.02 3.623 0 1.973 1.081 3.25 3.02 3.03 1.28-.146 2.003-.79 2.612-1.453l.12-.133L65.55 57.1c-1.335 1.649-2.922 2.786-5.624 3.094-4.226.482-7.404-2.084-7.404-6.255 0-4.106 3.178-7.397 7.404-7.88 2.602-.297 4.2.436 5.534 1.887zm-37.824 5.587c-1.81.207-2.955 1.578-2.955 3.584 0 2.133 1.145 3.212 2.955 3.005 1.843-.21 3.051-1.556 3.051-3.69 0-2.005-1.208-3.11-3.051-2.899zm51.928-9.429-4.48 6.623 5.211 6.854-5.083.581-1.558-2.147c-.572-.794-1.239-2.278-1.239-2.278s-.608 1.491-1.16 2.431l-.078.13-1.525 2.499-4.575.522 5.209-7.694-4.544-5.944 5.053-.576 1.112 1.56c.477.678 1.016 1.985 1.016 1.985s.457-1.28.91-2.084l.075-.129 1.08-1.81 4.576-.523zM43.94 51.576c-1.907.217-3.082 1.72-3.082 3.758 0 2.007 1.175 3.272 3.082 3.054 1.906-.217 3.052-1.748 3.052-3.753 0-2.038-1.146-3.276-3.052-3.059zm29.758-37.965v9.436l9.418-1.075-9.418-8.36z" fill="#134B45" fill-rule="evenodd"/></svg>