<svg width="100" height="100" xmlns="http://www.w3.org/2000/svg">
  <path d="M89.629 58.539A2.365 2.365 0 0 1 92 60.899v23.755a2.363 2.363 0 0 1-2.103 2.344L10.64 95.985a2.372 2.372 0 0 1-1.847-.584A2.356 2.356 0 0 1 8 93.641V69.885c0-1.303 1.06-2.36 2.371-2.36a2.365 2.365 0 0 1 2.371 2.36v21.11l74.516-8.448v-21.65c0-1.302 1.06-2.36 2.37-2.36zM49.999 3c2.246 0 4.065 1.811 4.065 4.045v41.3L65.148 36.06a4.076 4.076 0 0 1 5.74-.309 4.03 4.03 0 0 1 .31 5.712L53.024 61.609a4.062 4.062 0 0 1-3.027 1.343 4.06 4.06 0 0 1-2.693-1.017L29.132 45.91a4.032 4.032 0 0 1-.346-5.71 4.077 4.077 0 0 1 5.736-.346l11.413 10.064V7.045C45.935 4.811 47.755 3 50 3z" fill="#134B45" fill-rule="evenodd"/>
</svg>
