<svg xmlns="http://www.w3.org/2000/svg" width="100" height="100"><path fill="#134B45" fill-rule="evenodd" d="M91.984 72.43a2.359 2.359 0 0 1-2.074 2.615l-78.286 8.94a2.358 2.358 0 0 1-2.608-2.08 2.36 2.36 0 0 1 2.074-2.615l78.286-8.939a2.346 2.346 0 0 1 2.608 2.08zm0-26.667a2.359 2.359 0 0 1-2.074 2.615l-78.286 8.94a2.358 2.358 0 0 1-2.608-2.08 2.36 2.36 0 0 1 2.074-2.616l78.286-8.938a2.359 2.359 0 0 1 2.608 2.079zm0-26.668a2.359 2.359 0 0 1-2.074 2.615l-78.286 8.94a2.358 2.358 0 0 1-2.608-2.08 2.36 2.36 0 0 1 2.074-2.615l78.286-8.939a2.344 2.344 0 0 1 2.608 2.08z"/></svg>