<svg xmlns="http://www.w3.org/2000/svg" width="100" height="100"><path fill="#134B45" fill-rule="evenodd" d="M56.349 86.445a3.354 3.354 0 0 1 3.71 2.967 3.367 3.367 0 0 1-2.952 3.73l-50.98 5.835a3.357 3.357 0 0 1-3.71-2.965 3.362 3.362 0 0 1 2.951-3.73l50.98-5.837zm0-29.276c1.87-.22 3.5 1.118 3.71 2.967a3.367 3.367 0 0 1-2.952 3.729l-50.98 5.836a3.357 3.357 0 0 1-3.71-2.965 3.362 3.362 0 0 1 2.951-3.73l50.98-5.837zm42.925-29.772c-.087.158-.192.304-.292.454-.113.16-.22.322-.344.47-.039.045-.064.095-.102.139L78.517 50.869a5.72 5.72 0 0 1-4.278 1.918 5.704 5.704 0 0 1-3.837-1.479c-2.364-2.13-2.558-5.782-.439-8.156l9.907-11.09-73.472 8.412c-.22.025-.44.039-.657.039-2.884 0-5.37-2.176-5.704-5.124-.358-3.169 1.907-6.03 5.06-6.392l75.698-8.668L70.43 11.1a5.798 5.798 0 0 1-.49-8.154 5.73 5.73 0 0 1 8.113-.493L98.07 20.277c.096.085.167.187.257.277.14.145.278.285.404.441.11.139.204.285.301.432.111.165.219.33.31.51.085.161.15.327.217.495.073.18.148.356.201.546.056.191.09.387.127.584.023.13.067.252.082.385.006.054-.004.104.002.158.006.056.023.11.027.165.01.149-.016.293-.02.441-.001.187-.001.372-.022.555-.02.186-.065.367-.102.55-.042.187-.078.376-.136.557-.055.173-.132.337-.203.504-.077.177-.147.353-.241.52z"/></svg>