<svg xmlns="http://www.w3.org/2000/svg" width="100" height="100"><path fill="#134B45" d="M70.32 17.1a6.82 6.82 0 0 0-5.82 6.51c0 1.4.52 2.64 1.46 3.48a4.62 4.62 0 0 0 3.68 1.09 6.82 6.82 0 0 0 5.83-6.52c0-1.4-.52-2.63-1.47-3.48a4.5 4.5 0 0 0-3.68-1.08zM3.01 33.35a3.02 3.02 0 0 1-2.99-2.69 3.03 3.03 0 0 1 2.65-3.35l56.13-6.44a12.78 12.78 0 0 1 10.84-9.8c3.15-.35 6.12.57 8.37 2.59A10.34 10.34 0 0 1 81 18.33l15.65-1.8a3 3 0 0 1 3.34 2.67 3.02 3.02 0 0 1-2.65 3.35l-16.17 1.86A12.78 12.78 0 0 1 69 34.28c-2.65 0-5.1-.93-7.04-2.66a10.33 10.33 0 0 1-2.98-4.67L3.35 33.33l-.34.02zm93.64 9.61a3 3 0 0 1 3.33 2.67A3.03 3.03 0 0 1 97.33 49l-61.09 7a12.78 12.78 0 0 1-10.84 9.8 11.53 11.53 0 0 1-1.33.07c-2.65 0-5.11-.92-7.05-2.66a10.34 10.34 0 0 1-2.97-4.67l-10.7 1.23A3.02 3.02 0 0 1 .02 57.1a3.02 3.02 0 0 1 2.65-3.35l11.2-1.29a12.79 12.79 0 0 1 10.84-9.79c3.14-.36 6.12.56 8.38 2.58a10.36 10.36 0 0 1 2.98 4.67l60.57-6.95zM53.44 82.9a6.82 6.82 0 0 0 5.82-6.51 4.6 4.6 0 0 0-1.46-3.48 4.5 4.5 0 0 0-3.68-1.09 6.82 6.82 0 0 0-5.83 6.52c0 1.4.52 2.63 1.47 3.48a4.63 4.63 0 0 0 3.68 1.08zm43.2-13.5a3.03 3.03 0 1 1 .68 6.02l-32.36 3.71A12.79 12.79 0 0 1 52.8 89c-2.65 0-5.11-.92-7.04-2.66a10.34 10.34 0 0 1-2.98-4.67L3.35 86.2a3.02 3.02 0 0 1-3.33-2.66 3.03 3.03 0 0 1 2.65-3.36L42.6 75.6a12.78 12.78 0 0 1 10.84-9.79c3.14-.36 6.12.56 8.37 2.58a10.33 10.33 0 0 1 2.98 4.67l31.86-3.65z"/></svg>