<svg width="100" height="100" xmlns="http://www.w3.org/2000/svg"><defs><mask id="sk-a" x="0" y="0" width="14" height="10"><rect width="14" height="10" rx="2" fill="#FFF"/></mask><path id="sk-c" d="M.475.658A.692.692 0 0 1 1.158 0h3.017c.364 0 .67.298.684.658l.116 3.017c.014.364-.207.857-.481 1.092l-1.063.911a1.214 1.214 0 0 1-1.528 0L.84 4.768c-.28-.24-.495-.733-.481-1.093L.475.658z"/></defs><g mask="url(#sk-a)" transform="scale(7.14209 7.51806) translate(0 4)"><rect width="14" height="10" rx="2" fill="#FFF"/><path fill="#0C47B7" d="M0 3.333h14v3.333H0z"/><path fill="#E53B35" d="M0 6.667h14V10H0z"/><path stroke="#FFF" stroke-width=".667" d="M2.475 2.645c.02-.541.476-.978 1.016-.978h3.017c.542 0 .996.438 1.017.978l.116 3.017c.018.464-.245 1.056-.597 1.358l-1.063.912c-.546.468-1.417.467-1.962 0L2.956 7.02c-.356-.305-.615-.894-.597-1.358l.116-3.017z" fill="#E53B35"/><path d="M2.333 3.497c0-.09-.065-.164-.174-.164h-.651a.176.176 0 0 1-.175-.168v-.33c0-.093.066-.168.175-.168h.651a.176.176 0 0 0 .174-.169v-.33A.172.172 0 0 0 2.165 2h-.33a.172.172 0 0 1-.168-.168v-.33c0-.093.081-.169.168-.169h.33a.172.172 0 0 0 .168-.168v-.33c0-.093.082-.168.169-.168h.33c.093 0 .168.081.168.168v.33c0 .093.082.168.168.168h.33c.093 0 .169.082.169.169v.33A.172.172 0 0 1 3.498 2h-.33A.172.172 0 0 0 3 2.168v.33c0 .093.066.169.174.169h.652c.096 0 .174.081.174.168v.33c0 .093-.066.168-.174.168h-.652c-.096 0-.174.072-.174.164v1.006a.17.17 0 0 1-.168.164h-.33a.165.165 0 0 1-.169-.164V3.497z" fill="#FFF" mask="url(#sk-c)" transform="translate(2.333 2)"/><path d="M2.667 4.333c.265 0 .495.156.602.38.81.128 1.398.506 1.398.954 0 .552-.896 1-2 1-1.105 0-2-.448-2-1 0-.448.587-.826 1.397-.954a.668.668 0 0 1 .603-.38z" fill="#1251A1" mask="url(#sk-c)" transform="translate(2.333 2)"/></g></svg>