<svg width="100" height="100" xmlns="http://www.w3.org/2000/svg"><defs><mask id="en_a"><rect width="100" height="71.43" rx="6"/></mask><mask id="en_b" fill="#fff"><path d="M96 .286V67.43H.286z"/></mask><mask id="en_c" fill="#fff"><path d="M0 0h95.714L0 67.144z"/></mask><linearGradient x1="50%" y1="0%" x2="50%" y2="100%" id="en_d"><stop stop-color="#FFF" offset="0%"/><stop stop-color="#F0F0F0" offset="100%"/></linearGradient></defs><g fill="none" fill-rule="evenodd" mask="url(en_a)"><path d="M100 17.286V84.43H4.286z"/><g mask="url(#en_b)" transform="translate(4 17)"><g transform="translate(-4 -4)"><rect fill="#FFF" fill-rule="nonzero" width="100" height="71.43" rx="2"/><path fill="#0A17A7" fill-rule="nonzero" d="M0 0h100v71.43H0z"/><path fill="#FFF" fill-rule="nonzero" d="M23.836 47.622H0V23.808h23.836L-9.907 1.05l5.336-7.893L38.1 21.943V-4.764h23.814v26.707l42.672-28.786 5.328 7.893-33.743 22.758H100v23.814H76.164l33.743 22.758-5.328 7.893-42.672-28.786v26.707H38.093V49.487L-4.58 78.273l-5.328-7.893z"/><path stroke="#DB1F35" stroke-width=".667" stroke-linecap="round" d="M112.179 79.68L65.293 48.587"/><path fill="#E6273E" fill-rule="nonzero" d="M0 42.858h42.857V71.43h14.286V42.858H100V28.572H57.143V0H42.857v28.572H0z"/></g></g><path d="M0 13h95.714L0 80.144z"/><g mask="url(#en_c)" transform="translate(0 13)"><g fill="#FFF" fill-rule="nonzero"><rect width="100" height="71.43" rx="2"/><path d="M0 0h100v4.764H0V0zm0 9.522h100v4.764H0V9.522zm0 9.528h100v4.758H0V19.05zm0 9.522h100v4.764H0v-4.764zm0 9.522h100v4.764H0v-4.764zm0 9.528h100v4.758H0v-4.758zm0 9.522h100v4.764H0v-4.764zm0 9.522h100v4.764H0v-4.764z" fill="#D02F44"/><path fill="#46467F" d="M0 0h42.857v33.336H0z"/><path d="M7.143 9.522a2.379 2.379 0 1 1 0-4.758 2.379 2.379 0 0 1 0 4.758zm9.521 0a2.379 2.379 0 1 1 0-4.758 2.379 2.379 0 0 1 0 4.758zm9.529 0a2.379 2.379 0 1 1 0-4.758 2.379 2.379 0 0 1 0 4.758zm9.521 0a2.379 2.379 0 1 1 0-4.758 2.379 2.379 0 0 1 0 4.758zm-23.807 4.764a2.382 2.382 0 1 1 0-4.764 2.382 2.382 0 0 1 0 4.764zm9.522 0a2.382 2.382 0 1 1 0-4.764 2.382 2.382 0 0 1 0 4.764zm9.521 0a2.382 2.382 0 1 1 0-4.764 2.382 2.382 0 0 1 0 4.764zm4.764 4.764a2.382 2.382 0 1 1 0-4.764 2.382 2.382 0 0 1 0 4.764zm-9.521 0a2.382 2.382 0 1 1 0-4.764 2.382 2.382 0 0 1 0 4.764zm-9.529 0a2.382 2.382 0 1 1 0-4.764 2.382 2.382 0 0 1 0 4.764zm-9.521 0a2.382 2.382 0 1 1 0-4.764 2.382 2.382 0 0 1 0 4.764zm4.764 4.758a2.379 2.379 0 1 1 0-4.758 2.379 2.379 0 0 1 0 4.758zm9.522 0a2.379 2.379 0 1 1 0-4.758 2.379 2.379 0 0 1 0 4.758zm9.521 0a2.379 2.379 0 1 1 0-4.758 2.379 2.379 0 0 1 0 4.758zm4.764 4.764a2.382 2.382 0 1 1 0-4.764 2.382 2.382 0 0 1 0 4.764zm-9.521 0a2.382 2.382 0 1 1 0-4.764 2.382 2.382 0 0 1 0 4.764zm-9.529 0a2.382 2.382 0 1 1 0-4.764 2.382 2.382 0 0 1 0 4.764zm-9.521 0a2.382 2.382 0 1 1 0-4.764 2.382 2.382 0 0 1 0 4.764z" fill="#000"/><path d="M7.143 9.522a2.379 2.379 0 1 1 0-4.758 2.379 2.379 0 0 1 0 4.758zm9.521 0a2.379 2.379 0 1 1 0-4.758 2.379 2.379 0 0 1 0 4.758zm9.529 0a2.379 2.379 0 1 1 0-4.758 2.379 2.379 0 0 1 0 4.758zm9.521 0a2.379 2.379 0 1 1 0-4.758 2.379 2.379 0 0 1 0 4.758zm-23.807 4.764a2.382 2.382 0 1 1 0-4.764 2.382 2.382 0 0 1 0 4.764zm9.522 0a2.382 2.382 0 1 1 0-4.764 2.382 2.382 0 0 1 0 4.764zm9.521 0a2.382 2.382 0 1 1 0-4.764 2.382 2.382 0 0 1 0 4.764zm4.764 4.764a2.382 2.382 0 1 1 0-4.764 2.382 2.382 0 0 1 0 4.764zm-9.521 0a2.382 2.382 0 1 1 0-4.764 2.382 2.382 0 0 1 0 4.764zm-9.529 0a2.382 2.382 0 1 1 0-4.764 2.382 2.382 0 0 1 0 4.764zm-9.521 0a2.382 2.382 0 1 1 0-4.764 2.382 2.382 0 0 1 0 4.764zm4.764 4.758a2.379 2.379 0 1 1 0-4.758 2.379 2.379 0 0 1 0 4.758zm9.522 0a2.379 2.379 0 1 1 0-4.758 2.379 2.379 0 0 1 0 4.758zm9.521 0a2.379 2.379 0 1 1 0-4.758 2.379 2.379 0 0 1 0 4.758zm4.764 4.764a2.382 2.382 0 1 1 0-4.764 2.382 2.382 0 0 1 0 4.764zm-9.521 0a2.382 2.382 0 1 1 0-4.764 2.382 2.382 0 0 1 0 4.764zm-9.529 0a2.382 2.382 0 1 1 0-4.764 2.382 2.382 0 0 1 0 4.764zm-9.521 0a2.382 2.382 0 1 1 0-4.764 2.382 2.382 0 0 1 0 4.764z" fill="url(#en_d)"/></g></g></g></svg>