<svg width="100" height="100" xmlns="http://www.w3.org/2000/svg"><path d="M62.47 55.94c-9.08-.8-19.15-1.7-26.3 6.39L23.86 24.55c5.5-8.82 14-8.08 23.71-7.22 9.67.86 20.47 1.82 27.66-8.07 1.66 5.04 3.5 10.6 5.32 16.17 2.44 7.4 4.88 14.8 6.9 21-5.4 11.23-14.5 10.43-24.98 9.5m30.4-10.17-7.23-22-7.2-21.92A2.67 2.67 0 0 0 76.03 0a2.7 2.7 0 0 0-2.59 1.6c-5.34 12.19-14.63 11.37-25.4 10.41-9.12-.8-19.23-1.7-26.4 6.5a4.56 4.56 0 0 0-2.09-1.64l.2-.16a5.65 5.65 0 0 0 .86-1.04 6.92 6.92 0 0 0 1.02-2.47 6.7 6.7 0 0 0 0-2.7 6.62 6.62 0 0 0-.38-1.28 7.62 7.62 0 0 0-.64-1.2A7.03 7.03 0 0 0 19.75 7a6.89 6.89 0 0 0-4.86-2.02c-1.81 0-3.58.74-4.87 2.02a8.02 8.02 0 0 0-.86 1.04 7.42 7.42 0 0 0-.63 1.2 6.67 6.67 0 0 0-.4 1.27 6.7 6.7 0 0 0 0 2.7 6.76 6.76 0 0 0 5.95 5.45 4.55 4.55 0 0 0-.53 3.9l24.21 74.28a4.6 4.6 0 0 0 5.79 2.94A4.58 4.58 0 0 0 46.49 94l-8.27-25.38c5.5-8.93 14.03-8.2 23.78-7.35 11.2 1 23.88 2.12 30.78-13.59.26-.6.3-1.28.09-1.9" fill="#134B45"/></svg>