<svg width="100" height="100" xmlns="http://www.w3.org/2000/svg" xmlns:xlink="http://www.w3.org/1999/xlink"><defs><mask id="en-a" x="0" y="0" width="14" height="10"><rect width="14" height="10" rx="2" fill="#FFF"/></mask></defs><defs><path id="en-b" d="M14 .6V10H.6z"/><path id="en-f" d="M0 0h13.4L0 9.4z"/><path id="en-k" d="M1 1.333a.333.333 0 1 1 0-.666.333.333 0 0 1 0 .666zm1.333 0a.333.333 0 1 1 0-.666.333.333 0 0 1 0 .666zm1.334 0a.333.333 0 1 1 0-.666.333.333 0 0 1 0 .666zm1.333 0a.333.333 0 1 1 0-.666.333.333 0 0 1 0 .666zM1.667 2a.333.333 0 1 1 0-.667.333.333 0 0 1 0 .667zM3 2a.333.333 0 1 1 0-.667A.333.333 0 0 1 3 2zm1.333 0a.333.333 0 1 1 0-.667.333.333 0 0 1 0 .667zM5 2.667A.333.333 0 1 1 5 2a.333.333 0 0 1 0 .667zm-1.333 0a.333.333 0 1 1 0-.667.333.333 0 0 1 0 .667zm-1.334 0a.333.333 0 1 1 0-.667.333.333 0 0 1 0 .667zM1 2.667A.333.333 0 1 1 1 2a.333.333 0 0 1 0 .667zm.667.666a.333.333 0 1 1 0-.666.333.333 0 0 1 0 .666zm1.333 0a.333.333 0 1 1 0-.666.333.333 0 0 1 0 .666zm1.333 0a.333.333 0 1 1 0-.666.333.333 0 0 1 0 .666zM5 4a.333.333 0 1 1 0-.667A.333.333 0 0 1 5 4zM3.667 4a.333.333 0 1 1 0-.667.333.333 0 0 1 0 .667zM2.333 4a.333.333 0 1 1 0-.667.333.333 0 0 1 0 .667zM1 4a.333.333 0 1 1 0-.667A.333.333 0 0 1 1 4z"/><rect id="en-d" width="14" height="10" rx="2"/><rect id="en-h" width="14" height="10" rx="2"/><linearGradient id="en-l" x1="50%" x2="50%" y1="0%" y2="100%"><stop offset="0%" stop-color="#FFF"/><stop offset="100%" stop-color="#F0F0F0"/></linearGradient><filter id="en-j" width="121.4%" height="130%" x="-10.7%" y="-15%" filterUnits="objectBoundingBox"><feOffset dy="1" in="SourceAlpha" result="shadowOffsetOuter1"/><feColorMatrix in="shadowOffsetOuter1" values="0 0 0 0 0 0 0 0 0 0 0 0 0 0 0 0 0 0 0.06 0"/></filter></defs><g fill="none" fill-rule="evenodd" mask="url(#en-a)" transform="scale(7.14209 7.51806)"><mask id="en-c" fill="#fff"><use xlink:href="#en-b"/></mask><use fill="#EEE" fill-opacity="0" fill-rule="nonzero" xlink:href="#en-b"/><g mask="url(#en-c)"><mask id="en-e" fill="#fff"><use xlink:href="#en-d"/></mask><use fill="#FFF" xlink:href="#en-d"/><path fill="#0A17A7" d="M0 0h14v10H0z" mask="url(#en-e)"/><path fill="#FFF" d="M3.337 6.667H0V3.333h3.337L-1.387.147-.64-.958l5.974 4.03V-.667h3.334v3.739l5.974-4.03.746 1.105-4.724 3.186H14v3.334h-3.337l4.724 3.186-.746 1.105-5.974-4.03v3.739H5.333V6.928l-5.974 4.03-.746-1.105 4.724-3.186z" mask="url(#en-e)"/><path stroke="#DB1F35" stroke-linecap="round" stroke-width=".667" d="M9.334 3.166L15.667-1" mask="url(#en-e)"/><path stroke="#DB1F35" stroke-linecap="round" stroke-width=".667" d="M10.006 10.675l5.677-3.826" mask="url(#en-e)" transform="matrix(1 0 0 -1 0 17.524)"/><path stroke="#DB1F35" stroke-linecap="round" stroke-width=".667" d="M4.003 3.155L-1.92-.835" mask="url(#en-e)"/><path stroke="#DB1F35" stroke-linecap="round" stroke-width=".667" d="M4.645 11.155l-6.564-4.353" mask="url(#en-e)" transform="matrix(1 0 0 -1 0 17.958)"/><path fill="#E6273E" d="M0 6h6v4h2V6h6V4H8V0H6v4H0z" mask="url(#en-e)"/></g><mask id="en-g" fill="#fff"><use xlink:href="#en-f"/></mask><use fill="#EEE" fill-opacity="0" fill-rule="nonzero" xlink:href="#en-f"/><g mask="url(#en-g)"><mask id="en-i" fill="#fff"><use xlink:href="#en-h"/></mask><use fill="#FFF" xlink:href="#en-h"/><path fill="#D02F44" d="M0 0h14v.667H0V0zm0 1.333h14V2H0v-.667zm0 1.334h14v.666H0v-.666zM0 4h14v.667H0V4zm0 1.333h14V6H0v-.667zm0 1.334h14v.666H0v-.666zM0 8h14v.667H0V8zm0 1.333h14V10H0v-.667z" mask="url(#en-i)"/><path fill="#46467F" d="M0 0h6v4.667H0z" mask="url(#en-i)"/><g mask="url(#en-i)"><use fill="#000" filter="url(#en-j)" xlink:href="#en-k"/><use fill="url(#en-l)" xlink:href="#en-k"/></g></g></g></svg>