<svg xmlns="http://www.w3.org/2000/svg" xmlns:xlink="http://www.w3.org/1999/xlink" width="100" height="100"><defs><path id="sk-a" d="M0 0h100v71.429H0z"/><path id="sk-c" d="M1.389 4.752C1.489 2.127 3.699 0 6.339 0h21.416c2.634 0 4.85 2.127 4.952 4.752l.825 21.449c.1 2.624-1.43 6.134-3.434 7.851L22.47 40.59c-2.995 2.567-7.846 2.57-10.845 0l-7.628-6.538C2 32.34.463 28.825.564 26.201l.825-21.45z"/></defs><g fill="none" fill-rule="evenodd" transform="translate(0 14)"><path fill="#FFF" d="M0 0h100v25H0z"/><mask id="sk-b" fill="#fff"><use xlink:href="#sk-a"/></mask><path stroke="#F5F5F5" stroke-width="1.786" d="M.893.893h98.214v69.643H.893z"/><path fill="#0C47B7" mask="url(#sk-b)" d="M0 23.81h100v23.81H0z"/><path fill="#E53B35" mask="url(#sk-b)" d="M0 47.619h100v23.81H0z"/><g mask="url(#sk-b)"><g transform="translate(18.667 14.286)"><path stroke="#FFF" stroke-width="4.762" d="M27.755-2.381H6.34c-1.953 0-3.75.781-5.075 2.053A7.302 7.302 0 0 0-.99 4.66l-.824 21.45c-.126 3.258 1.782 7.624 4.263 9.75l7.627 6.538c1.928 1.652 4.445 2.5 6.972 2.5 2.53 0 5.047-.85 6.973-2.5l7.627-6.538c2.488-2.132 4.39-6.492 4.264-9.75l-.825-21.45A7.301 7.301 0 0 0 32.83-.326a7.329 7.329 0 0 0-5.074-2.055z"/><mask id="sk-d" fill="#fff"><use xlink:href="#sk-c"/></mask><path stroke="#FFF" stroke-width="4.762" d="M27.755-2.381H6.34c-1.953 0-3.75.781-5.075 2.053A7.302 7.302 0 0 0-.99 4.66l-.824 21.45c-.126 3.258 1.782 7.624 4.263 9.75l7.627 6.538c1.928 1.652 4.445 2.5 6.972 2.5 2.53 0 5.047-.85 6.973-2.5l7.627-6.538c2.488-2.132 4.39-6.492 4.264-9.75l-.825-21.45A7.301 7.301 0 0 0 32.83-.326a7.329 7.329 0 0 0-5.074-2.055z"/><path fill="#FFF" d="M14.667 24.996c0-.655-.537-1.186-1.196-1.186H8.72a1.19 1.19 0 0 1-1.195-1.19v-2.383c0-.657.537-1.19 1.195-1.19h4.752a1.19 1.19 0 0 0 1.196-1.189v-2.383c0-.657-.528-1.19-1.19-1.19h-2.383c-.657 0-1.19-.527-1.19-1.189v-2.383c0-.657.529-1.19 1.19-1.19h2.383c.657 0 1.19-.527 1.19-1.189V5.951c0-.657.527-1.19 1.189-1.19h2.383c.657 0 1.19.529 1.19 1.19v2.383c0 .657.527 1.19 1.189 1.19H23c.657 0 1.19.528 1.19 1.19v2.382c0 .657-.528 1.19-1.19 1.19h-2.383c-.657 0-1.19.528-1.19 1.19v2.382c0 .657.537 1.19 1.196 1.19h4.752c.66 0 1.195.527 1.195 1.189v2.383c0 .657-.536 1.19-1.195 1.19h-4.752c-.66 0-1.195.539-1.195 1.186v7.15c0 .656-.528 1.187-1.19 1.187h-2.383c-.657 0-1.19-.539-1.19-1.187v-7.15z" mask="url(#sk-d)"/><path fill="#1251A1" d="M17.048 30.952a4.762 4.762 0 0 1 4.298 2.71c5.79.912 9.987 3.618 9.987 6.814 0 3.945-6.396 7.143-14.285 7.143-7.89 0-14.286-3.198-14.286-7.143 0-3.196 4.198-5.902 9.987-6.814a4.762 4.762 0 0 1 4.299-2.71z" mask="url(#sk-d)"/></g></g></g></svg>