<svg width="100" height="100" xmlns="http://www.w3.org/2000/svg">
  <path d="M28.577 23.67l-5.473 5.991H10.7V8.79c0-2.593 2-4.675 4.543-4.675h68.296A4.679 4.679 0 0 1 88.198 8.79v10.593H38.189a13.169 13.169 0 0 0-9.63 4.28zm69.028 6.065a4.774 4.774 0 0 1 1.136 3.67l-2.584 22.856-3.086 27.317a12.263 12.263 0 0 1-12.099 11.07h-63.506a12.379 12.379 0 0 1-12.074-10.831L.042 43.72a4.774 4.774 0 0 1 1.473-4.099 4.519 4.519 0 0 1 3.086-1.194H24.84a4.559 4.559 0 0 0 3.012-1.177c.115-.107.231-.238.337-.354l4.774-5.21 1.877-2.041.132-.14a4.552 4.552 0 0 1 3.226-1.358h55.967a4.535 4.535 0 0 1 3.441 1.589z" fill="#134B45" />
</svg>
