<svg width="10" height="10" xmlns="http://www.w3.org/2000/svg">
  <path d="M3.472 2.876l-.665.728H1.3V1.068C1.3.753 1.543.5 1.852.5h8.298c.309 0 .566.253.566.568v1.287H4.64a1.6 1.6 0 0 0-1.17.52zm8.387.737a.58.58 0 0 1 .138.446l-.314 2.777-.375 3.319a1.49 1.49 0 0 1-1.47 1.345H2.122a1.504 1.504 0 0 1-1.467-1.316l-.65-4.872a.58.58 0 0 1 .179-.498.549.549 0 0 1 .375-.145h2.459a.554.554 0 0 0 .366-.143c.014-.013.028-.029.041-.043l.58-.633.228-.248.016-.017a.553.553 0 0 1 .392-.165h6.8a.551.551 0 0 1 .418.193z"/>
</svg>
