<svg width="100" height="100" xmlns="http://www.w3.org/2000/svg"><path d="M62.58 61.1c-7.07 7.85-18.47 9.25-25.4 3.12a15.44 15.44 0 0 1-5.1-10.82c-.3-5.11 1.65-10.4 5.34-14.5 4.1-4.55 9.67-6.94 14.97-6.94 3.83 0 7.53 1.25 10.44 3.82a15.44 15.44 0 0 1 5.1 10.82c.29 5.11-1.66 10.4-5.35 14.5zm34.2-24.18-7.64.87c-1-4.93-2.99-9.59-5.96-13.68l5.4-6c3.04-3.37-7.97-13.1-11-9.72l-5.4 6a35.74 35.74 0 0 0-14.4-4.31V2.46c0-4.28-15.56-2.51-15.56 1.77v7.62a45.24 45.24 0 0 0-14.4 7.58l-5.4-4.77c-3.03-2.69-14.04 9.54-11 12.22l5.4 4.77a44.38 44.38 0 0 0-5.96 15.04l-7.64.87c-4.3.48-4.3 16 0 15.52l7.64-.87c1 4.93 2.99 9.59 5.96 13.68l-5.4 6c-3.04 3.37 7.97 13.1 11 9.72l5.4-6a35.76 35.76 0 0 0 14.4 4.31v7.62c0 4.28 15.56 2.51 15.56-1.77v-7.62a45.23 45.23 0 0 0 14.4-7.58l5.4 4.77c3.03 2.69 14.04-9.54 11-12.22l-5.4-4.77a44.46 44.46 0 0 0 5.96-15.04l7.64-.87c4.3-.48 4.3-16 0-15.52z" fill="#134B45"/></svg>