<svg xmlns="http://www.w3.org/2000/svg" width="100" height="100" fill="none"><path fill="#000" fill-rule="evenodd" d="M93.118 25.042c2.603 2.316 4.152 5.59 4.359 9.22.233 4.1-1.286 8.3-4.169 11.522l-7.232 8.085c1.076 1.398 1.754 3.194 1.862 5.044.095 1.686-.285 3.282-1.085 4.616l-3.974-3.535a1.17 1.17 0 0 1-.116-.123l-.032-.037-.02-.022-2.073-1.823c-6.49-5.705-17.062-4.338-23.564 3.05l-4.02 4.562v.003l-5.59 6.349.001-.01c.028-.134.04-.266.05-.4a3.338 3.338 0 0 0-.016-.8c-.097-.587-.364-1.12-.807-1.514a2.452 2.452 0 0 0-.633-.396 2.727 2.727 0 0 0-1.018-.247c-1.024-.041-2.147.431-2.979 1.36l-4.643 5.145a6.416 6.416 0 0 0 3.958 3.774l-.08.09c1.974 1.188 4.582 1.183 6.906.086l-1.326 1.522c.2.333.772 1.067 2.326 2.161a3.054 3.054 0 0 0 4.067-.494l1.137-1.304c.734-.822 1.111-1.835 1.056-2.804a2.902 2.902 0 0 0-.487-1.436 2.352 2.352 0 0 0-.325-.37l-.017-.02-.019-.02c-.627-.558-1.489-.74-2.358-.581l5.956-6.153a2.27 2.27 0 0 1 .34-.29h.001l.001-.001c.196-.139.414-.233.635-.305l.043-.014a.745.745 0 0 1 .06-.02 2.308 2.308 0 0 1 .76-.07h.012a2.364 2.364 0 0 1 .668.145l.019.009.032.015c.205.085.402.197.582.342a.042.042 0 0 0 .017.01l.007.004a.046.046 0 0 1 .01.007l.025.021c.004.003.008.005.01.008l3.061 2.664c3.578 2.476 8.843 1.616 12.293-2.018a2.342 2.342 0 0 1 3.098-.269c-.25 1.41-.858 2.694-1.784 3.73-1.603 1.795-3.855 2.607-6.082 2.632a8.824 8.824 0 0 1 .03 1.734c-.318.065-.637.12-.957.164l.833.746a7.5 7.5 0 0 1-1.76 3.597c-1.63 1.823-3.927 2.633-6.19 2.633-2.002 0-3.952-.659-5.41-1.785-.2.284-.413.56-.646.823l-1.117 1.281a7.727 7.727 0 0 1-10.296 1.25c-1.333-.936-2.343-1.85-3.066-2.757a2.325 2.325 0 0 1-.773.144c-.173 0-.348-.02-.521-.058l-1.12-.256a11.202 11.202 0 0 1-8.069-7.099 11.191 11.191 0 0 1-7.934-7.058 11.2 11.2 0 0 1-7.994-7.197l-.384-1.078a2.366 2.366 0 0 1 .474-2.372l.055-.062L3.339 47.154a2.36 2.36 0 0 1-.24-3.379l21.593-24.222a2.342 2.342 0 0 1 3.102-.355l7.98 5.645c1.63.052 3.538-.278 5.538-.624 2.857-.496 6.038-1.04 9.13-.534l3.11-3.532c8.212-9.326 21.75-10.882 30.182-3.472l5.982 5.26c.131.116.244.245.345.38l3.057 2.721ZM34.125 62.887l-4.642 5.144c.777 1.97 2.374 3.38 4.434 3.917l4.656-5.158c.711-.797 1.087-1.809 1.032-2.775-.031-.524-.201-1.27-.848-1.846-1.223-1.09-3.303-.768-4.632.718Zm-12.577-1.915.742-.822.007-.007 3.894-4.314c1.328-1.486 3.405-1.808 4.63-.718.646.575.816 1.32.847 1.845.055.968-.322 1.98-1.035 2.777l-4.651 5.156c-2.06-.536-3.656-1.948-4.434-3.917Z" clip-rule="evenodd"/></svg>