<svg xmlns="http://www.w3.org/2000/svg" width="100" height="100" fill="none"><path fill="#000" d="M53.052 20.153c8.212-9.326 21.75-10.882 30.182-3.472l5.982 5.26c.131.116.244.245.345.38l3.057 2.721c2.603 2.316 4.152 5.59 4.359 9.22.233 4.1-1.286 8.3-4.169 11.522l-7.232 8.085c1.076 1.398 1.754 3.194 1.862 5.044.123 2.183-.55 4.214-1.9 5.722-1.603 1.796-3.855 2.608-6.081 2.632.02.174.034.348.044.523.123 2.182-.55 4.213-1.898 5.719-1.603 1.796-3.855 2.608-6.082 2.633.02.173.035.349.044.524.124 2.18-.55 4.211-1.897 5.717-1.63 1.823-3.928 2.633-6.19 2.633-2.003 0-3.953-.659-5.412-1.785-.2.284-.412.56-.645.823l-1.117 1.281a7.727 7.727 0 0 1-10.296 1.25c-1.333-.936-2.343-1.85-3.066-2.757a2.325 2.325 0 0 1-.773.144c-.173 0-.348-.02-.521-.058l-1.12-.256a11.202 11.202 0 0 1-8.069-7.099 11.191 11.191 0 0 1-7.934-7.058 11.2 11.2 0 0 1-7.994-7.197l-.384-1.078a2.366 2.366 0 0 1 .474-2.372l.055-.062L2.839 47.154a2.36 2.36 0 0 1-.24-3.379l21.593-24.222a2.342 2.342 0 0 1 3.102-.355l7.98 5.645c1.63.052 3.538-.278 5.538-.624 2.857-.496 6.038-1.04 9.13-.534l3.11-3.532Zm1.063 56.123c-1.19-1.06-3.225-.765-4.55.65-.023.025-.042.053-.066.08l-.624.69-2.498 2.867c.2.333.772 1.067 2.326 2.161a3.054 3.054 0 0 0 4.067-.494l1.137-1.304c.734-.822 1.111-1.835 1.056-2.804a2.902 2.902 0 0 0-.487-1.436 2.347 2.347 0 0 0-.325-.37c-.013-.013-.022-.029-.036-.04Zm-9.574-7.69c-1.024-.041-2.147.431-2.979 1.36l-4.643 5.145c.778 1.968 2.375 3.38 4.435 3.916l1.355-1.502.005-.007 2.392-2.648.228-.252.635-.73.086-.087a4.106 4.106 0 0 0 .856-1.634c.018-.069.042-.136.054-.205a3 3 0 0 0 .05-.399 3.338 3.338 0 0 0-.01-.764L47 70.763v-.02c-.097-.587-.364-1.12-.807-1.514a2.452 2.452 0 0 0-.633-.396 2.727 2.727 0 0 0-1.018-.247Zm-6.284-6.417c-1.223-1.09-3.303-.768-4.632.718l-4.642 5.144c.777 1.97 2.374 3.38 4.434 3.917l4.656-5.158c.711-.797 1.087-1.809 1.032-2.775-.031-.524-.201-1.27-.848-1.846Zm-7.936-7.058c-1.225-1.09-3.302-.768-4.63.718l-3.894 4.314-.007.007-.742.822c.778 1.97 2.374 3.381 4.434 3.917l4.651-5.155c.713-.798 1.09-1.81 1.035-2.779-.03-.524-.201-1.269-.847-1.844Zm49.817-34.883c-6.49-5.705-17.062-4.338-23.564 3.05l-4.02 4.562v.003L40.796 41.194c2.85 1.715 7.026.944 9.757-2.017l7.16-7.396a2.3 2.3 0 0 1 .339-.29l.002-.001c.196-.139.414-.233.635-.305l.102-.033c.21-.057.427-.081.643-.077.044.001.086.004.13.007.218.016.434.056.643.133.026.01.051.024.077.035.204.085.4.197.58.342.011.01.025.011.035.02l.025.022c.004.003.008.005.01.008l3.061 2.664c3.578 2.476 8.843 1.616 12.293-2.019a2.341 2.341 0 0 1 3.32-.079c.94.899.975 2.39.08 3.333-2.538 2.67-5.791 4.282-9.095 4.738l8.809 7.878c.015.012.03.025.044.039l2.72 2.43 7.147-7.992c2.052-2.295 3.136-5.249 2.974-8.102-.136-2.367-1.125-4.484-2.784-5.96l-7.125-6.339c-.063-.055-.111-.12-.167-.182l-2.074-1.823Z"/></svg>