<svg xmlns="http://www.w3.org/2000/svg" width="100" height="100" fill="none"><path fill="#000" fill-rule="evenodd" d="M81.897 23.723c-9.69-6.461-21.347-8.99-32.819-7.124l-5.622.915c-12.986 2.113-23.523 12.24-26.22 25.2l-3.23 15.505-8.218 5.133A5.917 5.917 0 0 0 3 68.319a5.918 5.918 0 0 0 2.663 5.034l11.389 7.508a25.066 25.066 0 0 0 16.878 3.947l15.721-1.96c.024-.003.043-.012.067-.015.04-.007.083-.012.124-.02.012-.003.021-.001.033-.004l46.29-10.405A2.357 2.357 0 0 0 98 70.098v-16.19c0-12.176-6.019-23.46-16.103-30.185Zm-32.07-2.46-5.621.915c-3.235.525-6.283 1.65-9.046 3.231.892.364 1.848.92 2.825 1.793.555.497 1.08 1.072 1.573 1.7a27.737 27.737 0 0 1 8.278-3.176 22.23 22.23 0 0 1 2.354-.344l20.57-2.083a41.066 41.066 0 0 0-20.934-2.036Zm-21.35 13.552c.384-3.37 1.873-5.287 3.727-5.287.836 0 1.746.389 2.665 1.208 2.957 2.642 4.915 8.832 4.352 13.754-.386 3.386-1.87 5.312-3.717 5.312-.839 0-1.753-.397-2.675-1.233-2.953-2.68-4.91-8.868-4.353-13.754Zm64.829 33.39-41.237 9.27 2.167-19.133c.826-7.28 6.421-13.171 13.608-14.325l22.442-3.609a31.633 31.633 0 0 1 3.02 13.5v14.297ZM33.354 80.12a20.372 20.372 0 0 1-13.73-3.212L8.236 69.4a1.191 1.191 0 0 1-.54-1.023c.002-.199.063-.694.567-1.009l7.836-4.893 16.997 10.633.29.207a.6.6 0 0 0 .112.057.815.815 0 0 1 .082.038l8.905 5.57-9.13 1.14Zm14.1-3.593 2.12-18.721c1.064-9.377 8.272-16.967 17.528-18.456l20.67-3.323a31.336 31.336 0 0 0-5.43-6.058 2.356 2.356 0 0 1-.58.192L56.226 34.48c-5.014.848-9.34 3.622-12.233 7.543a20.714 20.714 0 0 1-.109 3.008c-.45 3.935-1.975 6.443-3.822 7.888L37.307 70.18l10.147 6.346ZM23.729 37.914a27.286 27.286 0 0 0-1.9 5.77l-3.097 14.875 6.78 4.242 2.096-13.132c-2.187-3.152-3.622-7.505-3.88-11.755Z" clip-rule="evenodd"/></svg>