<svg xmlns="http://www.w3.org/2000/svg" width="100" height="100"><path fill="#134B45" d="M60.66 38.68V59l-20.32 2.32V41l20.32-2.32zm32.44-3.7a5.6 5.6 0 0 0 4.9-5.5v-5.72a4.51 4.51 0 0 0-1.49-3.36 4.5 4.5 0 0 0-3.5-1.1l-16.73 1.91V4.5c0-1.29-.54-2.51-1.49-3.36a4.48 4.48 0 0 0-3.5-1.1l-5.7.65a5.63 5.63 0 0 0-4.93 5.53V23l-20.32 2.3V8.6a4.5 4.5 0 0 0-1.5-3.36 4.46 4.46 0 0 0-3.5-1.1l-5.73.66a5.6 5.6 0 0 0-4.89 5.49V27.1L7.89 29.02A5.6 5.6 0 0 0 3 34.5v5.72c0 1.29.54 2.52 1.49 3.36a4.48 4.48 0 0 0 3.5 1.1l16.73-1.9V63.1L7.87 65.03A5.56 5.56 0 0 0 3 70.49v5.72a4.53 4.53 0 0 0 1.5 3.37 4.5 4.5 0 0 0 3 1.14 4.3 4.3 0 0 0 .52-.03l16.7-1.9V95.5a4.5 4.5 0 0 0 1.49 3.36 4.47 4.47 0 0 0 3.5 1.1l5.7-.65a5.63 5.63 0 0 0 4.93-5.53V77l20.32-2.32v16.7c0 1.3.55 2.53 1.5 3.38a4.5 4.5 0 0 0 3.52 1.1l5.68-.64a5.62 5.62 0 0 0 4.92-5.53V72.9l16.82-1.92A5.59 5.59 0 0 0 98 65.5v-5.72a4.51 4.51 0 0 0-1.49-3.36 4.5 4.5 0 0 0-3.5-1.1l-16.73 1.9V36.9l16.82-1.92z"/></svg>