<svg xmlns="http://www.w3.org/2000/svg" width="100" height="100" fill="none"><path fill="#000" fill-rule="evenodd" d="M82.264 40.656 67.41 43.19v-4.514l24.4-4.125-11.58 17.05C87.521 50.331 93 53.853 93 61.153c0 7.46-6.493 13.918-14.089 15.303-5.951 1.085-9.748.652-13.617-4.401l4.653-3.147c1.81 2.844 4.578 4.113 8.543 3.395 4.313-.78 9.152-4.591 9.152-9.822 0-5.071-4.06-7.83-9.753-6.832-2.763.485-5.83 2.095-7.64 3.972l-.787-.507 12.802-18.458ZM59.386 16v62.062l-12.6 1.455V57.245l-26.19 3.026v22.274L8 84V21.938l12.597-1.454v28.379l26.19-3.026V17.456L59.386 16Z" clip-rule="evenodd"/></svg>