<svg width="100" height="100" xmlns="http://www.w3.org/2000/svg"><path d="m19.98 66.476-.078-17.84-2.454.281c-1.014.116-2.017.585-2.828 1.321-2.717 2.465-4.196 5.963-3.957 9.362.196 2.8 1.509 5.158 3.7 6.644.71.483 1.622.692 2.559.581l3.059-.35zm3.21-21.532a4.114 4.114 0 0 1 1.348 3.067V66.58c0 2.278-1.77 4.264-4.033 4.523l-3.057.349a8.894 8.894 0 0 1-1.009.058c-1.687 0-3.318-.487-4.674-1.409-3.348-2.269-5.435-5.977-5.73-10.173-.336-4.815 1.71-9.728 5.474-13.142 1.523-1.382 3.446-2.268 5.413-2.494l3.059-.349a4.1 4.1 0 0 1 3.21 1.002zm66.147 3.692c-.196-2.798-1.51-5.158-3.7-6.644-.587-.399-1.31-.608-2.075-.608-.16 0-.324.01-.485.028l-3.058.35.074 17.331c.057.157.096.323.117.495l2.342-.267c1.012-.116 2.016-.586 2.828-1.323 2.715-2.463 4.196-5.962 3.957-9.362zm-.848 12.817c-1.521 1.382-3.444 2.268-5.412 2.493l-2.996.343C78.858 75.27 70.09 84.834 59.185 86.942c-.854 3.482-3.844 6.264-7.514 6.684h-.001l-2.818.32a8.125 8.125 0 0 1-.929.054c-1.85 0-3.572-.644-4.927-1.857-1.57-1.406-2.435-3.39-2.435-5.588 0-4.38 3.413-8.2 7.768-8.698l2.817-.322c2.192-.253 4.278.39 5.86 1.805a7.22 7.22 0 0 1 1.958 2.906c9.345-2.123 16.637-10.923 16.637-20.574v-.423a4.195 4.195 0 0 1-.14-1.024V41.658c0-2.277 1.771-4.263 4.032-4.522l3.059-.35c2.038-.233 4.058.247 5.683 1.35 3.346 2.27 5.435 5.978 5.729 10.175.338 4.813-1.708 9.727-5.475 13.142zM50.264 11.859C36.84 13.394 25.03 23.365 20.875 36.671a2.322 2.322 0 0 1-2.212 1.632 2.33 2.33 0 0 1-2.215-3.025c4.695-15.033 18.074-26.305 33.29-28.045 15.45-1.763 29.014 6.607 33.797 20.83a2.33 2.33 0 0 1-1.456 2.95 2.317 2.317 0 0 1-2.939-1.46c-4.067-12.094-15.666-19.204-28.876-17.694z" fill="#134B45" fill-rule="evenodd"/></svg>