<svg width="100" height="100" xmlns="http://www.w3.org/2000/svg"><path d="M58.238 16v62.063l-12.685 1.454V57.245l-26.369 3.027v22.273L6.5 84V21.939l12.684-1.455v28.379l26.369-3.025V17.456L58.238 16zM93.5 42.036c0 6.297-3.649 11.97-10.174 18.742-2.727 2.85-8.764 9.87-8.764 9.87L93.2 68.557v5.566l-30.421 3.509v-.821L78.25 58.439c5.455-6.194 9.693-11.493 9.727-16.606.033-4.898-2.531-7.664-7.696-7.071-5.529.635-9.334 4.357-11.327 10.61l-5.8-.978c2.176-8.646 8.7-14.506 17.037-15.464 9.604-1.1 13.308 5.825 13.308 13.106z" fill="#134B45" opacity=".99" fill-rule="evenodd"/></svg>