<svg width="100" height="100" xmlns="http://www.w3.org/2000/svg"><path d="M79.622 72.179c5.18-.711 8.753-4.452 8.59-9.361-.163-4.909-3.953-7.714-9.133-7.03-4.809.635-8.815 4.15-8.64 9.424.175 5.273 4.377 7.627 9.183 6.967zm9.359-38.864-12.829 18.81.134.095c1.22-.609 2.71-.859 4.007-1.029 8.147-1.063 13.499 4.389 13.7 10.457.25 7.573-6.009 13.811-13.9 14.906-8.387 1.163-15.275-2.681-15.536-10.55-.127-3.823 1.218-6.88 5.463-13.415l11.986-18.401 6.975-.873zM57.786 16v62.063L45.09 79.518V57.246l-26.393 3.026v22.274L6 84V21.939l12.696-1.455v28.379l26.393-3.025V17.457L57.786 16z" fill="#134B45" fill-rule="evenodd"/></svg>