<svg width="100" height="100" xmlns="http://www.w3.org/2000/svg"><path d="M82.2643811,40.656 L67.4089225,43.19 L67.4089225,38.676 L91.8091399,34.551 L80.2282983,51.601 C87.5224407,50.331 93,53.853 93,61.153 C93,68.613 86.507379,75.071 78.9113004,76.456 C72.9599794,77.541 69.1629334,77.108 65.2943761,72.055 L69.9465769,68.908 C71.7562076,71.752 74.5252801,73.021 78.4901789,72.303 C82.8027015,71.523 87.6416261,67.712 87.6416261,62.481 C87.6416261,57.41 83.5823723,54.651 77.8892862,55.649 C75.1261729,56.134 72.0581437,57.744 70.2485131,59.621 L69.4618899,59.114 L82.2643811,40.656 Z M59.3857632,16 L59.3857632,78.062 L46.7868803,79.517 L46.7868803,57.245 L20.5968965,60.271 L20.5968965,82.545 L8,84 L8,21.938 L20.5968965,20.484 L20.5968965,48.863 L46.7868803,45.837 L46.7868803,17.456 L59.3857632,16 Z" fill="#134B45" fill-rule="evenodd"/></svg>
