<svg width="100" height="100" xmlns="http://www.w3.org/2000/svg"><path d="M92.229 8.932C87.176 4.407 80.474 2.359 73.34 3.176c-10.09 1.154-19.132 8.067-23.452 17.32-4.478-8.264-13.585-13.08-23.749-11.922C11.726 10.222 0 23.337 0 37.813c0 6.079 2.1 11.796 5.917 16.104 4.413 4.981 40.905 41.837 42.455 43.403A2.29 2.29 0 0 0 50 98c.04 0 .077-.002.117-.004a2.293 2.293 0 0 0 1.666-.85c1.55-1.92 38.032-47.105 42.428-53.077C97.944 39.002 100 32.904 100 26.9c0-7.098-2.761-13.479-7.771-17.969" fill="#134B45" fill-rule="evenodd"/></svg>