<svg xmlns="http://www.w3.org/2000/svg" width="100" height="100" fill="none"><path fill="#000" fill-rule="evenodd" d="M93.212 10.121a2.39 2.39 0 0 0-3.35.179l-7.726 8.512a2.33 2.33 0 0 0 .18 3.316c.453.402 1.02.6 1.584.6.65 0 1.297-.262 1.767-.78l7.726-8.513a2.329 2.329 0 0 0-.18-3.314m-42.006 9.381c1.31 0 2.373-1.051 2.373-2.347V6.347C53.58 5.052 52.517 4 51.207 4c-1.31 0-2.373 1.052-2.373 2.347v10.808c0 1.296 1.063 2.347 2.373 2.347M17.098 30.097a2.38 2.38 0 0 0 1.776-.79 2.33 2.33 0 0 0-.202-3.314l-7.726-6.77a2.388 2.388 0 0 0-3.35.2 2.33 2.33 0 0 0 .203 3.312l7.726 6.772c.452.396 1.013.59 1.573.59m63.694 2.179c-3.7-3.268-8.597-4.74-13.81-4.158-6.852.774-13.037 5.149-16.37 11.128-3.473-5.224-9.723-8.188-16.646-7.406C23.509 33.017 15 42.398 15 52.75c0 4.376 1.539 8.498 4.335 11.607 3.098 3.448 28.639 28.87 29.724 29.95a2.391 2.391 0 0 0 3.526-.176c1.085-1.325 26.613-32.486 29.7-36.617 2.708-3.624 4.199-7.987 4.199-12.286 0-5.111-2.02-9.712-5.692-12.952M74.545 56.17a2.38 2.38 0 0 0 1.91-.952c1.926-2.575 2.986-5.682 2.986-8.745 0-4.273-1.98-8.373-5.167-10.703-2.703-1.976-5.999-2.512-9.283-1.514a2.344 2.344 0 0 0-1.572 2.933 2.377 2.377 0 0 0 2.966 1.554c2.32-.704 4.035.047 5.07.803 1.969 1.439 3.24 4.159 3.24 6.927 0 2.067-.73 4.18-2.055 5.955a2.328 2.328 0 0 0 .497 3.282c.424.311.918.46 1.408.46Zm-9.143 13.065 4.853-5.887a2.33 2.33 0 0 0-.34-3.303 2.392 2.392 0 0 0-3.339.337l-4.853 5.886a2.33 2.33 0 0 0 .34 3.302c.44.356.971.529 1.499.529.689 0 1.37-.295 1.84-.864Z" clip-rule="evenodd"/></svg>