<svg xmlns="http://www.w3.org/2000/svg" width="100" height="100" fill="none"><path fill="#000" fill-rule="evenodd" d="M71.74 7.16c6.491-.747 12.59 1.128 17.188 5.272C93.488 16.545 96 22.388 96 28.888c0 5.498-1.871 11.082-5.267 15.722l-.438.587c-5.527 7.33-36.805 46.316-38.173 48.022a2.084 2.084 0 0 1-1.339.761l-.176.017L50.5 94a2.08 2.08 0 0 1-1.482-.623L34.933 79.025c-10.07-10.285-22.22-22.75-24.549-25.395C6.911 49.684 5 44.448 5 38.88c0-13.256 10.67-25.267 23.787-26.776 9.248-1.061 17.536 3.35 21.611 10.918C54.33 14.549 62.557 8.219 71.741 7.16Zm14.51 8.243c-3.734-3.366-8.689-4.886-14.052-4.268-7.517.866-14.515 6.034-17.992 13.193l-.18.378-1.68 3.624c-.694 1.495-2.795 1.557-3.576.107l-1.894-3.518c-3.353-6.228-10.128-9.701-17.632-8.84C18.149 17.355 9 27.654 9 38.88c0 4.461 1.468 8.626 4.118 11.792l.269.313c1.046 1.189 4.305 4.601 9.276 9.73l9.725 9.985 8.99 9.187 8.975 9.142 9.971-12.45L75.262 57.85c6.64-8.355 10.99-13.891 12.243-15.603 2.9-3.964 4.495-8.722 4.495-13.36 0-5.384-2.046-10.143-5.75-13.485Z" clip-rule="evenodd"/></svg>