<svg width="100" height="100" xmlns="http://www.w3.org/2000/svg"><path d="M97.664 43.98c-.01-.077-.02-.15-.035-.225-.017-.072-.04-.142-.061-.214a2.416 2.416 0 0 0-.088-.232c-.014-.031-.02-.063-.035-.094-.079-.159-4.804-9.391-15.31-16.305l-3.117 3.454c7.894 4.965 12.204 11.478 13.64 13.947-2.573 4.953-15.372 26.808-42.246 29.85-3.97.451-7.618.42-10.971.041l-3.754 4.158c2.805.529 5.802.838 9.02.838 1.998 0 4.08-.114 6.24-.359 32.848-3.721 45.996-32.41 46.538-33.63.014-.03.02-.063.033-.094.03-.078.055-.157.077-.24.02-.07.04-.14.05-.21.015-.077.022-.155.028-.233.006-.076.011-.148.01-.223a2.229 2.229 0 0 0-.02-.23m-32.506 4.418a11.604 11.604 0 0 1-4.988 2.844L46.753 66.103a16.51 16.51 0 0 0 3.733.008c6.536-.741 12.096-5.16 14.948-10.858.992-1.983 1.474-4.077 1.666-5.863.114-1.058-1.173-1.733-1.943-.993M8.702 54.316c2.572-4.953 15.371-26.807 42.245-29.852 6.854-.773 12.746-.125 17.79 1.324L49.523 47.07c-.717-1.302-1.128-2.82-1.128-4.483 0-2.786 1.135-5.434 2.97-7.469.855-.948.088-2.464-1.18-2.277-2.438.362-5.148 1.318-7.457 2.787-5.327 3.385-8.964 9.35-8.964 15.748 0 3.703 1.237 6.97 3.296 9.498l-9.249 10.247C16.398 66.2 10.438 57.304 8.701 54.316m76.252-42.97a2.374 2.374 0 0 0-3.341.18l-9.455 10.472c-6.045-2.102-13.247-3.174-21.746-2.21-32.847 3.722-45.995 32.41-46.538 33.63-.013.03-.019.062-.032.093-.03.08-.056.159-.077.241-.02.07-.04.14-.05.21a2.255 2.255 0 0 0-.029.234c-.005.074-.01.148-.008.222 0 .076.008.152.02.23.007.075.017.149.033.224a2.416 2.416 0 0 0 .149.445c.012.033.02.064.035.095.09.184 6.385 12.48 20.64 19.317l-8.333 9.23a2.342 2.342 0 0 0 .178 3.322 2.365 2.365 0 0 0 1.58.603c.65 0 1.296-.264 1.762-.782L85.133 14.67a2.344 2.344 0 0 0-.18-3.324" fill="#134B45" fill-rule="evenodd"/></svg>