<svg width="100" height="100" xmlns="http://www.w3.org/2000/svg"><path d="M88.011 27.375 50.704 6.254c-.731-.414-1.677-.316-2.408.25L10.989 35.379A2.53 2.53 0 0 0 10 37.352v52.627c0 1.239.985 2.135 2.193 2.01l74.614-7.755C88.015 84.11 89 83.008 89 81.77V29.142c0-.755-.372-1.418-.989-1.767zM41.961 84.42V62.58l15.079-1.567v21.84L41.96 84.42zm19.464-2.023V58.321c0-1.238-.985-2.134-2.193-2.009l-19.464 2.023c-1.208.126-2.193 1.227-2.193 2.465v24.077l-23.19 2.41V38.102L49.5 10.924l35.114 19.88V79.99L61.425 82.4z" fill="#134B45" fill-rule="evenodd"/></svg>