<svg width="100" height="100" xmlns="http://www.w3.org/2000/svg"><path d="M71.073 6.013c.195-.023.386-.013.57.01.045.006.085.017.129.024.175.032.343.083.502.152.029.013.056.02.084.034.189.092.362.207.52.344.008.006.018.009.026.015l17.3 15.36c.013.01.02.026.032.037.148.137.279.29.388.461.02.031.034.064.053.095.083.147.15.301.203.464.015.046.03.09.04.137.048.185.08.375.08.574v60.095c0 1.2-.9 2.212-2.092 2.349l-77.283 8.821A2.357 2.357 0 0 1 9 92.637V15.209c0-1.202.9-2.214 2.092-2.349l59.933-6.842h.001zm-2.091 4.995-55.265 6.31v72.671l72.566-8.283V26.368l-14.676 1.675a2.357 2.357 0 0 1-2.625-2.348V11.008zM29.015 49.873V65.6c0 3.12-1.682 5.095-4.86 5.458-1.506.171-2.81-.423-3.485-1.1l-.106-.114 2.128-2.79c.35.278.7.43 1.05.39.62-.071.937-.436.979-1.049l.005-.146V50.363l4.29-.49zm16.812 4.83c0 4.17-2.828 7.422-6.133 7.799-1.976.226-3.34-.406-4.068-1.477l-.095-.149v8.564l-4.29.49V49.62l4.29-.49-.094 2.111c.826-1.558 2.256-2.645 4.352-2.884 3.272-.374 6.038 2.176 6.038 6.347zm30.477-10.26V47.5l-2.001.228c.317.441.477.996.477 1.601 0 2.897-2.225 5.284-5.688 5.68-1.08.123-2.001.069-2.764-.226a1.18 1.18 0 0 0-.349.867c0 .599.367.96 1.23.932l.168-.01 3.335-.221c3.685-.23 5.784 1.059 5.784 3.701 0 2.864-2.099 5.27-7.467 5.882-4.86.555-7.276-1.048-7.276-3.625 0-1.466.954-2.528 2.477-3.276-1.11-.478-1.62-1.312-1.62-2.554 0-1.208.667-2.208 1.876-2.887-.763-.74-1.21-1.771-1.21-2.949 0-2.898 2.353-5.235 5.816-5.63A7.68 7.68 0 0 1 70.786 45l.306.04 5.212-.596zm-6.237 15.56-.212.011-3.558.184c-.256.316-.383.68-.383 1.094 0 1.083.763 1.696 3.115 1.427 2.51-.286 3.081-1.02 3.081-1.849 0-.732-.467-.942-2.043-.867zm-8.4-6.028-.014.26-10.263 1.17c.414 1.353 1.558 2.019 3.496 1.797 1.46-.166 2.584-.826 3.268-1.364l.131-.106 2.448 2.363c-1.304 1.295-2.956 2.344-5.782 2.665-4.83.553-7.945-2.021-7.945-6.19 0-4.107 3.273-7.41 7.466-7.888 4.772-.545 7.401 2.652 7.195 7.293zm-23.213-1.678c-1.842.211-3.05 1.59-3.05 3.596 0 2.132 1.208 3.205 3.05 2.994 1.812-.207 2.955-1.546 2.955-3.68 0-2.005-1.143-3.116-2.955-2.91zm16.05-2.118c-1.61.184-2.727 1.01-3.126 2.538l-.05.213 6.004-.686c-.191-1.475-1.144-2.256-2.829-2.065zm14.525-2.007c-1.303.147-2.003.96-2.003 2.043 0 1.145.7 1.828 2.003 1.68 1.302-.147 2.001-.991 2.001-2.138 0-1.083-.699-1.733-2-1.585zm-39.44-3.33c0 1.591-1.24 2.847-2.702 3.015-1.461.166-2.732-.803-2.732-2.395 0-1.56 1.27-2.818 2.732-2.985 1.462-.168 2.702.806 2.702 2.364zm44.11-31.23v9.435l9.417-1.075-9.417-8.36z" fill="#134B45" fill-rule="evenodd"/></svg>