<svg xmlns="http://www.w3.org/2000/svg" width="100" height="100" fill="none"><path fill="#000" fill-rule="evenodd" d="M92.107 44.904c.213.153.418.315.616.488 6.3 5.478 3.26 18.99-6.92 30.763-4.669 5.399-10.132 9.59-15.383 11.805-2.68 1.13-5.187 1.692-7.426 1.692-2.47 0-4.603-.707-6.304-2.073-.016-.013-.038-.015-.055-.028h-.002c-.146-.1-3.03-2.072-8.27-6.628-2.806-2.44-3.748-6.48-3.041-11.247a2820.532 2820.532 0 0 0-3.166-2.803l-24.648 27.53A7.795 7.795 0 0 1 11.682 97 7.78 7.78 0 0 1 6.5 95.034a7.4 7.4 0 0 1-2.487-5.148 7.404 7.404 0 0 1 1.886-5.398l24.82-27.722-.255-.225-1.236-1.089c-1.385.345-2.71.518-3.952.518-2.619 0-4.878-.757-6.597-2.253l-.004-.005-7.42-6.452c-3.241-2.816-4.148-7.727-2.556-13.824 1.442-5.525 4.81-11.539 9.478-16.939 4.67-5.398 10.131-9.59 15.38-11.803 5.794-2.443 10.77-2.238 14.01.58l7.422 6.454.003.002c2.441 2.125 3.54 5.446 3.235 9.638 3.848 3.42 11.034 9.83 17.42 15.53 3.644-.593 6.767.07 9.03 2.039 1.351 1.175 5.881 4.75 7.43 5.967Zm-78.84-10.269C14.53 29.8 17.539 24.461 21.744 19.6c4.204-4.86 9.05-8.603 13.642-10.542 2.085-.878 3.983-1.317 5.575-1.317 1.456 0 2.66.37 3.512 1.11l1.03.895c-.028.005-.056.013-.084.02a1.13 1.13 0 0 1-.084.021c-.461.094-.94.226-1.417.359-.091.025-.18.047-.27.069-.146.036-.292.072-.443.119-.725.229-1.467.498-2.223.817-5.25 2.213-10.712 6.405-15.381 11.804a53.229 53.229 0 0 0-1.797 2.201l-.167.213c-.5.65-.978 1.299-1.434 1.952-.043.06-.084.122-.124.182l-.115.17c-.409.598-.8 1.196-1.174 1.795l-.083.131-.125.198a47.69 47.69 0 0 0-1.129 1.96l-.185.346-.052.099a41.087 41.087 0 0 0-1.017 2.04l-.015.036a36.628 36.628 0 0 0-.804 1.892l-.046.117-.119.304a35.07 35.07 0 0 0-.653 1.878l-.047.161-.054.182a30.307 30.307 0 0 0-.483 1.826c-.011.044-.023.088-.032.132a24.815 24.815 0 0 0-.324 1.782 9.29 9.29 0 0 0-.037.279l-.013.096c-.074.574-.13 1.14-.153 1.69l-1.072-.932c-1.783-1.55-2.177-4.848-1.08-9.049Zm31.131 27.907 2.226 1.969c.054-.155.117-.312.18-.469l.096-.247c.045-.119.09-.238.138-.355a37.62 37.62 0 0 1 .769-1.816l.085-.188.027-.06a43.234 43.234 0 0 1 2.343-4.363c.047-.077.096-.154.146-.232.044-.067.087-.134.128-.2.344-.549.7-1.095 1.072-1.64.147-.217.3-.433.452-.649a52.155 52.155 0 0 1 1.286-1.743c.09-.12.181-.24.275-.36a54.833 54.833 0 0 1 1.663-2.029c4.5-5.203 9.738-9.267 14.811-11.537.04-.017.08-.038.12-.058.043-.022.087-.043.13-.062-7.946-7.09-13.47-12.01-16.144-14.386l-.001-.001-.19-.168-.27-.241a445.69 445.69 0 0 0-1.27-1.121.21.21 0 0 0-.027-.019.127.127 0 0 1-.027-.018 2.68 2.68 0 0 0-.449-.304 1.25 1.25 0 0 0-.135-.058l-.09-.036-.03-.013c-.112-.048-.223-.097-.347-.133a1.987 1.987 0 0 0-.2-.044l-.088-.018-.025-.005a3.858 3.858 0 0 0-.376-.07 3.805 3.805 0 0 0-.268-.018l-.07-.003a5.395 5.395 0 0 0-.421-.012 7.464 7.464 0 0 0-.536.035l-.127.011a4.755 4.755 0 0 0-.25.026 9.122 9.122 0 0 0-.57.105l-.034.007-.134.027a4.799 4.799 0 0 0-.252.053c-.218.053-.444.122-.67.19l-.043.014c-.048.015-.095.028-.141.041-.068.02-.137.039-.207.063-.366.123-.74.264-1.125.426-3.553 1.498-7.308 4.402-10.572 8.177-2.858 3.305-5.004 6.885-6.15 10.235-.164.477-.305.95-.428 1.419-.816 3.119-.561 5.535.695 6.628.388.336.889.776 1.467 1.283l.003.002.205.18.33.288.003.003v.001l.002.001a2524.915 2524.915 0 0 1 4.246 3.74l.36.319c2.158 1.904 4.49 3.965 6.601 5.834l.935.825.002.002c0 .002.001.002.002.003l.868.768.001.001Zm7.06 14.805c-1.63-1.416-2.082-4.352-1.297-8.08l.001-.005.002-.006.002-.006.006-.017c1.072-5.011 4.237-10.832 8.68-15.971a49.487 49.487 0 0 1 1.84-2.003c.11-.116.224-.227.337-.34l.118-.116.07-.07a46.06 46.06 0 0 1 1.986-1.885 42.8 42.8 0 0 1 1.612-1.371c.124-.103.248-.206.372-.303.58-.458 1.16-.89 1.74-1.299.038-.026.074-.054.11-.08l.001-.001c.05-.037.1-.074.15-.108.651-.45 1.303-.866 1.952-1.253.154-.09.307-.174.46-.258h.001l.24-.132c.41-.228.817-.45 1.221-.652.254-.126.507-.24.76-.355l.08-.037a23.07 23.07 0 0 1 1.2-.507l.13-.05h.002c.15-.058.298-.116.444-.168a18.07 18.07 0 0 1 1.806-.543l.004-.002.004-.001c.924-.215 1.79-.325 2.577-.325 1.458 0 2.662.37 3.514 1.11.286.25.702.596 1.189.995a22.955 22.955 0 0 0-4.057 1.305c-1.03.433-2.07.965-3.106 1.545l-.025.013a38.348 38.348 0 0 0-3.35 2.115 42.102 42.102 0 0 0-1.182.86c-.137.1-.274.201-.41.306a47.594 47.594 0 0 0-2.04 1.681 48.284 48.284 0 0 0-1.575 1.42l-.09.083a50.644 50.644 0 0 0-1.933 1.944v.001h-.001l-.084.09a56.993 56.993 0 0 0-1.586 1.746 55.47 55.47 0 0 0-1.627 1.983l-.109.139c-.082.105-.164.21-.245.317-.503.653-.989 1.31-1.447 1.968a6.604 6.604 0 0 0-.137.204l-.045.069a48.181 48.181 0 0 0-1.178 1.798l-.133.213-.03.047-.103.166c-.4.657-.778 1.313-1.134 1.968l-.039.074-.046.09-.115.219a42.424 42.424 0 0 0-.962 1.928l-.077.16a38.49 38.49 0 0 0-.823 1.94c-.04.102-.078.203-.115.304l-.044.116a33.91 33.91 0 0 0-.637 1.834l-.021.066a27.848 27.848 0 0 0-.578 2.19v.001l-.033.148a25.266 25.266 0 0 0-.328 1.806l-.004.036-.003.027-.002.02a14.942 14.942 0 0 0-.168 2.04l-.006.137c-.003.055-.007.11-.007.162a147.95 147.95 0 0 1-1.68-1.44Zm30.777-4.294c-4.204 4.86-9.05 8.605-13.644 10.542-3.992 1.683-7.304 1.757-9.087.207-3.626-3.153-1.48-13.82 7.397-24.084a49.649 49.649 0 0 1 1.614-1.778c.454-.476.916-.932 1.382-1.383l.117-.118c.049-.05.098-.1.148-.148a45.12 45.12 0 0 1 1.685-1.527c.056-.049.11-.093.166-.137.04-.032.08-.064.12-.098.462-.39.925-.773 1.391-1.136.164-.126.327-.243.49-.36l.25-.182.149-.111c.262-.196.526-.392.79-.575.194-.133.385-.257.576-.38h.001l.247-.16.153-.1a19.901 19.901 0 0 1 1.398-.851l.127-.071.129-.074c.236-.134.472-.268.709-.392.276-.146.547-.277.82-.408a22.354 22.354 0 0 1 2.208-.939 18.095 18.095 0 0 1 1.367-.437 16.152 16.152 0 0 1 1.138-.268l.087-.016.04-.006.046-.009a11.748 11.748 0 0 1 1.18-.15l.073-.005a9.486 9.486 0 0 1 .995-.016l.048.003.084.006c.288.019.563.053.828.101a5.652 5.652 0 0 1 .885.244 4.434 4.434 0 0 1 .776.377l.017.011c.16.1.317.198.456.318l.013.009.005.004.02.016.013.01c3.609 3.167 1.459 13.82-7.407 24.071ZM21.772 50.14a3.915 3.915 0 0 1-.608-.672c0-.001 0-.002-.002-.003a.01.01 0 0 1-.002-.003c-.718-1.003-1.075-2.439-1.064-4.18l-.001-.016v-.014a13.796 13.796 0 0 1 .072-1.224l.004-.088c.001-.033.002-.066.007-.1a18.277 18.277 0 0 1 .217-1.416l.012-.075c.077-.393.18-.804.287-1.215.014-.055.026-.11.038-.164.015-.068.03-.136.049-.207.106-.384.237-.783.368-1.182l.016-.05c.023-.067.042-.132.062-.197.023-.08.047-.158.076-.239.074-.216.161-.437.249-.657l.122-.313c.04-.102.077-.202.115-.303.058-.155.115-.31.182-.469.045-.108.097-.219.149-.33.037-.078.073-.157.108-.235l.052-.118c.162-.37.324-.74.51-1.117.02-.041.042-.082.064-.123.022-.042.044-.083.064-.124 1.482-2.973 3.55-6.129 6.25-9.25 4.203-4.86 9.049-8.604 13.643-10.542.509-.214 1.005-.4 1.491-.563.12-.04.235-.072.351-.104l.217-.061.155-.047c.234-.07.467-.14.692-.195.14-.034.275-.058.41-.082a12.122 12.122 0 0 0 .396-.075c.177-.035.352-.07.522-.092.136-.018.268-.027.4-.037l.184-.013.164-.013c.163-.014.326-.027.482-.029.212-.002.413.011.614.025l.044.003c.047.004.094.006.14.008.095.005.189.01.278.02.184.024.358.064.53.104l.086.02c.046.011.095.02.143.03.073.015.145.03.213.05.21.063.4.151.59.24.037.016.076.03.114.045.05.02.101.04.148.064a3.908 3.908 0 0 1 .726.496c.699.612 1.125 1.442 1.37 2.338a8.23 8.23 0 0 0-1.185-.336 3.725 3.725 0 0 0-.211-.038l-.122-.021a9.78 9.78 0 0 0-.993-.12l-.07-.005c-.093-.006-.185-.013-.28-.016a12.475 12.475 0 0 0-2.834.246c-.092.018-.184.04-.277.06l-.126.03c-.38.085-.765.186-1.156.304l-.064.019c-.124.037-.248.073-.375.115-.52.17-1.044.358-1.58.584-4.208 1.775-8.58 5.127-12.31 9.44-.466.54-.916 1.088-1.35 1.64-3.03 3.873-5.218 8.042-6.228 11.916a21.877 21.877 0 0 0-.36 1.673c-.021.127-.038.252-.055.376l-.008.062-.009.063a14.53 14.53 0 0 0-.167 2.692l.003.133c.002.105.004.209.01.31.03.474.082.936.165 1.377.003.018.008.034.012.051l.008.03c.083.413.19.807.317 1.187.028.085.061.167.094.25l.048.123a7.965 7.965 0 0 0 .557 1.171c.021.036.04.074.059.11.028.056.056.11.09.162-1.136-.051-2.246-.35-3.102-1.094Z" clip-rule="evenodd"/></svg>