<svg xmlns="http://www.w3.org/2000/svg" width="100" height="100" fill="none"><path fill="#000" fill-rule="evenodd" d="m73.977 11.47 13.271-1.512v10.6l-13.27 1.513v-10.6Zm0 41.29v-10.6l13.271-1.511v10.6l-13.27 1.512Zm17.197-47.2a2.367 2.367 0 0 0-1.837-.584L71.353 7.025a2.358 2.358 0 0 0-2.09 2.342v61.379a2.358 2.358 0 0 0 2.624 2.342l17.985-2.05a2.356 2.356 0 0 0 2.09-2.34V7.318a2.36 2.36 0 0 0-.788-1.759ZM56.808 54.715 43.537 56.23v-10.6l13.271-1.512v10.6ZM43.537 14.94l13.271-1.511v10.599L43.537 25.54v-10.6Zm15.361-6.495-17.985 2.049a2.359 2.359 0 0 0-2.09 2.342V58.87c0 .67.287 1.31.788 1.759a2.363 2.363 0 0 0 1.837.583l17.984-2.05a2.357 2.357 0 0 0 2.09-2.342V10.786a2.357 2.357 0 0 0-2.624-2.342Zm-32.53 80.431-13.27 1.511v-10.6l13.27-1.512v10.6Zm-13.27-70.468 13.27-1.512v10.6l-13.27 1.512v-10.6Zm0 25.946v-10.6l13.27-1.513v10.6l-13.27 1.513Zm0 15.344v-10.6l13.27-1.512v10.6l-13.27 1.512Zm15.36-47.785-17.984 2.05a2.356 2.356 0 0 0-2.09 2.34v76.725a2.358 2.358 0 0 0 2.623 2.343l17.986-2.05a2.356 2.356 0 0 0 2.088-2.341V14.254a2.358 2.358 0 0 0-2.623-2.342Z" clip-rule="evenodd"/></svg>