<svg width="100" height="100" xmlns="http://www.w3.org/2000/svg"><path d="m44.35 61.336-5.482.623c-3.694.42-6.586 3.647-6.586 7.342v1.99c0 1.335-1.135 2.59-2.479 2.743l-1.283.146c-3.694.42-6.59 3.647-6.59 7.344v5.164c0 1.333-1.133 2.59-2.476 2.742l-5.818.663v-7.866l29.749-33.095a22.88 22.88 0 0 0 3.213 3.51c1.107.98 2.29 1.833 3.527 2.565l-5.775 6.129zm31.901-30.03c-3.332 3.708-8.67 4.397-11.899 1.539-1.4-1.238-2.233-3.015-2.347-5.004-.137-2.414.786-4.914 2.535-6.859 1.947-2.166 4.578-3.301 7.074-3.301 1.777 0 3.484.574 4.827 1.763 1.397 1.237 2.23 3.014 2.344 5.004.14 2.414-.785 4.914-2.534 6.858zm15.706-3.826c-.373-6.544-3.167-12.438-7.866-16.596-10.438-9.237-27.342-7.398-37.681 4.104-5.307 5.904-8.106 13.58-7.678 21.058a24.735 24.735 0 0 0 2.19 8.897L9.592 79.795A2.307 2.307 0 0 0 9 81.34v11.344c0 .66.28 1.289.775 1.728a2.32 2.32 0 0 0 1.805.572l8.4-.955c3.694-.42 6.586-3.646 6.586-7.342v-5.164c0-1.335 1.136-2.59 2.479-2.744l1.283-.145c3.694-.42 6.59-3.647 6.59-7.344V69.3c0-1.333 1.133-2.59 2.476-2.742l6.324-.72a2.318 2.318 0 0 0 1.425-.714l7.444-7.896a25.045 25.045 0 0 0 7.975 1.297c7.762 0 15.811-3.418 21.716-9.988 5.308-5.905 8.108-13.58 7.679-21.058z" fill="#134B45" fill-rule="evenodd"/></svg>