<svg width="100" height="100" xmlns="http://www.w3.org/2000/svg"><path d="m82.9 6.053-64.8 7.426c-4.456.51-8.1 4.594-8.1 9.076v65.174c0 4.482 3.644 7.73 8.1 7.218l64.8-7.425c4.455-.51 8.1-4.595 8.1-9.075V13.272c0-4.482-3.645-7.729-8.1-7.22zM34.3 44.21v36.66l-12.15 1.393v-36.66L34.3 44.21zm44.549 8.337v23.219l-12.15 1.392V55.57a5.449 5.449 0 0 0-6.076-5.415c-3.239.372-6.074 3.55-6.074 6.807v21.59L42.4 79.943V43.281l12.15-1.392v4.888c2.026-3.49 6.48-6.444 10.126-6.862 7.695-.882 14.174 4.893 14.174 12.632zM35.515 29.813c0 4.074-3.24 7.703-7.29 8.169-4.05.463-7.29-2.424-7.29-6.498 0-4.073 3.24-7.703 7.29-8.167 4.05-.464 7.29 2.424 7.29 6.496z" fill="#134B45" fill-rule="evenodd"/></svg>