<svg xmlns="http://www.w3.org/2000/svg" width="100" height="100" fill="none"><path fill="#000" fill-rule="evenodd" d="M50.787 96.8C67.447 94.927 81 80.007 81 63.545c0-8.067-3.186-15.32-8.974-20.42-5.836-5.145-13.583-7.466-21.814-6.542-5.546.624-10.73 2.718-15.201 5.807V26.976c0-9.514 7.201-17.617 16.752-18.85a12.69 12.69 0 0 1 9.94 2.986 12.378 12.378 0 0 1 4.286 9.35V31.49c0 1.386 1.138 2.511 2.543 2.511 1.405 0 2.542-1.125 2.542-2.51v-11.03c0-5.025-2.194-9.809-6.016-13.124a17.83 17.83 0 0 0-13.953-4.191c-12.074 1.557-21.18 11.802-21.18 23.829V45.48c0 .346.072.677.2.978C23.93 52.63 20 61 20 69.838c0 8.069 3.186 15.32 8.973 20.422C33.97 94.665 40.364 97 47.267 97c1.16 0 2.336-.066 3.52-.2Zm17.852-49.929c4.693 4.136 7.276 10.058 7.276 16.674 0 13.991-11.531 26.67-25.703 28.266-6.78.762-13.114-1.12-17.851-5.298-4.693-4.135-7.276-10.057-7.276-16.675 0-13.991 11.53-26.67 25.702-28.266.986-.11 1.963-.165 2.926-.165 5.657 0 10.876 1.894 14.926 5.464Zm-7.899 15.89c0 4.352-2.722 8.258-6.609 10.027v6.954c0 1.981-1.625 3.587-3.632 3.587-2.006 0-3.632-1.605-3.632-3.587v-6.37c-1.294-.379-2.497-.994-3.521-1.898-1.99-1.755-3.088-4.234-3.088-6.981 0-5.52 4.372-10.336 9.954-10.965 2.796-.317 5.438.485 7.441 2.252 1.99 1.755 3.087 4.234 3.087 6.98Z" clip-rule="evenodd"/></svg>