<svg xmlns="http://www.w3.org/2000/svg" width="100" height="100"><path fill="#134B45" d="M76.67 64.41c0-7.04-2.71-13.34-7.64-17.74a23.2 23.2 0 0 0-15.66-5.81 27.2 27.2 0 0 0-3.07.17c-14.87 1.7-26.96 15.19-26.96 30.07 0 7.04 2.7 13.34 7.63 17.74 4.97 4.45 11.62 6.45 18.73 5.64 14.87-1.7 26.97-15.19 26.97-30.07m5.33 0c0 17.51-14.22 33.38-31.7 35.38a32.53 32.53 0 0 1-3.7.21 28.45 28.45 0 0 1-19.19-7.17C21.34 87.4 18 79.69 18 71.1c0-9.4 4.12-18.3 10.62-24.87a2.7 2.7 0 0 1-.2-1.04V25.51c0-12.8 9.55-23.7 22.21-25.35a18.53 18.53 0 0 1 14.64 4.46 18.6 18.6 0 0 1 6.32 13.96V30.3a2.67 2.67 0 0 1-2.67 2.67 2.67 2.67 0 0 1-2.67-2.67V18.58c0-3.81-1.64-7.44-4.5-9.95a13.19 13.19 0 0 0-10.42-3.18 20.27 20.27 0 0 0-17.58 20.06v16.4a34.72 34.72 0 0 1 15.95-6.18c8.63-.99 16.76 1.48 22.89 6.96C78.66 48.1 82 55.83 82 64.4m-21.26-.83a11.9 11.9 0 0 1-6.93 10.66v7.4A3.81 3.81 0 0 1 50 85.46a3.81 3.81 0 0 1-3.81-3.82v-6.78a9.55 9.55 0 0 1-6.94-9.44c0-5.88 4.6-11 10.45-11.67 2.93-.33 5.7.52 7.8 2.4a9.8 9.8 0 0 1 3.24 7.42"/></svg>