<svg xmlns="http://www.w3.org/2000/svg" width="100" height="100" fill="none"><path fill="#000" fill-rule="evenodd" d="M35.9 26.628a2.476 2.476 0 0 1-2.48 2.474 2.476 2.476 0 0 1-2.478-2.474c0-11.852 8.878-21.949 20.648-23.483 4.92-.64 9.877.864 13.604 4.13a17.208 17.208 0 0 1 5.863 12.934 2.476 2.476 0 0 1-2.478 2.475 2.476 2.476 0 0 1-2.479-2.475c0-3.528-1.522-6.887-4.178-9.214a12.279 12.279 0 0 0-9.69-2.942C42.92 9.268 35.9 17.253 35.9 26.628Zm47.606 3.416c-1.585-1.387-3.74-2.02-5.926-1.733l-53.811 7.1C19.412 35.985 16 39.872 16 44.26v45.302c0 2.196.91 4.251 2.496 5.64C19.828 96.369 21.568 97 23.383 97c.343 0 .689-.021 1.036-.068l53.81-7.099C82.588 89.26 86 85.372 86 80.983V35.68c0-2.194-.91-4.25-2.494-5.636Zm-2.463 50.938c0 1.857-1.62 3.7-3.463 3.944l-53.811 7.1c-.772.102-1.486-.091-2.006-.547-.52-.454-.806-1.134-.806-1.916V44.261c0-1.856 1.62-3.7 3.462-3.944l53.81-7.099a3.04 3.04 0 0 1 .4-.026c.62 0 1.18.198 1.61.572.518.456.804 1.136.804 1.916v45.302ZM58.529 49.67c-2.099-1.873-4.873-2.72-7.811-2.386-5.782.656-10.485 5.894-10.485 11.675 0 2.916 1.15 5.545 3.236 7.406 1.152 1.025 2.52 1.707 3.99 2.091v7.1a3.538 3.538 0 0 0 3.54 3.536 3.54 3.54 0 0 0 3.542-3.535v-7.703c4.19-1.851 7.225-6.137 7.225-10.78 0-2.914-1.15-5.545-3.237-7.404Z" clip-rule="evenodd"/></svg>