<svg width="100" height="100" xmlns="http://www.w3.org/2000/svg"><path d="M81.76 82.96v-48.2c0-.82-.3-1.55-.85-2.03a2.54 2.54 0 0 0-1.7-.61c-.14 0-.28 0-.42.03L21.9 39.7a4.47 4.47 0 0 0-3.66 4.2v48.19c0 .83.3 1.55.85 2.04.55.48 1.3.69 2.12.58l56.89-7.55a4.46 4.46 0 0 0 3.66-4.2zm2.6-54.19a7.95 7.95 0 0 1 2.64 6v48.19c0 4.67-3.6 8.8-8.21 9.42L21.9 99.93a7.8 7.8 0 0 1-6.26-1.84 7.96 7.96 0 0 1-2.64-6v-48.2c0-4.66 3.6-8.8 8.21-9.41l56.89-7.55c2.31-.3 4.59.36 6.26 1.84zm-26.4 20.88a10.4 10.4 0 0 1 3.42 7.88c0 4.93-3.2 9.5-7.64 11.46v8.2A3.75 3.75 0 0 1 50 80.95a3.75 3.75 0 0 1-3.74-3.76v-7.56c-1.56-.4-3-1.13-4.22-2.22a10.42 10.42 0 0 1-3.42-7.88c0-6.15 4.97-11.72 11.08-12.42 3.1-.35 6.04.55 8.26 2.54zM31.42 27.77a2.63 2.63 0 0 1-2.62-2.63c0-12.61 9.38-23.35 21.82-24.99a18.17 18.17 0 0 1 14.39 4.4 18.36 18.36 0 0 1 6.2 13.76 2.63 2.63 0 0 1-2.62 2.63 2.63 2.63 0 0 1-2.63-2.63c0-3.76-1.6-7.33-4.41-9.8A12.93 12.93 0 0 0 51.3 5.38a19.95 19.95 0 0 0-17.26 19.76 2.63 2.63 0 0 1-2.62 2.63z" fill="#134B45"/></svg>