<svg width="100" height="100" xmlns="http://www.w3.org/2000/svg"><path d="M19.04 86.32c-5.2-4.67-8.07-11.37-8.07-18.86 0-15.94 12.9-30.38 28.77-32.2a28.56 28.56 0 0 1 3.27-.19c6.29 0 12.09 2.14 16.59 6.18 5.2 4.67 8.07 11.37 8.07 18.86 0 15.94-12.9 30.38-28.77 32.2-7.54.86-14.6-1.26-19.86-5.99zM92.34.02 64.91 3.18a3.74 3.74 0 0 0-3.28 4.15 3.75 3.75 0 0 0 4.13 3.3l17.86-2.04-22.07 24.7c-6.42-4.48-14.32-6.43-22.65-5.47C19.38 30.04 3.5 47.83 3.5 67.46c0 9.66 3.76 18.34 10.57 24.46A31.85 31.85 0 0 0 35.6 100s3.73 0 7.46-.79c17.96-3.77 32.09-20.6 32.09-39.1 0-8.36-2.83-15.99-8-21.85l21.9-24.52v17.58a3.74 3.74 0 0 0 3.73 3.75 3.74 3.74 0 0 0 3.73-3.75V3.75a3.76 3.76 0 0 0-1.25-2.8 3.71 3.71 0 0 0-2.9-.92z" fill="#134B45"/></svg>