<svg width="100" height="100" xmlns="http://www.w3.org/2000/svg"><path d="M80.47 53.2c0-6.57-5.36-11.92-11.93-11.92S56.6 46.63 56.6 53.21c0 6.57 5.35 11.93 11.93 11.93 6.57 0 11.92-5.36 11.92-11.93M94 52.76c0 13.09-20.97 42.81-23.36 46.16a2.58 2.58 0 0 1-4.2 0c-2.4-3.35-23.37-33.07-23.37-46.16a25.5 25.5 0 0 1 25.47-25.47A25.5 25.5 0 0 1 94 52.76m-45.56 31a2.58 2.58 0 0 1-.61 3.6l-11.3 8a2.58 2.58 0 0 1-2.5.28L8.57 84.87A2.58 2.58 0 0 1 7 82.49V10.81a2.58 2.58 0 0 1 3.34-2.47l24.28 7.46L57.58.44A2.57 2.57 0 0 1 60.02.2l25.45 10.7a2.58 2.58 0 0 1 1.58 2.38v9.36a2.58 2.58 0 1 1-5.16 0V15L59.3 5.5 36.48 20.77a2.58 2.58 0 0 1-2.2.32l-22.11-6.8v66.5l22.56 9.54 10.13-7.18a2.58 2.58 0 0 1 3.6.6" fill="#134B45"/></svg>