<svg width="100" height="100" xmlns="http://www.w3.org/2000/svg"><path d="m4.55 79.9 90.416-9.15A4.574 4.574 0 0 1 100 75.3v.487a5.06 5.06 0 0 1-4.55 5.034L5.033 89.97A4.574 4.574 0 0 1 0 85.42v-.487A5.06 5.06 0 0 1 4.55 79.9zm0-30.36 90.416-9.15A4.574 4.574 0 0 1 100 44.94v.486a5.06 5.06 0 0 1-4.55 5.035L5.033 59.61A4.574 4.574 0 0 1 0 55.06v-.487a5.06 5.06 0 0 1 4.55-5.035zm0-30.36 90.416-9.15A4.574 4.574 0 0 1 100 14.58v.486a5.06 5.06 0 0 1-4.55 5.034L5.033 29.25A4.574 4.574 0 0 1 0 24.7v-.487a5.06 5.06 0 0 1 4.55-5.034z" fill="#134B45" fill-rule="evenodd"/></svg>