<svg xmlns="http://www.w3.org/2000/svg" width="100" height="100" fill="none"><path fill="#000" fill-rule="evenodd" d="m84.493 43.617 1.384 3.76a2.006 2.006 0 0 1-1.216 2.577c-1.056.378-2.224-.16-2.608-1.202l-1.384-3.76c-1.443-3.916-5.84-5.942-9.8-4.516-3.964 1.425-6.015 5.77-4.572 9.686l11.122 30.2a11.448 11.448 0 0 1-.394 8.907c-1.33 2.82-3.692 4.96-6.65 6.023a11.855 11.855 0 0 1-9.012-.389c-2.854-1.315-5.018-3.65-6.095-6.572l-1.545-4.192c-.07.006-.141.014-.212.022a3.601 3.601 0 0 1-.41.032 7.576 7.576 0 0 1-6.857-4.32l-9.341-19.574a10.63 10.63 0 0 1-2.34-3.167L27.36 41.484c-5.457-1.788-10.071-5.925-12.185-11.665-3.67-9.965 1.547-21.023 11.63-24.65a19.548 19.548 0 0 1 14.879.642c4.71 2.171 8.285 6.025 10.062 10.852a18.899 18.899 0 0 1-.65 14.705 19.411 19.411 0 0 1-1.104 1.995l4.63 16.542c.362 1.376.438 2.758.267 4.083l5.591 20.747c.834 3.109-.413 6.246-2.935 8.021l1.545 4.199a7.606 7.606 0 0 0 3.992 4.304 7.74 7.74 0 0 0 5.901.254 7.634 7.634 0 0 0 4.356-3.943 7.492 7.492 0 0 0 .257-5.832l-11.123-30.2c-2.209-6 .933-12.657 7.002-14.84 6.074-2.181 12.808.921 15.018 6.92ZM33.48 42.473a19.61 19.61 0 0 0 6.636-1.16 19.432 19.432 0 0 0 6.727-4.116l3.85 13.753c.873 3.302-.914 6.672-4.16 7.84-3.25 1.17-6.814-.282-8.28-3.348l-5.99-13.016c.404.025.81.047 1.217.047Zm16.443 35.686-7.18-15.045c.487.067.982.103 1.48.103 1.228 0 2.48-.21 3.701-.65a10.715 10.715 0 0 0 4.297-2.856l4.328 16.057c.472 1.762-.478 3.563-2.211 4.186a3.54 3.54 0 0 1-4.415-1.795Zm-6.996-26.94a2.034 2.034 0 0 1-1.912-1.322l-1.098-2.979a2.006 2.006 0 0 1 1.216-2.577 2.041 2.041 0 0 1 2.607 1.2l1.097 2.981a2.002 2.002 0 0 1-1.215 2.576c-.23.083-.465.122-.695.122Z" clip-rule="evenodd"/></svg>