<svg width="100" height="100" xmlns="http://www.w3.org/2000/svg"><path d="M53.689 77.479c.835.78 1.311 1.958 1.311 3.205 0 .312-.026.627-.09.933a5.161 5.161 0 0 1-.257.926 4.61 4.61 0 0 1-.412.863 4.94 4.94 0 0 1-.552.785c-.836.981-2.006 1.637-3.189 1.78a3.95 3.95 0 0 1-3.741-1.667 5.028 5.028 0 0 1-.41-.763 5.19 5.19 0 0 1-.259-.865c-.063-.29-.09-.6-.09-.911 0-1.248.489-2.526 1.324-3.521 1.672-1.964 4.68-2.326 6.365-.765zm0-31.253c.835.78 1.311 1.957 1.311 3.205 0 1.247-.476 2.524-1.311 3.507-.836.982-2.006 1.637-3.189 1.78a3.95 3.95 0 0 1-3.176-1.016c-.835-.78-1.324-1.943-1.324-3.19 0-1.247.489-2.54 1.324-3.522 1.672-1.962 4.68-2.324 6.365-.764zm0-31.253c.205.206.398.413.552.667.168.236.309.49.412.763.116.271.206.559.257.85.064.305.09.613.09.925 0 .312-.026.626-.09.933a4.632 4.632 0 0 1-.257.926 4.61 4.61 0 0 1-.412.862 4.941 4.941 0 0 1-.552.785c-.836.996-2.006 1.638-3.189 1.78-1.183.142-2.34-.22-3.176-1.015a4.25 4.25 0 0 1-.565-.65 5.028 5.028 0 0 1-.41-.764 4.552 4.552 0 0 1-.259-.865 4.86 4.86 0 0 1 0-1.856c.064-.307.141-.615.258-.914.115-.299.256-.586.41-.861.168-.293.36-.547.566-.802 1.672-1.963 4.68-2.325 6.365-.764z" fill="#134B45" fill-rule="evenodd"/></svg>