<svg width="100" height="100" xmlns="http://www.w3.org/2000/svg"><path d="m73.5 63.1-9.69-16.2 5.5-26.73L93.64 60.8 73.5 63.1zM27.89 84.83 41.45 18.9l36.08 60.26-49.65 5.68zm71.78-23.3-29.4-49.1-.04-.05a2.41 2.41 0 0 0-.42-.5l-.02-.02a2.4 2.4 0 0 0-.53-.35l-.08-.04-.06-.03c-.07-.03-.13-.02-.2-.04a2.26 2.26 0 0 0-.52-.11h-.59l-.18.06a2.61 2.61 0 0 0-.7.32 2.14 2.14 0 0 0-.25.17 2.3 2.3 0 0 0-.35.4c-.04.05-.1.08-.13.13L54.32 31.06 42.4 11.15l-.04-.05a2.37 2.37 0 0 0-.42-.5l-.02-.02a2.4 2.4 0 0 0-.53-.35l-.08-.04-.07-.03c-.06-.03-.13-.02-.2-.04a2.36 2.36 0 0 0-.5-.12h-.32l-.28.01-.18.06a2.42 2.42 0 0 0-.7.32 2.49 2.49 0 0 0-.25.17 2.38 2.38 0 0 0-.35.39c-.04.05-.1.09-.13.14L.38 70.86a2.41 2.41 0 0 0 .66 3.27l22.47 15.45.06.03c.16.1.33.18.51.24a2.38 2.38 0 0 0 .79.15l.27-.01 56.63-6.48a2.4 2.4 0 0 0 1.88-1.33c.36-.73.32-1.6-.1-2.3l-7.33-12.25 21.66-2.48a2.4 2.4 0 0 0 1.87-1.32 2.41 2.41 0 0 0-.1-2.3z" fill="#134B45"/></svg>