<svg xmlns="http://www.w3.org/2000/svg" width="100" height="100"><path fill="#134B45" d="M73.112 75.893a4.584 4.584 0 0 1-6.139-2.087C63.758 67.28 57.256 63.226 50 63.226c-7.254 0-13.757 4.054-16.969 10.58a4.586 4.586 0 0 1-8.23-4.052c4.771-9.682 14.424-15.698 25.2-15.698 10.773 0 20.429 6.014 25.2 15.696a4.586 4.586 0 0 1-2.088 6.14M33.03 27.875a6.371 6.371 0 0 1 6.364 6.365 6.371 6.371 0 0 1-6.364 6.364c-3.509 0-6.36-2.856-6.36-6.364 0-3.509 2.851-6.365 6.36-6.365m33.938 0a6.37 6.37 0 0 1 6.363 6.365 6.37 6.37 0 0 1-6.363 6.364 6.37 6.37 0 0 1-6.362-6.364 6.37 6.37 0 0 1 6.362-6.365M50 0C22.43 0 0 22.43 0 50s22.43 50 50 50 50-22.43 50-50S77.57 0 50 0"/></svg>