<svg width="100" height="100" xmlns="http://www.w3.org/2000/svg"><path d="M49.636 93.332c24.232-2.743 43.945-24.56 43.945-48.63 0-11.444-4.448-21.69-12.525-28.855C74.082 9.662 65.106 6.38 55.38 6.38c-1.654 0-3.329.095-5.018.286C26.132 9.411 6.42 31.227 6.42 55.3c0 11.443 4.446 21.69 12.525 28.854C27.102 91.389 38 94.65 49.636 93.333zM85.33 11.088C94.789 19.478 100 31.417 100 44.7c0 27.212-22.268 51.87-49.638 54.97-1.94.22-3.866.329-5.768.329-11.296 0-21.758-3.842-29.925-11.086C5.209 80.522 0 68.584 0 55.299 0 28.089 22.266 3.429 49.636.329 63.106-1.2 75.788 2.626 85.33 11.089zM32.504 42.613c-1.467 0-2.832-.505-3.907-1.458-1.245-1.105-1.929-2.662-1.929-4.384 0-3.438 2.705-6.434 6.157-6.826 1.744-.192 3.388.306 4.64 1.416 1.244 1.105 1.93 2.661 1.93 4.384 0 3.436-2.704 6.434-6.155 6.826a6.657 6.657 0 0 1-.736.042zM66.44 38.77c-1.467 0-2.834-.505-3.907-1.458-1.245-1.103-1.929-2.66-1.929-4.384 0-3.436 2.705-6.435 6.157-6.825 1.755-.19 3.388.307 4.64 1.417 1.246 1.102 1.932 2.66 1.932 4.382 0 3.437-2.706 6.436-6.157 6.826a6.683 6.683 0 0 1-.736.042zM49.48 54.06c10.78-1.221 20.855 3.917 25.672 13.091a4.54 4.54 0 0 1-1.944 6.147c-2.243 1.164-5.015.3-6.189-1.932-3.09-5.892-9.414-9.05-16.5-8.25-7.33.83-14.177 5.87-17.449 12.843a4.59 4.59 0 0 1-4.16 2.632 4.581 4.581 0 0 1-1.934-.428 4.544 4.544 0 0 1-2.218-6.056c4.66-9.932 14.134-16.847 24.722-18.047z" fill="#134B45"/></svg>