<svg width="10" height="10" xmlns="http://www.w3.org/2000/svg">
  <path d="M11.708 10.422A2.123 2.123 0 0 1 9.853 11.5H2.137a2.11 2.11 0 0 1-1.843-1.061 2.134 2.134 0 0 1-.007-2.15l3.868-6.715A2.105 2.105 0 0 1 6.002.5c.775 0 1.466.4 1.848 1.076l3.863 6.708a2.117 2.117 0 0 1-.005 2.138zM6 8.23c.338 0 .617.28.602.633.015.322-.279.604-.602.604a.624.624 0 0 1-.617-.619c0-.336.281-.618.617-.618zm4.87 1.707a1.16 1.16 0 0 0 .007-1.165L7.01 2.058a1.15 1.15 0 0 0-1.009-.588c-.424 0-.799.217-1.009.586L1.125 8.769a1.173 1.173 0 0 0 1.01 1.759H9.85c.425 0 .805-.22 1.02-.591zM5.846 3.889a.618.618 0 0 1 .713.349.766.766 0 0 1 .057.309c-.015.309-.042.618-.057.927-.027.478-.057.955-.084 1.433-.015.155-.015.296-.015.45a.462.462 0 0 1-.461.45.452.452 0 0 1-.461-.435l-.126-2.22c-.015-.195-.027-.392-.042-.588 0-.324.182-.591.476-.675z" fill="none"/>
</svg>
