<svg width="100" height="100" xmlns="http://www.w3.org/2000/svg"><path d="M18.615 56.963c9.341-1.063 13.613 3.98 13.613 9.777 0 4.264-2.936 8.593-7.008 13.387l-1.001 1.18c-1.267 1.477-4.004 3.52-4.004 3.52s3.404-.72 4.606-.856l7.741-.88v7.66L4 94v-.8l13.28-15.567c3.803-4.43 5.606-6.367 5.606-9.231 0-2.265-1.668-3.608-4.205-3.32-3.07.35-4.805 2.947-5.805 5.99l-8.408-1.308c1.602-7.31 7.275-12.018 14.147-12.801zm77.369 15.626a2.376 2.376 0 0 1-1.927 2.61l-.16.024-47.29 5.49a2.375 2.375 0 0 1-.711-4.693l.161-.024 47.29-5.49a2.379 2.379 0 0 1 2.637 2.083zm0-28.367a2.376 2.376 0 0 1-1.927 2.61l-.16.024-47.29 5.49a2.375 2.375 0 0 1-.711-4.693l.161-.024 47.29-5.491a2.376 2.376 0 0 1 2.637 2.084zM25.156 10v34.776l-9.144 1.039V18.502l-6.672.758V11.8L25.156 10zm70.828 5.854a2.377 2.377 0 0 1-1.926 2.61l-.162.024-47.29 5.49a2.376 2.376 0 0 1-2.637-2.084 2.374 2.374 0 0 1 1.927-2.607l.161-.024 47.29-5.493a2.38 2.38 0 0 1 2.637 2.084z" fill="#134B45" opacity=".99" fill-rule="evenodd"/></svg>