<svg width="100" height="100" xmlns="http://www.w3.org/2000/svg"><path d="M8.53 71.45a35.92 35.92 0 0 0 8.31 11.52 37.58 37.58 0 0 0 21.24 9.65c-4.17-5.03-7.4-13.34-9.11-23.5L8.53 71.45zm29-61.35A51.19 51.19 0 0 0 8.76 37.61l20.13-2.29c1.57-9.97 4.52-19.1 8.63-25.22zm50.92 18.45a35.92 35.92 0 0 0-8.82-11.96 37.6 37.6 0 0 0-20.69-9.2c4.2 4.96 7.4 13.25 9.1 23.48l20.4-2.32zM34.1 34.73l28.87-3.28C61.2 20.85 57.73 12.58 53.4 9c-1.55-1.28-3.06-1.82-4.63-1.64-5.72.65-11.94 11.34-14.67 27.36zM28.26 64.1a107 107 0 0 1-.67-12c0-3.85.22-7.75.63-11.58L6.87 42.94a45.05 45.05 0 0 0-1.32 6.07c-.02.07-.02.16-.03.24a42.57 42.57 0 0 0-.28 2.52l-.05.67a42.6 42.6 0 0 0-.01 5.4l.05.62c.06.82.14 1.64.26 2.45v.1c.14.92.3 1.82.5 2.72l.03.16c.2.9.42 1.78.68 2.65l21.56-2.45zm20.67 32.47-.1.14c-.05.08-.1.17-.17.24l-.13.14-.2.2-.17.11-.22.15-.19.09a2.6 2.6 0 0 1-.45.15c-.09.03-.19.04-.28.05l-.12.03a50.14 50.14 0 0 1-3.78.14c-11.33 0-21.77-3.95-29.74-11.31A41.49 41.49 0 0 1 .67 63.01a44.17 44.17 0 0 1-.49-3.74l-.03-.51A47.29 47.29 0 0 1 0 55.23c0-1.17.06-2.32.14-3.47a47.68 47.68 0 0 1 .47-4.13l.09-.46c.18-1.08.4-2.15.65-3.2l.1-.48c.28-1.1.6-2.19.94-3.26.05-.14.07-.28.12-.41.01-.05.04-.08.06-.12C9.03 20.27 27.04 4.73 48.2 2.33 61.4.83 73.76 4.55 83.02 12.8a41.4 41.4 0 0 1 13.3 24.28l.03.12c.19 1.16.34 2.33.44 3.52l.04.53c.09 1.16.14 2.34.14 3.53a2.54 2.54 0 0 1-2.54 2.54 2.54 2.54 0 0 1-2.55-2.54c0-.89-.03-1.76-.09-2.63l-.04-.61a40.22 40.22 0 0 0-.26-2.42l-.02-.14a38.83 38.83 0 0 0-1.2-5.52L68.73 35.9c.12 1.16.24 2.33.33 3.53a2.54 2.54 0 0 1-2.34 2.72 2.55 2.55 0 0 1-2.73-2.34 98.64 98.64 0 0 0-.32-3.34l-30.3 3.45a106.84 106.84 0 0 0-.69 12.16c0 4.03.23 7.85.64 11.43l5.37-.61a2.54 2.54 0 1 1 .58 5.04l-5.24.6c2.44 14.27 7.85 23.58 12.99 24.25h.01a2.54 2.54 0 0 1 2.09 1.74c0 .03.03.06.03.1.04.12.06.25.07.38l.02.11c.02.24 0 .47-.05.69-.02.1-.03.2-.07.3l-.06.15-.13.29zM60.8 82.69c5.27 4.57 13.99 3.43 19.44-2.55a15.2 15.2 0 0 0 4.13-10.97 11.2 11.2 0 0 0-3.77-7.91 11.78 11.78 0 0 0-7.82-2.8c-4.09 0-8.42 1.84-11.62 5.35a15.21 15.21 0 0 0-4.13 10.97 11.2 11.2 0 0 0 3.77 7.9zm37.7 7.66a4.35 4.35 0 0 1 .42 6.14 4.36 4.36 0 0 1-3.3 1.5 4.35 4.35 0 0 1-2.86-1.07l-9.23-8.03a24.4 24.4 0 0 1-14.93 5.28c-4.92 0-9.72-1.61-13.52-4.92a19.82 19.82 0 0 1-6.75-13.96 23.94 23.94 0 0 1 6.38-17.34c8.63-9.46 22.81-10.92 31.62-3.26a19.82 19.82 0 0 1 6.75 13.97c.28 4.76-1.05 9.6-3.7 13.78l9.11 7.91z" fill="#134B45"/></svg>