<svg width="100" height="100" xmlns="http://www.w3.org/2000/svg"><path d="M81.4 85.26 52.9 73.95l39.45-58.83L81.4 85.26zm-2.68-60.05-32.5 48.46-.03.04-.14.25-.11.22-.02.05-.07.21-.08.27-2.76 13.2-8.33-18.85 44.04-43.85zm.05-8.09L30.59 65.1l-19.33-7.67 67.51-40.3zM100 2.83v-.07l-.02-.14a2.72 2.72 0 0 0-.04-.34c-.01-.03 0-.07-.02-.1l-.03-.09a2.81 2.81 0 0 0-.26-.66l-.04-.04a2.8 2.8 0 0 0-.43-.54c-.02-.03-.03-.06-.06-.08l-.1-.1c-.02 0-.02-.02-.03-.03l-.03-.01-.04-.04-.06-.03a2.88 2.88 0 0 0-.75-.4l-.04-.01a2.81 2.81 0 0 0-.82-.14h-.07c-.02 0-.05-.01-.07 0h-.14c-.06 0-.13 0-.2.02l-.1.03a2.9 2.9 0 0 0-.33.08 3 3 0 0 0-.2.07c-.12.04-.23.1-.33.15l-.14.07L3.38 55.51a2.83 2.83 0 0 0 .41 5.07l25.35 10.06L41.38 98.3v.01c.04.07.1.13.13.2.1.18.2.36.35.52.05.06.13.12.2.18.15.13.3.26.46.36l.06.05c.12.07.25.1.38.15l.26.11c.25.07.5.1.76.1v.01H44l.3-.01.06-.02c.26-.04.52-.1.76-.2l.12-.07c.23-.1.45-.24.64-.41l.04-.03a.45.45 0 0 0 .02-.01L62.57 83.9l20.05 7.96a2.88 2.88 0 0 0 2.47-.17 2.84 2.84 0 0 0 1.4-2.03L99.97 3.33l.01-.16a2.88 2.88 0 0 0 .02-.34z" fill="#134B45"/></svg>