<svg width="100" height="100" xmlns="http://www.w3.org/2000/svg"><path d="M71.014 6.013c.2-.023.398-.013.593.012.044.006.088.017.132.025.178.034.347.084.51.154.034.014.068.024.101.041.192.093.37.21.532.35.01.007.02.01.03.02l17.263 15.327c.013.01.02.026.032.038.154.142.29.302.403.479.02.032.036.066.053.1.088.15.158.312.213.481.015.048.03.093.043.14.047.192.081.39.081.597v59.967a2.451 2.451 0 0 1-2.17 2.437l-77.106 8.804A2.446 2.446 0 0 1 9 92.548V15.282c0-1.245.934-2.295 2.17-2.436zm-2.17 5.185-54.95 6.273V89.8l72.211-8.245v-55.03l-14.538 1.66a2.446 2.446 0 0 1-2.724-2.437v-14.55zM43.897 54.913c0 4.164-2.823 7.41-6.12 7.785-1.974.225-3.336-.404-4.06-1.474l-.095-.149v8.548l-4.282.49V49.838l4.282-.489-.097 2.109c.825-1.557 2.252-2.642 4.345-2.88 3.267-.373 6.027 2.172 6.027 6.334zm15.758-17.94v22.94l-4.28.49.093-1.98c-.76 1.516-2.189 2.505-4.25 2.74-3.297.376-6.12-2.225-6.12-6.387 0-4.162 2.79-7.341 6.057-7.713 2.067-.236 3.261.416 4.11 1.56l.11.151V37.461l4.28-.489zm12.621-.315.158.158-2.314 3.124c-.32-.345-.698-.65-1.365-.575-.656.075-1.113.463-1.168 1.323l-.006.178v4.608l3.647-.417v3.558l-3.647.417v9.977l-4.282.49V49.52l-2.251.258v-3.56l2.251-.256v-4.545c0-3.495 1.65-5.464 4.979-5.844 1.804-.205 3.038.167 3.998 1.084zM36.54 52.513c-1.84.21-3.046 1.586-3.046 3.587 0 2.13 1.207 3.2 3.046 2.99 1.807-.207 2.95-1.545 2.95-3.674 0-2-1.143-3.11-2.95-2.903zm15.917-1.817c-1.809.206-2.95 1.576-2.95 3.577 0 2.129 1.141 3.205 2.95 3 1.839-.21 3.045-1.555 3.045-3.685 0-2.001-1.206-3.103-3.045-2.892zm21.28-36.797v9.102l9.082-1.038-9.081-8.064z" fill="#134B45" fill-rule="evenodd"/></svg>