<svg xmlns="http://www.w3.org/2000/svg" width="100" height="100" fill="none"><path fill="#000" fill-rule="evenodd" d="M63.11 94c-2.226 0-4.024-.368-5.47-1.112-11.27-5.816-21.088-13.653-29.184-23.293a2.786 2.786 0 0 1-.207-.243l-.048-.063c-8.041-9.76-14.03-20.957-17.8-33.28-.58-1.895-.532-4.233.148-7.147 2.089-8.957 9.07-16.777 18.22-20.408l5.759-2.286a2.38 2.38 0 0 1 2.703.686L51.15 23.62a2.336 2.336 0 0 1-.277 3.267L36.966 38.863c1.558 6.03 4.3 11.468 8.164 16.176 3.878 4.615 8.646 8.25 14.178 10.806l13.856-11.932a2.373 2.373 0 0 1 3.374.28L90.46 70.957c.63.759.717 1.825.219 2.676l-3.17 5.402c-5.036 8.583-13.787 14.297-22.838 14.91-.542.036-1.062.055-1.561.055ZM31.924 66.394c.023.024.043.05.065.075 7.712 9.215 17.077 16.7 27.833 22.252.66.34 1.985.711 4.527.538 7.507-.507 14.816-5.331 19.071-12.588l2.342-3.99-11.331-13.644L61.27 70.37a2.383 2.383 0 0 1-2.473.388c-6.8-2.867-12.628-7.15-17.317-12.731-4.635-5.65-7.813-12.201-9.457-19.491-.19-.843.101-1.72.76-2.286l13.25-11.411-11.355-13.674-4.155 1.649c-7.734 3.069-13.622 9.624-15.367 17.108-.6 2.568-.455 3.984-.23 4.722 3.59 11.733 9.288 22.389 16.936 31.674.022.024.04.05.06.076Z" clip-rule="evenodd"/></svg>