<svg width="100" height="100" xmlns="http://www.w3.org/2000/svg"><path d="M95.221 72.964 79.675 54.205a3.41 3.41 0 0 0-2.349-1.223 3.434 3.434 0 0 0-2.518.818L59.71 66.826c-5.88-2.8-10.964-6.725-15.112-11.671-4.146-5.064-7.116-10.892-8.845-17.35l15.168-13.09a3.38 3.38 0 0 0 .4-4.721L35.775 1.234a3.426 3.426 0 0 0-3.898-.992L25.445 2.8C14.997 6.954 7.02 15.911 4.632 26.177c-.79 3.392-.839 6.138-.15 8.39 4.231 13.85 10.942 26.437 19.947 37.414a4.897 4.897 0 0 0 .39.467c9.105 10.856 20.139 19.675 32.8 26.222 1.726.892 3.854 1.33 6.47 1.33.573 0 1.17-.02 1.79-.062 10.36-.702 20.368-7.24 26.12-17.063l3.538-6.045a3.38 3.38 0 0 0-.316-3.866" fill="#134B45" fill-rule="evenodd"/></svg>