<svg width="100" height="100" xmlns="http://www.w3.org/2000/svg"><path d="M60.41 50.28c6.86-.72 12.58 3.45 14.03 9.73a2.9 2.9 0 0 1-2.53 3.5L49.5 66.07a2.92 2.92 0 0 1-3.13-3.69c1.73-6.22 7.25-11.27 13.8-12.07a9.82 9.82 0 0 1-11.09-9.97c0-6.21 5.03-11.82 11.22-12.53 6.2-.7 11.22 3.76 11.22 9.96 0 6.17-4.96 11.75-11.1 12.51zm28.8 21.65V13.98l-57.85 6.6v57.96l57.86-6.6zm-78.43-30.6 15.8-1.8V18.45a2.4 2.4 0 0 1 2.12-2.38l14.58-1.67V5.08l-32.5 3.71v32.54zM93.2 9.51c.5.45.8 1.1.8 1.79v62.77a2.4 2.4 0 0 1-2.12 2.38l-43.82 5v11.9a2.4 2.4 0 0 1-2.12 2.38L8.66 99.98A2.39 2.39 0 0 1 6 97.6V60.24c0-1.22.91-2.25 2.12-2.38l18.46-2.11v-11.4L8.66 46.4a2.4 2.4 0 0 1-1.86-.6 2.4 2.4 0 0 1-.8-1.78V6.65c0-1.22.91-2.24 2.12-2.38L45.4.01a2.4 2.4 0 0 1 2.66 2.39v11.46L91.34 8.9a2.39 2.39 0 0 1 1.86.6z" fill="#134B45"/></svg>