<svg xmlns="http://www.w3.org/2000/svg" width="100" height="100" fill="none"><path fill="#000" fill-rule="evenodd" d="M91.579 22.46a2.36 2.36 0 0 0-1.799-1.075 2.39 2.39 0 0 0-1.946.776L65.992 46.478a2.361 2.361 0 0 0 .192 3.345l21.8 19.308a2.362 2.362 0 0 0 3.626-.609c8.531-15.134 8.519-32.783-.031-46.061ZM52.034 49.817 80.439 18.19a2.356 2.356 0 0 0-.192-3.345C62.743-.658 34.345 2.493 16.942 21.866 8.04 31.778 3.348 44.73 4.073 57.398c.628 10.994 5.262 20.846 13.046 27.748l.004.004.003.003.008.006C24.614 91.783 34.084 95 43.841 95c13.04-.001 26.588-5.75 36.541-16.797a2.36 2.36 0 0 0-.185-3.346l-28.163-25.04ZM20.459 25.02C12.39 34.005 8.137 45.707 8.79 57.128c.509 8.9 3.966 16.927 9.783 22.872l28.36-31.574 28.345-31.559C69.005 12.053 61.38 9.71 53.528 9.71c-11.76 0-24.032 5.25-33.069 15.31Zm28.419 28.308L22.11 83.132c15.09 11.574 38 8.854 53.128-6.364L48.878 53.33Z" clip-rule="evenodd"/></svg>