<svg xmlns="http://www.w3.org/2000/svg" width="100" height="100" fill="none"><path fill="#000" fill-rule="evenodd" d="M53.51 5.012C30.036 5.575 6.87 26.297 5.09 50.276c-.163 2.188-1.35 22.44 13.208 34.953 4.356 3.745 8.863 5.714 12.048 6.788-.114-3.557-.04-9.031 1.167-12.923 1.09-3.516 7.015-22.396 7.015-22.396s-1.133-2.687-.821-6.672c.492-6.256 4.474-10.95 8.98-10.976 3.83-.023 5.455 2.847 5.185 6.304-.302 3.86-3.207 9.647-4.891 15.003-1.408 4.485 1.605 8.117 6.012 8.09 7.98-.048 14.774-8.516 15.726-20.688.844-10.773-6.29-18.259-17.32-18.193-12.776.077-21.026 9.726-21.803 19.648-.302 3.868.86 8.005 2.538 10.248.333.444.356.833.21 1.29-.452 1.422-1.448 4.484-1.645 5.11-.262.824-.73 1.002-1.55.61-5.402-2.582-8.265-10.778-7.748-17.376 1.11-14.193 12.421-27.29 31.797-27.406 15.574-.094 26.809 10.956 25.644 25.82-1.213 15.507-11.946 28.045-25.487 28.125-4.551.029-8.643-2.314-9.888-5.104 0 0-2.922 8.605-3.634 10.713-1.319 3.914-4.438 8.829-6.502 11.829 4.098 1.278 8.508 1.954 13.135 1.927 22.079-.134 46.473-20.231 48.422-45.264.215-2.772 1.4-22.077-13.217-34.967C71.398 5.71 59.06 4.879 53.51 5.012Z" clip-rule="evenodd"/></svg>