<svg width="100" height="100" xmlns="http://www.w3.org/2000/svg"><path d="M55.2 39.38a8.27 8.27 0 0 1 2.74 6.27 9.9 9.9 0 0 1-9.75 9.76 8.26 8.26 0 0 1-5.56-2.09 8.27 8.27 0 0 1-2.75-6.27 9.9 9.9 0 0 1 8.7-9.7 8.38 8.38 0 0 1 6.61 2.03zM84.16 77a74.67 74.67 0 0 0-10.52-35.8 69.4 69.4 0 0 0-26.47-25.1l5.31-9.45a77.02 77.02 0 0 1 29.96 28.22c7.33 12.08 11.38 26.2 11.8 41L84.17 77zm-23.23 2.65c.5-1.18.82-2.46.82-3.8 0-2.45-.98-4.68-2.75-6.26a8.36 8.36 0 0 0-6.6-2.03 9.9 9.9 0 0 0-8.71 9.7c0 1.54.42 2.96 1.14 4.22L8.09 85.67l6.68-11.9c.43.72.92 1.4 1.56 1.97a8.26 8.26 0 0 0 6.6 2.03 9.9 9.9 0 0 0 8.71-9.7c0-2.47-.97-4.7-2.75-6.27a8.32 8.32 0 0 0-6.23-2.06l21.73-38.7a63.72 63.72 0 0 1 24.37 23.13 69.03 69.03 0 0 1 9.75 33.49l-17.57 2zm26.4-47.75A82.76 82.76 0 0 0 52.57.3a2.87 2.87 0 0 0-3.74 1.17L.37 87.74a2.86 2.86 0 0 0 2.82 4.24l94.27-10.73a2.86 2.86 0 0 0 2.54-2.84c0-16.76-4.38-32.84-12.66-46.5z" fill="#134B45"/></svg>