<svg xmlns="http://www.w3.org/2000/svg" width="100" height="100" fill="none"><path fill="#000" fill-rule="evenodd" d="M29.337 54.512c0 5.75 2.252 10.923 6.337 14.564 3.528 3.145 8.043 4.814 12.91 4.814.817 0 1.643-.048 2.476-.142 11.683-1.33 21.188-11.909 21.188-23.58 0-5.75-2.251-10.922-6.338-14.565-4.119-3.672-9.583-5.33-15.384-4.67-11.683 1.329-21.189 11.907-21.189 23.579Zm14.146-9.065a2.359 2.359 0 0 1 3.353-2.138l12.932 5.985a2.352 2.352 0 0 1 1.36 1.936 2.352 2.352 0 0 1-1.01 2.14l-12.933 8.927a2.36 2.36 0 0 1-3.702-1.938V45.447ZM95.2 10.353a2.368 2.368 0 0 0-1.857-.57l-48.18 6.1-10.155-8.346a2.367 2.367 0 0 0-1.796-.519L7.065 10.322A2.359 2.359 0 0 0 5 12.66v78.983a2.358 2.358 0 0 0 2.657 2.338l86.28-10.912A2.358 2.358 0 0 0 96 80.729V12.122c0-.676-.291-1.321-.8-1.768Zm-3.92 68.3L9.72 88.97V14.738l23.075-2.916 10.153 8.347a2.356 2.356 0 0 0 1.797.52l46.534-5.893v63.857Z" clip-rule="evenodd"/></svg>