<svg width="100" height="100" xmlns="http://www.w3.org/2000/svg"><path d="M77.375 47.4c.279-1.273 1.534-2.079 2.791-1.794a2.36 2.36 0 0 1 1.778 2.816c-3.164 14.392-14.615 25.82-28.49 28.956.029.193.058.386.058.586v5.683c8.62.184 15.088 2.486 15.088 5.658 0 3.648-8.551 7.06-19.1 7.617-.988.052-1.96.078-2.907.078-9.168 0-16.19-2.37-16.19-5.675 0-3.174 6.466-6.164 15.085-7.257V78.22c-13.69-.25-25.294-9.322-28.426-22.837a2.365 2.365 0 0 1 1.746-2.838 2.341 2.341 0 0 1 2.812 1.763c2.95 12.734 14.315 20.562 27.615 19.03 13.337-1.533 25.171-12.44 28.14-25.938zM64.948 6.967c4.068 3.662 6.354 8.828 6.466 14.584l.004.444V42.07c0 12.055-9.713 22.978-21.652 24.351-.852.098-1.696.146-2.53.146-4.97 0-9.58-1.72-13.182-4.965-4.068-3.664-6.355-8.83-6.467-14.587l-.004-.443v-5.106l-.001-.02.001-.011V26.497c0-12.054 9.713-22.977 21.653-24.35 5.924-.683 11.505 1.03 15.712 4.82zm-13.2-.242c-.652 0-1.314.038-1.982.115-9.215 1.059-16.77 9.148-17.437 18.345.024.042.055.078.078.122.714 1.424 3.942 3.037 9.543 3.43a2.354 2.354 0 0 1 2.173 2.519 2.35 2.35 0 0 1-2.497 2.191c-3.63-.254-6.68-1.006-9.017-2.14l-.345-.174v10.324c.015 1.381 3.02 3.53 9.686 3.999a2.353 2.353 0 0 1 2.173 2.52 2.348 2.348 0 0 1-2.497 2.19c-3.783-.265-6.94-1.053-9.298-2.253.309 4.024 1.993 7.598 4.842 10.165 3.2 2.879 7.476 4.178 12.066 3.65 9.54-1.097 17.32-9.727 17.499-19.324l.003-.335v-.01c-2.692 2.506-6.436 4.762-11.01 5.928a2.343 2.343 0 0 1-2.842-1.712 2.362 2.362 0 0 1 1.697-2.867c6.186-1.576 10.502-5.553 11.893-8.58.049-.106.104-.205.165-.298l.097-.137v-8.578c-2.692 2.506-6.436 4.762-11.01 5.928a2.344 2.344 0 0 1-2.842-1.712 2.362 2.362 0 0 1 1.697-2.868c6.12-1.558 10.397-5.463 11.835-8.478-.635-3.216-2.21-6.055-4.588-8.195-2.731-2.46-6.255-3.765-10.081-3.765z" fill="#373942" fill-rule="evenodd"/></svg>