<svg xmlns="http://www.w3.org/2000/svg" width="100" height="100"><path fill="#134B45" d="M75.2 62.502C70.428 72.184 60.773 78.2 50 78.2s-20.429-6.016-25.2-15.698a4.59 4.59 0 0 1 2.09-6.14 4.59 4.59 0 0 1 6.14 2.089C36.243 64.976 42.747 69.03 50 69.03c7.255 0 13.758-4.056 16.975-10.581a4.585 4.585 0 1 1 8.224 4.053zM33.031 27.876a6.37 6.37 0 0 1 6.364 6.363 6.372 6.372 0 0 1-6.364 6.364 6.37 6.37 0 0 1-6.363-6.364 6.37 6.37 0 0 1 6.363-6.363zm33.938 0a6.368 6.368 0 0 1 6.36 6.363c0 3.508-2.851 6.364-6.36 6.364a6.372 6.372 0 0 1-6.364-6.364 6.37 6.37 0 0 1 6.364-6.363zM50 0C22.43 0 0 22.43 0 50s22.43 50 50 50 50-22.43 50-50S77.57 0 50 0z"/></svg>