<svg xmlns="http://www.w3.org/2000/svg" width="100" height="100"><path fill="#134B45" d="M71.072 6.013c.197-.023.39-.013.577.01.039.006.074.016.112.022.18.033.35.084.513.156l.083.032c.186.09.358.204.516.339l.03.02 17.302 15.359c.013.012.02.027.032.039.148.136.278.289.387.459.02.032.035.065.054.097.082.146.15.3.2.463a2.312 2.312 0 0 1 .121.71H91v60.096c0 1.2-.9 2.212-2.092 2.349l-77.283 8.821A2.357 2.357 0 0 1 9 92.637V15.209c0-1.202.9-2.214 2.092-2.349zm-2.092 4.995-55.263 6.31v72.671l72.566-8.283V26.368l-14.677 1.675a2.357 2.357 0 0 1-2.625-2.348V11.008zM43.584 55.07c0 4.17-2.828 7.421-6.132 7.798-1.977.226-3.341-.405-4.067-1.477l-.095-.149v8.564l-4.29.49v-20.31l4.29-.49-.096 2.112c.826-1.558 2.256-2.646 4.353-2.885 3.273-.374 6.037 2.176 6.037 6.347zm16-1.688c0 4.17-2.828 7.421-6.132 7.798-1.977.226-3.341-.406-4.067-1.477l-.095-.149v8.564l-4.29.49v-20.31l4.29-.49-.096 2.112c.826-1.559 2.256-2.646 4.353-2.885 3.273-.374 6.037 2.176 6.037 6.347zM66.097 39v7.066l3.462-.395v3.566l-3.462.395v5.029c0 1.37.445 1.605 1.112 1.528.63-.071 1.104-.435 1.4-.67l.093-.072 1.621 2.806c-.668.618-1.812 1.449-3.781 1.674-2.672.305-4.615-.783-4.7-4.64l-.003-.267v-4.903l-2.003.23V46.78l2.003-.229v-7.067L66.097 39zM36.212 52.665c-1.843.21-3.05 1.589-3.05 3.596 0 2.132 1.207 3.204 3.05 2.993 1.813-.206 2.955-1.547 2.955-3.68 0-2.005-1.142-3.116-2.955-2.91zm16-1.689c-1.843.211-3.05 1.59-3.05 3.596 0 2.132 1.207 3.205 3.05 2.994 1.813-.207 2.955-1.547 2.955-3.68 0-2.005-1.142-3.116-2.955-2.91zm21.486-37.365v9.436l9.418-1.075-9.418-8.36z" fill-rule="evenodd"/></svg>