<svg xmlns="http://www.w3.org/2000/svg" width="100" height="100" fill="none"><path fill="#000" fill-rule="evenodd" d="m97.996 78.655-4.663-3.294c1.581-2.012 2.55-4.506 2.55-7.104v-15.81c0-2.856-1.121-5.42-3.158-7.216a9.205 9.205 0 0 0-1.628-1.148l-3.417-2.57-.033-.024c-5.864-4.409-16.72-12.572-17.853-13.427a10.688 10.688 0 0 0-3.621-1.79v-9.899c0-.683-.293-1.332-.803-1.782a2.35 2.35 0 0 0-1.86-.571l-38.26 5.03a2.366 2.366 0 0 0-2.052 2.353v9.793l-9.133 1.219C8.515 33.145 4 38.322 4 43.955v15.81c0 2.856 1.12 5.42 3.155 7.218 1.484 1.31 21.582 16.318 23.88 18.034h.001l.002.002c.345.256.738.378 1.137.424a9.328 9.328 0 0 0 3.929.886c.45 0 .907-.03 1.366-.091l14.872-1.978 4.688 3.31a2.35 2.35 0 0 0 1.658.411l38.26-5.03a2.378 2.378 0 0 0 1.048-4.295Zm-61.144 2.879c-1.447.19-2.797-.186-3.795-1.069-1-.882-1.55-2.177-1.55-3.648V61.01c0-3.282 2.73-6.418 5.963-6.85l48.351-6.428c.247-.032.49-.049.73-.049 1.166 0 2.237.386 3.067 1.117.998.883 1.55 2.18 1.55 3.649v15.81c0 1.596-.659 3.147-1.697 4.377l-8.247-5.825a2.35 2.35 0 0 0-1.66-.41l-38.26 5.03a2.36 2.36 0 0 0-1.985 1.785c-.231.95.14 1.947.937 2.51l6.384 4.507-9.788 1.302ZM41.91 64.9a2.362 2.362 0 0 1-2.639-2.051 2.37 2.37 0 0 1 2.035-2.655l6.55-.848a2.35 2.35 0 0 1 2.639 2.052 2.37 2.37 0 0 1-2.037 2.655l-6.548.847Zm17.076 18.256-11.062-7.813 31.341-4.12 11.061 7.812-31.34 4.121Zm2.47-64.08-33.545 4.41v14.54l33.546-4.41v-14.54Z" clip-rule="evenodd"/></svg>