<svg width="100" height="100" xmlns="http://www.w3.org/2000/svg"><path d="m57.88 83.46-11.64-8.13 32.99-4.29 11.64 8.13-32.99 4.29zm-23.3-1.69c-1.52.2-2.94-.2-4-1.11a4.94 4.94 0 0 1-1.63-3.8V60.41a7.5 7.5 0 0 1 6.28-7.12l50.9-6.7c.26-.03.51-.04.77-.04 1.22 0 2.35.4 3.22 1.16a4.94 4.94 0 0 1 1.64 3.8v16.45c0 1.66-.7 3.27-1.8 4.55l-8.67-6.06a2.5 2.5 0 0 0-1.75-.43l-40.27 5.24a2.46 2.46 0 1 0-1.1 4.47l6.71 4.69-10.3 1.35zm-9.41-60.4 35.31-4.59v15.13l-35.31 4.6V21.36zm14.41 43.11a2.48 2.48 0 0 1-2.45-2.15 2.47 2.47 0 0 1 2.14-2.76l6.9-.88a2.47 2.47 0 1 1 .63 4.9l-6.9.87a2.49 2.49 0 0 1-.31.02zm59.36 14.3-4.9-3.43a11.96 11.96 0 0 0 2.68-7.4V51.52A9.8 9.8 0 0 0 93.39 44a9.7 9.7 0 0 0-1.71-1.2c-2.5-1.85-20.9-15.52-22.43-16.67-1.2-.9-2.48-1.5-3.8-1.86v-10.3a2.46 2.46 0 0 0-.85-1.85 2.5 2.5 0 0 0-1.96-.6l-40.27 5.24a2.47 2.47 0 0 0-2.16 2.44v10.2l-9.62 1.26C4.75 31.42 0 36.81 0 42.67v16.45a9.8 9.8 0 0 0 3.32 7.51c1.56 1.37 22.73 17 25.14 18.77.36.27.78.4 1.2.44a9.91 9.91 0 0 0 4.13.92c.48 0 .96-.03 1.44-.1l15.66-2.05 4.93 3.44a2.5 2.5 0 0 0 1.75.43l40.27-5.23a2.48 2.48 0 0 0 2.09-1.86 2.46 2.46 0 0 0-.99-2.61z" fill="#134B45"/></svg>