<svg xmlns="http://www.w3.org/2000/svg" width="100" height="100" fill="none"><path fill="#000" fill-rule="evenodd" d="M12.353 85.582A2.355 2.355 0 0 1 10 83.224V13.677c0-1.205.905-2.214 2.099-2.345L69.96 5.017a2.303 2.303 0 0 1 1.826.588c.498.447.781 1.086.781 1.756v28.362a2.355 2.355 0 0 1-2.352 2.358 2.355 2.355 0 0 1-2.353-2.358V9.99l-53.156 5.8v64.804l18.138-1.98c1.289-.167 2.452.794 2.593 2.089a2.356 2.356 0 0 1-2.084 2.6l-20.746 2.263a2.02 2.02 0 0 1-.254.015Zm11.64-51.51a2.354 2.354 0 0 1-2.336-2.104 2.357 2.357 0 0 1 2.086-2.598l33.483-3.612a2.36 2.36 0 0 1 .504 4.691l-33.482 3.61a2.32 2.32 0 0 1-.255.014Zm0 15.469a2.354 2.354 0 0 1-2.336-2.105 2.357 2.357 0 0 1 2.086-2.598l26.744-2.884a2.359 2.359 0 0 1 .504 4.69l-26.744 2.883c-.084.01-.17.014-.254.014Zm-2.336 13.31a2.354 2.354 0 0 0 2.59 2.092l14.218-1.532a2.357 2.357 0 0 0 2.087-2.598 2.356 2.356 0 0 0-2.591-2.093l-14.218 1.533a2.357 2.357 0 0 0-2.086 2.599Zm62.15-11.47c-4.589-4.106-10.674-5.965-17.14-5.22C53.617 47.651 43 59.511 43 72.599c0 6.432 2.506 12.216 7.057 16.287 3.929 3.516 8.958 5.38 14.382 5.38.91 0 1.83-.052 2.761-.16 13.05-1.49 23.665-13.35 23.665-26.438 0-6.432-2.506-12.217-7.058-16.288ZM68.434 75.27c0-.263.226-.437.423-.507 4.802-1.695 8.156-6.359 8.156-11.342 0-2.968-1.164-5.643-3.277-7.536-2.13-1.904-4.933-2.767-7.922-2.427-3.672.42-7.034 2.641-8.993 5.946-1.096 1.843-1.672 3.91-1.672 5.976a2.355 2.355 0 0 0 2.352 2.358c1.3 0 2.353-1.055 2.353-2.358 0-1.218.348-2.451 1.011-3.566 1.213-2.044 3.262-3.417 5.483-3.67 1.621-.177 3.138.262 4.254 1.26 1.1.985 1.706 2.412 1.706 4.017 0 2.968-2.108 5.868-5.014 6.894-2.132.752-3.565 2.744-3.565 4.955v1.728a2.355 2.355 0 0 0 2.353 2.358 2.356 2.356 0 0 0 2.353-2.358V75.27Zm-1.05 11.859c.135-.081.256-.19.363-.297a2.344 2.344 0 0 0 .686-1.67 2.37 2.37 0 0 0-.686-1.658 2.343 2.343 0 0 0-2.56-.515l-.007.002a1.863 1.863 0 0 0-.404.218 1.84 1.84 0 0 0-.363.295 2.372 2.372 0 0 0-.685 1.657c0 .635.241 1.226.685 1.671.229.23.484.404.767.512.282.122.591.19.9.19.162 0 .31-.015.456-.054.163-.028.31-.068.444-.136.136-.054.282-.121.404-.215Z" clip-rule="evenodd"/></svg>