<svg width="100" height="100" xmlns="http://www.w3.org/2000/svg"><path d="M6.55 86.65a2.56 2.56 0 0 1-1.7-.65A2.53 2.53 0 0 1 4 84.11V9.33c0-1.3.98-2.38 2.27-2.52L68.9 0a2.5 2.5 0 0 1 1.98.64c.53.48.84 1.17.84 1.89v30.5a2.54 2.54 0 0 1-2.54 2.53 2.54 2.54 0 0 1-2.55-2.53V5.37L9.09 11.6v69.68l19.64-2.13c1.39-.17 2.65.86 2.8 2.25a2.54 2.54 0 0 1-2.25 2.8L6.82 86.63a2.2 2.2 0 0 1-.27.02zm12.6-55.39A2.54 2.54 0 0 1 16.62 29a2.54 2.54 0 0 1 2.26-2.8l36.23-3.88a2.55 2.55 0 0 1 2.81 2.25 2.54 2.54 0 0 1-2.26 2.8l-36.24 3.88-.27.01zm0 16.63a2.54 2.54 0 0 1-2.53-2.26 2.54 2.54 0 0 1 2.26-2.8l28.94-3.1c1.4-.14 2.66.86 2.8 2.26a2.54 2.54 0 0 1-2.25 2.79l-28.95 3.1-.27.01zm0 16.58a2.54 2.54 0 0 1-2.53-2.26 2.54 2.54 0 0 1 2.26-2.8l15.38-1.65a2.55 2.55 0 0 1 2.8 2.25 2.54 2.54 0 0 1-2.25 2.8l-15.39 1.64-.27.02zm53.03 14.56A13.2 13.2 0 0 0 81 66.83c0-3.19-1.26-6.07-3.55-8.1a10.87 10.87 0 0 0-8.57-2.61 13.2 13.2 0 0 0-11.55 12.82 2.54 2.54 0 0 0 2.55 2.53 2.54 2.54 0 0 0 2.55-2.53 8.08 8.08 0 0 1 7.03-7.78c1.75-.2 3.39.28 4.6 1.35a5.67 5.67 0 0 1 1.84 4.32c0 3.2-2.28 6.31-5.42 7.41a5.7 5.7 0 0 0-3.86 5.33v1.86a2.54 2.54 0 0 0 2.55 2.54 2.54 2.54 0 0 0 2.54-2.54v-1.86c0-.28.25-.47.46-.54zM70.98 92c.48-.48.74-1.12.74-1.8a2.54 2.54 0 0 0-3.04-2.48 3.1 3.1 0 0 0-.48.15 2.02 2.02 0 0 0-.44.23 2 2 0 0 0-.4.32 2.54 2.54 0 0 0-.73 1.78 2.51 2.51 0 0 0 1.57 2.35 2.5 2.5 0 0 0 1.47.14c.17-.03.33-.07.48-.14.14-.06.3-.13.43-.24.15-.08.28-.2.4-.32zm17.38-38.12C93.29 58.26 96 64.49 96 71.4c0 14.07-11.49 26.82-25.61 28.43a26.12 26.12 0 0 1-3 .17c-5.86 0-11.3-2-15.56-5.79-4.93-4.37-7.64-10.6-7.64-17.5 0-14.08 11.5-26.83 25.62-28.44 7-.8 13.58 1.2 18.55 5.61z" fill="#134B45"/></svg>