<svg width="100" height="100" xmlns="http://www.w3.org/2000/svg"><path d="M49.734 5.297c12.118-1.377 23.514 2.065 32.087 9.692C90.32 22.549 95 33.31 95 45.289c0 24.592-20.067 46.877-44.734 49.678-8.04.913-15.917-.331-22.845-3.6L9.263 97.863a2.345 2.345 0 0 1-3.055-2.839l5.061-17.892C7.165 70.668 5 63.031 5 54.976 5 30.383 25.069 8.098 49.734 5.296zm5.173 4.386c-1.529 0-3.076.089-4.641.265-22.37 2.54-40.568 22.739-40.568 45.028 0 7.507 2.099 14.581 6.07 20.46.384.57.498 1.28.312 1.942L11.967 91.92l14.802-5.293a2.363 2.363 0 0 1 1.854.113c6.324 3.19 13.622 4.426 21.111 3.575 22.37-2.54 40.568-22.739 40.568-45.027 0-10.627-4.123-20.146-11.61-26.807-6.462-5.75-14.779-8.798-23.785-8.798zm-5.136 61.618c.255.054.51.12.752.228a4.3 4.3 0 0 1 .697.36c.215.148.43.322.618.51.174.173.349.387.496.601.148.214.269.455.376.696.094.24.175.495.228.749.054.267.081.522.081.79a4.084 4.084 0 0 1-1.181 2.835 4.085 4.085 0 0 1-2.859 1.177 4.053 4.053 0 0 1-2.845-1.177 4.084 4.084 0 0 1-1.182-2.836c0-.267.027-.522.08-.79.055-.253.135-.507.23-.748.106-.241.227-.482.375-.696.148-.214.322-.428.497-.602.187-.187.402-.361.617-.508a4.3 4.3 0 0 1 .698-.361 3.74 3.74 0 0 1 .752-.228 3.88 3.88 0 0 1 1.57 0zm10.998-43.737c3.272 2.911 5.073 7.025 5.073 11.584 0 7.622-5.155 14.754-12.537 17.343-.121.044-.244.128-.281.22l-.012.057v3.588a4.021 4.021 0 0 1-4.026 4.013 4.022 4.022 0 0 1-4.022-3.813l-.005-.2v-3.588c0-3.503 2.279-6.656 5.672-7.847 4.149-1.455 7.158-5.565 7.158-9.773 0-2.241-.846-4.227-2.382-5.595-1.56-1.387-3.671-2.01-5.965-1.748-3.164.358-6.088 2.308-7.821 5.212-.942 1.58-1.44 3.324-1.44 5.044a4.02 4.02 0 0 1-4.027 4.013 4.02 4.02 0 0 1-4.026-4.013c0-3.163.89-6.327 2.573-9.146 3.01-5.047 8.18-8.445 13.828-9.086 4.595-.52 8.945.804 12.24 3.735z" fill="#134B45" fill-rule="evenodd"/></svg>