<svg width="100" height="100" xmlns="http://www.w3.org/2000/svg"><path d="M49.733 4.297C25.067 7.1 5 29.384 5 53.975c0 8.056 2.164 15.691 6.268 22.156l-5.06 17.888a2.339 2.339 0 0 0 .66 2.351 2.357 2.357 0 0 0 2.399.492l18.156-6.494c6.925 3.27 14.8 4.513 22.842 3.6C74.932 91.167 95 68.88 95 44.288c0-11.976-4.68-22.737-13.179-30.297-8.573-7.628-19.966-11.072-32.088-9.694zM28.626 85.735a2.361 2.361 0 0 0-1.856-.115l-14.795 5.29 4.112-14.533a2.34 2.34 0 0 0-.313-1.945c-3.97-5.878-6.07-12.951-6.07-20.457 0-22.284 18.196-42.48 40.561-45.02 10.77-1.217 20.863 1.81 28.423 8.534 7.484 6.658 11.607 16.176 11.607 26.8 0 22.284-18.195 42.48-40.562 45.02-7.486.85-14.784-.386-21.107-3.574zm9.392-50.173c2.574-.286 4.992.45 6.833 2.088 1.826 1.625 2.833 3.922 2.833 6.467 0 .648-.066 1.284-.188 1.903-.462 5.104-2.882 10.307-6.96 14.835a26.216 26.216 0 0 1-7.123 5.594 2.688 2.688 0 0 1-3.64-1.093 2.673 2.673 0 0 1 1.096-3.628 20.841 20.841 0 0 0 5.665-4.454 26.003 26.003 0 0 0 2.378-3.062c-.121.018-.24.045-.362.059a9.333 9.333 0 0 1-1.087.063c-2.16 0-4.167-.745-5.746-2.15-1.828-1.625-2.833-3.922-2.833-6.466 0-5.113 4.011-9.574 9.134-10.156zM62.98 32.73c2.56-.289 4.992.448 6.833 2.085 1.826 1.626 2.833 3.923 2.833 6.469a9.71 9.71 0 0 1-.188 1.904c-.461 5.101-2.882 10.305-6.96 14.833a26.222 26.222 0 0 1-7.123 5.594 2.69 2.69 0 0 1-3.64-1.093 2.675 2.675 0 0 1 1.098-3.629 20.903 20.903 0 0 0 5.664-4.452 26.1 26.1 0 0 0 2.377-3.062c-.121.017-.24.044-.362.059a9.615 9.615 0 0 1-1.087.061c-2.16 0-4.167-.745-5.746-2.147-1.826-1.627-2.833-3.923-2.833-6.469 0-5.11 4.012-9.572 9.134-10.153z" fill="#134B45" opacity=".99" fill-rule="evenodd"/></svg>