<svg width="100" height="100" xmlns="http://www.w3.org/2000/svg"><path d="M74.781 23.769A35.021 35.021 0 0 0 54.37 13.538a6.873 6.873 0 0 1-5.86-7.679A6.749 6.749 0 0 1 56.14.065a48.478 48.478 0 0 1 28.164 14.14c18.354 18.519 19.235 48 2.658 67.58l.37.016a6.806 6.806 0 1 1-.593 13.621l-17.268-.831a5.926 5.926 0 0 1-5.646-5.984l.181-16.732a6.765 6.765 0 0 1 13.54.009 36.428 36.428 0 0 0-2.765-48.115zM24.107 74.988a34.78 34.78 0 0 0 19.72 10.231c3.786.601 6.296 4.049 5.712 7.737a6.873 6.873 0 0 1-7.769 5.728 48.559 48.559 0 0 1-27.325-13.991C-3.852 66.231-4.774 36.93 11.67 17.251l-.535-.025a6.806 6.806 0 1 1 .601-13.612l17.268.823a5.926 5.926 0 0 1 5.638 5.991l-.181 16.725a6.765 6.765 0 0 1-13.522.238 36.436 36.436 0 0 0 3.169 47.596z" fill="#134B45"/></svg>