<svg width="100" height="100" xmlns="http://www.w3.org/2000/svg"><path d="m72.461 78.32 10.874 9.669a4.975 4.975 0 0 1 .422 7.003 4.93 4.93 0 0 1-6.98.422l-10.921-9.71-11.315 12.649A4.924 4.924 0 0 1 50.86 100a4.917 4.917 0 0 1-3.301-1.268 4.974 4.974 0 0 1-.378-7.007l11.273-12.602-10.872-9.666a4.975 4.975 0 0 1-.422-7.004 4.934 4.934 0 0 1 6.98-.423l10.92 9.71 11.316-12.65a4.93 4.93 0 0 1 6.981-.376 4.972 4.972 0 0 1 .377 7.005L72.461 78.321zm-32.23-31.84a2.89 2.89 0 0 1 2.257 2.632 2.896 2.896 0 0 1-1.886 2.913c-9.458 3.471-17.012 11.659-19.717 21.37a3.11 3.11 0 0 0 .636 2.885 3.107 3.107 0 0 0 2.76 1.097l11.013-1.26a2.872 2.872 0 0 1 3.19 2.548 2.89 2.89 0 0 1-2.537 3.203l-11.013 1.259a8.906 8.906 0 0 1-7.803-3.093 8.941 8.941 0 0 1-1.801-8.197c2.572-9.238 8.861-17.31 17.042-22.247-7.088-4.056-11.518-11.664-11.518-20.57 0-14.28 11.57-27.22 25.793-28.846 7.078-.807 13.713 1.222 18.728 5.714 4.974 4.455 7.715 10.784 7.715 17.82 0 8.825-4.417 17.346-11.467 22.861 1.618.64 3.17 1.424 4.655 2.348a2.9 2.9 0 0 1 .93 3.984 2.877 2.877 0 0 1-3.972.933c-2.806-1.748-5.941-2.87-9.313-3.334a2.898 2.898 0 0 1-.786-5.51c8.484-3.807 14.185-12.36 14.185-21.283 0-5.363-2.056-10.159-5.788-13.501C57.76 6.825 52.7 5.302 47.3 5.923 35.899 7.227 26.622 17.587 26.622 29.018c0 8.643 5.47 15.661 13.61 17.46z" fill="#134B45" fill-rule="evenodd"/></svg>