<svg width="100" height="100" xmlns="http://www.w3.org/2000/svg"><path d="M78.512 45.657A2.485 2.485 0 0 1 81 48.141v38.722c0 1.264-.95 2.326-2.206 2.47L52.75 92.295h-.001l-13.873 1.579-27.336 3.11a2.497 2.497 0 0 1-1.94-.614 2.484 2.484 0 0 1-.832-1.853V48.553l-4.447 4.85a2.481 2.481 0 0 1-1.835.806c-.6 0-1.201-.215-1.679-.652a2.482 2.482 0 0 1-.156-3.51l42.397-46.24a2.491 2.491 0 0 1 3.462-.203l4.872 4.205a2.482 2.482 0 0 1 .256 3.503 2.492 2.492 0 0 1-3.51.256l-3.043-2.625-31.341 34.183v48.606l21.07-2.396v-25.81c0-1.264.949-2.326 2.205-2.468l15.164-1.726a2.484 2.484 0 0 1 2.771 2.469v25.242l21.07-2.396V48.14a2.485 2.485 0 0 1 2.487-2.484zm-33.792-.602c2.352-.267 4.339-2.463 4.339-4.796 0-1.017-.38-1.915-1.072-2.529-.595-.53-1.38-.812-2.242-.812-.153 0-.307.01-.465.028-2.352.266-4.339 2.461-4.339 4.795 0 1.017.381 1.915 1.073 2.53.703.624 1.662.902 2.706.784zm6.558-10.994C53.034 35.62 54 37.823 54 40.259c0 4.875-3.83 9.127-8.72 9.682a9.32 9.32 0 0 1-1.04.059c-2.072 0-4-.715-5.517-2.06C36.967 46.38 36 44.176 36 41.74c0-4.874 3.83-9.125 8.72-9.68 2.463-.281 4.792.431 6.558 2zm29.389-2.557A3.023 3.023 0 0 1 82 33.999c0 .786-.32 1.56-.88 2.12a2.413 2.413 0 0 1-.453.374 3.007 3.007 0 0 1-1.08.454c-.2.04-.387.053-.587.053-.199 0-.387-.013-.585-.053a2.7 2.7 0 0 1-.56-.174 3.183 3.183 0 0 1-.522-.28 2.413 2.413 0 0 1-.453-.373 3.157 3.157 0 0 1-.373-.454c-.107-.16-.2-.334-.28-.52a3.467 3.467 0 0 1-.174-.56 2.842 2.842 0 0 1-.053-.588c0-.2.013-.387.053-.587.04-.186.107-.373.174-.56.08-.187.173-.36.28-.52a3.07 3.07 0 0 1 1.348-1.107c.173-.067.372-.134.56-.174a3.457 3.457 0 0 1 1.172 0c.186.04.374.107.56.173.186.08.36.174.52.28zm18.483-21.06a2.38 2.38 0 0 1 .214 3.443c-.92 1.007-2.515 1.102-3.559.207-4.662-3.991-10.896-5.788-17.52-5.056C71.543 9.78 65.19 13.03 60.4 18.19a2.56 2.56 0 0 1-1.878.81c-.6 0-1.202-.206-1.684-.626a2.38 2.38 0 0 1-.19-3.444c5.614-6.047 13.097-9.86 21.067-10.738 8.078-.89 15.69 1.33 21.436 6.252zm-21.427 7.672c4.309-.539 8.371.812 11.452 3.803 1.011.982 1.107 2.68.21 3.79-.899 1.109-2.444 1.215-3.459.23-2.026-1.967-4.747-2.85-7.65-2.485-3.01.376-5.853 2.028-8.003 4.654-.484.591-1.152.892-1.825.892a2.326 2.326 0 0 1-1.634-.686c-1.008-.991-1.09-2.689-.188-3.794 2.953-3.605 6.893-5.88 11.097-6.404z" fill="#134B45"/></svg>