<svg width="100" height="100" xmlns="http://www.w3.org/2000/svg"><path d="M28.73 79.16c1.4-.18 2.65.85 2.8 2.24a2.54 2.54 0 0 1-2.25 2.8L6.82 86.63A2.56 2.56 0 0 1 4.85 86 2.53 2.53 0 0 1 4 84.11V9.33c0-1.3.98-2.38 2.27-2.52L68.9.01a2.52 2.52 0 0 1 1.97.64c.54.48.85 1.17.85 1.89v30.5a2.54 2.54 0 0 1-2.55 2.53 2.54 2.54 0 0 1-2.54-2.53V5.37L9.09 11.6v69.7l19.64-2.13zm29.19-54.59a2.54 2.54 0 0 1-2.26 2.8l-36.24 3.88a2.54 2.54 0 0 1-2.8-2.25 2.54 2.54 0 0 1 2.26-2.8l36.23-3.88a2.54 2.54 0 0 1 2.8 2.25zm-10.1 15.17a2.55 2.55 0 0 1 2.8 2.25 2.54 2.54 0 0 1-2.25 2.79l-28.95 3.1a2.54 2.54 0 0 1-2.8-2.25 2.54 2.54 0 0 1 2.26-2.8l28.94-3.1zM34.26 57.76a2.54 2.54 0 0 1 2.8 2.25 2.54 2.54 0 0 1-2.25 2.8l-15.39 1.65a2.54 2.54 0 0 1-2.8-2.25 2.54 2.54 0 0 1 2.26-2.8l15.38-1.65zm44.59 28.8a2.2 2.2 0 0 0 1.9-2.64 9.5 9.5 0 0 0-9.36-7.38 9.78 9.78 0 0 0 7.14-9.16c0-4.68-3.8-8.04-8.5-7.5a9.76 9.76 0 0 0-8.5 9.43c0 4.24 3.13 7.4 7.22 7.54a12.77 12.77 0 0 0-9.29 8.86 2.2 2.2 0 0 0 2.38 2.77l17-1.93zm9.51-32.67C93.29 58.26 96 64.49 96 71.4c0 14.07-11.5 26.83-25.61 28.43a26.45 26.45 0 0 1-3 .17c-5.86 0-11.3-2-15.56-5.79-4.92-4.37-7.64-10.6-7.64-17.5 0-14.08 11.5-26.83 25.62-28.44 7-.79 13.58 1.2 18.55 5.62z" fill="#134B45"/></svg>