<svg xmlns="http://www.w3.org/2000/svg" width="100" height="100" fill="none"><path fill="#000" fill-rule="evenodd" d="m30.843 77.616-18.137 1.98V14.79l53.156-5.802v25.734a2.356 2.356 0 0 0 2.353 2.358c1.3 0 2.352-1.055 2.352-2.358V6.36c0-.67-.283-1.308-.78-1.756a2.314 2.314 0 0 0-1.826-.587l-57.862 6.315A2.357 2.357 0 0 0 8 12.676v69.548a2.351 2.351 0 0 0 2.608 2.344l20.745-2.264a2.356 2.356 0 0 0 2.084-2.6c-.14-1.295-1.292-2.251-2.594-2.088Zm55.099-23.502c-4.589-4.106-10.668-5.956-17.142-5.219-13.049 1.49-23.665 13.35-23.665 26.437 0 6.434 2.506 12.217 7.057 16.288C56.121 95.135 61.15 97 66.572 97c.91 0 1.831-.053 2.762-.159C82.383 95.351 93 83.491 93 70.403c0-6.433-2.507-12.218-7.058-16.289Zm-8.792 30.38-15.71 1.794c-1.435.164-2.587-1.184-2.197-2.58 1.117-4.007 4.482-7.288 8.582-8.236-3.779-.14-6.679-3.068-6.679-7.015 0-4.352 3.519-8.28 7.858-8.774 4.342-.496 7.86 2.629 7.86 6.979 0 3.92-2.86 7.488-6.603 8.52 4.273.042 7.727 2.826 8.657 6.864.27 1.17-.576 2.31-1.768 2.448ZM57.815 26.85a2.349 2.349 0 0 0-2.59-2.092l-33.48 3.611a2.356 2.356 0 0 0-2.087 2.598 2.353 2.353 0 0 0 2.589 2.092l33.48-3.61a2.358 2.358 0 0 0 2.089-2.599Zm-36.07 16.988 26.743-2.884a2.358 2.358 0 0 1 2.59 2.093 2.357 2.357 0 0 1-2.087 2.597l-26.744 2.884a2.353 2.353 0 0 1-2.59-2.093 2.355 2.355 0 0 1 2.087-2.597Zm0 15.416 14.216-1.534a2.35 2.35 0 0 1 2.591 2.093 2.357 2.357 0 0 1-2.088 2.597l-14.216 1.533a2.354 2.354 0 0 1-2.59-2.093 2.357 2.357 0 0 1 2.087-2.596Z" clip-rule="evenodd"/></svg>