<svg xmlns="http://www.w3.org/2000/svg" width="100" height="100" fill="none"><path fill="#000" fill-rule="evenodd" d="M56.828 49.872a2.472 2.472 0 0 0-.691 2.425l2.122 8.067-7.124-3.71a2.457 2.457 0 0 0-2.608.213L42 61.758l1.873-7.551a2.472 2.472 0 0 0-.957-2.603l-6.227-4.462 8.48-1.51a2.458 2.458 0 0 0 1.87-1.552l3.066-8.096 2.887 6.965a2.495 2.495 0 0 0 2.396 1.517l7.565-.38-6.123 5.786ZM69.382 38.82l-12.512.63-4.596-11.092a2.463 2.463 0 0 0-2.272-1.52h-.04a2.462 2.462 0 0 0-2.26 1.592l-4.77 12.59-12.866 2.292a2.462 2.462 0 0 0-1.972 1.886 2.47 2.47 0 0 0 .97 2.55l9.628 6.898-3.135 12.637a2.47 2.47 0 0 0 1.027 2.65 2.454 2.454 0 0 0 2.835-.08l10.817-8.105L60.92 67.31c.861.45 1.912.347 2.672-.262a2.47 2.47 0 0 0 .843-2.556l-3.166-12.036 9.924-9.376c.751-.709.98-1.813.576-2.763-.404-.952-1.356-1.526-2.387-1.497Zm-19.66 43.696c-6.236.71-12.309-.323-17.568-2.99a2.47 2.47 0 0 0-1.942-.121l-11.637 4.187 3.224-11.468a2.481 2.481 0 0 0-.327-2.047c-3.302-4.92-5.049-10.84-5.049-17.124 0-18.708 15.188-35.663 33.856-37.795a33.912 33.912 0 0 1 3.868-.223c7.492 0 14.41 2.55 19.782 7.358 6.223 5.568 9.65 13.534 9.65 22.427 0 18.71-15.188 35.663-33.856 37.796m27.484-63.904c-7.348-6.573-17.099-9.543-27.484-8.356C28.647 12.662 11.5 31.816 11.5 52.953c0 6.863 1.814 13.374 5.258 18.906l-4.217 15.004a2.47 2.47 0 0 0 .69 2.474 2.457 2.457 0 0 0 2.509.518L30.897 84.4c5.89 2.753 12.568 3.797 19.381 3.018C71.355 85.012 88.5 65.858 88.5 44.72c0-10.319-4.01-19.59-11.294-26.108" clip-rule="evenodd"/></svg>