<svg width="10" height="10" xmlns="http://www.w3.org/2000/svg"
  <path d="M7.674 8.914a2.622 2.622 0 0 0-.229-.554 1.877 1.877 0 0 0-.384-.461 4.59 4.59 0 0 0-.45-.363 4.385 4.385 0 0 0-.548-.308 9.817 9.817 0 0 0-1.139-.483 11.21 11.21 0 0 1-.947-.395 2.558 2.558 0 0 1-.405-.225 3.192 3.192 0 0 1-.287-.24.817.817 0 0 1-.276-.648c0-.33.145-.598.436-.806.29-.207.665-.311 1.124-.311.203 0 .41.027.62.083a3.244 3.244 0 0 1 .965.42c.133.085.228.15.283.193.056.043.091.072.105.087a.231.231 0 0 0 .196.05c.073-.004.128-.043.167-.115l.588-1.06c.058-.096.046-.188-.036-.275a2.482 2.482 0 0 0-.11-.102 3.769 3.769 0 0 0-.282-.21 3.502 3.502 0 0 0-.46-.272 4.658 4.658 0 0 0-1.434-.41V1.232a.226.226 0 0 0-.065-.167A.226.226 0 0 0 4.939 1h-.98a.223.223 0 0 0-.163.069.223.223 0 0 0-.068.163v1.306c-.76.145-1.376.47-1.85.972-.474.503-.711 1.088-.711 1.756 0 .198.02.387.061.565.041.18.092.34.153.483.06.143.146.283.257.42.111.139.217.257.316.356.099.1.228.202.388.308.16.107.296.193.41.258.114.065.265.14.453.225.189.084.338.148.446.192l.447.181c.26.102.454.18.58.236.126.056.285.133.479.232.193.1.335.19.424.272.09.083.17.184.243.305a.73.73 0 0 1 .11.384c0 .383-.15.678-.447.885a1.759 1.759 0 0 1-1.034.312c-.178 0-.358-.019-.536-.058-.63-.126-1.217-.428-1.763-.907l-.015-.014a.18.18 0 0 0-.174-.065c-.077.01-.133.039-.167.087l-.747.98c-.073.096-.068.195.015.297.024.029.066.072.126.13a4.5 4.5 0 0 0 .338.273c.164.123.343.239.537.348.193.109.439.216.736.323.298.106.606.18.925.224v1.27c0 .063.023.117.069.163.046.046.1.069.163.069h.98a.226.226 0 0 0 .167-.065.226.226 0 0 0 .065-.167v-1.27c.769-.125 1.394-.456 1.875-.99a2.76 2.76 0 0 0 .722-1.912c0-.241-.032-.469-.095-.682h0z" stroke="#EEE" stroke-width=".3" fill="#AFAFB3" fill-rule="evenodd"/>
</svg>
