<svg width="100" height="100" xmlns="http://www.w3.org/2000/svg"><g id="salary" stroke="none" stroke-width="1" fill="none" fill-rule="evenodd"><path d="M49.73 2.314C62.657.854 74.808 4.511 83.948 12.617 93.01 20.655 98 32.097 98 44.834c0 26.162-21.412 49.871-47.732 52.852-1.863.21-3.71.314-5.535.314-10.83 0-20.858-3.68-28.68-10.619C6.99 79.344 2 67.902 2 55.165 2 29.003 23.412 5.294 49.73 2.315zm5.52 4.405c-1.64 0-3.304.093-4.982.283C26.272 9.72 6.748 31.324 6.748 55.165c0 11.376 4.428 21.566 12.465 28.696 8.118 7.2 18.956 10.447 30.518 9.136 23.997-2.718 43.521-24.324 43.521-48.163 0-11.376-4.428-21.566-12.465-28.696-6.94-6.156-15.868-9.42-25.536-9.42zm-3.724 17.004c5.537-.625 10.871.46 15.43 3.137a3.327 3.327 0 011.184 4.583c-.951 1.587-3.025 2.112-4.627 1.17-3.282-1.926-7.16-2.702-11.223-2.245-7.294.823-13.677 5.404-17.224 11.555l16.1-1.817c1.857-.212 3.528 1.11 3.74 2.945.21 1.835-1.122 3.492-2.974 3.7L32.455 48.95a20.446 20.446 0 00-.349 3.663c0 .97.094 1.913.233 2.838l18.828-2.125c1.856-.215 3.527 1.11 3.739 2.945.21 1.835-1.122 3.492-2.974 3.7l-17.248 1.946c.83 1.336 1.83 2.56 3.03 3.62 3.656 3.231 8.565 4.684 13.812 4.093 4.15-.469 8.15-2.183 11.567-4.96a3.4 3.4 0 014.752.462 3.322 3.322 0 01-.469 4.708c-4.423 3.595-9.642 5.821-15.086 6.435a27.352 27.352 0 01-3.066.174c-6.033 0-11.63-2.052-16.009-5.923a22.876 22.876 0 01-5.737-7.796l-5.065.573c-.13.014-.26.021-.387.021-1.694 0-3.154-1.26-3.351-2.966-.21-1.835 1.12-3.492 2.973-3.7l3.982-.45c-.164-1.176-.278-2.37-.278-3.595 0-.968.064-1.928.168-2.88l-3.107.35c-.13.014-.26.021-.387.021-1.694 0-3.154-1.259-3.351-2.966-.21-1.835 1.12-3.492 2.973-3.7l5.582-.63c3.86-9.998 13.285-17.842 24.296-19.085z" id="Combined-Shape" fill="#373942"/></g></svg>