<svg width="100" height="100" xmlns="http://www.w3.org/2000/svg"><path d="M99.2 84.45a2.4 2.4 0 0 1 .19 3.4l-7.91 8.85a2.38 2.38 0 0 1-3.37.2L62.08 73.72C54.16 79.9 44.75 83.1 35.6 83.1c-8.7 0-17.14-2.89-23.81-8.83C4.79 68.05.62 59.2.06 49.38-.58 38.1 3.62 26.5 11.6 17.59 27.1.25 52.4-2.56 68 11.33c7 6.23 11.16 15.07 11.72 24.9a43.55 43.55 0 0 1-6.53 25.05L99.2 84.45zM14.96 70.68C28.6 82.83 50.88 80.2 64.62 64.8c7.13-7.97 10.89-18.28 10.32-28.3-.48-8.54-4.08-16.2-10.12-21.58-5.77-5.14-13.1-7.63-20.65-7.63-10.32 0-21.09 4.63-29.02 13.51C8.03 28.77 4.27 39.09 4.84 49.1c.48 8.54 4.08 16.2 10.12 21.58z" fill="#134B45"/></svg>