<svg width="100" height="100" xmlns="http://www.w3.org/2000/svg"><path d="M60.796 60.865c.446 1.928-.952 3.809-2.918 4.032l-25.932 2.955c-2.373.27-4.272-1.95-3.63-4.249 2.02-7.225 8.47-13.074 16.116-13.946 7.993-.91 14.679 3.917 16.364 11.208M44.432 49.657c-7.164.816-12.972-4.33-12.972-11.493 0-7.164 5.808-13.633 12.972-14.45 7.166-.816 12.973 4.33 12.973 11.495 0 7.163-5.807 13.631-12.973 14.448M19.768 73.314c-6.002-5.318-9.575-12.897-10.058-21.342-.565-9.896 3.17-20.093 10.248-27.975 7.876-8.774 18.575-13.354 28.82-13.354 7.515 0 14.787 2.465 20.523 7.546 6.003 5.318 9.575 12.899 10.058 21.342.565 9.896-3.17 20.093-10.248 27.977-13.654 15.208-35.788 17.815-49.343 5.806m73.294 9.628L75.325 67.244c6.105-8.241 9.238-18.226 8.681-27.979-.555-9.69-4.68-18.412-11.619-24.56v.001C56.927 1.004 31.852 3.78 16.494 20.887c-7.9 8.799-12.066 20.225-11.43 31.35.554 9.692 4.68 18.414 11.618 24.561 6.613 5.86 14.983 8.705 23.6 8.704 9.397 0 19.083-3.386 27.104-9.934l18.056 15.981a5.725 5.725 0 0 0 7.97-.34 5.694 5.694 0 0 0 1.583-4.208 5.696 5.696 0 0 0-1.933-4.059" fill="#134B45" fill-rule="evenodd"/></svg>