<svg width="100" height="100" xmlns="http://www.w3.org/2000/svg"><path d="M94.86 49.58v-9.84c0-.69-.37-1.18-.98-1.32l-4.86-1.13a6.28 6.28 0 0 1-4.47-3.8 31.05 31.05 0 0 0-1.23-2.76c-.9-1.78-.9-3.92.01-5.88L85.58 20c.34-.74.25-1.52-.23-1.93l-7.04-6.17c-.49-.43-1.3-.42-2.02 0l-4.87 2.87a7.07 7.07 0 0 1-5.82.7 32.78 32.78 0 0 0-2.67-.77 6.29 6.29 0 0 1-4.4-3.94l-1.8-4.86c-.2-.57-.75-.89-1.46-.8l-9.96 1.1c-.89.1-1.72.8-2.03 1.69l-1.9 5.58a7.63 7.63 0 0 1-3.83 4.37c-.77.38-1.54.79-2.29 1.21a7.03 7.03 0 0 1-5.9.56l-5.22-1.9c-.7-.25-1.62.05-2.24.73l-7.04 7.76c-.62.67-.81 1.59-.48 2.23l2.62 5.1c.9 1.74.94 3.88.09 5.85-.27.62-.52 1.25-.75 1.88a7.8 7.8 0 0 1-4.02 4.4l-5.7 2.6a2.5 2.5 0 0 0-1.48 2.16v9.84c0 .68.37 1.18.98 1.32l5.71 1.33a6.35 6.35 0 0 1 4.48 3.88c.23.57.48 1.13.74 1.68a6.88 6.88 0 0 1 0 5.85L14.43 80c-.35.74-.26 1.52.22 1.93l7.04 6.17c.49.42 1.3.42 2.03 0l5.2-3.07a7.35 7.35 0 0 1 3.73-1.05c.74 0 1.47.12 2.17.37.74.25 1.5.48 2.26.68a6.22 6.22 0 0 1 4.28 3.91l1.9 5.16c.21.57.76.88 1.47.8l9.96-1.12c.9-.1 1.72-.79 2.03-1.68l1.79-5.27a7.6 7.6 0 0 1 3.94-4.42c.9-.42 1.82-.89 2.7-1.39A7.03 7.03 0 0 1 71 80.5l4.87 1.77c.7.25 1.62-.04 2.24-.73l7.04-7.75c.62-.67.81-1.6.49-2.23l-2.25-4.35a6.7 6.7 0 0 1-.1-5.87 40.8 40.8 0 0 0 1.25-3.1 7.59 7.59 0 0 1 4-4.28l4.86-2.23a2.49 2.49 0 0 0 1.47-2.15zm.2-16.1a6.31 6.31 0 0 1 4.94 6.26v9.84a7.61 7.61 0 0 1-4.45 6.76l-4.86 2.23c-.62.28-1.1.8-1.31 1.37a46.34 46.34 0 0 1-1.41 3.48c-.23.5-.23 1.05 0 1.48l2.23 4.35c1.3 2.51.8 5.7-1.23 7.94l-7.04 7.75a7.36 7.36 0 0 1-7.85 2.1l-4.86-1.77a1.87 1.87 0 0 0-1.52.17A45.97 45.97 0 0 1 64.65 87a2.5 2.5 0 0 0-1.27 1.45l-1.79 5.27a7.72 7.72 0 0 1-6.32 5.11l-9.96 1.12a7.26 7.26 0 0 1-.8.05 6.35 6.35 0 0 1-6.08-4.16l-1.9-5.16a1.15 1.15 0 0 0-.79-.74 37.5 37.5 0 0 1-2.61-.8 1.93 1.93 0 0 0-1.57.25l-5.21 3.07a6.9 6.9 0 0 1-8.07-.56l-7.04-6.17a6.62 6.62 0 0 1-1.5-7.84l2.63-5.68c.24-.52.25-1.1.02-1.59a35.53 35.53 0 0 1-.86-1.96c-.12-.3-.37-.69-.88-.8l-5.7-1.34A6.31 6.31 0 0 1 0 60.26v-9.84a7.62 7.62 0 0 1 4.46-6.77l5.7-2.61c.6-.28 1.1-.83 1.35-1.52.26-.7.54-1.41.84-2.12.25-.58.28-1.16.07-1.56L9.8 30.75a7.08 7.08 0 0 1 1.24-7.94l7.04-7.75a7.36 7.36 0 0 1 7.85-2.1l5.21 1.9c.47.17 1.05.1 1.56-.2a48.39 48.39 0 0 1 2.57-1.36 2.52 2.52 0 0 0 1.25-1.43l1.9-5.59a7.72 7.72 0 0 1 6.32-5.11L54.69.05a6.4 6.4 0 0 1 6.88 4.1l1.8 4.87c.08.23.3.63.8.75a37.8 37.8 0 0 1 3.08.9c.44.14 1.01.04 1.54-.27l4.86-2.86a6.9 6.9 0 0 1 8.07.56l7.04 6.16a6.63 6.63 0 0 1 1.5 7.85L88 26.96c-.25.54-.28 1.11-.09 1.5a35.54 35.54 0 0 1 1.43 3.21c.18.45.6.61.85.67l4.86 1.13zm-45.2 34.69c10.42-1.18 18.9-10.5 18.9-20.78 0-4.73-1.84-8.95-5.16-11.89a15.87 15.87 0 0 0-10.63-3.87c-.7 0-1.4.04-2.11.12-10.42 1.18-18.9 10.5-18.9 20.78 0 4.73 1.83 8.95 5.15 11.88 3.37 2.97 7.9 4.3 12.75 3.76zM69.47 29a24.12 24.12 0 0 1 8.1 18.4c0 14.56-11.98 27.76-26.71 29.42-1.06.12-2.11.18-3.15.18a24.6 24.6 0 0 1-16.47-6.09 24.12 24.12 0 0 1-8.1-18.38c0-14.57 11.99-27.77 26.72-29.43 7.39-.84 14.35 1.26 19.61 5.9z" fill="#134B45"/></svg>