<svg width="100" height="100" xmlns="http://www.w3.org/2000/svg"><path d="M79.38 37.763a2.344 2.344 0 0 1 1.833.582c.5.445.787 1.083.787 1.753v48.925a2.351 2.351 0 0 1-2.087 2.334L21.62 97.985A2.35 2.35 0 0 1 19 95.651V46.726a2.35 2.35 0 0 1 2.087-2.334L32.19 43.13a2.348 2.348 0 1 1 .533 4.667l-9.015 1.025V93.02l53.586-6.093V42.73l-8.583.976a2.348 2.348 0 1 1-.533-4.668zM47.497 5.336a4.044 4.044 0 0 1 5.678-.325l17.378 15.37a4.023 4.023 0 0 1 .344 5.684 4.04 4.04 0 0 1-5.695.343l-10.668-9.435v50.488a4.03 4.03 0 0 1-4.034 4.027 4.03 4.03 0 0 1-4.035-4.027V18.54l-10.34 11.497a4.026 4.026 0 0 1-3.004 1.337 4.02 4.02 0 0 1-2.693-1.031 4.02 4.02 0 0 1-.307-5.686z" fill="#134B45" fill-rule="evenodd"/></svg>