<svg xmlns="http://www.w3.org/2000/svg" width="100" height="100" fill="none"><path fill="#000" fill-rule="evenodd" d="M81.213 38.345a2.344 2.344 0 0 0-1.833-.582l-11.203 1.274a2.348 2.348 0 1 0 .533 4.669l8.583-.976v44.196L23.707 93.02V48.822l9.015-1.025a2.348 2.348 0 1 0-.533-4.667l-11.102 1.262A2.351 2.351 0 0 0 19 46.726V95.65A2.348 2.348 0 0 0 21.354 98c.088 0 .177-.005.266-.015l58.293-6.628A2.351 2.351 0 0 0 82 89.023V40.098c0-.67-.287-1.308-.787-1.753Zm-48.092-6.971a4.026 4.026 0 0 0 3.003-1.337L46.465 18.54v48.92a4.03 4.03 0 0 0 4.035 4.027 4.03 4.03 0 0 0 4.034-4.027V16.973l10.668 9.435a4.04 4.04 0 0 0 5.695-.343 4.023 4.023 0 0 0-.344-5.685L53.175 5.01a4.044 4.044 0 0 0-5.678.326L30.12 24.656a4.02 4.02 0 0 0 .307 5.687 4.02 4.02 0 0 0 2.693 1.03Z" clip-rule="evenodd"/></svg>