<svg xmlns="http://www.w3.org/2000/svg" width="100" height="100" fill="none"><path fill="#000" fill-rule="evenodd" d="M90.426 8.502a2.65 2.65 0 0 1 2.434.297A2.63 2.63 0 0 1 94 10.964c0 .84-.106 20.809-10.755 46.39C71.833 84.772 52.642 96.17 51.83 96.643a2.658 2.658 0 0 1-2.213.206c-.824-.292-20.287-7.425-31.823-32.516C7.107 41.09 7 21.094 7 20.253c0-.768.337-1.5.924-2a2.643 2.643 0 0 1 2.124-.6c.242.032 18.194 2.461 38.858-13.12a2.653 2.653 0 0 1 2.803-.242C72.58 15.005 90.25 8.568 90.426 8.502ZM50.239 91.396c4.092-2.77 18.93-13.968 28.127-36.064 7.694-18.481 9.67-34.107 10.177-40.83-6.596 1.509-21.114 3.24-37.771-4.788-16.997 12.31-32.02 13.529-38.359 13.38.43 6.213 2.276 21.844 10.184 39.04C31.607 81.738 46.08 89.5 50.24 91.397Zm1.47-69.575c12.017 6.17 21.981 2.63 22.4 2.476a2.653 2.653 0 0 1 2.535.389 2.628 2.628 0 0 1 1.014 2.347c-.052.512-1.357 12.705-7.776 28.13-6.964 16.726-17.513 23.604-17.959 23.889a2.64 2.64 0 0 1-2.43.216c-.457-.186-11.258-4.773-18.335-20.168-6.452-14.032-7.762-25.981-7.813-26.483a2.625 2.625 0 0 1 .806-2.183 2.649 2.649 0 0 1 2.226-.694h.006c.286.036 10.61 1.306 22.524-7.676a2.647 2.647 0 0 1 2.802-.243ZM33.715 51.56 56.1 29.226c4.794 1.404 9.09 1.62 12.456 1.4l-30.452 30.38a45.92 45.92 0 0 1-2.143-4.103 89.096 89.096 0 0 1-2.246-5.343Zm16.528 22.183c-1.367-.786-3.707-2.348-6.31-5.012l24.25-24.191a114.828 114.828 0 0 1-3.18 8.6C60.024 65.098 53 71.547 50.242 73.744Z" clip-rule="evenodd"/></svg>