<svg xmlns="http://www.w3.org/2000/svg" width="100" height="100" fill="none"><path fill="#000" fill-rule="evenodd" d="M12.331 15.988a2.116 2.116 0 0 0-2.991.188 2.133 2.133 0 0 0 .185 3.003L85.04 86.116a2.108 2.108 0 0 0 2.991-.187 2.134 2.134 0 0 0-.185-3.004L12.331 15.988Zm8.264 22.738-13.374-.632a2.11 2.11 0 0 0-1.565.586c-.418.4-.656.957-.656 1.539v38.156c0 .697.34 1.349.91 1.746.57.399 1.299.492 1.947.249l13.7-5.106 27.37 15.462a2.117 2.117 0 0 0 2.11-.017 2.133 2.133 0 0 0 1.049-1.838V66.639l-4.24-3.758v22.35L22.78 71.07a2.124 2.124 0 0 0-1.777-.14L9.239 75.314V42.45l10.644.504v8.094c0 1.176.95 2.13 2.12 2.13a2.125 2.125 0 0 0 2.12-2.13v-9.15l-3.528-3.172Zm27.252-22.218v21.228l4.239 3.757V11.128c0-.873-.53-1.658-1.34-1.978a2.111 2.111 0 0 0-2.325.522L33.817 25.3l3.18 2.819 10.85-11.611Zm11.578 24.32c1.765.126 3.359.774 4.602 1.893 1.46 1.316 2.264 3.17 2.264 5.22 0 1.718-.552 3.378-1.489 4.824l3.173 2.814c1.599-2.236 2.556-4.883 2.556-7.638 0-3.276-1.305-6.254-3.673-8.388-1.898-1.71-4.37-2.736-7.019-2.958a2.134 2.134 0 0 0-2.297 2.352v.001c.108.994.889 1.809 1.883 1.88Zm14.37-24.52C84.312 21.78 90.763 32.69 90.763 45.244c0 8.351-2.859 16.623-7.851 23.574l3.188 2.827c5.657-7.739 8.9-17.021 8.9-26.401 0-14.159-7.302-26.48-19.207-32.691a2.13 2.13 0 0 0-2.94 1.025c-.45 1.019-.042 2.219.943 2.73Zm-5.36 11.496c.473-1.158 1.847-1.68 2.945-1.087 7.126 3.847 11.46 11.255 11.46 19.849 0 6.076-2.195 12.023-6.007 16.864l-3.176-2.816c3.142-4.064 4.945-9.01 4.945-14.048 0-6.97-3.48-12.97-9.2-16.082a2.13 2.13 0 0 1-.967-2.68Z" clip-rule="evenodd"/></svg>