<svg width="100" height="100" xmlns="http://www.w3.org/2000/svg"><path d="M39.61 22.41c.05-.23.08-.47.08-.7a3.61 3.61 0 0 0-1.07-2.54 3.63 3.63 0 0 0-3.24-.98 3.6 3.6 0 0 0-.68.2 3.16 3.16 0 0 0-.62.34 3.61 3.61 0 0 0-1.6 2.98c0 .23.02.48.06.7.06.23.12.46.22.68a3.77 3.77 0 0 0 .78 1.16c.67.66 1.6 1.05 2.55 1.05.93 0 1.87-.39 2.53-1.05a3.77 3.77 0 0 0 .78-1.16c.1-.21.15-.45.21-.68zM27.9 23.75c.05-.24.07-.47.07-.7a3.75 3.75 0 0 0-.27-1.38c-.1-.22-.2-.43-.33-.62a3.42 3.42 0 0 0-.45-.54 3.75 3.75 0 0 0-5.1 0 3.35 3.35 0 0 0-.77 1.16 3.5 3.5 0 0 0-.2 2.08 3.68 3.68 0 0 0 .53 1.28 3.62 3.62 0 0 0 3 1.6c.22 0 .47-.02.7-.07.23-.04.45-.11.68-.21.21-.09.41-.19.62-.33a3.42 3.42 0 0 0 .99-1c.13-.18.23-.4.33-.6.09-.23.16-.45.2-.67zm-12.43 1.44a3.76 3.76 0 0 0 .08-.7c0-.95-.39-1.87-1.05-2.55a5.3 5.3 0 0 0-.55-.44 5.14 5.14 0 0 0-.62-.33 4.02 4.02 0 0 0-.68-.2 3.67 3.67 0 0 0-3.25.97 3.59 3.59 0 0 0-1.05 2.54c0 .95.37 1.87 1.05 2.54a3.65 3.65 0 0 0 2.55 1.05 3.96 3.96 0 0 0 1.38-.27 3.75 3.75 0 0 0 1.17-.78c.15-.17.31-.34.44-.54s.23-.4.34-.62a3.75 3.75 0 0 0 .2-.67zm67.5-19.06c2.24 2 3.48 4.81 3.48 7.93v23.52a2.52 2.52 0 0 1-2.52 2.5 2.52 2.52 0 0 1-2.52-2.5v-8.3L5.04 37.95V84.5L35.8 81a2.52 2.52 0 0 1 2.78 2.22A2.51 2.51 0 0 1 36.37 86L2.8 89.8a2.52 2.52 0 0 1-1.97-.61A2.51 2.51 0 0 1 0 87.32v-64c0-6.22 5.06-11.85 11.28-12.55l63.3-7.2a10.6 10.6 0 0 1 8.38 2.56zM61.2 81.37c5.2 4.52 13.84 3.39 19.24-2.53A15.04 15.04 0 0 0 84.54 68c-.19-3.11-1.51-5.89-3.74-7.82a11.67 11.67 0 0 0-7.74-2.77c-4.05 0-8.34 1.82-11.5 5.3a15.04 15.04 0 0 0-4.1 10.85c.19 3.1 1.51 5.88 3.74 7.82zm37.32 7.58a4.3 4.3 0 0 1 .42 6.07 4.32 4.32 0 0 1-3.26 1.48 4.3 4.3 0 0 1-2.84-1.06L83.7 87.5a24.2 24.2 0 0 1-14.78 5.22c-4.88 0-9.63-1.59-13.4-4.86-3.99-3.47-6.36-8.37-6.68-13.82a23.67 23.67 0 0 1 6.32-17.14c8.54-9.36 22.59-10.8 31.32-3.22a19.6 19.6 0 0 1 6.68 13.81c.27 4.7-1.05 9.49-3.66 13.63l9.02 7.83z" fill="#134B45"/></svg>