<svg width="100" height="100" xmlns="http://www.w3.org/2000/svg"><path d="M44.19 21.55v74.33-74.33zm29 61.88c0 1.36-1.11 2.6-2.49 2.75A2.17 2.17 0 0 1 68.22 84c0-1.37 1.11-2.6 2.48-2.75a2.17 2.17 0 0 1 2.49 2.19zM81 82.37c0 1.37-1.11 2.6-2.48 2.76a2.17 2.17 0 0 1-2.48-2.2c0-1.36 1.1-2.6 2.48-2.75a2.17 2.17 0 0 1 2.48 2.2zm-7.81-17.5c0 1.37-1.11 2.6-2.49 2.76a2.17 2.17 0 0 1-2.48-2.19c0-1.36 1.11-2.6 2.48-2.75a2.17 2.17 0 0 1 2.49 2.19zM81 63.83c0 1.37-1.11 2.6-2.48 2.76a2.17 2.17 0 0 1-2.48-2.2c0-1.36 1.1-2.6 2.48-2.75a2.17 2.17 0 0 1 2.48 2.2zm-7.81-17.5c0 1.37-1.11 2.61-2.49 2.77a2.17 2.17 0 0 1-2.48-2.2c0-1.36 1.11-2.6 2.48-2.75a2.17 2.17 0 0 1 2.49 2.19zM81 45.28c0 1.37-1.11 2.6-2.48 2.76a2.17 2.17 0 0 1-2.48-2.2c0-1.36 1.1-2.6 2.48-2.75a2.17 2.17 0 0 1 2.48 2.2zm-12.78-17c0-1.36 1.11-2.6 2.48-2.75a2.17 2.17 0 0 1 2.49 2.2c0 1.36-1.11 2.6-2.49 2.75a2.17 2.17 0 0 1-2.48-2.2zm7.82-1.05c0-1.36 1.1-2.6 2.48-2.75A2.17 2.17 0 0 1 81 26.66c0 1.37-1.11 2.6-2.48 2.76a2.17 2.17 0 0 1-2.49-2.2zM34.6 94.54v-13.4l50.26-6.49v13.4L34.6 94.54zM66.33 5.2l13.92 9.11-47.59 6.14-13.9-9.1L66.32 5.2zM34.61 62.6l50.26-6.48v13.33l-50.26 6.48V62.6zm0-18.61 50.26-6.49v13.4l-50.26 6.48v-13.4zm50.26-11.64-50.26 6.48V25.36l50.26-6.48v13.46zm5.11-16.5c0-.06 0-.12-.02-.18a2.52 2.52 0 0 0-.12-.54l-.05-.14a2.62 2.62 0 0 0-.34-.58l-.1-.11c-.08-.08-.14-.17-.22-.24l-.2-.14c-.04-.02-.05-.05-.09-.08L68.36.42a2.57 2.57 0 0 0-1.74-.4L11.23 7.17l-.1.03a2.55 2.55 0 0 0-.45.13c-.09.03-.18.05-.26.1-.02 0-.05.01-.07.03-.13.06-.23.15-.34.24l-.2.14c-.17.16-.33.35-.45.56l-.02.05a2.58 2.58 0 0 0-.26.63l-.01.05c-.02.07 0 .13-.02.2-.02.12-.05.24-.05.37v74.16c0 .86.43 1.66 1.14 2.13l20.5 13.58.03.02c.19.12.38.21.6.28l.13.04a2.59 2.59 0 0 0 .98.07l55.39-7.15A2.56 2.56 0 0 0 90 90.3V15.97l-.01-.13z" fill="#134B45"/></svg>