<svg xmlns="http://www.w3.org/2000/svg" width="100" height="100" fill="none"><path fill="#000" d="M87.969 18.406a2.303 2.303 0 0 0-.118-.498c-.015-.042-.025-.084-.04-.125a2.413 2.413 0 0 0-.32-.535c-.028-.038-.066-.069-.097-.105-.065-.074-.125-.15-.2-.216-.058-.05-.124-.086-.187-.13-.03-.02-.047-.05-.077-.07L67.96 4.387a2.392 2.392 0 0 0-1.608-.367l-51.284 6.575c-.034.005-.064.022-.096.029-.144.024-.28.07-.416.12-.082.029-.165.05-.24.088-.022.01-.048.015-.07.027-.114.06-.209.146-.31.223-.059.044-.125.08-.178.129-.167.153-.31.326-.426.517-.008.014-.01.031-.019.046a2.362 2.362 0 0 0-.236.582c-.002.016-.013.028-.016.044-.015.06-.004.121-.014.182-.017.115-.047.227-.047.346v68.228a2.35 2.35 0 0 0 1.06 1.96l18.97 12.493c.012.006.026.009.036.016.173.109.356.193.548.255l.122.034c.198.05.4.087.608.087.1 0 .202-.007.304-.02l51.284-6.576A2.357 2.357 0 0 0 88 87.073v-68.38c0-.041-.01-.08-.014-.122 0-.056-.01-.11-.017-.165Zm-9-1.23-44.058 5.649-12.88-8.38 44.058-5.65 12.88 8.38ZM36.718 44.46l46.537-5.966v12.322l-46.537 5.967V44.46Zm38.352 1.71c0 1.257 1.03 2.16 2.298 2.017 1.269-.143 2.298-1.278 2.298-2.536s-1.029-2.161-2.298-2.017c-1.268.144-2.298 1.278-2.298 2.536Zm-7.233.971c0 1.258 1.028 2.161 2.296 2.017 1.27-.142 2.3-1.28 2.3-2.536 0-1.257-1.03-2.16-2.3-2.018-1.268.144-2.296 1.28-2.296 2.537Zm15.418 8.477v12.264l-46.537 5.966V61.585l46.537-5.967Zm-5.887 9.634c-1.268.144-2.298-.76-2.298-2.017s1.03-2.393 2.298-2.536c1.269-.144 2.298.76 2.298 2.017 0 1.258-1.029 2.393-2.298 2.536Zm-7.235.972c-1.268.143-2.296-.761-2.296-2.018 0-1.257 1.028-2.393 2.296-2.535 1.27-.144 2.3.759 2.3 2.017 0 1.257-1.03 2.392-2.3 2.535ZM36.717 78.65l46.537-5.968v12.324l-46.537 5.967V78.65Zm40.65 3.667c-1.268.144-2.298-.76-2.298-2.017 0-1.258 1.03-2.392 2.298-2.536 1.269-.143 2.298.76 2.298 2.017 0 1.258-1.029 2.394-2.298 2.536Zm-7.235.972c-1.268.144-2.296-.76-2.296-2.017 0-1.258 1.028-2.394 2.296-2.536 1.27-.144 2.3.76 2.3 2.017 0 1.256-1.03 2.393-2.3 2.536ZM36.717 39.718V27.336l46.537-5.967v12.382l-46.537 5.967Zm40.65-13.209c1.269-.143 2.298.761 2.298 2.017 0 1.258-1.029 2.394-2.298 2.536-1.268.144-2.298-.759-2.298-2.017s1.03-2.392 2.298-2.536Zm-7.235.972c1.27-.144 2.3.76 2.3 2.017 0 1.256-1.03 2.393-2.3 2.536-1.268.142-2.296-.76-2.296-2.017 0-1.258 1.028-2.394 2.296-2.536Z"/></svg>