<svg width="100" height="100" xmlns="http://www.w3.org/2000/svg"><path d="M21.777 98c-.45 0-.9-.131-1.293-.396a2.38 2.38 0 0 1-.973-2.542l7.9-32.189L2.978 45.181a2.381 2.381 0 0 1-.919-2.448 2.347 2.347 0 0 1 1.87-1.808l32.037-5.766L47.817 3.527A2.335 2.335 0 0 1 49.963 2H50c.942 0 1.795.575 2.158 1.46l11.69 28.501 31.7-1.613c.927-.068 1.88.522 2.265 1.435.385.913.167 1.97-.547 2.65L72.551 58.036l7.93 30.478a2.383 2.383 0 0 1-.8 2.452 2.313 2.313 0 0 1-2.536.251L50.223 77.045 23.176 97.529a2.32 2.32 0 0 1-1.399.471z" fill="#134B45" fill-rule="evenodd"/></svg>