<svg width="100" height="100" xmlns="http://www.w3.org/2000/svg"><path d="M92.392 7.014a2.338 2.338 0 0 1 1.826.585c.497.447.782 1.088.782 1.76V70.8c0 1.199-.894 2.21-2.077 2.345L62.556 76.63 51.921 91.991a2.34 2.34 0 0 1-1.823 1.008L50 93c-.696 0-1.358-.31-1.803-.854l-10.43-12.67-30.16 3.463a2.336 2.336 0 0 1-1.826-.585A2.369 2.369 0 0 1 5 80.594V19.155c0-1.2.894-2.21 2.077-2.346zm-2.077 4.99-80.63 9.258v56.687l28.81-3.309a2.334 2.334 0 0 1 2.068.839l9.277 11.268 9.48-13.693a2.34 2.34 0 0 1 1.655-.994l29.34-3.369V12.004zM26.858 59.897c2.19-.253 4.194 1.34 4.444 3.562.252 2.22-1.331 4.226-3.535 4.478l-8.79 1.01a4.111 4.111 0 0 1-.46.027c-2.014 0-3.75-1.524-3.984-3.588-.252-2.222 1.332-4.227 3.535-4.48zm53.298-6.12A4.029 4.029 0 0 1 84.6 57.34c.253 2.22-1.331 4.225-3.534 4.478l-39.914 4.583a3.794 3.794 0 0 1-.458.026 4.027 4.027 0 0 1-3.986-3.588c-.25-2.221 1.333-4.226 3.535-4.48zM43.043 42.72c2.204-.252 4.194 1.341 4.446 3.563.25 2.22-1.333 4.224-3.536 4.478l-24.975 2.867a4.13 4.13 0 0 1-.46.027c-2.015 0-3.751-1.524-3.985-3.588-.252-2.22 1.332-4.227 3.535-4.48zm14.734-1.691c2.194-.25 4.194 1.341 4.445 3.561.252 2.22-1.33 4.226-3.534 4.48l-1.53.175a4.093 4.093 0 0 1-.46.027 4.025 4.025 0 0 1-3.984-3.588c-.253-2.22 1.33-4.226 3.534-4.48zm22.38-2.57a4.033 4.033 0 0 1 4.444 3.563c.251 2.22-1.332 4.225-3.536 4.478l-9.918 1.139a4.13 4.13 0 0 1-.46.027c-2.015 0-3.751-1.525-3.985-3.59-.252-2.22 1.332-4.225 3.535-4.478z" fill="#134B45" fill-rule="evenodd"/></svg>