<svg xmlns="http://www.w3.org/2000/svg" width="100" height="100" fill="none"><path fill="#000" fill-rule="evenodd" d="M50 2C23.542 2 2 23.542 2 50s21.542 48 48 48 48-21.542 48-48S76.458 2 50 2Zm0 4.109c3.725 0 7.296.46 10.752 1.344C59.408 18.896 55.722 31.76 50 31.76c-5.722-.038-9.408-12.864-10.752-24.307A43.187 43.187 0 0 1 50 6.109Zm-19.085 4.339c2.688 11.02 11.021 24 19.047 24.038 8.025 0 16.358-13.017 19.046-24.038a48.638 48.638 0 0 1 6.26 3.686c-4.225 9.946-13.594 24.039-25.306 24.384-11.75-.307-21.082-14.4-25.306-24.384a51.396 51.396 0 0 1 6.26-3.686Zm-13.133 9.754C23.658 28.957 36.368 41.245 50 41.245c13.632 0 26.304-12.288 32.218-21.043a43.63 43.63 0 0 1 4.377 5.568C80.375 33.795 67.318 45.277 50 45.277c-17.318 0-30.374-11.52-36.595-19.507a47.342 47.342 0 0 1 4.377-5.568ZM50 93.892c-3.725 0-7.296-.462-10.752-1.345C40.592 81.104 44.278 68.24 50 68.24c5.722.038 9.408 12.864 10.752 24.307A43.187 43.187 0 0 1 50 93.891Zm19.085-4.34c-2.688-11.02-11.021-24-19.047-24.038-8.025 0-16.358 13.017-19.046 24.038a45.728 45.728 0 0 1-6.22-3.686c4.223-9.946 13.554-24.039 25.305-24.384 11.75.307 21.081 14.4 25.305 24.384a54.958 54.958 0 0 1-6.297 3.686Zm13.133-9.754C76.342 71.043 63.632 58.755 50 58.755c-13.632 0-26.342 12.288-32.218 21.043a43.63 43.63 0 0 1-4.377-5.568C19.625 66.205 32.682 54.723 50 54.723c17.318 0 30.374 11.52 36.595 19.507a43.63 43.63 0 0 1-4.377 5.568ZM50 52.035c-15.86 0-31.066 5.453-40.973 13.709A43.764 43.764 0 0 1 6.11 50a43.61 43.61 0 0 1 2.918-15.744C18.934 42.512 34.141 47.965 50 47.965c15.86 0 31.027-5.453 40.973-13.709A43.764 43.764 0 0 1 93.89 50a43.61 43.61 0 0 1-2.918 15.744C81.027 57.488 65.859 52.035 50 52.035Z" clip-rule="evenodd"/></svg>