<svg width="100" height="100" xmlns="http://www.w3.org/2000/svg"><path d="M49.8363636,5 L49.8359487,26.31966 C47.3342371,27.8567038 45.0945266,29.7769191 43.1990891,31.9982658 L43.2,12.5017647 L20.6363636,15.3354412 L20.6363636,87.4969118 L43.2,84.6632353 L43.1990891,68.0017342 C45.0945266,70.2230809 47.3342371,72.1432962 49.8359487,73.68034 L49.8363636,90.5 L14,95 L14,9.5 L49.8363636,5 Z M64.4363636,27.5 C76.8979159,27.5 87,37.5735931 87,50 C87,62.4264069 76.8979159,72.5 64.4363636,72.5 C51.9748114,72.5 41.8727273,62.4264069 41.8727273,50 C41.8727273,37.5735931 51.9748114,27.5 64.4363636,27.5 Z M75.0266462,46.8165698 C69.8007345,47.4268797 67.0862615,47.7349651 64.4679925,48.0280669 L63.8402184,48.0982707 C61.2218845,48.3908135 58.5065358,48.691352 53.2789377,49.2871272 C51.9053543,49.4436708 50.9175432,50.1473841 51.0736891,51.5179731 C51.21898,52.792804 52.3028167,53.2000838 53.5594994,53.2000838 L75.5944497,50.7128728 C76.9688681,50.5563292 77.9558442,49.8526159 77.7988632,48.4820269 C77.6427173,47.1114379 76.4027346,46.6558628 75.0266462,46.8165698 Z" fill="currentColor" fill-rule="evenodd"/></svg>
