<svg xmlns="http://www.w3.org/2000/svg" width="100" height="100" fill="none"><path fill="#000" fill-rule="evenodd" d="m90.291 8-50.378 2.519v-.05L8 12.115V90.29h.005l50.374-2.519v.05l31.912-1.645V8ZM39.913 82.606l18.466-.923v-16.13l-18.466.924v16.13Zm0-22.217 18.466-.924V40.866l-18.466.924v18.599ZM33.83 42.093v18.599l-19.75.987V43.081l19.75-.987Zm6.081-6.393 18.467-.924V15.683l-18.466.924V35.7Zm-6.08-18.79v19.094l-19.75.987V17.9l19.75-.988Zm-19.75 50.858 19.75-.988v16.09l-19.75 1.017v-16.12Zm50.377 13.61 19.75-.987v-16.13l-19.75.988v16.13Zm19.75-41.804v18.599l-19.75.987V40.562l19.75-.987Zm0-6.09-19.75.988V15.42l19.75-1.018v19.084Z" clip-rule="evenodd"/></svg>