<svg width="100" height="100" xmlns="http://www.w3.org/2000/svg"><path d="M49.836 5v21.32a27.993 27.993 0 0 0-6.637 5.678l.001-19.496-22.564 2.833v72.162L43.2 84.663V68.002a27.993 27.993 0 0 0 6.636 5.678V90.5L14 95V9.5L49.836 5zm14.6 22.5C76.898 27.5 87 37.574 87 50S76.898 72.5 64.436 72.5c-12.461 0-22.563-10.074-22.563-22.5s10.102-22.5 22.563-22.5zm10.59 19.317c-5.225.61-7.94.918-10.558 1.211l-.628.07c-2.618.293-5.333.593-10.561 1.19-1.374.156-2.361.86-2.205 2.23.145 1.275 1.229 1.682 2.485 1.682l22.035-2.487c1.375-.157 2.362-.86 2.205-2.231-.156-1.37-1.396-1.826-2.772-1.665z" fill="currentColor" fill-rule="evenodd"/></svg>