<svg width="100" height="100" xmlns="http://www.w3.org/2000/svg"><path d="M90.291 8v78.177L58.38 87.823l-.001-.051L8 90.292V12.114l31.913-1.646-.001.05L90.292 8zm-56.46 58.78-19.75.988v16.12l19.75-1.018V66.78zm24.547-1.227-18.466.923v16.129l18.466-.923V65.553zm25.831-1.291-19.75.987v16.129l19.75-.986v-16.13zM33.831 42.093l-19.75.988V61.68l19.75-.988V42.093zm24.547-1.227-18.466.923v18.599l18.466-.923V40.866zm25.831-1.292-19.75.988v18.599l19.75-.987v-18.6zM33.831 16.91l-19.75.988v19.094l19.75-.988V16.91zm24.547-1.227-18.466.923V35.7l18.466-.923V15.683zm25.831-1.28L64.46 15.42v19.053l19.75-.987V14.402z" fill="currentColor" fill-rule="evenodd"/></svg>