<svg width="100" height="100" xmlns="http://www.w3.org/2000/svg"><path d="M90.2912465,8 L90.2912465,86.1766841 L58.3787011,87.8225074 L58.378,87.772 L8,90.2912465 L8,12.1145623 L39.9125454,10.468739 L39.912,10.519 L90.2912465,8 Z M33.831,66.78 L14.081,67.768 L14.0810811,83.8882432 L33.8312162,82.8702703 L33.831,66.78 Z M58.378,65.553 L39.912,66.476 L39.912,82.605 L58.378,81.682 L58.378,65.553 Z M84.209,64.262 L64.459,65.249 L64.459,81.378 L84.2093243,80.3916216 L84.209,64.262 Z M33.831,42.093 L14.081,43.081 L14.081,61.68 L33.831,60.692 L33.831,42.093 Z M58.378,40.866 L39.912,41.789 L39.912,60.388 L58.378,59.465 L58.378,40.866 Z M84.209,39.574 L64.459,40.562 L64.459,59.161 L84.2093243,58.1737838 L84.209,39.574 Z M33.831,16.91 L14.081,17.898 L14.081,36.992 L33.831,36.004 L33.831,16.91 Z M58.378,15.683 L39.912,16.606 L39.912,35.7 L58.378,34.777 L58.378,15.683 Z M84.2093243,14.4021622 L64.4591892,15.4201351 L64.459,34.473 L84.2093243,33.4858108 L84.2093243,14.4021622 Z" fill="currentColor" fill-rule="evenodd"/></svg>
