<svg width="100" height="100" xmlns="http://www.w3.org/2000/svg"><path d="M72.75 50.652C85.038 50.652 95 60.58 95 72.826 95 85.072 85.038 95 72.75 95S50.5 85.072 50.5 72.826c0-12.246 9.962-22.174 22.25-22.174zm0 9.026c-1.499 0-1.943 1.102-1.943 2.462v9.015l-9.06.969c-1.354.154-2.328.847-2.174 2.198.143 1.256 1.212 1.658 2.451 1.658l8.783-.92v8.452c0 1.36.579 2.462 1.943 2.462 1.365 0 1.942-1.102 1.942-2.462v-9.014l9.061-.97c1.355-.154 2.329-.847 2.174-2.198-.154-1.35-1.377-1.8-2.734-1.641l-8.5.906V62.14c0-1.36-.444-2.462-1.943-2.462zM95 5v35.478L6 44.913V9.435L95 5zm-6.544 6.854-75.912 3.783v22.42l75.912-3.782v-22.42z" fill="currentColor" fill-rule="evenodd"/></svg>