<svg width="10" height="10" xmlns="http://www.w3.org/2000/svg">
  <path d="M7.978 4.731a.677.677 0 0 0-.195-.48L4.018.48A1.63 1.63 0 0 0 3.48.14 1.623 1.623 0 0 0 2.865 0H.674A.647.647 0 0 0 .2.2a.65.65 0 0 0-.2.476v2.197c0 .186.046.392.14.617.093.226.206.403.34.534l3.764 3.78c.13.13.288.196.474.196a.673.673 0 0 0 .48-.195l2.585-2.598a.648.648 0 0 0 .195-.476zM2.162 2.168a.649.649 0 0 1-.477.198.649.649 0 0 1-.476-.198.652.652 0 0 1-.198-.478.65.65 0 0 1 .198-.478.649.649 0 0 1 .476-.198.65.65 0 0 1 .477.198.652.652 0 0 1 .197.478.652.652 0 0 1-.197.478zM9.805 4.25c.13.137.195.297.195.48a.648.648 0 0 1-.195.476L7.219 7.805A.673.673 0 0 1 6.74 8a.589.589 0 0 1-.31-.074 1.503 1.503 0 0 1-.28-.238l2.476-2.481a.648.648 0 0 0 .194-.476.677.677 0 0 0-.194-.48L4.86.48a1.632 1.632 0 0 0-.537-.34A1.623 1.623 0 0 0 3.707 0h1.18c.186 0 .391.047.616.14.224.093.404.207.537.34l3.765 3.77z" fill="#FFF" opacity=".5"/>
</svg>
