<svg width="100" height="100" xmlns="http://www.w3.org/2000/svg">
  <path d="M78.362 56.962a6.447 6.447 0 0 0-1.857-4.571L40.648 16.476A15.524 15.524 0 0 0 35.524 13.238 15.457 15.457 0 0 0 29.667 11.905H8.8a6.161 6.161 0 0 0-4.514 1.904A6.19 6.19 0 0 0 2.381 18.342v20.924c0 1.771.439 3.733 1.333 5.876.886 2.153 1.961 3.839 3.239 5.086l35.847 36c1.239 1.239 2.743 1.867 4.514 1.867a6.41 6.41 0 0 0 4.571-1.857l24.619-24.743a6.171 6.171 0 0 0 1.857-4.533zM22.971 32.552a6.181 6.181 0 0 1-4.543 1.886 6.181 6.181 0 0 1-4.533-1.886 6.21 6.21 0 0 1-1.886-4.553 6.19 6.19 0 0 1 1.886-4.553 6.181 6.181 0 0 1 4.533-1.886 6.19 6.19 0 0 1 4.543 1.886 6.21 6.21 0 0 1 1.876 4.553 6.21 6.21 0 0 1-1.876 4.553zm72.791 19.829c1.239 1.304 1.857 2.829 1.857 4.571a6.171 6.171 0 0 1-1.857 4.533l-24.629 24.753a6.41 6.41 0 0 1-4.563 1.857 5.61 5.61 0 0 1-2.953-.704 14.314 14.314 0 0 1-2.667-2.267l23.581-23.629a6.171 6.171 0 0 0 1.847-4.533 6.447 6.447 0 0 0-1.847-4.571L48.667 16.476A15.543 15.543 0 0 0 43.552 13.238 15.457 15.457 0 0 0 37.685 11.905h11.239c1.771 0 3.724.447 5.867 1.333 2.133.886 3.847 1.971 5.114 3.239l35.857 35.904z" fill="#134B45"/>
</svg>
