<svg xmlns="http://www.w3.org/2000/svg" width="100" height="100" fill="none"><path fill="#000" fill-rule="evenodd" d="M90.14 37.203c-2.536-2.927-6.324-4.338-10.367-3.88l-26.407 3.005v-15.08c0-3.33-1.308-6.329-3.686-8.448-2.394-2.135-5.552-3.097-8.915-2.72a2.361 2.361 0 0 0-1.849 1.302L25.071 39.547l-14.982 1.705A2.353 2.353 0 0 0 8 43.589v44.059a2.354 2.354 0 0 0 2.622 2.337l16.262-1.85 45.276-5.152c7.054-.802 13.219-6.251 14.991-13.25l5.394-21.295c1.085-4.127.209-8.221-2.404-11.235Zm-2.157 10.06L82.584 68.58c-1.303 5.143-5.808 9.145-10.957 9.73l-42.654 4.853V42.284l13.554-27.57c1.527.072 2.923.622 4.016 1.595 1.362 1.214 2.112 2.968 2.112 4.939v17.716a2.351 2.351 0 0 0 2.622 2.336l29.03-3.302c2.487-.281 4.767.55 6.272 2.285 1.58 1.821 2.093 4.358 1.404 6.98Z" clip-rule="evenodd"/></svg>