<svg width="100" height="100" xmlns="http://www.w3.org/2000/svg"><path d="m95.48 46.92-6.45 25.44c-1.63 6.43-7.27 11.44-13.72 12.17l-51.76 5.89v-49.8l16.47-33.5h.04c2.17 0 4.17.73 5.71 2.1a8.48 8.48 0 0 1 2.77 6.46v21.15c0 .58.25 1.14.7 1.53a2.08 2.08 0 0 0 1.6.52l34.67-3.95c3.2-.37 6.17.72 8.13 2.98 2.05 2.37 2.72 5.64 1.84 9m1.29-11.7a13.29 13.29 0 0 0-11.73-4.38l-32.36 3.68V15.68c0-3.76-1.48-7.14-4.16-9.53A12.74 12.74 0 0 0 38.46 3.1c-.7.08-1.3.5-1.62 1.14L20.13 38.22 1.83 40.3A2.06 2.06 0 0 0 0 42.35v52.59a2.06 2.06 0 0 0 2.3 2.05l73.48-8.36c8.12-.92 15.22-7.2 17.26-15.26l6.44-25.43c1.23-4.68.24-9.32-2.71-12.73" fill="#134B45"/></svg>