<svg xmlns="http://www.w3.org/2000/svg" width="100" height="100" fill="none"><path fill="#000" fill-rule="evenodd" d="M63.258 39.977c.669-.077 1.049.23 1.368.577l2.319-3.132c-.984-1.032-2.255-1.46-4.162-1.243-3.336.382-4.99 2.353-4.99 5.853v4.554l-2.256.256v3.566l2.256-.257v9.996l4.29-.49v-9.995l3.655-.417v-3.567l-3.655.418V41.48c0-.987.477-1.423 1.175-1.503ZM52.36 57.457c-.667.076-1.112-.16-1.112-1.53V50.9l3.463-.396v-3.566l-3.463.396v-7.066l-4.257.484v7.068l-2.003.228v3.566l2.003-.23v4.904c0 4.074 1.97 5.219 4.702 4.907 1.97-.226 3.113-1.056 3.782-1.675l-1.621-2.805c-.286.222-.794.663-1.494.742Zm-10.869 1.24c-.666.077-1.11-.16-1.11-1.529V52.14l3.462-.396v-3.566l-3.462.396v-7.066l-4.258.484v7.068l-2.003.228v3.565l2.003-.228v4.903c0 4.074 1.97 5.219 4.702 4.907 1.97-.226 3.112-1.058 3.78-1.675l-1.62-2.807c-.286.224-.793.664-1.494.744Zm49.432-35.551c-.012-.046-.027-.09-.042-.137a2.463 2.463 0 0 0-.203-.464c-.018-.031-.033-.064-.052-.095a2.364 2.364 0 0 0-.39-.461c-.01-.011-.018-.026-.03-.037L72.903 6.592l-.024-.015a2.33 2.33 0 0 0-.527-.347c-.021-.01-.043-.017-.065-.025a2.218 2.218 0 0 0-.53-.16c-.036-.008-.07-.016-.104-.021a2.37 2.37 0 0 0-.58-.011L11.092 12.86A2.361 2.361 0 0 0 9 15.21v77.428a2.357 2.357 0 0 0 2.626 2.348l77.282-8.822A2.363 2.363 0 0 0 91 83.816V23.72c0-.199-.032-.39-.078-.574ZM13.717 89.989V17.318l55.264-6.309v14.686a2.358 2.358 0 0 0 2.626 2.348l14.676-1.675v55.338L13.717 89.99ZM73.7 13.611l9.416 8.361-9.416 1.075v-9.436Z" clip-rule="evenodd"/></svg>