<svg width="100" height="100" xmlns="http://www.w3.org/2000/svg"><path d="M71.073 6.013a2.39 2.39 0 0 1 .58.01c.035.006.068.014.103.021.186.032.363.085.531.16.022.009.044.016.065.026.192.092.368.208.527.347l.024.015 17.302 15.36c.012.01.02.026.03.037.15.137.28.29.39.461.02.031.034.064.052.095.083.147.15.301.203.464.015.048.03.09.042.137.046.185.078.375.078.574v60.095c0 1.2-.9 2.212-2.092 2.349l-77.283 8.821A2.357 2.357 0 0 1 9 92.637V15.209c0-1.202.9-2.214 2.092-2.349zm-2.092 4.996-55.264 6.309v72.671l72.566-8.283V26.368l-14.676 1.675a2.357 2.357 0 0 1-2.625-2.348V11.01zM40.38 41.507v7.067l3.462-.396v3.566l-3.462.396v5.028c0 1.37.444 1.606 1.11 1.529.63-.072 1.104-.435 1.401-.67l.092-.074 1.622 2.807c-.669.617-1.812 1.45-3.78 1.675-2.673.305-4.615-.783-4.7-4.64l-.003-.267v-4.903l-2.003.228v-3.565l2.003-.228v-7.068l4.258-.485zm10.867-1.24v7.066l3.463-.396v3.566l-3.463.396v5.029c0 1.369.445 1.605 1.112 1.528.63-.072 1.104-.435 1.401-.67l.092-.073 1.622 2.806c-.669.619-1.813 1.45-3.782 1.675-2.671.305-4.614-.783-4.7-4.64l-.002-.267v-4.903l-2.003.23v-3.567l2.003-.228v-7.068l4.257-.484zm15.54-3.003.158.159-2.319 3.13c-.319-.346-.699-.653-1.368-.576-.654.075-1.114.463-1.17 1.325l-.005.178v4.616l3.655-.418v3.566l-3.655.418v9.995l-4.29.49V50.15l-2.256.257v-3.566l2.256-.256v-4.554c0-3.5 1.654-5.471 4.99-5.853 1.806-.206 3.042.167 4.004 1.085zm6.912-23.653v9.436l9.417-1.075-9.417-8.36z" fill="#134B45" fill-rule="evenodd"/></svg>