<svg width="100" height="100" xmlns="http://www.w3.org/2000/svg"><path d="M18.437 76.337c.336.068.672.175.995.31.336.134.645.296.927.498.296.188.578.417.82.66a5.42 5.42 0 0 1 1.572 3.81 5.42 5.42 0 0 1-1.572 3.81 5.753 5.753 0 0 1-.82.673 5.08 5.08 0 0 1-.927.485 5.31 5.31 0 0 1-.995.31 5.68 5.68 0 0 1-1.062.107 5.49 5.49 0 0 1-1.048-.108 5.77 5.77 0 0 1-1.935-.794 5.63 5.63 0 0 1-.806-.673 4.852 4.852 0 0 1-.672-.821 5.157 5.157 0 0 1-.497-.93 5.458 5.458 0 0 1-.417-2.06c0-1.413.578-2.8 1.586-3.81.242-.242.51-.47.806-.659.296-.202.605-.364.927-.498a5.77 5.77 0 0 1 1.008-.31 5.561 5.561 0 0 1 2.11 0zm69.547-2.957a2.356 2.356 0 0 1-1.905 2.59l-.16.023-46.76 5.449a2.352 2.352 0 0 1-2.607-2.068 2.355 2.355 0 0 1 1.904-2.588l.16-.024 46.76-5.45a2.356 2.356 0 0 1 2.608 2.068zM18.437 48.186c.336.067.672.175.995.31.336.134.645.295.927.497.296.189.578.418.82.66a5.42 5.42 0 0 1 1.572 3.81c0 1.414-.564 2.814-1.572 3.81a4.966 4.966 0 0 1-.82.673 5.08 5.08 0 0 1-.927.499 6.536 6.536 0 0 1-.995.31 5.66 5.66 0 0 1-1.062.093 5.52 5.52 0 0 1-1.048-.094 7.208 7.208 0 0 1-1.008-.31 6.15 6.15 0 0 1-.927-.498 4.867 4.867 0 0 1-.806-.673 4.375 4.375 0 0 1-.672-.821 4.74 4.74 0 0 1-.497-.929 5.458 5.458 0 0 1-.417-2.06c0-1.413.578-2.8 1.586-3.81.242-.242.51-.471.806-.66.296-.202.605-.363.927-.498a5.77 5.77 0 0 1 1.008-.31 5.561 5.561 0 0 1 2.11 0zm69.547-2.954a2.356 2.356 0 0 1-1.905 2.589l-.16.024-46.76 5.448a2.352 2.352 0 0 1-2.607-2.068 2.355 2.355 0 0 1 1.904-2.587l.16-.024 46.76-5.45a2.355 2.355 0 0 1 2.608 2.068zM18.437 20.034c.336.081.672.175.995.31.336.135.645.31.927.498a5 5 0 0 1 .82.673c.255.243.47.525.672.822.188.282.362.592.497.929.134.323.228.66.309.996.067.35.094.7.094 1.063 0 .35-.027.7-.094 1.05a7.24 7.24 0 0 1-.31 1.01 6.195 6.195 0 0 1-.496.93 4.871 4.871 0 0 1-.672.807 4.37 4.37 0 0 1-.82.673 4.374 4.374 0 0 1-.927.498 5.31 5.31 0 0 1-.995.31 5.68 5.68 0 0 1-1.062.108 5.49 5.49 0 0 1-1.048-.108 5.77 5.77 0 0 1-1.008-.31 5.141 5.141 0 0 1-.927-.498 4.154 4.154 0 0 1-.62-.486l-.372-.374a4.16 4.16 0 0 1-.486-.62 5.157 5.157 0 0 1-.497-.93 5.796 5.796 0 0 1-.31-1.01 5.57 5.57 0 0 1-.107-1.05 5.334 5.334 0 0 1 .417-2.06c.134-.336.295-.646.497-.928.188-.297.416-.58.672-.822.242-.255.51-.47.806-.673a6.15 6.15 0 0 1 .927-.498 7.208 7.208 0 0 1 1.008-.31 5.561 5.561 0 0 1 2.11 0zm69.547-2.95a2.354 2.354 0 0 1-1.905 2.587l-.16.024-46.76 5.45a2.352 2.352 0 0 1-2.607-2.068 2.355 2.355 0 0 1 1.904-2.587l.16-.025 46.76-5.45a2.355 2.355 0 0 1 2.608 2.069z" fill="#134B45" opacity=".99" fill-rule="evenodd"/></svg>