<svg width="100" height="100" xmlns="http://www.w3.org/2000/svg"><path d="M84.39 16.27a1.8 1.8 0 0 1-1.6 1.79l-6.7.76a1.8 1.8 0 0 1-2-1.58 1.8 1.8 0 0 1 1.59-2l3.02-.35a8.64 8.64 0 0 0-6.9-2.11c-3.6.4-6.94 2.75-8.73 6.12a1.8 1.8 0 0 1-2.44.74 1.8 1.8 0 0 1-.74-2.44 15.27 15.27 0 0 1 11.5-8c3.54-.41 6.9.65 9.4 2.77V9.54a1.8 1.8 0 1 1 3.6 0v6.72zM83.69 27a15.16 15.16 0 0 1-11.9 8.8 12.21 12.21 0 0 1-9.4-2.75v2.4a1.8 1.8 0 0 1-3.6 0v-6.72a1.8 1.8 0 0 1 1.6-1.79l6.7-.77c.97-.11 1.89.6 2 1.6a1.8 1.8 0 0 1-1.58 1.99l-3.03.34a8.62 8.62 0 0 0 6.9 2.12 11.7 11.7 0 0 0 9.04-6.73 1.8 1.8 0 0 1 2.38-.88 1.8 1.8 0 0 1 .89 2.4zM49.63 65.57c-.28.42-.42.9-.42 1.4v19.66l-8.33 5.95v-24.9a2.53 2.53 0 0 0-.52-1.54L13.23 30.78l36.06-4.12c.43 5.3 2.7 10.03 6.53 13.46a19.6 19.6 0 0 0 7.83 4.28L49.63 65.56zM87.38 5.05c-4.3-3.85-10-5.6-16.06-4.9-11.08 1.27-20.26 10.54-21.84 21.4L8.22 26.28a2.52 2.52 0 0 0-2.03 1.52 2.54 2.54 0 0 0 .32 2.52l29.32 38.23v28.93c0 .95.53 1.82 1.37 2.25a2.51 2.51 0 0 0 2.61-.19L53.2 90a2.53 2.53 0 0 0 1.06-2.05V67.73L69.2 45.16h.11c.86 0 1.72-.05 2.59-.15C84.08 43.62 94 32.54 94 20.31c0-6.02-2.35-11.45-6.62-15.26z" fill="#134B45"/></svg>