<svg width="100" height="100" xmlns="http://www.w3.org/2000/svg"><path d="M61.094 57.903a2.356 2.356 0 0 1-2.074 2.609l-23.094 2.631a2.357 2.357 0 0 1-.535-4.684l23.094-2.632a2.346 2.346 0 0 1 2.609 2.076zM59.02 17.018a6.24 6.24 0 0 1 .72-.042c1.365 0 2.613.454 3.57 1.31 1.113.99 1.725 2.428 1.725 4.044 0 3.604-2.94 6.87-6.55 7.282-1.636.184-3.166-.263-4.292-1.269-1.111-.992-1.723-2.428-1.723-4.044 0-3.544 2.998-6.877 6.55-7.281zM47.07 36.273c2.745 2.45 6.25 3.75 10.03 3.75.633 0 1.272-.037 1.919-.11 9.013-1.028 16.346-9.202 16.346-18.223 0-4.471-1.75-8.496-4.93-11.335-3.205-2.859-7.444-4.152-11.95-3.639C49.471 7.744 42.14 15.918 42.14 24.94c0 4.471 1.751 8.497 4.931 11.334zM23.017 21.12c.243-.028.482-.042.72-.042 1.364 0 2.613.454 3.572 1.31 1.111.993 1.723 2.429 1.723 4.045 0 3.544-2.998 6.877-6.55 7.282-1.643.185-3.166-.264-4.29-1.268-1.113-.992-1.724-2.429-1.724-4.045 0-3.604 2.938-6.87 6.55-7.282zm-11.95 19.257c2.746 2.45 6.252 3.75 10.03 3.75.633 0 1.274-.037 1.92-.111 9.013-1.028 16.345-9.202 16.345-18.223 0-4.47-1.751-8.497-4.93-11.334-3.205-2.86-7.446-4.151-11.95-3.64C13.47 11.847 6.136 20.02 6.136 29.042c0 4.471 1.751 8.496 4.93 11.335zm78.428 37.33L74.973 71.61c-2.395-1.003-3.88-3.34-3.88-6.098 0-2.933 1.628-5.81 4.249-7.507l14.153-9.165v28.867zM66.38 80.688c0 2.186-1.853 4.244-4.047 4.493L15.79 90.483c-.965.112-1.862-.15-2.516-.73-.64-.573-.995-1.412-.995-2.363V70.098c0-9.426 7.674-17.97 17.108-19.044l33.478-3.815a3.96 3.96 0 0 1 .434-.026c.8 0 1.528.263 2.084.759.642.572.996 1.411.996 2.362v30.354zm26.599-38.254a2.353 2.353 0 0 0-2.407.092l-17.79 11.521c-.604.39-1.16.836-1.688 1.306v-5.02c0-2.31-.914-4.4-2.57-5.878-1.67-1.49-3.865-2.164-6.191-1.9L28.854 46.37C17.115 47.708 7.565 58.351 7.565 70.098V87.39c0 2.31.913 4.4 2.57 5.879 1.432 1.278 3.251 1.955 5.207 1.955.324 0 .653-.019.983-.056l46.54-5.303c4.613-.525 8.228-4.556 8.228-9.177v-5.896c.637.446 1.31.852 2.055 1.165l17.791 7.468a2.367 2.367 0 0 0 2.218-.212 2.355 2.355 0 0 0 1.052-1.962V44.504c0-.864-.473-1.658-1.231-2.07z" fill="#134B45" fill-rule="evenodd"/></svg>