<svg width="100" height="100" xmlns="http://www.w3.org/2000/svg"><path d="M49.732 2.317C62.658.85 74.808 4.513 83.949 12.62 93.011 20.656 98 32.096 98 44.833c0 26.162-21.413 49.87-47.733 52.852-1.862.21-3.712.315-5.536.315-10.83 0-20.855-3.68-28.677-10.619C6.992 79.345 2 67.905 2 55.167c0-26.162 21.413-49.87 47.732-52.85zm5.519 4.38c-1.642 0-3.305.096-4.984.285C26.259 9.7 6.726 31.317 6.726 55.167c0 11.38 4.43 21.578 12.474 28.71 8.122 7.205 18.964 10.45 30.532 9.14 24.01-2.718 43.542-24.333 43.542-48.184 0-11.38-4.429-21.576-12.472-28.71-6.943-6.158-15.877-9.426-25.551-9.426zM35.763 27.115 73.28 44.576a1.248 1.248 0 0 1 .184 2.156L35.948 72.78a1.237 1.237 0 0 1-1.282.079A1.247 1.247 0 0 1 34 71.753V28.246c0-.425.216-.821.573-1.05.358-.23.806-.26 1.19-.081z" fill="#134B45"/></svg>