<svg width="100" height="100" xmlns="http://www.w3.org/2000/svg"><path d="M97.234 18.98a4.083 4.083 0 0 0-1.391-.256c-.988 0-1.811.33-2.478.979L71.16 40.371v-8.478c0-4.083-1.547-7.572-4.658-10.469a15.852 15.852 0 0 0-11.21-4.346H16.493c-4.379 0-8.115 1.449-11.218 4.346C2.172 24.322.617 27.81.617 31.893v36.214c0 4.083 1.556 7.572 4.658 10.469 3.102 2.898 6.84 4.346 11.219 4.346h38.799c4.37 0 8.107-1.448 11.219-4.346 3.102-2.898 4.651-6.386 4.651-10.469v-8.543l22.214 20.741c.658.642 1.481.972 2.478.972.444 0 .905-.083 1.383-.256 1.432-.584 2.148-1.596 2.148-3.037V22.017c0-1.441-.716-2.453-2.148-3.037z" fill="#134B45"/></svg>