<svg width="10" height="10" xmlns="http://www.w3.org/2000/svg">
  <path d="M11.739.231A.496.496 0 0 0 11.57.2c-.12 0-.22.04-.301.119L8.571 2.83V1.8c0-.496-.188-.92-.566-1.272A1.926 1.926 0 0 0 6.643 0H1.929C1.397 0 .943.176.566.528.189.88 0 1.304 0 1.8v4.4c0 .496.189.92.566 1.272.377.352.831.528 1.363.528h4.714c.531 0 .985-.176 1.363-.528.377-.352.565-.776.565-1.272V5.162l2.699 2.52c.08.078.18.118.301.118.054 0 .11-.01.168-.031.174-.071.261-.194.261-.369V.6c0-.175-.087-.298-.261-.369z" fill="none"/>
</svg>
