<svg xmlns="http://www.w3.org/2000/svg" width="100" height="100" fill="none"><path fill="#000" fill-rule="evenodd" d="M97.217 44.643a2.354 2.354 0 0 0-3.33.18l-8.29 9.255c2.692-14.06-1.55-27.76-11.698-36.773C57.408 2.657 30.656 5.629 14.265 23.927 5.835 33.34 1.39 45.565 2.068 57.466c.59 10.36 4.99 19.685 12.387 26.255C21.448 89.931 30.678 93 40.12 93c10.466-.001 21.192-3.774 29.406-11.221a2.368 2.368 0 0 0 .167-3.338 2.356 2.356 0 0 0-3.332-.169c-13.895 12.6-35.776 13.456-48.776 1.912-6.452-5.73-10.291-13.895-10.808-22.988-.608-10.653 3.401-21.628 10.998-30.111 14.663-16.372 38.437-19.17 52.996-6.242 9.276 8.24 12.875 21.034 9.816 34.045l-8.34-7.405a2.356 2.356 0 0 0-3.33.202 2.369 2.369 0 0 0 .202 3.337l12.48 11.082a2.353 2.353 0 0 0 3.32-.19L97.395 47.98c.87-.97.79-2.465-.179-3.337Zm-53.97-11.847v20.113l-16.136-2.23c-2.214-.312-4.252 1.244-4.557 3.46a4.05 4.05 0 0 0 3.453 4.57l20.73 2.864a4.038 4.038 0 0 0 3.209-.96 4.057 4.057 0 0 0 1.387-3.054V32.796a4.047 4.047 0 0 0-4.043-4.052 4.047 4.047 0 0 0-4.042 4.052Z" clip-rule="evenodd"/></svg>