<svg width="100" height="100" xmlns="http://www.w3.org/2000/svg"><path d="M14.265 23.927C30.655 5.629 57.408 2.657 73.9 17.305c10.149 9.014 14.39 22.714 11.699 36.773l8.29-9.256a2.354 2.354 0 0 1 3.33-.18 2.367 2.367 0 0 1 .178 3.338L84.918 61.914a2.353 2.353 0 0 1-3.319.19L69.12 51.022a2.37 2.37 0 0 1-.201-3.337 2.356 2.356 0 0 1 3.33-.202l8.34 7.405c3.058-13.01-.541-25.805-9.817-34.045-14.559-12.929-38.333-10.13-52.996 6.242-7.597 8.483-11.606 19.458-10.998 30.11.517 9.094 4.356 17.258 10.808 22.989 13 11.544 34.88 10.688 48.776-1.912a2.356 2.356 0 0 1 3.332.169 2.368 2.368 0 0 1-.167 3.338C61.312 89.226 50.586 92.999 40.12 93c-9.442 0-18.672-3.069-25.665-9.279-7.397-6.57-11.797-15.895-12.387-26.255-.68-11.9 3.767-24.126 12.197-33.54zm33.025 4.816a4.047 4.047 0 0 1 4.043 4.053v24.763a4.057 4.057 0 0 1-1.386 3.055 4.038 4.038 0 0 1-3.21.96l-20.73-2.866a4.05 4.05 0 0 1-3.453-4.568c.305-2.217 2.343-3.773 4.557-3.46l16.136 2.23V32.795a4.047 4.047 0 0 1 4.043-4.053z" fill="#134B45" fill-rule="evenodd"/></svg>