<svg width="100" height="100" xmlns="http://www.w3.org/2000/svg">
  <path d="M49.857 15.46c3.392 0 6.672.449 9.832 1.237l-.812 4.36a35.877 35.877 0 0 0-9.02-1.188c-20.457 0-37.1 16.982-37.1 37.86 0 20.877 16.646 37.865 37.1 37.865 20.46 0 37.106-16.988 37.106-37.865a38.055 38.055 0 0 0-15.249-30.526l1.109-4.629A42.478 42.478 0 0 1 91.286 57.73c0 23.307-18.589 42.27-41.429 42.27C27.011 100 8.43 81.037 8.43 57.729c0-23.3 18.585-42.269 41.428-42.269zM71.451.277c.21.219.298.527.235.823-7.36 36.086-10.472 70.349-10.715 78.1a.914.914 0 0 1-.734.874l-3.348.606a.883.883 0 0 1-.68-.157.923.923 0 0 1-.366-.609l-4.766-32.368-4.988 38.271a.903.903 0 0 1-.732.786l-3.1.554a.655.655 0 0 1-.157.02.873.873 0 0 1-.571-.211.949.949 0 0 1-.329-.7c-.151-22.083-4.417-48.486-6.243-58.812a.943.943 0 0 1 .146-.685.863.863 0 0 1 .58-.372l2.8-.523a.917.917 0 0 1 1.046.743c1.314 7.434 3.52 20.992 4.951 35.652l4.194-32.212c.055-.389.35-.7.735-.777l2.677-.486a.897.897 0 0 1 .683.152.92.92 0 0 1 .36.611l4.528 30.78c1.62-14.92 5.157-38.777 9.249-59.051a.914.914 0 0 1 .723-.715l3.028-.554a.891.891 0 0 1 .797.263l-.003-.003z" fill="#FFFDFB" fill-rule="evenodd"/>
</svg>
