<svg width="100" height="100" xmlns="http://www.w3.org/2000/svg"><path d="M71.073 6.013a2.39 2.39 0 0 1 .58.01c.035.006.068.014.103.021.186.032.363.085.531.16.022.009.044.016.065.026.192.092.368.208.527.347l.024.015 17.302 15.36c.012.01.02.026.03.037.15.137.28.29.39.461.02.031.034.064.052.095.083.147.15.301.203.464.015.048.03.09.042.137.046.185.078.375.078.574v60.095c0 1.2-.9 2.212-2.092 2.349l-77.283 8.821A2.357 2.357 0 0 1 9 92.637V15.209c0-1.202.9-2.214 2.092-2.349zm-2.092 4.996-55.264 6.309v72.671l72.566-8.283V26.368l-14.676 1.675a2.357 2.357 0 0 1-2.625-2.348V11.01zm-25.94 37.217-6.324 14.633-.381.043-2.923-5.11c-.54-.924-.953-2.596-.953-2.596s-.436 1.652-.946 2.685l-.07.137-3.115 5.799-.35.04-6.258-13.198 4.734-.54 1.556 3.674c.478 1.091.986 2.913.986 2.913s.467-1.808 1.037-3l.075-.152 2.224-4.456.318-.036 2.352 3.933c.602 1.014 1.175 2.891 1.175 2.891s.466-1.808.924-2.987l.06-.15 1.59-4.033 4.289-.49zm14.494 5.158c0 4.108-3.243 7.405-7.437 7.884-4.193.479-7.467-2.076-7.467-6.183 0-4.138 3.274-7.472 7.467-7.95 4.194-.48 7.437 2.112 7.437 6.249zM78.54 35.88l.158.159-2.318 3.13c-.318-.347-.7-.654-1.367-.577-.657.075-1.115.463-1.17 1.324l-.005.179v4.615l3.654-.416v3.565l-3.654.417v9.995l-4.29.49v-9.994l-4.861.555v9.995l-4.29.488V49.81l-2.256.258v-3.566l2.256-.258V42.33c0-3.502 1.683-5.477 4.829-5.836 1.43-.164 2.44.113 3.347.74l.18.13-1.78 3.291c-.222-.23-.603-.44-1.174-.375-.626.072-1.056.485-1.107 1.323l-.005.173v3.98l4.861-.556v-4.55c0-3.502 1.653-5.473 4.988-5.855 1.807-.206 3.043.167 4.004 1.086zM50.098 50.827c-1.906.217-3.082 1.72-3.082 3.757 0 2.007 1.176 3.272 3.082 3.055 1.907-.218 3.051-1.749 3.051-3.754 0-2.038-1.144-3.276-3.051-3.058zm23.6-37.216v9.436l9.418-1.075-9.417-8.36z" fill="#134B45" fill-rule="evenodd"/></svg>