<svg width="100" height="100" xmlns="http://www.w3.org/2000/svg"><path d="M71.073 6.013a2.39 2.39 0 0 1 .58.01c.035.006.068.014.103.021.186.032.363.085.531.16.022.009.044.016.065.026.192.092.368.208.527.347l.024.015 17.302 15.36c.012.01.02.026.03.037.15.137.28.29.39.461.02.031.034.064.052.095.083.147.15.301.203.464.015.048.03.09.042.137.046.185.078.375.078.574v60.095c0 1.2-.9 2.212-2.092 2.349l-77.283 8.821A2.357 2.357 0 0 1 9 92.637V15.209c0-1.202.9-2.214 2.092-2.349zm-2.092 4.996-55.264 6.309v72.671l72.566-8.283V26.368l-14.676 1.675a2.357 2.357 0 0 1-2.625-2.348V11.01zM36.005 49.074 29.68 63.707l-.381.043-2.922-5.11c-.54-.926-.955-2.597-.955-2.597s-.435 1.652-.946 2.685l-.07.137-3.113 5.8-.35.039-6.26-13.197 4.735-.54 1.555 3.674c.479 1.091.987 2.911.987 2.911s.467-1.806 1.037-3l.075-.151 2.224-4.455.318-.036 2.352 3.933c.602 1.013 1.175 2.89 1.175 2.89s.468-1.807.924-2.987l.06-.15 1.589-4.033 4.29-.49zm14.494 5.157c0 4.108-3.243 7.405-7.436 7.885-4.194.478-7.468-2.077-7.468-6.183 0-4.14 3.274-7.473 7.468-7.951 4.193-.48 7.436 2.112 7.436 6.25zm21.005-17.504.158.158-2.318 3.13c-.319-.345-.7-.652-1.367-.576-.655.075-1.115.464-1.17 1.324l-.005.179v4.615l3.653-.416v3.565l-3.653.417v9.995l-4.29.49v-9.994l-4.862.555v9.995l-4.29.49v-9.997l-2.255.258V47.35l2.255-.257v-3.916c0-3.502 1.685-5.477 4.83-5.836 1.43-.162 2.442.113 3.348.74l.18.13-1.78 3.293c-.222-.23-.603-.442-1.176-.376-.624.071-1.055.485-1.107 1.323l-.005.173v3.978l4.862-.555v-4.552c0-3.5 1.652-5.472 4.988-5.853 1.807-.206 3.042.166 4.004 1.085zm12.746 8.909c0 1.952-1.283 3.933-3.096 6.112l-.24.285-.477.563c-.602.707-1.907 1.683-1.907 1.683l.057-.012c.272-.057 1.465-.306 2.032-.384l.104-.013 3.685-.422v3.661l-13.6 1.553v-.382l6.325-7.439c1.811-2.117 2.668-3.042 2.668-4.41 0-1.083-.794-1.724-2-1.587-1.396.159-2.212 1.297-2.698 2.665l-.068.197-4.002-.626c.761-3.492 3.463-5.743 6.736-6.115 4.447-.51 6.481 1.901 6.481 4.67zm-41.187 6.038c-1.907.217-3.082 1.72-3.082 3.758 0 2.006 1.175 3.271 3.082 3.054 1.906-.217 3.051-1.749 3.051-3.754 0-2.037-1.145-3.276-3.051-3.058zM73.699 13.61v9.436l9.417-1.075-9.417-8.36z" fill="#134B45" fill-rule="evenodd"/></svg>