<svg width="100" height="100" xmlns="http://www.w3.org/2000/svg"><path d="m90.235 31.677-8.893 10.021-27.896-25.012 8.9-10.03c.816-.921 1.921-1.465 3.107-1.534a3.938 3.938 0 0 1 2.891.993l21.742 19.496c1.698 1.524 1.765 4.245.149 6.066m3.249-9.88L71.742 2.3c-1.8-1.615-4.137-2.419-6.58-2.287-2.549.146-4.9 1.297-6.624 3.24L47.946 15.19c-.075.082-.13.174-.19.262-.029.042-.062.08-.089.124-.102.17-.182.348-.242.532-.002.007-.008.015-.011.025l-2.757 8.908-13.311 4.837c-6.057 2.2-10.854 7.202-12.832 13.379L3.622 89.797A2.563 2.563 0 0 0 4.785 92.8c1.048.6 2.368.382 3.17-.52l23.331-26.294c.665-.75.832-1.822.426-2.74-1.935-4.377-.697-9.526 3.083-12.813 3.68-3.202 9.114-3.584 12.92-.907 2.387 1.68 3.891 4.223 4.232 7.159.363 3.127-.657 6.304-2.798 8.716-2.9 3.268-7.355 4.57-11.348 3.306a2.548 2.548 0 0 0-2.67.74L11.797 95.74a2.566 2.566 0 0 0-.148 3.218 2.548 2.548 0 0 0 3.108.813l44.3-20.167c5.882-2.677 10.28-8.037 11.766-14.337l3.264-13.846 8.49-3.767c.012-.006.023-.015.034-.02.175-.081.34-.18.493-.3.035-.026.061-.058.095-.085.086-.075.174-.148.252-.234L94.044 35.08c3.482-3.925 3.231-9.884-.56-13.283" fill="#134B45" fill-rule="evenodd"/></svg>