<svg width="100" height="100" xmlns="http://www.w3.org/2000/svg"><path d="M71.073 6.013a2.39 2.39 0 0 1 .58.01c.035.006.068.014.103.021.186.032.363.085.531.16.022.009.044.016.065.026.192.092.368.208.527.347l.024.015 17.302 15.36c.012.01.02.026.03.037.15.137.28.29.39.461.02.031.034.064.052.095.083.147.15.301.203.464.015.048.03.09.042.137.046.185.078.375.078.574v60.095c0 1.2-.9 2.212-2.092 2.349l-77.283 8.821A2.357 2.357 0 0 1 9 92.637V15.209c0-1.202.9-2.214 2.092-2.349zm-2.092 4.996-55.264 6.309v72.671l72.566-8.283V26.368l-14.676 1.675a2.357 2.357 0 0 1-2.625-2.348V11.01zM47.464 47.946l-4.48 6.623 5.21 6.854-5.083.581-1.557-2.147c-.571-.794-1.24-2.277-1.24-2.277s-.608 1.49-1.16 2.43l-.078.13-1.523 2.499-4.577.522 5.21-7.694-4.543-5.944 5.051-.577 1.114 1.561c.475.678 1.016 1.985 1.016 1.985s.456-1.28.91-2.084l.075-.129 1.078-1.81 4.577-.523zm6.007-10.108V60.82l-4.256.486V38.324l4.256-.486zm11.979 9.486.162.142-2.289 2.712c-.636-.469-1.589-.836-2.605-.721-.984.113-1.462.421-1.462.964 0 .763.858.761 2.702.964 1.97.221 4.448.862 4.448 3.727 0 2.483-1.304 4.668-5.561 5.154-3.036.347-4.858-.544-6.04-1.744l-.124-.13 2.51-2.516c.922.786 2.099 1.194 3.368 1.05 1.4-.161 1.844-.467 1.844-1.04 0-.73-.859-.634-3.051-.956-1.843-.268-3.908-1.051-3.908-3.883 0-3.057 2.35-4.566 5.243-4.896 2.117-.242 3.659.245 4.763 1.173zm8.249-33.713v9.436l9.417-1.075-9.417-8.36z" fill="#134B45" fill-rule="evenodd"/></svg>