<svg width="100" height="100" xmlns="http://www.w3.org/2000/svg"><path d="M71.073 6.013a2.39 2.39 0 0 1 .58.01c.035.006.068.014.103.021.186.032.363.085.531.16.022.009.044.016.065.026.192.092.368.208.527.347l.024.015 17.302 15.36c.012.01.02.026.03.037.15.137.28.29.39.461.02.031.034.064.052.095.083.147.15.301.203.464.015.048.03.09.042.137.046.185.078.375.078.574v60.095c0 1.2-.9 2.212-2.092 2.349l-77.283 8.821A2.357 2.357 0 0 1 9 92.637V15.209c0-1.202.9-2.214 2.092-2.349zm-2.092 4.996-55.264 6.309v72.671l72.566-8.283V26.368l-14.676 1.675a2.357 2.357 0 0 1-2.625-2.348V11.01zM40.137 48.781l-4.48 6.624 5.212 6.854-5.084.58-1.558-2.147c-.571-.794-1.24-2.278-1.24-2.278s-.607 1.492-1.159 2.432l-.078.13-1.525 2.498-4.575.523 5.209-7.694-4.543-5.944 5.051-.577 1.113 1.56c.477.679 1.016 1.986 1.016 1.986s.457-1.281.91-2.084l.076-.13 1.08-1.81 4.575-.523zm6.008-10.109v22.985l-4.256.485V39.158l4.256-.486zm11.978 9.487.162.143-2.289 2.711c-.636-.468-1.589-.837-2.605-.72-.984.111-1.462.42-1.462.962 0 .764.858.763 2.702.965 1.97.22 4.448.862 4.448 3.727 0 2.484-1.302 4.668-5.56 5.154-3.037.347-4.86-.543-6.04-1.745l-.123-.13 2.508-2.514c.922.785 2.098 1.193 3.368 1.049 1.399-.16 1.844-.466 1.844-1.04 0-.732-.859-.633-3.052-.956-1.842-.267-3.907-1.05-3.907-3.883 0-3.056 2.35-4.566 5.243-4.897 2.117-.24 3.66.247 4.763 1.174zm15.32-3.18-4.48 6.624 5.21 6.854-5.083.58-1.557-2.146c-.573-.794-1.24-2.278-1.24-2.278s-.608 1.491-1.16 2.431l-.078.13-1.525 2.498-4.575.523 5.209-7.694-4.544-5.944 5.053-.577 1.112 1.56c.477.68 1.016 1.986 1.016 1.986s.458-1.28.91-2.084l.076-.129 1.08-1.81 4.576-.523zm.256-31.368v9.436l9.417-1.075-9.417-8.36z" fill="#134B45" fill-rule="evenodd"/></svg>