<svg xmlns="http://www.w3.org/2000/svg" width="100" height="100" fill="none"><path fill="#000" d="M61.134 48.65a29.734 29.734 0 0 1-1.642 9.65 26.617 26.617 0 0 1-9.007 2.878 23.2 23.2 0 0 1-9.007-.556 26.19 26.19 0 0 1-1.602-9.272c.01-3.282.558-6.54 1.622-9.648a26.937 26.937 0 0 1 9.007-2.869 23.202 23.202 0 0 1 9.007.556 26.193 26.193 0 0 1 1.632 9.222l-.01.04Zm31.285-11.494-24.81 3.196 17.535-20.697a36.076 36.076 0 0 0-10.009-9.232L57.581 31.12V5.043a40.096 40.096 0 0 0-7.006.288h-.05a43.339 43.339 0 0 0-7.006 1.539v26.067l-17.644-16.17a50.698 50.698 0 0 0-5.425 5.519 53.539 53.539 0 0 0-4.583 6.283L33.41 44.75 8.59 47.957S8 52.919 8 55.46a45.15 45.15 0 0 0 .59 7.356l24.81-3.197-17.545 20.727a36.365 36.365 0 0 0 10.009 9.232L43.419 68.89v26.067c2.34.107 4.684.01 7.006-.288h.06a44.016 44.016 0 0 0 7.006-1.529V67.064l17.544 16.18a52.84 52.84 0 0 0 10.018-11.822L67.6 55.242l24.82-3.197a48.71 48.71 0 0 0 .58-7.484v-.07a45.62 45.62 0 0 0-.58-7.335Z"/></svg>