<svg width="100" height="100" xmlns="http://www.w3.org/2000/svg"><path d="M71.073 6.013a2.39 2.39 0 0 1 .58.01c.035.006.068.014.103.021.186.032.363.085.531.16.022.009.044.016.065.026.192.092.368.208.527.347l.024.015 17.302 15.36c.012.01.02.026.03.037.15.137.28.29.39.461.02.031.034.064.052.095.083.147.15.301.203.464.015.048.03.09.042.137.046.185.078.375.078.574v60.095c0 1.2-.9 2.212-2.092 2.349l-77.283 8.821A2.357 2.357 0 0 1 9 92.637V15.209c0-1.202.9-2.214 2.092-2.349zm-2.092 4.996-55.264 6.309v72.671l72.566-8.283V26.368l-14.676 1.675a2.357 2.357 0 0 1-2.625-2.348V11.01zm-1.813 41.257c0 4.17-2.828 7.421-6.131 7.798-1.976.226-3.341-.405-4.068-1.477l-.095-.149v8.564l-4.29.489V47.18l4.29-.489-.096 2.112c.826-1.558 2.256-2.645 4.353-2.884 3.273-.374 6.037 2.175 6.037 6.346zm-22.595-4.17v.35l-6.004 10.427 5.496-.628v3.47l-11.915 1.36v-.35l5.878-10.412-5.147.587v-3.469l11.692-1.335zm5.753-.657v13.56l-4.29.491V47.929l4.29-.49zm9.471 2.42c-1.842.211-3.05 1.59-3.05 3.597 0 2.132 1.208 3.204 3.05 2.993 1.811-.206 2.954-1.547 2.954-3.68 0-2.004-1.143-3.116-2.954-2.91zm-8.899-7.452c0 1.592-1.24 2.848-2.7 3.015-1.462.166-2.733-.802-2.733-2.394 0-1.56 1.271-2.818 2.732-2.985 1.461-.168 2.701.806 2.701 2.364zm22.8-28.796v9.436l9.418-1.075-9.417-8.36z" fill="#134B45" fill-rule="evenodd"/></svg>