<svg width="120" height="24" viewBox="0 0 120 24" fill="none" xmlns="http://www.w3.org/2000/svg">
<path fill-rule="evenodd" clip-rule="evenodd" d="M11.4977 23.4939C8.92484 23.4939 6.87056 20.6656 6.58998 16.9077C2.83215 16.6271 0 14.5679 0 12C0 9.43215 2.83215 7.37286 6.59374 7.09228C6.87432 3.3357 8.9286 0.506052 11.5015 0.506052C14.0743 0.506052 16.1273 3.33445 16.4092 7.09228C20.167 7.37286 22.9904 9.42714 22.9904 12C22.9904 14.5729 20.1633 16.6271 16.4054 16.9077C16.1236 20.6643 14.0706 23.4939 11.4977 23.4939ZM11.4977 21.6551C12.4998 21.6551 13.2188 20.7269 13.5582 20.1745C14.2309 19.0772 14.6004 17.6054 14.6017 16.0221C14.6037 15.3197 14.5268 14.6193 14.3724 13.934C13.3716 15.5336 11.1495 16.681 8.43382 16.9027C8.54405 18.1466 8.89102 19.2852 9.43591 20.1745C9.77536 20.7269 10.4956 21.6551 11.4977 21.6551ZM10.1594 11.1058C9.9825 11.3704 9.8881 11.6817 9.8881 12C9.8881 12.4269 10.0577 12.8363 10.3595 13.1382C10.6614 13.44 11.0708 13.6096 11.4977 13.6096C11.8161 13.6096 12.1273 13.5152 12.3919 13.3383C12.6566 13.1615 12.863 12.9101 12.9848 12.616C13.1066 12.3219 13.1385 11.9982 13.0764 11.686C13.0143 11.3737 12.861 11.0869 12.6359 10.8618C12.4108 10.6367 12.124 10.4834 11.8117 10.4213C11.4995 10.3592 11.1758 10.3911 10.8817 10.5129C10.5876 10.6347 10.3362 10.8411 10.1594 11.1058ZM21.1466 12C21.1466 10.9979 20.2196 10.2789 19.666 9.93946C18.5775 9.26681 17.1031 8.89729 15.5148 8.9023C14.8124 8.9003 14.112 8.97719 13.4267 9.13152C15.0263 10.1324 16.1737 12.3532 16.3942 15.0689C17.638 14.9599 18.7779 14.6129 19.666 14.0668C20.2246 13.7211 21.1466 13.0021 21.1466 12ZM11.4927 2.34488C10.4906 2.34488 9.77035 3.27307 9.4309 3.82547H9.43591C8.76827 4.92276 8.39248 6.39457 8.39248 7.97787C8.38947 8.68007 8.46467 9.38042 8.6167 10.066C9.61879 8.46639 11.8397 7.319 14.5553 7.09854C14.4463 5.85344 14.0994 4.71482 13.5532 3.82547C13.2138 3.27307 12.4948 2.34488 11.4927 2.34488ZM6.58998 8.93737C5.34614 9.04635 4.20752 9.39332 3.31816 9.93946H3.32317C2.77077 10.2789 1.83758 10.9992 1.83758 12.0013C1.83758 13.0033 2.76576 13.7223 3.31816 14.0618C4.41294 14.7282 5.88727 15.104 7.46931 15.104C8.17174 15.1061 8.87218 15.0292 9.55741 14.8747C7.95908 13.8739 6.81169 11.653 6.58998 8.93737ZM76.6597 8.60041C77.1635 8.60646 77.6599 8.72275 78.114 8.94112L78.109 7.04843C77.6498 6.88885 77.1671 6.80714 76.681 6.80668C75.3582 6.80668 74.4 7.52442 73.8877 9.27808V7.02338H72.0088V16.9766H73.8877V13.3328C73.8877 10.7111 74.6768 8.60041 76.6597 8.60041ZM31.4405 14.0142H29.7194C29.8046 16.061 31.6384 17.1908 33.4284 17.1946C35.4964 17.1946 37.2864 16.0647 37.2864 14.2096C37.2864 13.0823 36.7541 11.8397 34.686 11.3286L33.2155 10.9666C32.5754 10.8175 31.9365 10.4543 31.9365 9.77286C31.9365 9.00501 32.5754 8.43006 33.5349 8.43006C34.3215 8.43006 35.1119 8.94113 35.1332 9.70772H36.9244C36.9244 7.70355 35.1758 6.80919 33.4923 6.80919C31.4881 6.80919 30.0814 8.0668 30.0814 9.70772C30.0814 11.3111 31.0409 12.1165 32.7031 12.5637L34.0622 12.8843C34.8514 13.0572 35.4276 13.4392 35.4276 14.1846C35.4276 14.995 34.676 15.5699 33.4234 15.5699C32.2083 15.5699 31.4618 14.8672 31.4405 14.0142ZM47.7871 16.9766V7.02338L45.9307 7.02964V12.4159C45.9094 14.5679 44.2472 15.357 42.8618 15.357C41.4764 15.357 40.4743 14.3336 40.4743 12.6714V7.02338H38.6205V12.7779C38.6004 15.5699 40.1349 17.1908 42.6288 17.1908C43.7374 17.1908 45.3357 16.6572 45.9319 15.4209V16.9766H47.7871ZM70.6171 12.7992H62.5177C62.7945 14.5679 64.0735 15.4422 65.7745 15.4422C66.9883 15.4422 68.1181 14.9311 68.673 13.929L70.2927 14.5679C69.4158 16.2952 67.6284 17.1908 65.7106 17.1908C62.8747 17.1908 60.595 15.1228 60.595 11.9687C60.595 8.81461 62.8747 6.81044 65.7106 6.81044C68.5465 6.81044 70.6547 8.81461 70.6547 11.9687C70.6597 12.2455 70.6384 12.5223 70.6171 12.7992ZM68.8058 11.2008C68.5716 9.49603 67.3566 8.55783 65.7156 8.55783C64.0309 8.55783 62.8346 9.4096 62.539 11.2008H68.8058ZM88.4881 11.2221V16.9766H86.633V11.3286C86.633 9.66639 85.6096 8.64301 84.2242 8.64301C82.8388 8.64301 81.1766 9.43215 81.1766 11.5841V16.9704H79.3215V7.02338H81.1766V8.53653C81.7729 7.3215 83.3937 6.81044 84.481 6.81044C86.9524 6.81044 88.5094 8.43006 88.4881 11.2221ZM94.7762 6.81044C91.9415 6.81044 89.5754 8.81336 89.5754 11.9687C89.5754 15.1228 91.9403 17.1908 94.7762 17.1908C97.6121 17.1908 99.9983 15.1228 99.9983 11.9687C99.9983 8.81461 97.6109 6.81044 94.7762 6.81044ZM94.7762 8.55783C96.61 8.55783 98.1445 9.92192 98.1445 11.9687C98.1445 14.0355 96.61 15.4447 94.7762 15.4422C92.9649 15.4422 91.4518 14.0355 91.4518 11.9687C91.4518 9.92192 92.9649 8.55783 94.7762 8.55783ZM109.83 7.02338L105.674 16.9766H103.863L99.729 7.02338H101.712L104.781 14.6117L107.83 7.02338H109.83ZM118.146 16.9766H120V7.02338H118.146V8.57912C117.485 7.40668 116.078 6.81044 114.586 6.81044C111.858 6.81044 109.62 8.83466 109.62 11.9887C109.62 15.1228 111.879 17.1908 114.608 17.1908C116.035 17.1908 117.485 16.5507 118.146 15.3996V16.9766ZM114.757 8.55783C116.392 8.55783 118.146 9.81545 118.146 11.9687H118.142C118.142 14.0994 116.543 15.4447 114.757 15.4422C112.949 15.4422 111.5 13.9503 111.5 11.9687C111.5 9.96451 112.944 8.55783 114.757 8.55783ZM59.5704 12.0113C59.5704 15.1653 57.3319 17.1908 54.6038 17.1908C53.1119 17.1908 51.7052 16.5933 51.0438 15.4209V22.185H49.19V7.02839H51.0438V8.60542C51.7052 7.45427 53.1545 6.81544 54.5825 6.81544C57.3106 6.81043 59.5704 8.87724 59.5704 12.0113ZM57.6914 12.0326C57.6914 10.0497 56.2422 8.55783 54.4096 8.55783C52.6397 8.55783 51.0413 9.90062 51.0413 12.0326C51.0352 12.4789 51.1179 12.9219 51.2846 13.336C51.4513 13.75 51.6987 14.1268 52.0124 14.4443C52.3261 14.7619 52.6998 15.0138 53.1118 15.1856C53.5237 15.3573 53.9658 15.4454 54.4121 15.4447C56.2422 15.4447 57.694 14.0355 57.694 12.0326H57.6914Z" fill="#141618"/>
</svg>
