<svg width="100" height="100" xmlns="http://www.w3.org/2000/svg">
  <path d="M18 68.071V23.06C18 10.377 28.4 0 41.11 0c12.712 0 23.112 10.377 23.112 23.06v45.01c0 7.77-6.435 14.19-14.222 14.19s-14.222-6.42-14.222-14.19V26.386a5.32 5.32 0 0 1 2.644-4.672 5.344 5.344 0 0 1 5.378 0 5.32 5.32 0 0 1 2.644 4.672V68.07c0 2.057 1.494 3.548 3.556 3.548 2.062 0 3.555-1.49 3.555-3.548V23.06c0-6.971-5.458-12.417-12.444-12.417-6.987 0-12.444 5.446-12.444 12.417v45.01c0 11.884 9.422 21.286 21.333 21.286 11.91 0 21.333-9.402 21.333-21.286V31.929a5.32 5.32 0 0 1 2.645-4.672 5.344 5.344 0 0 1 5.377 0 5.32 5.32 0 0 1 2.644 4.672v36.142C82 85.668 67.635 100 50 100c-17.635 0-32-14.332-32-31.929z" fill="#134B45"/>
</svg>
