<svg width="100" height="100" xmlns="http://www.w3.org/2000/svg">
  <path d="M49.967 94.572a41.588 41.588 0 0 1-27.89-10.68C23.47 72.89 31.42 63.695 42.214 60.785a2.723 2.723 0 0 0 2.01-2.518 2.724 2.724 0 0 0-1.801-2.671c-8.202-2.944-13.713-10.765-13.713-19.46a20.56 20.56 0 0 1 6.063-14.633 20.559 20.559 0 0 1 14.633-6.06c11.411 0 20.694 9.284 20.694 20.693 0 8.7-5.515 16.52-13.722 19.463a2.722 2.722 0 0 0 .211 5.189A27.412 27.412 0 0 1 76.815 84.8a41.718 41.718 0 0 1-26.848 9.77M49.999 0C22.43 0 0 22.43 0 50s22.43 50 50 50 50-22.43 50-50S77.57 0 50 0" fill="#134B45" fill-rule="evenodd"/>
</svg>
