<svg width="100" height="100" xmlns="http://www.w3.org/2000/svg">
  <path d="M10.03 64.5c-.65 0-1.31-.06-1.95-.17a15.9 15.9 0 0 1-1.89-.57 10.07 10.07 0 0 1-1.72-.94 8.93 8.93 0 0 1-1.52-1.23A10.1 10.1 0 0 1 .2 52.58a10.73 10.73 0 0 1 1.5-3.6 10.71 10.71 0 0 1 2.77-2.76 12.36 12.36 0 0 1 1.72-.92c.63-.25 1.26-.42 1.9-.57a10.11 10.11 0 0 1 3.92 0 10.82 10.82 0 0 1 3.61 1.49c.55.37 1.06.8 1.52 1.25a8.9 8.9 0 0 1 1.24 1.51 9.23 9.23 0 0 1 1.49 3.6 9.13 9.13 0 0 1 0 3.9 10.56 10.56 0 0 1-.55 1.86 10.24 10.24 0 0 1-.94 1.74 8.9 8.9 0 0 1-1.24 1.51 8.93 8.93 0 0 1-1.52 1.23 10.27 10.27 0 0 1-3.6 1.5c-.67.12-1.33.18-1.99.18zM50 60a10.13 10.13 0 0 1-8.34-4.46 9.84 9.84 0 0 1-.92-1.7 9.44 9.44 0 0 1-.57-1.89 9.1 9.1 0 0 1-.2-1.94c0-.66.05-1.31.2-1.97a8.66 8.66 0 0 1 .57-1.85 9.52 9.52 0 0 1 2.18-3.25c3.73-3.71 10.46-3.71 14.19 0A10.06 10.06 0 0 1 60.03 50a10 10 0 0 1-2.92 7.04 10.9 10.9 0 0 1-3.27 2.17A10.3 10.3 0 0 1 50 60zm39.97-4.54c-.66 0-1.32-.06-1.98-.2a8.77 8.77 0 0 1-1.87-.57 9.93 9.93 0 0 1-1.72-.91c-.57-.37-1.06-.8-1.54-1.26a10 10 0 0 1-2.93-7.04c0-2.63 1.06-5.2 2.92-7.08.5-.45.98-.85 1.55-1.22a8.3 8.3 0 0 1 1.72-.92A8.77 8.77 0 0 1 88 35.7a10.11 10.11 0 0 1 3.93 0 8.5 8.5 0 0 1 1.89.57 8.3 8.3 0 0 1 1.72.92 9.53 9.53 0 0 1 3.7 4.48 10.21 10.21 0 0 1 .77 3.82 10.03 10.03 0 0 1-4.47 8.3 9.93 9.93 0 0 1-1.72.9 8.53 8.53 0 0 1-1.9.58c-.63.14-1.29.2-1.95.2z" fill="#134B45"/>
</svg>
