<svg width="100" height="100" xmlns="http://www.w3.org/2000/svg">
  <path d="M83.29 45.46c0-4.8-2.21-9.4-5.77-12.03a11.4 11.4 0 0 0-10.35-1.7 2.64 2.64 0 0 0-1.75 3.3 2.65 2.65 0 0 0 3.31 1.74c2.58-.79 4.5.06 5.65.9 2.2 1.62 3.61 4.68 3.61 7.8 0 2.31-.81 4.69-2.29 6.68a2.63 2.63 0 0 0 .56 3.7 2.65 2.65 0 0 0 3.7-.55 16.67 16.67 0 0 0 3.33-9.84M72.67 60.72a2.65 2.65 0 0 0-3.73.37l-5.4 6.62a2.64 2.64 0 1 0 2.04 4.3c.77 0 1.53-.33 2.05-.97l5.42-6.61a2.64 2.64 0 0 0-.38-3.71m18.47-16.66c0 4.83-1.66 9.73-4.68 13.8-3.44 4.65-31.9 39.67-33.12 41.16a2.64 2.64 0 0 1-2.05.98 2.65 2.65 0 0 1-1.88-.78c-1.2-1.21-29.68-29.79-33.14-33.66a19.52 19.52 0 0 1-4.83-13.05c0-11.63 9.49-22.17 21.14-23.5 7.72-.88 14.7 2.45 18.56 8.33 3.72-6.72 10.61-11.64 18.25-12.51 5.82-.65 11.28 1 15.4 4.67a19.17 19.17 0 0 1 6.35 14.56M13.26 29.33c.73 0 1.46-.3 1.98-.89a2.63 2.63 0 0 0-.22-3.72L6.4 17.1a2.65 2.65 0 0 0-3.73.22 2.63 2.63 0 0 0 .22 3.73l8.62 7.6a2.64 2.64 0 0 0 1.75.67M98.12 6.88a2.65 2.65 0 0 0-3.74.2l-8.61 9.57a2.63 2.63 0 0 0 .2 3.72 2.63 2.63 0 0 0 1.77.68c.72 0 1.44-.3 1.97-.88l8.61-9.57a2.63 2.63 0 0 0-.2-3.72m-49.48 7.9V2.64A2.64 2.64 0 0 1 51.3 0a2.64 2.64 0 0 1 2.64 2.64v12.14a2.64 2.64 0 0 1-2.64 2.64 2.64 2.64 0 0 1-2.65-2.63" fill="#134B45"/>
</svg>
