<svg width="100" height="100" xmlns="http://www.w3.org/2000/svg">
  <path d="M39.733 7.653c0-2.542 2.072-4.602 4.624-4.602h76.02c2.551 0 4.623 2.06 4.623 4.602 0 2.542-2.07 4.602-4.624 4.602h-76.02c-2.551 0-4.623-2.06-4.623-4.602zm4.624 27.1H93.67c2.553 0 4.623-2.06 4.623-4.602 0-2.542-2.07-4.602-4.623-4.602H44.357c-2.552 0-4.624 2.058-4.624 4.602 0 2.544 2.072 4.603 4.624 4.603zm76.02 33.545h-76.02c-2.552 0-4.624 2.06-4.624 4.603 0 2.542 2.072 4.602 4.624 4.602h76.02c2.551 0 4.623-2.06 4.623-4.602 0-2.543-2.072-4.603-4.624-4.603zm-26.71 22.498h-49.31c-2.552 0-4.624 2.058-4.624 4.602 0 2.542 2.072 4.602 4.624 4.602H93.67c2.553 0 4.623-2.06 4.623-4.602 0-2.543-2.072-4.602-4.625-4.602zM11.103 37.015h7.339V0h-6.01c-.17 1.933-.022 3.488-1.54 4.659-1.517 1.172-4.708 1.756-7.59 1.756H2.251v5.117h8.85v25.483zm6.508 49.063c3.177-2.172 5.263-4.186 6.264-6.045a12.46 12.46 0 0 0 1.498-5.997c0-3.496-1.175-6.316-3.52-8.465-2.347-2.146-5.431-3.219-9.254-3.219-3.686 0-6.636 1.086-8.845 3.26C1.54 67.783.437 71.058.437 75.439h7.11c0-2.616.464-4.421 1.394-5.424.929-1 2.203-1.502 3.824-1.502 1.62 0 2.902.51 3.849 1.526.946 1.018 1.418 2.283 1.418 3.795 0 1.51-.438 2.875-1.318 4.097-.877 1.223-3.319 3.287-7.327 6.188C5.96 86.615 1.469 89.654.079 91.86L0 99.367h25.45v-6.465H8.393l9.217-6.824z" fill="#134B45"/>
</svg>
