<svg width="100" height="100" xmlns="http://www.w3.org/2000/svg">
  <path d="M0 41.346C0 25.415 14.442 12.5 32.258 12.5c3.563 0 6.452 2.583 6.452 5.77-.079 3.184-2.97 5.738-6.533 5.768-10.657.04-19.274 7.777-19.274 17.308v2.885h19.355c5.345 0 9.677 3.874 9.677 8.654v25.961c0 4.78-4.332 8.654-9.677 8.654H9.678C4.332 87.5 0 83.626 0 78.846v-37.5zm58.065 37.5c0 4.78 4.332 8.654 9.677 8.654h22.58c5.345 0 9.678-3.874 9.678-8.654V52.885c0-4.78-4.333-8.654-9.677-8.654H70.968v-2.885c0-9.53 8.616-17.268 19.274-17.308 3.562-.03 6.454-2.584 6.532-5.769 0-3.186-2.888-5.769-6.451-5.769-17.816 0-32.258 12.915-32.258 28.846v37.5z" fill="#134B45"/>
</svg>
