<svg width="30" height="35" xmlns="http://www.w3.org/2000/svg">
  <path d="M15 5.411c1.187 0 2.335.157 3.441.433l-.284 1.526A12.557 12.557 0 0 0 15 6.954c-7.16 0-12.985 5.944-12.985 13.251 0 7.307 5.826 13.253 12.985 13.253 7.161 0 12.987-5.946 12.987-13.253 0-4.386-2.11-8.27-5.337-10.684l.388-1.62A14.867 14.867 0 0 1 29.5 20.205C29.5 28.363 22.994 35 15 35 7.004 35 .5 28.363.5 20.205.5 12.05 7.005 5.411 15 5.411zM22.558.097a.32.32 0 0 1 .082.288c-2.576 12.63-3.665 24.622-3.75 27.335a.32.32 0 0 1-.257.306l-1.172.212a.309.309 0 0 1-.238-.055.323.323 0 0 1-.128-.213l-1.668-11.329-1.746 13.395a.316.316 0 0 1-.256.275l-1.085.194a.24.24 0 0 1-.055.007.304.304 0 0 1-.2-.074.332.332 0 0 1-.115-.245c-.053-7.729-1.546-16.97-2.185-20.584a.33.33 0 0 1 .051-.24.302.302 0 0 1 .203-.13l.98-.183a.321.321 0 0 1 .366.26c.46 2.602 1.232 7.347 1.733 12.478l1.468-11.274a.323.323 0 0 1 .257-.272l.937-.17a.314.314 0 0 1 .239.053.322.322 0 0 1 .126.214l1.585 10.773c.567-5.222 1.805-13.572 3.237-20.668A.32.32 0 0 1 21.22.2l1.06-.194a.312.312 0 0 1 .279.092z" fill="#FFFDFB" fill-rule="evenodd"/>
</svg>
