<svg width="100" height="100" xmlns="http://www.w3.org/2000/svg">
  <path d="M33.63 22.43l9.9 17.3-15.51 27.56c-1.09 1.85-2.4 2.78-3.92 2.78H9.67c-.84 0-1.46-.34-1.87-1.02-.4-.7-.4-1.41 0-2.18l15.27-27.09c.04 0 .04-.02 0-.06l-9.72-16.87c-.48-.89-.5-1.63-.06-2.24.37-.6 1-.9 1.93-.9h14.43c1.6 0 2.93.9 3.98 2.72zM92.17 3.14L60.3 59.61v.06l20.28 37.18c.44.81.46 1.56.06 2.24-.4.6-1.04.9-1.93.9H64.3c-1.7 0-3.02-.9-3.99-2.71l-20.45-37.6L71.89 2.71C72.9.91 74.2 0 75.75 0H90.3c.88 0 1.5.3 1.87.9.44.65.44 1.4 0 2.24z"/>
</svg>
