<svg width="100" height="100" xmlns="http://www.w3.org/2000/svg">
  <path d="M70.89 34.21c.55.5.86 1.2.86 1.94V59.6a2.6 2.6 0 0 1-2.3 2.57l-4.65.54v4.64a2.6 2.6 0 0 1-2.3 2.57L39.09 72.6a2.6 2.6 0 0 1-2.02-.65 2.6 2.6 0 0 1-.86-1.93v-4.05l-4.07.46a2.6 2.6 0 0 1-2.02-.64 2.6 2.6 0 0 1-.86-1.94V40.4a2.6 2.6 0 0 1 2.3-2.57l4.65-.53v-4.65a2.6 2.6 0 0 1 2.3-2.57l23.42-2.67a2.59 2.59 0 0 1 2.88 2.57v4.05l4.07-.46a2.58 2.58 0 0 1 2.02.64zm9.22 42.04L20.89 83V23.75l8.47-.96 42.86-4.9 7.89-.9v59.26zm15.6-35.83a2.6 2.6 0 0 0-.6-5.15l-9.82 1.12v-9.2L95.7 26a2.6 2.6 0 0 0 2.28-2.87 2.6 2.6 0 0 0-2.86-2.29l-9.83 1.12V14.1a2.6 2.6 0 0 0-.86-1.94 2.6 2.6 0 0 0-2.02-.64l-7.89.9V2.6A2.6 2.6 0 0 0 71.93 0a2.6 2.6 0 0 0-2.59 2.6V13l-9.22 1.05V4.24a2.6 2.6 0 0 0-2.6-2.6 2.6 2.6 0 0 0-2.59 2.6v10.4l-8.86 1.02V5.84a2.6 2.6 0 0 0-2.6-2.6 2.6 2.6 0 0 0-2.58 2.6v10.41l-2.98.34-6.25.71V7.48a2.6 2.6 0 1 0-5.18 0V17.9l-8.47.97a2.6 2.6 0 0 0-2.3 2.57v8.47L5.3 31.1a2.6 2.6 0 0 0-2.28 2.86 2.6 2.6 0 0 0 2.87 2.29l9.82-1.12v9.2L5.3 45.5a2.6 2.6 0 0 0-2.28 2.87 2.6 2.6 0 0 0 2.87 2.29l9.82-1.12v8.84L5.3 59.58a2.6 2.6 0 0 0-2.28 2.87 2.6 2.6 0 0 0 2.87 2.28l9.82-1.12v9.2L5.3 74.01a2.6 2.6 0 0 0-2.28 2.86 2.6 2.6 0 0 0 2.87 2.28l9.82-1.12v7.88c0 .74.31 1.45.86 1.94a2.6 2.6 0 0 0 2.02.64l7.9-.9v9.82a2.6 2.6 0 1 0 5.17 0V87l9.23-1.05v9.81a2.6 2.6 0 0 0 5.18 0v-10.4l8.86-1.02v9.82a2.6 2.6 0 1 0 5.19 0v-10.4l9.22-1.06v9.82a2.6 2.6 0 0 0 2.6 2.6 2.6 2.6 0 0 0 2.58-2.6V82.1l8.48-.97a2.6 2.6 0 0 0 2.3-2.57V70.1l10.4-1.2a2.6 2.6 0 0 0 2.28-2.86 2.6 2.6 0 0 0-2.86-2.29l-9.83 1.12v-9.2L95.7 54.5a2.6 2.6 0 0 0 2.28-2.87 2.59 2.59 0 0 0-2.86-2.29l-9.83 1.12v-8.84l10.41-1.19z" fill="#134B45"/>
</svg>
