<svg width="100" height="100" xmlns="http://www.w3.org/2000/svg">
  <path d="M90.407 70.085V7.497l-80.814 9.18v62.587l24.327-2.762a3.55 3.55 0 0 1 2.973 1.077l12.845 13.476 13.146-16.78a3.544 3.544 0 0 1 2.393-1.335l25.13-2.855zM96.314.898A3.531 3.531 0 0 1 97.5 3.535V73.24a3.54 3.54 0 0 1-3.145 3.513l-26.796 3.043L52.794 98.64a3.553 3.553 0 0 1-2.623 1.356 3.556 3.556 0 0 1-2.742-1.097L32.968 83.727 6.448 86.74a3.529 3.529 0 0 1-2.762-.875A3.532 3.532 0 0 1 2.5 83.226V13.522a3.54 3.54 0 0 1 3.145-3.514L93.552.023a3.537 3.537 0 0 1 2.762.875zM23.282 39.44a3.54 3.54 0 0 1-3.518-3.136 3.537 3.537 0 0 1 3.121-3.914l53.427-6.07c1.945-.211 3.702 1.173 3.925 3.114a3.54 3.54 0 0 1-3.123 3.914l-53.426 6.07a3.923 3.923 0 0 1-.406.022zm0 20.786a3.54 3.54 0 0 1-3.518-3.136 3.537 3.537 0 0 1 3.121-3.913l53.427-6.07c1.945-.214 3.702 1.172 3.925 3.114a3.54 3.54 0 0 1-3.123 3.914l-53.426 6.069a3.923 3.923 0 0 1-.406.022z" fill="#134B45" fill-rule="evenodd"/>
</svg>
