<svg xmlns="http://www.w3.org/2000/svg" width="100" height="100" fill="none"><path fill="#000" fill-rule="evenodd" d="M49.968 92.79a39.924 39.924 0 0 1-26.774-10.254c1.337-10.562 8.97-19.389 19.331-22.182a2.614 2.614 0 0 0 .201-4.982c-7.874-2.826-13.164-10.334-13.164-18.681a19.738 19.738 0 0 1 5.82-14.048 19.736 19.736 0 0 1 14.048-5.818c10.954 0 19.866 8.913 19.866 19.866 0 8.352-5.294 15.859-13.173 18.684a2.613 2.613 0 0 0 .202 4.981 26.316 26.316 0 0 1 19.417 23.052 40.052 40.052 0 0 1-25.774 9.381ZM50 2C23.533 2 2 23.533 2 50s21.533 48 48 48 48-21.533 48-48S76.466 2 49.999 2Z" clip-rule="evenodd"/></svg>