<svg xmlns="http://www.w3.org/2000/svg" width="100" height="100" fill="none"><path fill="#000" fill-rule="evenodd" d="m83.8 6.053-65.601 7.426c-4.51.51-8.199 4.594-8.199 9.076v65.174c0 4.482 3.689 7.73 8.199 7.218L83.8 87.522c4.511-.51 8.2-4.594 8.2-9.075V13.272c0-4.482-3.689-7.729-8.2-7.22Zm-7.793 26.325-14.91 1.687v3.588l14.91-1.689v-3.586Zm5.776 22.401L62.58 56.953c0 4.225 2.25 6.457 6.534 5.972 2.222-.252 5.085-1.766 5.78-4.095l6.455-.73c-1.983 6.255-6.102 9.558-12.46 10.279-8.406.95-13.625-4.091-13.625-12.304 0-7.915 5.507-14.578 13.622-15.498 8.764-.99 13.505 5.678 12.898 14.202Zm-13.125-8.703c-3.505.396-5.828 2.827-6.07 6.319l11.9-1.347c-.31-3.46-2.157-5.389-5.83-4.972ZM39.911 70.968l-17.825 2.017V36.569l17.338-1.963c6.298-.713 11.756.438 11.756 7.692 0 3.678-1.722 6.238-5.022 8.171 4.524.756 6.712 3.887 6.712 8.458 0 7.4-6.277 11.285-12.959 12.04Zm-.935-16.107-8.81.996v10.029l8.643-.978c3.289-.373 5.976-1.826 5.976-5.505 0-3.731-2.252-4.945-5.809-4.542Zm4.318-10.316c0-3.35-2.625-3.863-5.54-3.534l-7.585.859v8.498l8.195-.927c2.887-.327 4.93-1.802 4.93-4.896Z" clip-rule="evenodd"/></svg>