<svg xmlns="http://www.w3.org/2000/svg" width="100" height="100" fill="none"><path fill="#000" fill-rule="evenodd" d="M43.082 41.6a2.226 2.226 0 0 1-2.86-1.325 2.234 2.234 0 0 1 1.322-2.865l20.334-7.491a2.228 2.228 0 0 1 2.86 1.324 2.234 2.234 0 0 1-1.322 2.867L43.082 41.6Zm24.151-.094a2.236 2.236 0 0 1-1.323 2.867l-20.333 7.49a2.228 2.228 0 0 1-2.86-1.324 2.234 2.234 0 0 1 1.321-2.866l20.334-7.491a2.228 2.228 0 0 1 2.861 1.324ZM41.515 80.661l-12.59-51.79 38.62-14.228 12.591 51.789L41.515 80.66Zm14.147-70.475c.442.81 1.09 1.553 1.93 2.194.36.274.744.523 1.153.747L28.52 24.263c-1.958.78-5.567 1.018-7.744.296-.499-.239-.954-.548-1.311-.955-.003-.024-.012-.06-.012-.08l36.209-13.339Zm29.275 57.126L71.284 11.156c-.01-.04-.028-.072-.039-.11-.014-.044-.019-.089-.034-.132-.014-.037-.036-.069-.05-.106a2.373 2.373 0 0 0-.343-.557 2.39 2.39 0 0 0-.323-.314 2.226 2.226 0 0 0-.224-.152c-.035-.023-.066-.051-.104-.072-.017-.008-.036-.012-.055-.021a2.15 2.15 0 0 0-.26-.106c-.053-.018-.104-.04-.157-.055a2.125 2.125 0 0 0-.312-.055c-.042-.005-.086-.015-.128-.018a2.145 2.145 0 0 0-.383.013c-.023.003-.047 0-.07.004a2.215 2.215 0 0 0-.452.113c-3.091 1.14-6.46.458-8.058-.76-.605-.463-.893-.936-.854-1.41.064-.76-.264-1.5-.87-1.961a2.222 2.222 0 0 0-2.12-.32L17.894 19.342c-1.977.73-3.06 2.543-2.868 4.651a2.22 2.22 0 0 0 .037.852l13.673 55.954c.89 3.66 4.75 5.3 8.732 5.3.406 0 .813-.027 1.217-.06v8.829c0 1.012 1.225 1.514 1.933.793l2.827-2.88 2.825 2.88c.708.72 1.933.22 1.933-.793V82.954l35.338-13.02a2.234 2.234 0 0 0 1.397-2.622Z" clip-rule="evenodd"/></svg>