<svg xmlns="http://www.w3.org/2000/svg" width="100" height="100" fill="none"><path fill="#000" d="M90.21 7.594a2.374 2.374 0 0 0-1.839-.58l-77.276 8.737A2.351 2.351 0 0 0 9 18.08v60.993c0 .669.287 1.305.79 1.75a2.37 2.37 0 0 0 1.839.58l23.687-2.68 12.972 13.548a2.377 2.377 0 0 0 1.713.729c.038 0 .077 0 .114-.003a2.368 2.368 0 0 0 1.747-.898l13.173-16.734 23.87-2.7A2.351 2.351 0 0 0 91 70.334V9.343c0-.668-.287-1.304-.79-1.749ZM76.165 50.24a2.683 2.683 0 0 1-2.376 2.966l-46.966 5.31a2.694 2.694 0 0 1-2.988-2.359 2.684 2.684 0 0 1 2.376-2.965l46.966-5.309c1.466-.165 2.818.887 2.988 2.357Zm0-19.048a2.683 2.683 0 0 1-2.376 2.965l-46.966 5.31a2.693 2.693 0 0 1-2.988-2.359 2.684 2.684 0 0 1 2.376-2.964l46.966-5.31c1.466-.164 2.818.887 2.988 2.358Z"/></svg>