<svg xmlns="http://www.w3.org/2000/svg" width="100" height="100" fill="none"><path fill="#000" fill-rule="evenodd" d="M81.36 29.125a2.366 2.366 0 0 0-3.335-.233 2.358 2.358 0 0 0-.235 3.328c9.981 11.464 8.345 31.64-3.647 44.974-13.42 14.92-35.17 17.474-48.483 5.702-5.895-5.215-9.404-12.646-9.879-20.927-.555-9.707 3.116-19.71 10.07-27.444 8.368-9.304 20.077-14.05 31.38-12.96L46.4 33.605a2.355 2.355 0 0 0 .18 3.331 2.35 2.35 0 0 0 1.578.604 2.36 2.36 0 0 0 1.76-.783l14.94-16.61a2.357 2.357 0 0 0-.192-3.341L49.726 3.592a2.366 2.366 0 0 0-3.336.202 2.355 2.355 0 0 0 .203 3.33L57.6 16.86c-12.755-1.195-25.91 4.111-35.267 14.513-7.79 8.663-11.898 19.913-11.27 30.866.547 9.543 4.617 18.134 11.464 24.187C29.05 92.198 37.309 95 45.81 95c11.372-.001 23.181-5.018 31.85-14.654 13.529-15.046 15.19-38.022 3.7-51.221Z" clip-rule="evenodd"/></svg>