<svg xmlns="http://www.w3.org/2000/svg" width="100" height="100" fill="none"><path fill="#000" fill-rule="evenodd" d="M50.614 83.628 38.933 55.093a24.306 24.306 0 0 1-1.575-5.788l26.431-2.867a24.1 24.1 0 0 1-1.374 5.797l-11.8 31.393ZM32.623 49.59c.06.022.126.028.19.043a28.39 28.39 0 0 0 1.872 7.037l8.066 19.701-25.934-32.224 15.806 5.443Zm7.167-35.403a29.574 29.574 0 0 1 16.86-1.105l12.333 2.797-9.297 5.578-19.762 1.998-11.51-5.05L39.79 14.19ZM68.399 41.23a28.191 28.191 0 0 0-1.67-7.345l-3.515-9.412 10.996-6.597 12.017 15.507L68.4 41.231ZM41.338 27.68l17.569-1.777 3.527 9.439a24.034 24.034 0 0 1 1.446 6.714l-26.721 2.9c.08-1.836.36-3.672.868-5.484l3.311-11.792Zm50.648 6.734v-.004c.004-.048.013-.094.014-.14v-.07c-.001-.068-.013-.136-.022-.204-.005-.047-.006-.094-.014-.14-.003-.012-.001-.024-.004-.035-.002-.014-.008-.027-.012-.04-.012-.06-.036-.12-.056-.178-.022-.072-.043-.145-.073-.214-.006-.013-.013-.026-.018-.04-.004-.006-.005-.015-.009-.022-.02-.042-.05-.078-.072-.118a2.25 2.25 0 0 0-.132-.212c-.012-.016-.02-.035-.032-.051l-14.933-19.27c-.026-.033-.056-.057-.083-.087a2.164 2.164 0 0 0-.146-.157 2.498 2.498 0 0 0-.332-.26 2.417 2.417 0 0 0-.201-.114 2.234 2.234 0 0 0-.176-.083 2.213 2.213 0 0 0-.248-.083c-.042-.011-.08-.03-.12-.04L57.705 8.858a34.342 34.342 0 0 0-19.57 1.284l-16.338 6.056a.045.045 0 0 0-.012.005l-.03.01c-.035.014-.065.035-.101.05a2.358 2.358 0 0 0-.285.138c-.053.033-.1.072-.148.106-.069.049-.139.098-.202.153-.052.047-.097.101-.143.153-.05.053-.102.105-.146.164-.055.071-.095.148-.139.224-.024.044-.056.082-.079.128l-.006.018c-.045.092-.075.191-.105.29-.011.038-.03.076-.04.116-.024.098-.033.2-.041.3-.004.04-.015.078-.017.119-.001.065.01.131.014.198.006.074.004.149.017.222.008.046.026.091.038.136.023.096.045.19.081.28.003.005.003.011.005.017.005.014.017.024.024.038.072.17.171.329.289.476.024.033.048.066.075.096.127.143.271.272.437.38.035.023.07.04.106.061.079.045.154.095.24.134l15.213 6.675-3.22 11.465a28.263 28.263 0 0 0-1.03 6.613l-19.04-6.559 6.345-11.002c.608-1.051.205-2.371-.9-2.948-1.103-.577-2.49-.194-3.095.858L8.273 38.538c-.062.107-.105.22-.146.334-.009.026-.024.049-.034.075a2.088 2.088 0 0 0-.093.596c0 .051.004.101.007.153.009.171.039.34.09.506.012.037.017.072.03.108.004.014.005.028.01.04.073.182.177.347.294.502.013.016.017.036.03.052L48.894 91.15c.008.008.018.015.025.023.022.027.049.048.072.075.072.079.146.154.23.223.045.036.093.067.14.1a.048.048 0 0 0 .014.009c.03.022.06.046.092.066.049.03.102.057.153.084.061.031.122.058.185.083.044.019.084.044.132.06.016.005.031.003.048.008a2.382 2.382 0 0 0 .704.118h.012l.004.002.009-.001.064-.001c.029 0 .053-.01.082-.012.126-.007.252-.026.377-.055.04-.009.08-.016.119-.026.027-.008.053-.02.08-.028.032-.01.066-.015.097-.026.058-.022.108-.054.164-.08.057-.027.115-.05.17-.082.038-.022.077-.043.114-.066.025-.017.046-.037.07-.053a1.86 1.86 0 0 0 .109-.083c.035-.027.072-.05.104-.079.069-.061.127-.129.185-.198.027-.03.055-.056.079-.088.02-.025.043-.049.062-.076.003-.003.008-.006.01-.011l24.084-34.311c.7-.998.418-2.347-.628-3.013-1.047-.667-2.463-.399-3.164.598l-13.81 19.675L66.709 53.7a28.22 28.22 0 0 0 1.709-7.788c.189-.033.376-.07.55-.147l14.358-6.319-4.841 6.897c-.7.997-.419 2.346.628 3.013.39.247.83.366 1.265.366a2.31 2.31 0 0 0 1.898-.966l9.344-13.31c.009-.014.014-.03.024-.043.025-.038.047-.077.069-.115.026-.046.048-.09.071-.137.022-.044.046-.088.065-.133.02-.049.032-.1.049-.152.009-.03.027-.056.035-.087.005-.02.004-.04.009-.058.007-.036.019-.072.025-.108.012-.065.013-.133.02-.2Z" clip-rule="evenodd"/></svg>