<svg xmlns="http://www.w3.org/2000/svg" width="100" height="100" fill="none"><path fill="#000" fill-rule="evenodd" d="M81.493 53.304 72.76 75.146a.722.722 0 0 1-.672.455h-2.073a.706.706 0 0 1-.704-.704V62.28a4.77 4.77 0 0 0-4.763-4.762h-4.744a.912.912 0 0 1-.877-.669l-1.2-4.348c-.212-.77.123-1.591.857-2.022l6.917-4.25a4.782 4.782 0 0 0 2.357-4.11V33.78c0-1.233.655-2.396 1.675-3.015l11.655-6.797a40.539 40.539 0 0 1 9.89 26.341h-5.16a4.744 4.744 0 0 0-4.425 2.994Zm-39.63 14.283L28.84 83.793a.532.532 0 0 1-.643.177.533.533 0 0 1-.384-.544l-.004-22.496a4.73 4.73 0 0 0-1.027-2.714l-14.335-18.05a2.658 2.658 0 0 1-.45-2.5c2.069-6.208 5.681-11.9 10.449-16.465.472-.453 1.07-.703 1.684-.703h9.49c.836 0 1.607.42 2.058 1.124l5.566 8.64c.387.603.514 1.319.353 2.016a2.609 2.609 0 0 1-1.195 1.66l-15.039 9.186a4.33 4.33 0 0 0-1.984 2.764 4.332 4.332 0 0 0 .598 3.348l2.71 4.172a4.75 4.75 0 0 0 3.995 2.167h7.95c.511 0 .949.346 1.066.844l2.396 10.156c.084.357 0 .727-.23 1.012ZM50.502 5C25.41 5 5 25.411 5 50.5S25.412 96 50.5 96C75.59 96 96 75.589 96 50.5S75.59 5 50.5 5Z" clip-rule="evenodd"/></svg>