<svg xmlns="http://www.w3.org/2000/svg" width="100" height="100" fill="none"><path fill="#000" fill-rule="evenodd" d="M50.24 3.25c10.377-1.161 20.13 1.747 27.472 8.191C84.992 17.831 89 26.921 89 37.041v7.943c0 1.253-1.032 2.267-2.306 2.267-1.273 0-2.306-1.014-2.306-2.267V37.04c0-8.809-3.462-16.698-9.748-22.216-6.347-5.57-14.83-8.082-23.879-7.067C40.01 8.961 29.75 15.201 23.316 24.45a2.33 2.33 0 0 1-3.204.59 2.243 2.243 0 0 1-.601-3.15C26.795 11.414 37.996 4.621 50.24 3.25Zm.709 19.112c2.169-.242 3.727-2.17 3.48-4.302-.248-2.134-2.21-3.667-4.377-3.423-15.763 1.765-28.588 15.824-28.588 31.339v31.907c0 2.146 1.77 3.888 3.953 3.888s3.953-1.742 3.953-3.888V45.976c0-11.689 9.68-22.28 21.579-23.614Zm14.774-3.16c-1.107-.617-2.516-.235-3.143.856a2.248 2.248 0 0 0 .871 3.091c6.153 3.424 9.827 9.856 9.827 17.206v31.906c0 1.253 1.033 2.268 2.306 2.268 1.273 0 2.306-1.015 2.306-2.268V40.355c0-9.005-4.549-16.913-12.167-21.153ZM34.479 58.08c0-1.253 1.033-2.268 2.306-2.268 1.273 0 2.306 1.015 2.306 2.268v29.418c0 1.253-1.033 2.267-2.306 2.267-1.273 0-2.306-1.014-2.306-2.267V58.08Zm27.287-25.052c-3.092-2.713-7.185-3.939-11.527-3.453-8.69.974-15.76 8.725-15.76 17.277 0 1.253 1.033 2.268 2.306 2.268 1.273 0 2.306-1.015 2.306-2.268 0-6.32 5.236-12.05 11.67-12.771 3.018-.339 5.837.49 7.933 2.33 2.074 1.82 3.215 4.436 3.215 7.368v40.645c0 1.253 1.034 2.267 2.307 2.267 1.274 0 2.306-1.014 2.306-2.267V43.779c0-4.242-1.688-8.06-4.756-10.75Zm-45.594.389c-1.232-.322-2.493.402-2.82 1.612A38.993 38.993 0 0 0 12 45.15v10.34c0 1.252 1.033 2.268 2.306 2.268 1.274 0 2.306-1.016 2.306-2.268V45.15c0-2.994.405-6.008 1.2-8.961.325-1.21-.408-2.452-1.64-2.773Zm30.375 12.847c0-2.147 1.77-3.888 3.954-3.888 2.183 0 3.953 1.74 3.953 3.888v47.848c0 2.148-1.77 3.888-3.953 3.888-2.184 0-3.954-1.74-3.954-3.888V46.264Z" clip-rule="evenodd"/></svg>