<svg xmlns="http://www.w3.org/2000/svg" 
  xmlns:xlink="http://www.w3.org/1999/xlink" width="100" height="100">
  <g transform="translate(0 14)">
    <path fill="#DD172C" d="M0 0h100v19.048H0zm0 52.381h100v19.048H0z"/>
    <path fill="#FFD133" d="M0 19.048h100v33.333H0z"/>
    <path fill="#FFEDB1" d="M26.19 33.333h4.762v2.381H26.19z"/>
    <path fill="none" stroke="#A41517" stroke-width="2.381" d="M29.762 32.143H22.62a.998.998 0 0 0-.75.308 1.01 1.01 0 0 0-.247.778l.598 7.173c.084 1.01.582 1.92 1.328 2.577a4.3 4.3 0 0 0 2.832 1.064c.97-.05 1.871-.479 2.552-1.131.681-.653 1.148-1.535 1.229-2.51l.598-7.173c.025-.3-.065-.577-.248-.776a1.003 1.003 0 0 0-.749-.31z"/>
    <path fill="#A41517" d="M21.429 35.714h9.523v2.381h-2.381l-2.381 4.762-2.38-4.762h-2.381zm-7.143-7.143h4.762v16.667h-4.762zm19.047 0h4.762v16.667h-4.762zM21.429 26.19a2.386 2.386 0 0 1 2.378-2.38h4.767a2.374 2.374 0 0 1 2.378 2.38v1.192c0 .657-.539 1.19-1.187 1.19h-7.15a1.185 1.185 0 0 1-1.186-1.19V26.19z"/>
  </g>
</svg>