<svg xmlns="http://www.w3.org/2000/svg" width="100" height="100" fill="none"><path fill="#000" fill-rule="evenodd" d="M86.384 18.35a2.36 2.36 0 0 0-2.463-.653l-9.89 3.163a27.819 27.819 0 0 1-20.76-1.5l-6.11-2.981a30.301 30.301 0 0 0-22.408-1.693l-2.425.757-.315-1a3.977 3.977 0 0 0-1.142-1.75c.079-.104.16-.207.23-.312.23-.335.417-.683.567-1.045a6.31 6.31 0 0 0 .349-1.126c.068-.39.109-.791.109-1.18 0-.389-.04-.791-.11-1.18a6.304 6.304 0 0 0-.348-1.126 5.72 5.72 0 0 0-.566-1.045 4.952 4.952 0 0 0-.755-.912 6.084 6.084 0 0 0-5.47-1.649c-.378.08-.77.188-1.132.349a5.89 5.89 0 0 0-1.037.55 5.496 5.496 0 0 0-.93.75 5.554 5.554 0 0 0-.754.912 6.456 6.456 0 0 0-.904 2.171 5.907 5.907 0 0 0 0 2.36 6.483 6.483 0 0 0 .904 2.171c.229.322.472.644.754.912.283.281.593.536.93.75.323.215.674.403 1.037.55.157.07.32.125.483.176-.151.669-.15 1.38.071 2.083l24.717 78.33a4.043 4.043 0 0 0 5.065 2.632 4.017 4.017 0 0 0 2.646-5.04L39.25 69.076l7.835-11.55a24.874 24.874 0 0 1 13.31-9.8l4.956-1.509c7.737-2.354 13.992-7.95 17.166-15.353L86.81 20.85a2.331 2.331 0 0 0-.426-2.5ZM78.18 29.023A22.56 22.56 0 0 1 63.972 41.73l-4.957 1.51a29.597 29.597 0 0 0-15.838 11.662l-5.731 8.45L23.74 19.92l2.426-.757a25.58 25.58 0 0 1 18.92 1.43l6.108 2.982a32.527 32.527 0 0 0 24.278 1.753l4.976-1.591-2.268 5.288Z" clip-rule="evenodd"/></svg>