<svg xmlns="http://www.w3.org/2000/svg" width="100" height="100" fill="none"><path fill="#000" fill-rule="evenodd" d="M60.526 46.004c0 .923.342 1.736.964 2.291.633.564 1.496.818 2.44.71 2.135-.244 3.94-2.247 3.94-4.375 0-.922-.342-1.736-.964-2.29-.538-.48-1.245-.735-2.022-.735-.136 0-.277.009-.419.025-2.136.243-3.94 2.246-3.94 4.374Zm-31.678 3.072c0-4.559 3.568-8.538 8.12-9.057 2.295-.261 4.464.405 6.113 1.876a7.483 7.483 0 0 1 2.116 3.215l10.889-1.24c.905-3.61 4.022-6.488 7.845-6.923a8.224 8.224 0 0 1 2.642.125l13.301-22.37-5.573 1.702a2.36 2.36 0 0 1-2.944-1.565 2.358 2.358 0 0 1 1.565-2.943l11.535-3.524c.64-.193 1.33-.11 1.902.233.571.343.971.913 1.1 1.567l2.212 11.283a2.359 2.359 0 0 1-4.628.906l-1.05-5.364-13.34 22.438c1.25 1.4 1.93 3.214 1.93 5.195 0 4.56-3.566 8.54-8.118 9.058a8.798 8.798 0 0 1-.97.055c-1.93 0-3.729-.67-5.143-1.931a7.48 7.48 0 0 1-2.117-3.215l-10.889 1.24c-.904 3.61-4.023 6.488-7.845 6.923a8.45 8.45 0 0 1-.97.056 7.99 7.99 0 0 1-1.29-.113l-13.988 24.74a2.357 2.357 0 1 1-4.104-2.32l13.897-24.579c-1.414-1.434-2.198-3.352-2.198-5.468ZM91.58 84.4 8.813 93.895a2.363 2.363 0 0 1-1.838-.583 2.358 2.358 0 0 1-.788-1.759V12.652c0-.952.573-1.81 1.451-2.176a2.365 2.365 0 0 1 2.569.506l7.182 7.15a2.358 2.358 0 0 1-3.325 3.341L10.9 18.326V88.91l80.143-9.192a2.357 2.357 0 1 1 .537 4.683Z" clip-rule="evenodd"/></svg>