<svg xmlns="http://www.w3.org/2000/svg" width="100" height="100" fill="none"><path fill="#000" fill-rule="evenodd" d="M55.733 44.791a2.262 2.262 0 0 0 1.752.55l33.522-3.776A2.232 2.232 0 0 0 93 39.358V6.222a2.21 2.21 0 0 0-.751-1.658 2.254 2.254 0 0 0-1.75-.55L56.974 7.791a2.23 2.23 0 0 0-1.993 2.206v33.136c0 .634.273 1.236.751 1.658Zm3.744-4.146V11.98l29.028-3.27v28.664l-29.028 3.27Zm-3.744 51.446a2.262 2.262 0 0 0 1.752.55l33.522-3.776A2.232 2.232 0 0 0 93 86.659V53.522a2.21 2.21 0 0 0-.751-1.658 2.254 2.254 0 0 0-1.75-.55l-33.524 3.777a2.23 2.23 0 0 0-1.993 2.206v33.136c0 .634.273 1.236.751 1.658Zm3.744-4.146V59.28l29.028-3.269v28.664l-29.028 3.27ZM10.247 97c-.548 0-1.08-.2-1.496-.564A2.21 2.21 0 0 1 8 94.78V46.962a2.23 2.23 0 0 1 1.993-2.206l33.523-3.775a2.254 2.254 0 0 1 1.75.55 2.21 2.21 0 0 1 .752 1.656v47.816c0 1.13-.858 2.08-1.993 2.208l-33.522 3.775a2.44 2.44 0 0 1-.256.014Zm2.248-48.055v43.344l29.028-3.268V45.676l-29.028 3.269ZM8.75 35.453a2.262 2.262 0 0 0 1.752.55l33.522-3.776a2.232 2.232 0 0 0 1.993-2.207V11.564c0-.633-.273-1.236-.751-1.657a2.255 2.255 0 0 0-1.75-.55L9.992 13.132A2.232 2.232 0 0 0 8 15.339v18.456c0 .633.274 1.236.751 1.658Zm3.744-4.146V17.322l29.028-3.269v13.984l-29.028 3.27Z" clip-rule="evenodd"/></svg>