<svg xmlns="http://www.w3.org/2000/svg" width="100" height="100" fill="none"><path fill="#000" fill-rule="evenodd" d="m23.41 58.108 33.737-3.65a2.298 2.298 0 0 1 2.53 2.049 2.304 2.304 0 0 1-2.038 2.54L23.902 62.7a2.302 2.302 0 0 1-2.53-2.049 2.305 2.305 0 0 1 2.038-2.542Zm0 15.094 33.737-3.651a2.3 2.3 0 0 1 2.53 2.049 2.304 2.304 0 0 1-2.038 2.541l-33.737 3.651a2.302 2.302 0 0 1-2.53-2.05 2.305 2.305 0 0 1 2.038-2.54ZM91 21.475c0-5.78-2.246-10.979-6.323-14.639-4.11-3.69-9.562-5.358-15.351-4.693-10.127 1.16-18.606 9.334-20.666 19.149l-36.612 4.01A2.305 2.305 0 0 0 10 27.596V95.69c0 .656.277 1.281.762 1.72a2.293 2.293 0 0 0 1.782.576l56.46-6.184a2.305 2.305 0 0 0 2.046-2.296V44.989C82.153 43.083 91 32.805 91 21.475ZM14.591 93.117V29.668l33.587-3.678c.032 5.321 1.986 10.128 5.508 13.697l-30.275 3.276a2.304 2.304 0 0 0-2.038 2.54 2.3 2.3 0 0 0 2.53 2.05l33.736-3.65c.451-.048.855-.23 1.186-.496 2.344 1.139 4.93 1.766 7.633 1.884v42.145l-51.867 5.68Zm66.246-73.378L68.83 33.193a2.287 2.287 0 0 1-3.23.184l-7.08-6.308a2.317 2.317 0 0 1-.195-3.259 2.285 2.285 0 0 1 3.24-.196l5.37 4.786L77.42 16.654a2.285 2.285 0 0 1 3.242-.176 2.317 2.317 0 0 1 .175 3.26Z" clip-rule="evenodd"/></svg>