<svg xmlns="http://www.w3.org/2000/svg" width="100" height="100" fill="none"><path fill="#000" fill-rule="evenodd" d="M68.756 39.365c.667-.076 1.046.23 1.365.575l2.314-3.124c-.983-1.031-2.252-1.459-4.156-1.242-3.33.38-4.979 2.35-4.979 5.844v4.545l-2.251.256v3.56l2.251-.258v9.977l4.282-.489v-9.977l3.648-.417v-3.558l-3.648.417v-4.608c0-.985.474-1.421 1.174-1.5Zm-13.38 9.41c-.857-1.238-2.063-1.958-4.22-1.712-3.267.372-6.058 3.551-6.058 7.713s2.824 6.763 6.121 6.388c2.061-.236 3.49-1.225 4.25-2.741l-.094 1.98 4.28-.49v-22.94l-4.28.488v11.313Zm-2.92 8.497c-1.808.206-2.949-.87-2.949-2.999 0-2 1.142-3.371 2.95-3.577 1.839-.21 3.045.89 3.045 2.892 0 2.13-1.206 3.475-3.045 3.684ZM37.872 48.58c-2.093.239-3.52 1.323-4.345 2.88l.097-2.109-4.282.49v20.272l4.282-.489v-8.548c.696 1.16 2.092 1.858 4.154 1.623 3.298-.376 6.121-3.621 6.121-7.785 0-4.162-2.76-6.706-6.027-6.334ZM36.54 59.09c-1.84.21-3.046-.859-3.046-2.989 0-2 1.207-3.377 3.046-3.587 1.807-.206 2.95.902 2.95 2.904 0 2.128-1.143 3.466-2.95 3.672Zm54.379-35.91c-.013-.047-.028-.092-.043-.14a2.436 2.436 0 0 0-.213-.482c-.017-.033-.032-.067-.053-.1a2.488 2.488 0 0 0-.403-.478c-.011-.012-.02-.027-.032-.038L72.913 6.615c-.01-.01-.021-.013-.031-.02a2.469 2.469 0 0 0-.532-.35c-.033-.017-.067-.026-.1-.04a2.441 2.441 0 0 0-.51-.155c-.045-.008-.089-.02-.133-.025a2.462 2.462 0 0 0-.593-.012L11.17 12.845A2.452 2.452 0 0 0 9 15.284v77.265a2.446 2.446 0 0 0 2.724 2.437L88.83 86.18A2.451 2.451 0 0 0 91 83.744V23.778c0-.208-.034-.405-.081-.598ZM13.895 89.8V17.47l54.948-6.274v14.55a2.446 2.446 0 0 0 2.724 2.437l14.538-1.66v55.031L13.896 89.8Zm59.843-75.9 9.081 8.063L73.738 23v-9.1Z" clip-rule="evenodd"/></svg>