<svg xmlns="http://www.w3.org/2000/svg" width="100" height="100" fill="none"><path fill="#000" d="M91.579 22.46a2.36 2.36 0 0 0-1.799-1.075 2.39 2.39 0 0 0-1.946.776L65.992 46.478a2.361 2.361 0 0 0 .192 3.345l21.8 19.308a2.362 2.362 0 0 0 3.626-.609c8.531-15.134 8.519-32.783-.031-46.061ZM52.034 49.817l28.163 25.041a2.365 2.365 0 0 1 .185 3.346C70.43 89.249 56.88 94.999 43.841 95c-9.756 0-19.228-3.217-26.707-9.84l-.008-.007-.007-.007C9.335 78.244 4.701 68.392 4.073 57.398c-.725-12.668 3.966-25.62 12.87-35.532 17.402-19.373 45.8-22.524 63.304-7.02a2.361 2.361 0 0 1 .192 3.345L52.034 49.816ZM20.459 25.02C12.39 34.005 8.137 45.707 8.79 57.128c.509 8.9 3.966 16.927 9.783 22.872l56.705-63.133C69.005 12.053 61.38 9.71 53.528 9.71c-11.76 0-24.032 5.25-33.069 15.31Zm28.419 28.308L22.11 83.132c15.09 11.574 38 8.854 53.128-6.364L48.878 53.33Z"/></svg>