<svg xmlns="http://www.w3.org/2000/svg" width="100" height="100" fill="none"><path fill="#000" fill-rule="evenodd" d="M34.254 43.351c.22 0 .44-.013.662-.038 3.106-.352 5.54-3.05 5.54-6.143 0-1.55-.618-2.951-1.737-3.946-1.128-.999-2.607-1.445-4.177-1.274-3.106.353-5.54 3.05-5.54 6.143 0 1.55.615 2.952 1.736 3.946.967.858 2.195 1.312 3.516 1.312ZM49.672 89c-10.472 1.182-20.28-1.75-27.622-8.262-7.271-6.448-11.273-15.67-11.273-25.97C10.777 33.105 28.52 13.47 50.326 11a40.1 40.1 0 0 1 4.516-.257c8.754 0 16.832 2.953 23.108 8.519 7.27 6.448 11.273 15.67 11.273 25.969 0 21.664-17.742 41.3-39.55 43.768m15.123-49.107c.218 0 .44-.013.662-.037 3.106-.351 5.541-3.05 5.541-6.144 0-1.55-.617-2.951-1.738-3.944-1.127-1-2.596-1.45-4.176-1.274-3.107.35-5.541 3.05-5.541 6.142 0 1.552.615 2.953 1.736 3.945.966.858 2.195 1.312 3.516 1.312Zm17.002-24.914C73.209 7.363 61.795 3.923 49.672 5.296 25.04 8.086 5 30.28 5 54.77c0 11.957 4.688 22.7 13.202 30.253C25.552 91.542 34.968 95 45.135 95c1.711 0 3.445-.098 5.191-.295C74.959 91.915 95 69.722 95 45.23c0-11.956-4.69-22.701-13.202-30.253M70.722 53.504c-2.064-.958-4.522-.069-5.484 1.984-2.945 6.275-9.112 10.812-15.706 11.559-6.37.721-12.065-2.123-14.85-7.425-1.054-2.008-3.547-2.786-5.567-1.74a4.09 4.09 0 0 0-1.752 5.534c3.912 7.45 11.677 11.941 20.282 11.941.931 0 1.874-.052 2.821-.16 9.53-1.08 18.055-7.304 22.251-16.243a4.088 4.088 0 0 0-1.995-5.45Z" clip-rule="evenodd"/></svg>