<svg xmlns="http://www.w3.org/2000/svg" width="100" height="100" fill="none"><path fill="#000" fill-rule="evenodd" d="m70.417 76.802 11.051-12.315a4.037 4.037 0 0 0-.308-5.7 4.031 4.031 0 0 0-5.695.308L64.38 71.45l-10.763-9.541a4.035 4.035 0 0 0-5.35 6.04l10.724 9.505-11.05 12.316a4.036 4.036 0 0 0 3 6.731 4.02 4.02 0 0 0 3.003-1.341l11.084-12.353 10.763 9.541a4.032 4.032 0 0 0 5.693-.344 4.037 4.037 0 0 0-.343-5.697l-10.724-9.504ZM40.84 47.178c-7.844-1.728-13.115-8.466-13.115-16.767 0-10.924 8.89-20.826 19.817-22.073 5.2-.585 10.07.869 13.705 4.116 3.599 3.212 5.58 7.817 5.58 12.963 0 8.529-5.46 16.7-13.59 20.338a2.358 2.358 0 0 0-1.368 2.483 2.35 2.35 0 0 0 2.009 1.998c3.234.445 6.235 1.516 8.922 3.186a2.353 2.353 0 0 0 2.482-4 26.806 26.806 0 0 0-4.94-2.408c6.862-5.1 11.191-13.2 11.191-21.597 0-6.506-2.54-12.358-7.151-16.476-4.65-4.152-10.81-6.028-17.372-5.28-13.23 1.51-23.991 13.508-23.991 26.75 0 8.463 4.338 15.659 11.232 19.323C26.348 54.29 20.256 61.95 17.797 70.75a8.026 8.026 0 0 0 1.625 7.372 8.035 8.035 0 0 0 7.035 2.778l10.383-1.184a2.35 2.35 0 0 0 2.07-2.604 2.347 2.347 0 0 0-2.603-2.072l-10.384 1.184a3.295 3.295 0 0 1-2.919-1.156 3.274 3.274 0 0 1-.675-3.049c2.582-9.24 9.791-17.03 18.815-20.332a2.356 2.356 0 0 0-.304-4.51Z" clip-rule="evenodd"/></svg>