<svg xmlns="http://www.w3.org/2000/svg" width="100" height="100" fill="none"><path fill="#000" d="M95 90.5V5L59.265 9.5V95L95 90.5ZM65.882 15.335l22.5-2.833v72.161l-22.5 2.834V15.335ZM50 63.235c0 12.427-10.074 22.5-22.5 22.5S5 75.662 5 63.235c0-12.426 10.074-22.5 22.5-22.5S50 50.81 50 63.235Zm-20.536-2.264v-8.579c0-1.38-.448-2.498-1.964-2.498s-1.964 1.118-1.964 2.498v9.148l-9.162.982c-1.37.157-2.355.86-2.199 2.231.145 1.275 1.226 1.682 2.479 1.682l8.882-.934v8.577c0 1.38.584 2.498 1.964 2.498s1.964-1.118 1.964-2.498v-9.146l9.163-.984c1.37-.156 2.354-.86 2.198-2.23-.156-1.371-1.392-1.827-2.765-1.666l-8.596.92Z"/></svg>