<svg xmlns="http://www.w3.org/2000/svg" width="100" height="100" fill="none"><path fill="#000" fill-rule="evenodd" d="M73.015 52.801c2.827-2.312 4.347-5.07 4.347-7.969 0-2.257-1.265-5.82-10.552-13.54 2.103-1.812 3.23-3.97 3.23-6.277 0-5.44-12.934-16.824-18.495-21.465-.007-.006-.015-.007-.022-.013a2.36 2.36 0 0 0-.651-.373c-.039-.013-.072-.03-.109-.042A2.428 2.428 0 0 0 50.058 3l-.121.001a2.358 2.358 0 0 0-.714.124c-.03.01-.056.024-.087.035a2.372 2.372 0 0 0-.681.39C42.895 8.19 29.96 19.576 29.96 25.015c0 2.307 1.126 4.465 3.228 6.277-9.288 7.721-10.551 11.283-10.551 13.54 0 2.898 1.52 5.657 4.346 7.97C18.986 60.198 18 63.758 18 65.831c0 .461.043.915.109 1.366.01.074.016.147.03.22.073.43.176.853.306 1.272a10.748 10.748 0 0 0 .586 1.49c.02.042.044.082.065.123.205.407.436.809.694 1.204.024.035.046.072.069.11.268.4.57.794.895 1.18l.151.181c.33.383.686.758 1.067 1.124.043.041.09.081.132.122a21.134 21.134 0 0 0 2.773 2.183c.036.024.072.05.109.073a26.637 26.637 0 0 0 1.746 1.054c1.772.984 3.772 1.851 5.962 2.582l.048.016c2.964.987 6.272 1.72 9.825 2.15v9.724c0 2.893 3.127 4.994 7.437 4.994 4.31 0 7.439-2.1 7.439-4.994V82.28C71.68 80.553 82 73.947 82 65.831c0-2.072-.986-5.632-8.985-13.03ZM50 77.931c-12.86 0-27.188-4.969-27.188-12.1 0-.03.003-.07.006-.12.004-.038.013-.086.023-.138a2.583 2.583 0 0 1 .065-.267 3.26 3.26 0 0 1 .095-.284l.004-.013c.331-.871 1.214-2.44 3.53-4.976l.003-.004c.289-.315.6-.647.935-.995l.003-.003c.335-.346.694-.71 1.08-1.088l.002-.002c.388-.38.797-.776 1.238-1.189l.004-.004c.438-.412.904-.84 1.4-1.287 3.089 1.576 5.902 2.014 6.04 2.034a2.403 2.403 0 0 0 2.735-2.017 2.4 2.4 0 0 0-2.025-2.727c-.029-.003-2.988-.481-5.726-2.222a2.42 2.42 0 0 0-.433-.218l-.009-.005a17.21 17.21 0 0 1-.617-.391c-.055-.037-.111-.077-.168-.114a15.512 15.512 0 0 1-.53-.377c-.095-.07-.19-.148-.285-.222a11.477 11.477 0 0 1-.436-.356c-.12-.104-.235-.216-.352-.326-.117-.111-.235-.22-.346-.337-.128-.135-.245-.277-.363-.42-.088-.105-.183-.21-.264-.32-.12-.162-.22-.333-.322-.503-.062-.103-.13-.202-.186-.307a4.366 4.366 0 0 1-.236-.6c-.032-.092-.079-.18-.103-.275a3.652 3.652 0 0 1-.124-.926c0-.29.323-3.004 10.176-10.957 1.225.476 2.545.855 2.886.95a2.406 2.406 0 0 0 2.964-1.664 2.398 2.398 0 0 0-1.67-2.956c-.96-.267-2.668-.824-3.284-1.17a2.389 2.389 0 0 0-.474-.203c-.778-.437-1.43-.903-1.943-1.382l-.029-.027a6 6 0 0 1-.434-.45c-.022-.025-.04-.05-.06-.076a4.527 4.527 0 0 1-.31-.409c-.032-.048-.055-.096-.083-.145-.068-.114-.137-.227-.188-.341-.039-.082-.06-.163-.088-.244-.027-.082-.063-.163-.081-.245a2.109 2.109 0 0 1-.06-.486c.01-.133.05-.289.114-.466.021-.058.061-.133.087-.195.055-.125.108-.25.183-.392.047-.088.112-.188.167-.283.08-.137.158-.27.255-.42.07-.109.157-.23.238-.347.103-.15.204-.298.322-.458.095-.129.202-.267.307-.404.123-.163.248-.326.386-.498.117-.146.245-.301.37-.453.144-.174.289-.351.445-.534.138-.163.285-.33.43-.498a72.577 72.577 0 0 1 1.543-1.705 94.05 94.05 0 0 1 1.139-1.197l.573-.589.668-.67a83.831 83.831 0 0 1 1.32-1.299c.206-.2.411-.399.623-.6.256-.247.521-.497.785-.745.206-.194.411-.389.622-.583.293-.273.592-.547.893-.823a142.733 142.733 0 0 1 1.613-1.457c.164-.145.323-.289.487-.433.432-.38.872-.763 1.313-1.144.087-.074.169-.148.256-.222.03-.026.06-.05.09-.077 8.253 7.077 15.075 14.427 15.226 16.48 0 1.33-1.303 2.784-3.575 3.99a2.395 2.395 0 0 0-.364 3.997c10.947 8.64 11.262 11.529 11.262 11.83 0 2.597-2.89 4.65-4.613 5.644a2.392 2.392 0 0 0-.38 3.881c9.167 7.99 9.63 10.96 9.63 11.475 0 7.13-14.327 12.1-27.187 12.1Z" clip-rule="evenodd"/></svg>