<svg xmlns="http://www.w3.org/2000/svg" width="100" height="100" fill="none"><path fill="#000" fill-rule="evenodd" d="m38.615 20.76 46.761-5.449a2.356 2.356 0 0 1 .543 4.681l-46.76 5.449a2.352 2.352 0 0 1-2.607-2.068 2.354 2.354 0 0 1 2.063-2.612Zm-19.183-.114c.336.134.645.296.927.498.295.188.578.417.82.66a5.419 5.419 0 0 1 1.572 3.81 5.42 5.42 0 0 1-1.572 3.81 5.761 5.761 0 0 1-.82.673c-.282.188-.591.35-.927.484a5.303 5.303 0 0 1-.995.31 5.68 5.68 0 0 1-1.062.108 5.49 5.49 0 0 1-1.048-.108 5.76 5.76 0 0 1-1.935-.794 5.634 5.634 0 0 1-.806-.673 4.852 4.852 0 0 1-.672-.822 5.16 5.16 0 0 1-.497-.928 5.458 5.458 0 0 1-.417-2.06c0-1.414.578-2.8 1.586-3.81.242-.243.51-.472.806-.66.296-.202.605-.364.927-.498a5.768 5.768 0 0 1 1.008-.31 5.558 5.558 0 0 1 2.11 0c.336.067.672.175.995.31Zm19.183 53.263 46.761-5.45a2.356 2.356 0 0 1 .543 4.681l-46.76 5.45a2.352 2.352 0 0 1-2.607-2.068 2.354 2.354 0 0 1 2.063-2.613Zm-19.183-.118c.336.135.645.296.927.498.295.189.578.418.82.66a5.42 5.42 0 0 1 1.572 3.81c0 1.413-.565 2.814-1.572 3.81a4.971 4.971 0 0 1-.82.673 5.076 5.076 0 0 1-.927.498 6.53 6.53 0 0 1-.995.31 5.66 5.66 0 0 1-1.062.094 5.52 5.52 0 0 1-1.048-.094 7.197 7.197 0 0 1-1.008-.31 6.14 6.14 0 0 1-.927-.498 4.867 4.867 0 0 1-.806-.673 4.373 4.373 0 0 1-.672-.821 4.746 4.746 0 0 1-.497-.93 5.458 5.458 0 0 1-.417-2.06c0-1.413.578-2.8 1.586-3.81.242-.241.51-.47.806-.659.296-.202.605-.363.927-.498a5.76 5.76 0 0 1 1.008-.31 5.562 5.562 0 0 1 2.11 0c.336.068.672.175.995.31Zm19.452-22.334a2.3 2.3 0 0 0 .274-.016l46.762-5.45a2.353 2.353 0 0 0 2.064-2.612 2.355 2.355 0 0 0-2.607-2.068l-46.761 5.45a2.354 2.354 0 0 0-2.065 2.612 2.352 2.352 0 0 0 2.333 2.084Zm-16.536-1.896a5.1 5.1 0 0 0-.497-.929 4.967 4.967 0 0 0-.672-.821 4.971 4.971 0 0 0-.82-.673 5.076 5.076 0 0 0-.927-.498 6.54 6.54 0 0 0-.995-.31 5.562 5.562 0 0 0-2.11 0 7.21 7.21 0 0 0-1.008.31 6.14 6.14 0 0 0-.927.498 4.867 4.867 0 0 0-.806.673 4.373 4.373 0 0 0-.672.821 4.393 4.393 0 0 0-.497.93A5.332 5.332 0 0 0 12 51.62c0 .35.04.7.107 1.05.068.337.175.673.31 1.01.134.323.295.633.497.929.188.296.416.565.672.808.242.255.51.484.806.673.296.202.605.363.927.498a5.76 5.76 0 0 0 1.008.31c.35.067.7.107 1.048.107a5.7 5.7 0 0 0 1.062-.107 5.35 5.35 0 0 0 .995-.31 4.38 4.38 0 0 0 .927-.498c.295-.189.578-.418.82-.673a4.87 4.87 0 0 0 .672-.808c.188-.296.362-.606.497-.93.134-.336.228-.672.309-1.009.067-.35.094-.7.094-1.05a5.59 5.59 0 0 0-.094-1.064 6.57 6.57 0 0 0-.31-.996Z" clip-rule="evenodd"/></svg>