<svg xmlns="http://www.w3.org/2000/svg" width="100" height="100" fill="none"><path fill="#000" fill-rule="evenodd" d="M83.735 8.552c.345-.729.353-1.432.027-1.927-.317-.476-.9-.692-1.646-.607L69.618 7.453c-1.847.213-2.647 1.477-3.31 2.755 0 0-26.652 50.661-27.53 52.325.044.08 17.578 30.464 17.578 30.464.614 1.035 1.561 2.194 3.457 1.976l12.357-1.418c.743-.084 1.326-.434 1.64-.984.331-.57.322-1.27-.024-1.922l-17.44-30.093a.067.067 0 0 1 0-.081L83.734 8.551Zm-50.271 22.45c-.618-1.034-1.547-2.16-3.443-1.941l-12.373 1.42c-.745.086-1.372.42-1.69.971-.324.57-.276 1.25.073 1.904l8.364 13.625c.015.025.015.043 0 .07L11.25 71.923c-.342.727-.325 1.415 0 1.911.317.477.873.75 1.618.664l12.371-1.42c1.849-.212 2.741-1.572 3.375-2.793 0 0 12.854-24.375 13.354-25.32-.05-.077-8.504-13.963-8.504-13.963Z" clip-rule="evenodd"/></svg>