<svg width="100" height="100" xmlns="http://www.w3.org/2000/svg">
  <path d="M9.76 14.32v15.04l30.73-3.51V10.8L9.76 14.32zm-2.38 20.1c-.58 0-1.15-.2-1.58-.6a2.4 2.4 0 0 1-.8-1.78V12.19c0-1.21.9-2.23 2.11-2.37l35.5-4.06a2.39 2.39 0 0 1 2.65 2.37v19.85a2.39 2.39 0 0 1-2.11 2.37l-35.5 4.06-.27.01zm2.38 13.9v46.62l30.73-3.52v-46.6l-30.73 3.5zM7.38 100A2.38 2.38 0 0 1 5 97.61V46.2c0-1.22.9-2.24 2.11-2.38l35.5-4.06a2.36 2.36 0 0 1 1.85.6c.5.45.8 1.1.8 1.78v51.41a2.39 2.39 0 0 1-2.12 2.38L7.65 99.98l-.27.02zm78.33-27.16a2.04 2.04 0 0 0 1.8-2.26 2.04 2.04 0 0 0-2.26-1.8l-8.34.95v-8.36a2.04 2.04 0 1 0-4.08 0v8.83l-8.8 1a2.05 2.05 0 0 0-1.8 2.27 2.04 2.04 0 0 0 2.26 1.8l8.34-.95v8.35a2.04 2.04 0 1 0 4.08 0v-8.82l8.8-1zm8.5-22.44c.5.45.79 1.1.79 1.78V87.8a2.38 2.38 0 0 1-2.11 2.37l-35.5 4.06a2.37 2.37 0 0 1-1.85-.59 2.39 2.39 0 0 1-.8-1.78V56.24c0-1.22.91-2.24 2.11-2.38l35.5-4.06c.68-.07 1.35.14 1.85.6zM59.5 8.58V39.4l30.73-3.51V5.07L59.51 8.58zm-2.39 35.89c-.57 0-1.14-.22-1.58-.6a2.4 2.4 0 0 1-.8-1.8V6.46c0-1.22.91-2.24 2.12-2.37L92.35.02A2.36 2.36 0 0 1 94.2.6c.51.45.8 1.1.8 1.78v35.63a2.39 2.39 0 0 1-2.11 2.37l-35.5 4.06-.26.02z" fill="#134B45"/>
</svg>
