<svg xmlns="http://www.w3.org/2000/svg" width="100" height="100" fill="none"><path fill="#000" fill-rule="evenodd" d="M87.862 53.204a2.352 2.352 0 0 0-.112-.66c-.354-2.18-1.728-4.946-5.672-7.633-4.954-3.376-12.973-5.873-22.229-6.96-.004-1.815-.008-3.827-.016-6.09 0-.281-.055-.558-.157-.817-.198-.719-.678-1.577-1.765-2.317-2.352-1.603-6.948-2.207-10.689-1.402-2.213.475-3.782 1.395-4.539 2.663a3.452 3.452 0 0 0-.497 1.918c-.004.05-.006.099-.006.149l-.023 5.608c-3.197.27-6.27.709-9.15 1.328-10.793 2.315-17.598 6.767-18.674 12.213a7.698 7.698 0 0 0-.06 2.576 2.366 2.366 0 0 0-.055.452l-.001.02c0 .077-.005.26-.01.528-.019.11-.038.221-.04.336a218.42 218.42 0 0 0-.034 3.686c-.032 1.819-.064 4.03-.088 6.37-.068 6.035-.074 12.06.092 15.233l.014.271.025.398c.01.145.022.273.032.4.006.06.01.135.015.19.205 2.043 1.366 5.108 5.748 8.093 7.048 4.802 19.855 7.549 32.702 7.549a85.44 85.44 0 0 0 9.026-.483c2.513-.267 4.981-.638 7.344-1.145 4.813-1.034 8.83-2.485 11.896-4.26 3.944-2.283 6.323-5.096 6.826-8.234v-.003c.425-2.664.155-25.438.097-29.977ZM82.56 65.641a33.224 33.224 0 0 1-.683 3.173c-.554 2.059-1.285 3.816-2.182 4.826a3.099 3.099 0 0 1-1.045.794c-.423.214-.62.238-1.113-.137a14.182 14.182 0 0 1-.727-.613c-1.16-1.024-3.099-2.74-6.095-1.874-1.872.54-3.409 2.307-5.036 4.178-1.358 1.56-3.22 3.698-4.508 3.871-.95.132-2.21-1.03-3.53-2.254-1.791-1.665-3.823-3.55-6.685-3.55-2.816 0-4.836 1.883-6.618 3.543-1.32 1.229-2.566 2.384-3.555 2.26a1.829 1.829 0 0 1-.508-.151c-.812-.358-1.766-1.26-2.663-2.223a63.099 63.099 0 0 1-1.337-1.496 69.308 69.308 0 0 0-1.09-1.233c-1.245-1.37-2.494-2.527-3.945-2.946a6.214 6.214 0 0 0-1.077-.21c-1.953-.195-3.334.728-4.307 1.561a21.74 21.74 0 0 0-.59.524c-.834.771-1.095 1.011-1.606.872a2.015 2.015 0 0 1-.208-.075c-.025-.01-.045-.015-.07-.026a8.264 8.264 0 0 1-.345-.159 2.622 2.622 0 0 1-.614-.436c-1.095-1.009-2.937-3.924-3.498-12.241-.011-.155-.02-.35-.026-.57L18.898 61l-.004-.23c.336.264.692.527 1.077.787 7.046 4.804 19.855 7.55 32.702 7.55 5.607 0 11.223-.523 16.37-1.628 5.983-1.284 10.735-3.227 13.97-5.63a41.913 41.913 0 0 1-.453 3.791ZM18.99 52.114c.502-2.546 4.738-6.303 15.018-8.509 2.56-.549 5.29-.95 8.137-1.207-.011 5.344-.007 10.416.047 10.956.079.788.473 1.933 1.906 2.911 1.65 1.124 4.403 1.755 7.192 1.755 1.186 0 2.38-.115 3.498-.355 3.944-.847 4.83-2.816 5.004-3.913.03-.186.08-.507.068-11.042 8.26 1.024 15.29 3.2 19.54 6.097 1.912 1.303 4.1 3.324 3.661 5.55-.502 2.545-4.738 6.301-15.018 8.508-15.567 3.34-36.353.96-45.391-5.201a15.674 15.674 0 0 1-1.43-1.096 2.344 2.344 0 0 0-.76-1.02c-.268-.206-.49-.422-.736-.63-.591-.867-.933-1.812-.736-2.804M46.952 32.35c.248-.122.66-.278 1.27-.41 2.438-.521 5.538-.131 6.87.607.022 7.258.038 17.464.006 20.076-.244.125-.667.29-1.312.428-2.43.523-5.52.135-6.884-.619-.038-2.523-.01-12.986.02-19.892a2.58 2.58 0 0 0 .03-.19m4.01-10.38c3.851 0 6.986-3.12 6.986-6.955 0-2.015-2.677-7.156-4.921-11.113A2.375 2.375 0 0 0 50.962 2.7h-.005a2.373 2.373 0 0 0-2.064 1.206c-2.244 3.978-4.92 9.135-4.92 11.108 0 3.835 3.135 6.955 6.989 6.955m.003-11.915c1.167 2.272 2.108 4.312 2.238 5.03a2.24 2.24 0 0 1-2.242 2.164c-1.237 0-2.244-1.002-2.251-2.11.104-.674 1.063-2.757 2.255-5.084Z" clip-rule="evenodd"/></svg>