<svg width="100" height="100" fill="none"><path fill="#000" d="M91.014 25.662c-2.273-2.026-5.581-2.026-7.393 0L70.697 39.613l-14.336-12.79 12.923-13.95c1.813-2.027 1.434-5.316-.84-7.353-2.273-2.027-5.58-2.027-7.393 0L48.128 19.47l-8.193-7.32a2.462 2.462 0 0 0-3.481.203l-11.47 12.882c-9.236 10.366-9.338 26.018-1.3 38.207l-6.595 7.393c-2.11 2.363-1.792 6.11.676 8.412l-8.878 9.938a3.484 3.484 0 0 0 .297 4.94 3.53 3.53 0 0 0 2.335.875 3.5 3.5 0 0 0 2.631-1.181l8.838-9.919c1.188.998 2.672 1.569 4.178 1.569h.338c1.536-.092 2.939-.754 3.932-1.864l6.574-7.373c4.967 2.516 10.394 3.87 15.801 3.87.604 0 1.219-.02 1.823-.051 7.956-.448 15.115-3.819 20.163-9.49l11.48-12.883a2.447 2.447 0 0 0-.195-3.452l-8.151-7.27 12.923-13.952c1.812-2.026 1.433-5.315-.84-7.352v.01Zm-18.893 41.65c-4.178 4.684-10.128 7.474-16.753 7.851-7.803.448-15.852-2.485-22.078-8.045-11.992-10.702-14.07-28.034-4.629-38.635l9.83-11.028 43.48 38.808-9.85 11.059v-.01Z"/></svg>