<svg xmlns="http://www.w3.org/2000/svg" width="100" height="100" fill="none"><path fill="#000" fill-rule="evenodd" d="M87.805 5.067c3.18-.322 5.988.515 8.337 2.49a2.396 2.396 0 0 1 .34 3.325L60.48 56.398l19.674 17.534c3.72 3.316 3.96 9.538.534 13.87-1.802 2.28-4.345 3.627-6.978 3.697a6.086 6.086 0 0 1-.221.004c-2.27 0-4.35-.944-5.875-2.672l-17.293-19.59-20.764 26.252c-1.178 1.489-2.857 2.398-4.608 2.497a5.445 5.445 0 0 1-4.222-1.62c-2.304-2.316-2.383-6.313-.18-9.096l21.593-27.3-7.834-8.873c-4.359 1.041-8.817-.163-11.956-3.32a2.74 2.74 0 0 1-.148-.162L4.552 26.312a2.397 2.397 0 0 1 .326-3.385 2.424 2.424 0 0 1 3.402.324L25.856 44.47c2.204 2.162 5.333 2.773 8.387 1.627a2.428 2.428 0 0 1 2.666.664l34.335 38.896c.783.884 1.679 1.05 2.336 1.035 1.193-.033 2.4-.712 3.311-1.864 1.816-2.295 1.834-5.71.039-7.312l-38.185-34.03a2.396 2.396 0 0 1-.755-2.271c.699-3.782-.264-7.554-2.517-9.881L14.79 14.077a2.398 2.398 0 0 1-.3-3.388 2.424 2.424 0 0 1 3.404-.299l20.774 17.332c.058.05.113.1.166.153 3.172 3.191 4.662 7.932 4.104 12.89l8.445 7.525 1.67-2.113c.637-6.047 3.031-11.95 6.784-16.695l9.856-12.463C73.71 11.945 80.862 5.77 87.805 5.067ZM30.554 40.195a2.413 2.413 0 0 1-1.718-.713L9.662 20.199a2.396 2.396 0 0 1 .017-3.4 2.424 2.424 0 0 1 3.417.016L32.27 36.098a2.398 2.398 0 0 1-.017 3.401 2.413 2.413 0 0 1-1.7.696Z" clip-rule="evenodd"/></svg>