<svg xmlns="http://www.w3.org/2000/svg" width="100" height="100" fill="none"><path fill="#000" fill-rule="evenodd" d="M18.199 13.479 83.8 6.053c4.511-.51 8.2 2.737 8.2 7.22v65.174c0 4.481-3.689 8.564-8.2 9.075L66.862 89.44V58.074l10.552-1.199 1.967-12.761-12.519 1.422V35.75c0-1.939 1.583-3.696 3.526-3.916l8.993-1.021V17.73l-8.993 1.022c-9.179 1.042-16.647 9.337-16.647 18.49v9.785l-10.55 1.198v12.538l10.55-1.198v31.36L18.2 94.946c-4.511.512-8.2-2.735-8.2-7.216V22.555c0-4.482 3.689-8.565 8.199-9.076Z" clip-rule="evenodd"/></svg>