<svg xmlns="http://www.w3.org/2000/svg" width="100" height="100" fill="none"><path fill="#000" fill-rule="evenodd" d="M27.725 30.41c0 8.302 5.27 15.04 13.115 16.768a2.356 2.356 0 0 1 .304 4.51C32.12 54.991 24.91 62.781 22.329 72.02a3.274 3.274 0 0 0 .675 3.049 3.295 3.295 0 0 0 2.92 1.156l10.383-1.183a2.347 2.347 0 0 1 2.603 2.071 2.35 2.35 0 0 1-2.07 2.604l-10.383 1.184a8.035 8.035 0 0 1-7.035-2.778 8.026 8.026 0 0 1-1.625-7.372c2.459-8.8 8.551-16.461 16.454-21.017C27.357 46.07 23.02 38.874 23.02 30.41c0-13.242 10.762-25.24 23.99-26.75 6.562-.748 12.723 1.128 17.373 5.28 4.61 4.118 7.151 9.97 7.151 16.476 0 8.397-4.33 16.497-11.19 21.597a26.806 26.806 0 0 1 4.94 2.41 2.353 2.353 0 0 1-2.483 3.998c-2.687-1.67-5.688-2.741-8.922-3.186a2.35 2.35 0 0 1-2.009-1.998 2.358 2.358 0 0 1 1.369-2.483c8.13-3.638 13.59-11.81 13.59-20.338 0-5.146-1.983-9.75-5.58-12.963-3.636-3.247-8.506-4.701-13.706-4.116C36.616 9.584 27.726 19.486 27.726 30.41Zm23.143 65.77a1.061 1.061 0 0 0 1.097-.067l32.077-22.168a1.06 1.06 0 0 0-.157-1.835L51.808 57.248a1.063 1.063 0 0 0-1.508.963v37.028c0 .395.219.757.568.94Z" clip-rule="evenodd"/></svg>