<svg xmlns="http://www.w3.org/2000/svg" width="100" height="100" fill="none"><path fill="#000" fill-rule="evenodd" d="M80.166 45.606a2.337 2.337 0 0 0-2.79 1.794c-2.97 13.498-14.804 24.405-28.14 25.938-13.3 1.532-24.665-6.296-27.615-19.03a2.341 2.341 0 0 0-2.813-1.763 2.365 2.365 0 0 0-1.747 2.838C20.194 68.898 31.8 77.97 45.489 78.22v5.848c-8.62 1.093-15.085 4.083-15.085 7.257 0 3.306 7.022 5.675 16.19 5.675.948 0 1.919-.026 2.907-.078 10.549-.557 19.1-3.969 19.1-7.617 0-3.172-6.469-5.474-15.088-5.658v-5.683c0-.2-.03-.393-.059-.586 13.876-3.136 25.326-14.564 28.49-28.956a2.36 2.36 0 0 0-1.777-2.816Zm-52.583.965v-5.116a.07.07 0 0 1-.001-.01v-.005l.001-.006V26.497c0-12.054 9.713-22.977 21.653-24.35 5.924-.683 11.505 1.03 15.712 4.82 4.173 3.756 6.47 9.094 6.47 15.028V42.07c0 12.055-9.713 22.978-21.653 24.351-.851.097-1.695.146-2.53.146-4.97 0-9.58-1.72-13.18-4.965-4.173-3.758-6.472-9.096-6.472-15.03ZM51.75 6.725c-.653 0-1.315.038-1.983.115-9.215 1.059-16.77 9.148-17.437 18.345a.649.649 0 0 0 .036.055c.014.021.03.043.042.067.714 1.425 3.942 3.037 9.543 3.43a2.354 2.354 0 0 1 2.173 2.519 2.35 2.35 0 0 1-2.496 2.191c-3.812-.267-6.984-1.082-9.363-2.314v10.324c.014 1.381 3.02 3.53 9.686 3.999a2.353 2.353 0 0 1 2.173 2.52 2.348 2.348 0 0 1-2.496 2.19c-3.784-.265-6.941-1.053-9.299-2.253.309 4.024 1.993 7.598 4.842 10.165 3.2 2.879 7.476 4.178 12.066 3.65 9.65-1.11 17.502-9.929 17.502-19.659v-.01c-2.692 2.506-6.436 4.763-11.01 5.928a2.342 2.342 0 0 1-2.842-1.712 2.362 2.362 0 0 1 1.697-2.867c6.186-1.576 10.502-5.553 11.892-8.58.074-.159.162-.302.263-.435v-8.578c-2.692 2.506-6.436 4.762-11.01 5.928a2.344 2.344 0 0 1-2.842-1.712 2.362 2.362 0 0 1 1.697-2.868c6.12-1.558 10.397-5.463 11.835-8.477-.635-3.217-2.21-6.056-4.588-8.196C59.1 8.03 55.576 6.725 51.75 6.725Z" clip-rule="evenodd"/></svg>