<svg xmlns="http://www.w3.org/2000/svg" width="100" height="100" fill="none"><path fill="#000" fill-rule="evenodd" d="M72.68 61.252C68.386 69.966 59.697 75.38 50 75.38s-18.386-5.414-22.68-14.128a4.13 4.13 0 0 1 1.88-5.527 4.13 4.13 0 0 1 5.527 1.88c2.892 5.874 8.745 9.522 15.274 9.522 6.528 0 12.382-3.65 15.277-9.523a4.126 4.126 0 1 1 7.401 3.648ZM34.729 30.089a5.734 5.734 0 0 1 5.728 5.726 5.735 5.735 0 0 1-5.728 5.728 5.734 5.734 0 0 1-5.726-5.728 5.732 5.732 0 0 1 5.726-5.726Zm30.544 0a5.73 5.73 0 0 1 5.725 5.726 5.732 5.732 0 0 1-5.725 5.728 5.735 5.735 0 0 1-5.728-5.728 5.734 5.734 0 0 1 5.728-5.726ZM50 5C25.188 5 5 25.186 5 50s20.188 45 45 45c24.814 0 45-20.186 45-45S74.814 5 50 5Z" clip-rule="evenodd"/></svg>