<svg xmlns="http://www.w3.org/2000/svg" width="100" height="100" fill="none"><path fill="#000" d="M12.353 85.582A2.355 2.355 0 0 1 10 83.224V13.677c0-1.205.905-2.214 2.099-2.345L69.96 5.017a2.303 2.303 0 0 1 1.826.588c.498.447.781 1.086.781 1.756v28.362a2.355 2.355 0 0 1-2.352 2.358 2.355 2.355 0 0 1-2.353-2.358V9.99l-53.156 5.8v64.804l18.138-1.98c1.289-.167 2.452.794 2.593 2.089a2.356 2.356 0 0 1-2.084 2.6l-20.746 2.263a2.02 2.02 0 0 1-.254.015Z"/><path fill="#000" d="M23.993 34.073a2.354 2.354 0 0 1-2.336-2.105 2.357 2.357 0 0 1 2.086-2.598l33.483-3.612a2.36 2.36 0 0 1 .504 4.691l-33.482 3.61a2.32 2.32 0 0 1-.255.014Zm0 15.467a2.354 2.354 0 0 1-2.336-2.104 2.357 2.357 0 0 1 2.086-2.598l26.744-2.884a2.359 2.359 0 0 1 .504 4.69l-26.744 2.883c-.084.01-.17.014-.254.014Zm-2.336 13.312a2.354 2.354 0 0 0 2.59 2.09l14.218-1.531a2.357 2.357 0 0 0 2.087-2.598 2.356 2.356 0 0 0-2.591-2.093l-14.218 1.533a2.357 2.357 0 0 0-2.086 2.599Zm62.15-11.472c-4.589-4.105-10.674-5.964-17.14-5.219C53.617 47.651 43 59.511 43 72.599c0 6.432 2.506 12.216 7.057 16.287 3.929 3.516 8.958 5.38 14.382 5.38.91 0 1.83-.052 2.761-.16 13.05-1.49 23.665-13.35 23.665-26.438 0-6.432-2.506-12.217-7.058-16.288ZM68.434 75.27v1.728a2.356 2.356 0 0 1-2.352 2.358 2.355 2.355 0 0 1-2.353-2.358V75.27c0-2.211 1.433-4.203 3.565-4.955 2.906-1.026 5.014-3.926 5.014-6.894 0-1.605-.607-3.032-1.706-4.016-1.116-.999-2.633-1.438-4.254-1.261-2.221.253-4.27 1.626-5.483 3.67-.663 1.115-1.01 2.348-1.01 3.566a2.355 2.355 0 0 1-2.354 2.358 2.355 2.355 0 0 1-2.352-2.358c0-2.066.576-4.133 1.672-5.976 1.959-3.305 5.321-5.527 8.993-5.946 2.989-.34 5.792.523 7.922 2.427 2.113 1.893 3.277 4.568 3.277 7.536 0 4.983-3.354 9.647-8.156 11.342-.197.07-.422.244-.422.507Zm-1.05 11.859a1.676 1.676 0 0 1-.404.215 1.566 1.566 0 0 1-.444.136c-.147.04-.294.054-.456.054-.309 0-.618-.069-.9-.19a2.19 2.19 0 0 1-.767-.512 2.344 2.344 0 0 1-.685-1.67c0-.62.255-1.227.685-1.658a1.84 1.84 0 0 1 .363-.296c.121-.082.256-.163.404-.216l.007-.003c.145-.053.29-.106.436-.132a2.343 2.343 0 0 1 2.124.647c.43.43.686 1.037.686 1.657 0 .635-.242 1.226-.686 1.671a1.938 1.938 0 0 1-.363.297Z"/></svg>