<svg xmlns="http://www.w3.org/2000/svg" width="100" height="100" fill="none"><path fill="#000" fill-rule="evenodd" d="M73.084 3.155c6.397-.723 12.409 1.097 16.942 5.126C94.522 12.28 97 17.96 97 24.275c0 12.856-10.496 24.506-23.399 25.97a2.28 2.28 0 0 1-1.22-.207l.453 6.221a2.259 2.259 0 0 1-.58 1.686l-22.007 24.41c-.1.262-.245.506-.439.717L36.817 97.257a2.287 2.287 0 0 1-3.206.17L3.771 71.094a2.27 2.27 0 0 1-.174-3.238l8.685-9.482c.093-.195.204-.38.35-.542l26.38-29.262c.41-.457.99-.73 1.605-.755l9.155-.383c.871-12.169 10.98-22.877 23.312-24.278ZM21.402 54.92l26.419 23.311 20.382-22.608-1.773-24.327-11.958.5c.562 3.867 2.327 7.304 5.149 9.848.386.349.618.802.704 1.276a10.842 10.842 0 0 1 1.433 4.83c.189 3.267-1.03 6.612-3.34 9.177-2.573 2.852-6.086 4.332-9.49 4.332-2.597 0-5.13-.86-7.133-2.629-2.109-1.86-3.36-4.485-3.528-7.397-.187-3.267 1.031-6.612 3.341-9.177 2.647-2.934 6.289-4.403 9.783-4.316a21.675 21.675 0 0 1-1.51-5.753l-8.11.34-20.37 22.593Zm21.432-3.947c.097 1.69.805 3.2 1.994 4.25 2.753 2.43 7.326 1.831 10.186-1.339 1.502-1.668 2.298-3.809 2.179-5.875-.097-1.69-.805-3.199-1.996-4.248-1.14-1.007-2.594-1.495-4.107-1.495-2.142 0-4.402.976-6.078 2.833-1.502 1.668-2.297 3.809-2.178 5.874Zm29.258-4.888c.291-.19.624-.325.992-.367 10.666-1.21 19.342-10.828 19.342-21.443 0-5-1.935-9.474-5.445-12.595-3.549-3.154-8.302-4.574-13.38-3.999-10.029 1.14-18.295 9.715-19.245 19.56l14.1-.59c1.233-.034 2.288.884 2.375 2.11l1.261 17.324Z" clip-rule="evenodd"/></svg>