<svg xmlns="http://www.w3.org/2000/svg" width="100" height="100" fill="none"><path fill="#000" fill-rule="evenodd" d="M90.933 9.496c.027.172.05.343.056.515 0 .017.003.034.005.051a.323.323 0 0 1 .006.052v20.854c0 2.281-1.867 4.13-4.17 4.13-2.302 0-4.169-1.849-4.169-4.13v-10.07L39.941 68.04a4.18 4.18 0 0 1-3.105 1.37 4.172 4.172 0 0 1-2.784-1.056 4.102 4.102 0 0 1-.317-5.832L76.392 15.45l-11.529 1.301c-2.288.26-4.356-1.37-4.614-3.636-.262-2.267 1.381-4.313 3.669-4.57l22.44-2.534c.02-.002.039-.001.058 0l.057-.001c.17-.015.34-.01.51-.004h.002l.105.002c.076.002.153.003.23.011.158.02.313.057.47.095l.041.01c.036.009.072.016.107.023.068.014.135.028.2.05.18.058.35.142.521.226.036.017.072.033.109.048.049.02.097.04.143.066.172.099.332.224.492.349l.017.013c.027.022.057.041.086.06a.818.818 0 0 1 .107.081l.003.001c.218.194.41.406.576.63.017.023.03.048.044.073.013.023.026.047.041.07.128.188.25.38.342.584.022.047.038.095.053.143.01.034.022.068.035.101.07.18.137.358.179.543.015.064.023.13.032.197l.015.114ZM75.975 45.359a2.42 2.42 0 0 1 2.432-2.41 2.42 2.42 0 0 1 2.432 2.41v38.01a2.418 2.418 0 0 1-2.157 2.395l-63.975 7.22a2.441 2.441 0 0 1-1.894-.598A2.397 2.397 0 0 1 12 90.592V27.216c0-1.224.928-2.254 2.157-2.393l33.635-3.797c1.344-.146 2.54.798 2.69 2.121.155 1.322-.805 2.516-2.14 2.667l-31.478 3.554V87.89l59.111-6.672v-35.86Z" clip-rule="evenodd"/></svg>