<svg xmlns="http://www.w3.org/2000/svg" width="100" height="100" fill="none"><path fill="#000" d="M82.9 6.053c4.455-.51 8.1 2.737 8.1 7.22v65.174c0 4.48-3.645 8.564-8.1 9.075l-64.8 7.425c-4.456.511-8.1-2.736-8.1-7.218V22.555c0-4.482 3.644-8.565 8.1-9.076l64.8-7.426Zm-60.75 76.21 12.15-1.392V44.21l-12.15 1.392v36.661Zm-1.215-50.779c0 4.073 3.24 6.961 7.29 6.497 4.05-.465 7.29-4.095 7.29-8.168 0-4.072-3.24-6.96-7.29-6.496-4.05.464-7.29 4.094-7.29 8.167Zm45.764 45.674 12.15-1.392V52.547c0-7.74-6.479-13.514-14.174-12.632-3.646.418-8.1 3.372-10.126 6.862V41.89L42.4 43.28v36.662l12.15-1.392V56.96c0-3.258 2.835-6.435 6.075-6.807a5.449 5.449 0 0 1 6.075 5.415v21.59Z"/></svg>