<svg xmlns="http://www.w3.org/2000/svg" width="100" height="100" fill="none"><path fill="#000" fill-rule="evenodd" d="M67.209 56.19c-.667.077-1.112-.16-1.112-1.53v-5.028l3.462-.395V45.67l-3.462.396V39l-4.258.485v7.067l-2.003.229v3.566l2.003-.23v4.903c0 4.074 1.97 5.22 4.703 4.907 1.969-.225 3.113-1.056 3.781-1.674l-1.62-2.806c-.287.223-.795.663-1.494.742Zm-34.015-4.581.096-2.112-4.29.49v20.31l4.29-.49v-8.564c.698 1.161 2.096 1.862 4.162 1.626 3.305-.377 6.132-3.628 6.132-7.798 0-4.171-2.764-6.72-6.037-6.346-2.097.239-3.527 1.325-4.353 2.884Zm-.032 4.652c0-2.007 1.207-3.386 3.05-3.596 1.813-.207 2.955.904 2.955 2.91 0 2.132-1.142 3.473-2.955 3.68-1.843.21-3.05-.862-3.05-2.994Zm16.032-6.34.096-2.112-4.29.49v20.31l4.29-.49v-8.564c.698 1.161 2.096 1.862 4.162 1.626 3.305-.377 6.132-3.628 6.132-7.798 0-4.171-2.764-6.72-6.037-6.347-2.097.24-3.527 1.326-4.353 2.884Zm-.032 4.651c0-2.006 1.207-3.385 3.05-3.596 1.813-.206 2.955.905 2.955 2.91 0 2.133-1.142 3.473-2.955 3.68-1.843.21-3.05-.861-3.05-2.994ZM90.92 23.146a1.315 1.315 0 0 0-.042-.137 2.406 2.406 0 0 0-.201-.463c-.019-.032-.034-.065-.054-.097a2.34 2.34 0 0 0-.387-.46c-.012-.011-.019-.026-.032-.038L72.902 6.592c-.01-.008-.021-.012-.03-.02a2.418 2.418 0 0 0-.516-.339l-.082-.032a2.283 2.283 0 0 0-.513-.156c-.038-.006-.073-.016-.112-.021a2.349 2.349 0 0 0-.577-.011l-59.98 6.847A2.361 2.361 0 0 0 9 15.21v77.428a2.357 2.357 0 0 0 2.625 2.348l77.283-8.822A2.363 2.363 0 0 0 91 83.816V23.72c0-.199-.032-.39-.08-.574ZM13.717 89.989V17.318l55.263-6.31v14.687a2.358 2.358 0 0 0 2.625 2.348l14.678-1.675v55.338L13.717 89.99Zm59.98-76.378 9.419 8.361-9.418 1.075v-9.436Z" clip-rule="evenodd"/></svg>