<svg xmlns="http://www.w3.org/2000/svg" width="100" height="100" fill="none"><path fill="#000" fill-rule="evenodd" d="m40.231 24.713.005-.018a3.62 3.62 0 0 0 .069-.658 3.37 3.37 0 0 0-1.002-2.377c-.773-.779-1.95-1.128-3.045-.913-.218.04-.435.108-.636.188a2.98 2.98 0 0 0-.584.309 3.37 3.37 0 0 0-1.516 2.793c0 .215.029.443.07.658a3.535 3.535 0 0 0 .514 1.209c.121.174.255.349.418.51a3.47 3.47 0 0 0 2.397.98c.878 0 1.76-.362 2.382-.98.163-.161.297-.336.419-.51a3.6 3.6 0 0 0 .312-.578 3.32 3.32 0 0 0 .197-.613ZM29.03 26.561c.08-.201.147-.416.188-.617.042-.229.068-.443.068-.658a3.498 3.498 0 0 0-.256-1.29l-.01-.02a3.92 3.92 0 0 0-.303-.557 3.202 3.202 0 0 0-.418-.51c-1.26-1.249-3.534-1.249-4.792 0-.15.148-.297.322-.42.51a3.3 3.3 0 0 0-.5 1.209 2.66 2.66 0 0 0-.069.658c0 .215.015.43.068.658.04.201.108.416.19.617.08.202.189.403.31.578a3.413 3.413 0 0 0 2.815 1.504c.217 0 .447-.027.664-.067.218-.04.42-.108.636-.202a2.71 2.71 0 0 0 .584-.309 3.207 3.207 0 0 0 .933-.927c.117-.168.21-.362.302-.557l.01-.02Zm-11.681 1.357a3.5 3.5 0 0 0 .256-1.29c0-.886-.364-1.745-.987-2.376a4.971 4.971 0 0 0-.514-.416 4.847 4.847 0 0 0-.584-.31 3.785 3.785 0 0 0-.635-.187 3.457 3.457 0 0 0-3.059.913 3.346 3.346 0 0 0 0 4.753c.623.618 1.502.98 2.395.98.216 0 .447-.026.664-.066.217-.04.419-.108.635-.189.205-.08.393-.188.584-.308.176-.121.352-.269.514-.417l.02-.022c.142-.154.283-.309.398-.488.122-.188.218-.376.313-.577ZM73.108 7.072c2.97-.336 5.762.515 7.879 2.391 2.105 1.863 3.264 4.499 3.264 7.42v21.996a2.36 2.36 0 0 1-2.368 2.35 2.36 2.36 0 0 1-2.369-2.35v-7.766L7.737 39.226V82.78l28.91-3.267a2.365 2.365 0 0 1 2.621 2.07 2.353 2.353 0 0 1-2.084 2.6L5.637 87.75a2.377 2.377 0 0 1-1.845-.581A2.342 2.342 0 0 1 3 85.413v-59.88c0-5.81 4.758-11.073 10.605-11.735l59.503-6.726Zm14.021 72.54 8.476 7.322a4.006 4.006 0 0 1 .397 5.684A4.068 4.068 0 0 1 92.937 94a4.058 4.058 0 0 1-2.663-.99l-8.6-7.428c-4.124 3.203-9.063 4.88-13.892 4.881-4.582 0-9.051-1.486-12.59-4.544-3.754-3.243-5.985-7.833-6.282-12.925-.335-5.712 1.83-11.559 5.944-16.043 8.028-8.748 21.23-10.098 29.434-3.012 3.752 3.243 5.984 7.832 6.28 12.923.26 4.401-.98 8.874-3.439 12.75Zm-30.113-7.084c.17 2.91 1.416 5.507 3.508 7.315 4.9 4.233 13.017 3.173 18.093-2.36 2.652-2.89 4.052-6.592 3.844-10.154-.17-2.909-1.416-5.507-3.507-7.313l-.001-.002c-2.024-1.748-4.597-2.594-7.278-2.594-3.81 0-7.836 1.707-10.815 4.955-2.65 2.89-4.051 6.59-3.844 10.153Z" clip-rule="evenodd"/></svg>