<svg xmlns="http://www.w3.org/2000/svg" width="100" height="100" fill="none"><path fill="#000" fill-rule="evenodd" d="M84.683 5.73c-1.355-1.22-3.14-1.77-5.032-1.556L20.33 10.938c-3.704.416-6.603 3.664-6.603 7.368v71.669c0 1.879.751 3.583 2.093 4.79 1.168 1.048 2.658 1.598 4.241 1.598.269 0 .524-.013.792-.04l59.321-6.764c3.704-.416 6.603-3.664 6.603-7.369V10.522c0-1.879-.751-3.583-2.094-4.791ZM82.08 82.19c0 1.316-1.114 2.55-2.443 2.712l-59.32 6.764c-.538.067-1.034-.08-1.383-.39-.349-.308-.537-.751-.537-1.288V18.306c0-1.288 1.14-2.563 2.443-2.71L80.16 8.83c.04 0 .078-.003.118-.006a1.68 1.68 0 0 1 .138-.008c.443 0 .832.135 1.127.403.349.309.537.752.537 1.288V82.19ZM54.876 18.87l-9.784 1.114a2.35 2.35 0 0 0 .268 4.684c.094 0 .175 0 .269-.014l9.784-1.114a2.353 2.353 0 0 0 2.067-2.603 2.352 2.352 0 0 0-2.604-2.067Zm-2.83 52.69c.282.108.564.256.82.43.254.175.496.363.71.578a4.771 4.771 0 0 1 1.37 3.328c0 .309-.027.617-.081.913a6.17 6.17 0 0 1-.269.885c-.12.282-.268.55-.442.806a4.182 4.182 0 0 1-.578.71 5.031 5.031 0 0 1-.71.592 5.926 5.926 0 0 1-.82.429c-.281.12-.577.215-.872.268a4.673 4.673 0 0 1-4.241-1.288 5.037 5.037 0 0 1-.59-.711 5.771 5.771 0 0 1-.43-.806 4.838 4.838 0 0 1-.362-1.798c0-1.235.51-2.456 1.382-3.329a4.74 4.74 0 0 1 4.241-1.274 4.1 4.1 0 0 1 .873.268Z"/></svg>