<svg xmlns="http://www.w3.org/2000/svg" width="100" height="100" fill="none"><path fill="#000" fill-rule="evenodd" d="M89.629 58.539a2.365 2.365 0 0 0-2.371 2.36v21.649l-74.516 8.448v-21.11c0-1.303-1.06-2.36-2.37-2.36A2.365 2.365 0 0 0 8 69.886V93.64c0 .673.289 1.314.793 1.761a2.372 2.372 0 0 0 1.846.584l79.258-8.987A2.363 2.363 0 0 0 92 84.654V60.9c0-1.303-1.06-2.36-2.371-2.36ZM31.993 31.226a4.062 4.062 0 0 0 3.025-1.343l11.084-12.281v41.285c0 2.233 1.82 4.044 4.065 4.044s4.064-1.811 4.064-4.043V16.03l11.413 10.06a4.079 4.079 0 0 0 5.737-.344 4.03 4.03 0 0 0-.347-5.71L52.86 4.015a4.08 4.08 0 0 0-5.719.327L28.97 24.481a4.028 4.028 0 0 0 .309 5.71 4.057 4.057 0 0 0 2.714 1.035Z" clip-rule="evenodd"/></svg>