<svg xmlns="http://www.w3.org/2000/svg" width="100" height="100" fill="none"><path fill="#000" fill-rule="evenodd" d="M59.76 26.055a2.31 2.31 0 0 1-2.028 2.558l-22.027 2.52a2.306 2.306 0 0 1-2.548-2.036 2.311 2.311 0 0 1 2.027-2.557l22.027-2.52a2.303 2.303 0 0 1 2.548 2.035Zm6.686 22.443c0 2.144-1.809 4.162-3.95 4.408L52.44 54.055h-.001l-3.456.396-15.116 1.73h-.002l-16.832 1.925c-.94.107-1.82-.147-2.457-.718-.628-.563-.973-1.386-.973-2.317V42.382c0-11.598 9.404-22.111 20.964-23.435l28.448-3.254c.142-.016.283-.024.423-.024.782 0 1.494.257 2.035.742.627.563.972 1.386.972 2.318v29.769ZM46.942 85.156l-1.376.157c-2.473.286-4.787-.405-6.504-1.945-1.697-1.52-2.63-3.71-2.63-6.165V60.54l7.979-.911 2.531-.29v25.818Zm42.806-73.902a2.294 2.294 0 0 0-2.393.18L71.05 23.189v-4.46c0-2.268-.89-4.316-2.51-5.768-1.628-1.46-3.773-2.12-6.045-1.861l-28.448 3.255C20.236 15.934 9 28.508 9 42.382v12.689c0 2.268.89 4.315 2.51 5.765 1.398 1.254 3.177 1.918 5.086 1.918.317 0 .637-.018.96-.055l14.27-1.633v16.137c0 3.79 1.482 7.204 4.17 9.614C38.316 88.897 41.28 90 44.47 90c.534 0 1.074-.03 1.618-.093l3.418-.39a2.309 2.309 0 0 0 2.04-2.297V68.58l4.87-.558c.704-.08 1.33-.48 1.701-1.086a2.316 2.316 0 0 0 .198-2.013l-2.437-6.608 7.138-.817c4.506-.515 8.034-4.47 8.034-9V43.24l16.635 8.185a2.29 2.29 0 0 0 2.23-.114A2.314 2.314 0 0 0 91 49.353V13.31c0-.867-.484-1.66-1.252-2.057Z" clip-rule="evenodd"/></svg>