<svg width="100" height="100" xmlns="http://www.w3.org/2000/svg">
  <path d="M98.98 15.83a2.73 2.73 0 0 0-4.54-1.12l-10.7 10.71a15.75 15.75 0 0 1-9.16-9.16L85.29 5.54A2.74 2.74 0 0 0 86 2.96 2.73 2.73 0 0 0 84.16 1a22.58 22.58 0 0 0-23.61 6.67 22.5 22.5 0 0 0-4.16 22.62L30.3 56.4A22.48 22.48 0 1 0 1 84.17a2.73 2.73 0 0 0 4.55 1.12l10.71-10.72a15.76 15.76 0 0 1 9.16 9.17l-10.7 10.71a2.74 2.74 0 0 0-.73 2.6c.23.92.93 1.66 1.85 1.94a22.47 22.47 0 0 0 6.65 1.01 22.59 22.59 0 0 0 16.96-7.68 22.5 22.5 0 0 0 4.16-22.63L69.7 43.61A22.48 22.48 0 1 0 99 15.83" fill="#134B45"/>
</svg>
