<svg xmlns="http://www.w3.org/2000/svg" width="100" height="100" fill="none"><path fill="#000" fill-rule="evenodd" d="M89.92 24.769c-.014-.054-.034-.103-.052-.155a2.412 2.412 0 0 0-.186-.43c-.03-.05-.057-.1-.09-.15a2.35 2.35 0 0 0-.405-.478L71.132 7.603a2.383 2.383 0 0 0-.53-.345c-.046-.024-.094-.043-.144-.064a2.422 2.422 0 0 0-.478-.142c-.043-.009-.085-.021-.13-.027a2.362 2.362 0 0 0-.59-.012l-41.534 4.719a2.407 2.407 0 0 0-2.14 2.39v38.135L5.667 54.52a4.126 4.126 0 0 0-3.64 4.562 4.13 4.13 0 0 0 4.577 3.63l18.984-2.157v31.04A2.404 2.404 0 0 0 27.999 94c.089 0 .181-.005.272-.015l59.59-6.77A2.408 2.408 0 0 0 90 84.825v-59.47c0-.201-.032-.395-.08-.586ZM30.41 88.9V60.007l22.033-2.504-4.561 5.068a4.114 4.114 0 0 0 .314 5.822 4.126 4.126 0 0 0 2.76 1.054 4.132 4.132 0 0 0 3.079-1.369l11.834-13.146c.028-.031.047-.067.073-.099.091-.105.167-.22.247-.335.075-.107.149-.211.21-.324.068-.12.12-.245.175-.37.05-.12.106-.237.147-.361.04-.13.066-.264.096-.397.027-.13.06-.26.075-.393.014-.13.012-.263.015-.396.003-.106.02-.207.014-.313-.003-.041-.015-.08-.02-.118-.002-.039.003-.076 0-.114-.01-.094-.044-.18-.06-.271-.026-.143-.051-.286-.092-.423-.038-.13-.087-.249-.137-.371-.054-.13-.105-.257-.17-.38a3.594 3.594 0 0 0-.195-.32 4.048 4.048 0 0 0-.254-.36c-.07-.086-.148-.163-.227-.244-.079-.083-.145-.175-.232-.25L53.7 38.636a4.142 4.142 0 0 0-5.835.352 4.114 4.114 0 0 0 .353 5.819l4.893 4.323-22.7 2.579V16.267l36.71-4.171v15.311a2.41 2.41 0 0 0 2.684 2.388l15.373-1.745v54.63L30.41 88.901Zm51.53-65.325-9.996 1.136v-9.967l9.996 8.831Z" clip-rule="evenodd"/></svg>