<svg xmlns="http://www.w3.org/2000/svg" width="100" height="100" fill="none"><path fill="#000" fill-rule="evenodd" d="M89.629 58.539a2.365 2.365 0 0 0-2.371 2.36v21.649l-74.516 8.448v-21.11c0-1.303-1.06-2.36-2.37-2.36A2.365 2.365 0 0 0 8 69.886V93.64c0 .673.289 1.314.793 1.761a2.372 2.372 0 0 0 1.846.584l79.258-8.987A2.363 2.363 0 0 0 92 84.654V60.9c0-1.303-1.06-2.36-2.371-2.36Zm-42.324 3.396a4.06 4.06 0 0 0 2.693 1.017 4.062 4.062 0 0 0 3.027-1.343l18.172-20.146a4.03 4.03 0 0 0-.31-5.712 4.076 4.076 0 0 0-5.74.309L54.065 48.345v-41.3C54.064 4.811 52.244 3 50 3c-2.245 0-4.065 1.811-4.065 4.045v42.873L34.522 39.854a4.077 4.077 0 0 0-5.736.346 4.032 4.032 0 0 0 .346 5.71l18.173 16.025Z" clip-rule="evenodd"/></svg>