<svg xmlns="http://www.w3.org/2000/svg" width="100" height="100" fill="none"><path fill="#000" fill-rule="evenodd" d="M88.962 19.59c1.59 2.282 1.88 5.03.65 6.139l-70.087 62.98c-1.233 1.119-3.52.155-5.112-2.127-1.592-2.285-1.882-5.033-.65-6.14l70.087-62.98c.085-.078.178-.144.274-.202 1.276-.765 3.36.208 4.84 2.33Zm7.627 24.206c1.429 2.387 1.84 5.005.92 5.85l-52.27 48.085c-.919.857-2.823-.403-4.25-2.788-1.426-2.385-1.837-5.003-.919-5.85L92.341 41.01a.95.95 0 0 1 .208-.146c.976-.518 2.714.713 4.04 2.931Z" clip-rule="evenodd"/></svg>