<svg xmlns="http://www.w3.org/2000/svg" width="100" height="100" fill="none"><path fill="#000" fill-rule="evenodd" d="M64.565 91.802a2.366 2.366 0 0 1-2.369-2.363V62.434c0-1.2.904-2.212 2.1-2.347l27.068-3.078a2.364 2.364 0 1 1 .536 4.697l-24.967 2.837v24.896a2.366 2.366 0 0 1-2.368 2.363ZM36.435 95a2.366 2.366 0 0 1-2.368-2.363V68.28l-24.43 2.778A2.365 2.365 0 1 1 9.1 66.36l27.067-3.076a2.363 2.363 0 0 1 1.845.585 2.36 2.36 0 0 1 .792 1.762v27.005A2.366 2.366 0 0 1 36.435 95Zm28.13-58.269a2.37 2.37 0 0 1-1.577-.6 2.362 2.362 0 0 1-.792-1.763V7.363A2.366 2.366 0 0 1 64.565 5a2.366 2.366 0 0 1 2.368 2.363V31.72l24.43-2.778a2.363 2.363 0 1 1 .536 4.697l-27.066 3.078c-.09.01-.18.014-.268.014Zm-55.2 6.274a2.363 2.363 0 0 1-.265-4.712l24.967-2.836V10.562A2.365 2.365 0 0 1 36.435 8.2a2.365 2.365 0 0 1 2.369 2.363v27.004c0 1.2-.904 2.212-2.1 2.347L9.635 42.991a2.29 2.29 0 0 1-.27.014Z" clip-rule="evenodd"/></svg>