<svg xmlns="http://www.w3.org/2000/svg" width="100" height="100" fill="none"><path fill="#000" fill-rule="evenodd" d="M17.88 14.215c8.7-7.798 20.258-11.318 32.534-9.912 13.37 1.53 25.637 8.7 34.07 19.439V11.31a3.376 3.376 0 0 1 3.37-3.384c1.86 0 3.37 1.515 3.37 3.384v23.886a3.37 3.37 0 0 1-1.715 3.466c-.064.035-.118.079-.182.11-.045.02-.092.028-.136.047-.137.06-.276.106-.417.146-.046.012-.09.029-.136.038a3.39 3.39 0 0 1-.785.106c-.126 0-.254-.007-.382-.022l-24.316-2.782a3.381 3.381 0 0 1-2.967-3.745 3.375 3.375 0 0 1 3.73-2.98l17.886 2.047c-7.268-11.262-19.327-19.133-32.153-20.6-10.343-1.191-20.036 1.74-27.283 8.236-7.177 6.43-11.129 15.633-11.129 25.913 0 21.679 17.574 41.326 39.175 43.798 9.992 1.15 19.437-1.572 26.604-7.643 7.036-5.96 11.207-14.598 11.748-24.322.104-1.866 1.702-3.298 3.553-3.189a3.377 3.377 0 0 1 3.175 3.566c-.644 11.603-5.662 21.942-14.13 29.116C74.038 92.71 64.78 96 54.872 96a46.652 46.652 0 0 1-5.22-.3C24.755 92.85 4.5 70.184 4.5 45.176c0-12.235 4.751-23.23 13.38-30.962Z" clip-rule="evenodd"/></svg>