<svg xmlns="http://www.w3.org/2000/svg" width="100" height="100" fill="none"><path fill="#000" fill-rule="evenodd" d="M82.12 14.215c-8.7-7.798-20.258-11.318-32.534-9.912-13.37 1.53-25.637 8.7-34.07 19.439V11.31a3.376 3.376 0 0 0-3.37-3.384 3.377 3.377 0 0 0-3.37 3.384v23.886a3.37 3.37 0 0 0 1.715 3.466c.064.035.118.079.182.11.045.02.092.028.136.047.137.06.276.106.417.146.046.012.09.029.136.038.256.061.518.106.785.106.126 0 .254-.007.382-.022l24.316-2.782a3.381 3.381 0 0 0 2.967-3.745 3.375 3.375 0 0 0-3.73-2.98l-17.886 2.047c7.268-11.262 19.327-19.133 32.153-20.6 10.343-1.191 20.036 1.74 27.283 8.236 7.177 6.43 11.129 15.633 11.129 25.913 0 21.679-17.574 41.326-39.175 43.798-9.992 1.15-19.437-1.572-26.604-7.643-7.036-5.96-11.207-14.598-11.748-24.322-.104-1.866-1.702-3.298-3.553-3.189a3.377 3.377 0 0 0-3.176 3.566c.645 11.603 5.663 21.942 14.13 29.116C25.962 92.71 35.221 96 45.13 96a46.652 46.652 0 0 0 5.22-.3C75.245 92.85 95.5 70.184 95.5 45.176c0-12.235-4.751-23.23-13.38-30.962Z" clip-rule="evenodd"/></svg>