<svg xmlns="http://www.w3.org/2000/svg" width="100" height="100" fill="none"><path fill="#000" fill-rule="evenodd" d="M70.53 47.941c0 5.96-4.437 11.449-10.3 13.23a2.127 2.127 0 0 1-2.73-1.796c-.115-.999.478-1.974 1.44-2.255 4.179-1.213 7.351-5.035 7.351-9.179 0-2.049-.804-3.904-2.264-5.22-1.243-1.119-2.837-1.766-4.602-1.894-.994-.07-1.774-.885-1.882-1.879v-.001a2.132 2.132 0 0 1 2.296-2.352c2.65.222 5.12 1.249 7.02 2.958 2.368 2.134 3.672 5.114 3.672 8.388Zm.963 20.73c-.988.743-2.402.47-3.061-.575a2.123 2.123 0 0 1 .52-2.83c5.995-4.513 9.65-11.516 9.65-18.7 0-6.97-3.479-12.968-9.2-16.082a2.134 2.134 0 0 1-.968-2.68c.474-1.158 1.85-1.68 2.948-1.087 7.124 3.847 11.46 11.256 11.46 19.849 0 8.518-4.299 16.796-11.35 22.105ZM95 45.243c0 14.023-7.217 27.843-18.973 36.583-.98.73-2.369.505-3.047-.514-.623-.934-.422-2.205.48-2.873 10.72-7.943 17.303-20.489 17.303-33.196 0-12.554-6.45-23.463-16.965-28.933a2.118 2.118 0 0 1-.945-2.732 2.131 2.131 0 0 1 2.942-1.024C87.7 18.764 95 31.085 95 45.244Zm-47.153 39.99L22.78 71.07a2.119 2.119 0 0 0-1.777-.14L9.239 75.314V42.45l9.997.473v8.065c0 1.176.949 2.13 2.12 2.13a2.125 2.125 0 0 0 2.12-2.13V42.55c.064-.055.133-.103.191-.165l24.18-25.877v68.724Zm2.9-76.083a2.11 2.11 0 0 0-2.326.523L21.244 38.757 7.22 38.094A2.12 2.12 0 0 0 5 40.219v38.156c0 .697.34 1.35.91 1.748a2.11 2.11 0 0 0 1.947.247l13.7-5.106 27.37 15.462a2.112 2.112 0 0 0 2.108-.017 2.126 2.126 0 0 0 1.05-1.837V11.128c0-.873-.53-1.657-1.339-1.978Z" clip-rule="evenodd"/></svg>