<svg xmlns="http://www.w3.org/2000/svg" width="100" height="100" fill="none"><path fill="#000" fill-rule="evenodd" d="m60.975 72.06 29.34-3.369V12.004l-80.63 9.258v56.687l28.81-3.309a2.334 2.334 0 0 1 2.068.839l9.277 11.268 9.48-13.693a2.34 2.34 0 0 1 1.655-.994ZM92.392 7.014a2.338 2.338 0 0 1 1.826.585c.497.447.782 1.088.782 1.76V70.8c0 1.199-.894 2.21-2.077 2.345L62.556 76.63 51.921 91.991a2.34 2.34 0 0 1-1.853 1.008h-.023l-.044.001a2.33 2.33 0 0 1-1.803-.853l-10.43-12.67-30.16 3.462a2.336 2.336 0 0 1-1.826-.585A2.368 2.368 0 0 1 5 80.594V19.156c0-1.201.894-2.211 2.077-2.347l85.315-9.795ZM40.242 58.36l39.914-4.583A4.029 4.029 0 0 1 84.6 57.34c.253 2.22-1.331 4.225-3.534 4.478l-39.914 4.583a4.027 4.027 0 0 1-4.444-3.562c-.25-2.222 1.333-4.226 3.535-4.48Zm-13.384 1.537-8.79 1.01c-2.203.252-3.787 2.257-3.535 4.478.234 2.065 1.97 3.589 3.985 3.589.151 0 .306-.01.46-.027l8.79-1.01c2.203-.252 3.786-2.258 3.534-4.478-.25-2.222-2.254-3.815-4.444-3.562Zm-7.88-6.269a4.133 4.133 0 0 1-.46.027c-2.015 0-3.751-1.524-3.985-3.588-.252-2.22 1.332-4.227 3.535-4.48l24.975-2.867c2.204-.252 4.194 1.341 4.446 3.563.25 2.22-1.333 4.224-3.536 4.478l-24.975 2.867Zm37.72-4.356c.152 0 .305-.01.46-.027l1.53-.175c2.203-.254 3.786-2.26 3.534-4.48-.25-2.22-2.25-3.812-4.445-3.561l-1.529.175c-2.205.254-3.787 2.26-3.534 4.48a4.025 4.025 0 0 0 3.983 3.588Zm14.449-1.633a4.109 4.109 0 0 1-.46.027c-2.015 0-3.751-1.525-3.985-3.59-.252-2.22 1.332-4.225 3.535-4.478l9.92-1.139a4.033 4.033 0 0 1 4.444 3.563c.251 2.22-1.332 4.225-3.536 4.478l-9.918 1.139Z" clip-rule="evenodd"/></svg>