<svg xmlns="http://www.w3.org/2000/svg" width="100" height="100" fill="none"><path fill="#000" fill-rule="evenodd" d="M91.613 13.707a2.36 2.36 0 0 1 2.176 1.385c.387.855.234 1.86-.391 2.56L82.446 29.92a2.345 2.345 0 0 1-1.715.785l-8.43.129-22.008 24.655c1.208 2.69.679 6.149-1.617 8.722-3.008 3.37-7.886 3.928-10.895 1.248-3.009-2.68-3.009-7.586 0-10.956 2.295-2.572 5.678-3.492 8.49-2.599l22.022-24.67-.832-8.365a2.374 2.374 0 0 1 .591-1.815L79.004 4.785a2.346 2.346 0 0 1 4.09 1.343l.766 7.698 7.753-.12ZM72.905 26.094l6.728-.102 6.67-7.473-4.533.069c-1.262.001-2.254-.907-2.376-2.129l-.45-4.527-6.699 7.504.66 6.659Zm-.294 11.409a2.71 2.71 0 0 0-1.057 3.67c6.4 11.692 4.028 27.02-5.901 38.142-12.484 13.986-32.701 16.398-45.068 5.38-5.467-4.872-8.72-11.818-9.16-19.56-.517-9.1 2.902-18.48 9.378-25.736 9.934-11.13 24.922-15.233 37.294-10.211a2.678 2.678 0 0 0 3.5-1.495 2.706 2.706 0 0 0-1.487-3.517c-14.458-5.87-31.864-1.206-43.306 11.612C9.376 44.107 5.46 54.916 6.06 65.443c.521 9.19 4.414 17.464 10.961 23.299C23.261 94.3 31.154 97 39.28 97c10.85-.001 22.11-4.818 30.373-14.074 11.454-12.83 14.11-30.657 6.61-44.358a2.678 2.678 0 0 0-3.652-1.065ZM47.554 41.93a2.7 2.7 0 0 0 2.998-2.348 2.7 2.7 0 0 0-2.334-3.017c-7.724-.963-15.623 2.163-21.157 8.363-4.507 5.048-6.884 11.617-6.52 18.024.322 5.635 2.713 10.712 6.738 14.299 3.833 3.413 8.677 5.072 13.657 5.072 6.605 0 13.445-2.92 18.46-8.537 5.543-6.208 7.75-14.431 5.907-21.995a2.688 2.688 0 0 0-3.25-1.98 2.704 2.704 0 0 0-1.97 3.267c1.421 5.828-.333 12.218-4.688 17.097-6.828 7.65-17.844 9.008-24.552 3.03-2.944-2.625-4.698-6.375-4.935-10.561-.282-4.978 1.595-10.12 5.154-14.106 4.358-4.883 10.531-7.355 16.492-6.608Z" clip-rule="evenodd"/></svg>