<svg xmlns="http://www.w3.org/2000/svg" width="100" height="100" fill="none"><path fill="#000" fill-rule="evenodd" d="M43.67 66.305a1.382 1.382 0 0 0-1.294-.586l-14.338 1.616V46.87c0-.624-.43-1.168-1.042-1.32a1.38 1.38 0 0 0-1.548.681L8.986 76.8c-.24.447-.211.988.076 1.406.288.418.784.643 1.294.587l14.338-1.616v20.462A1.363 1.363 0 0 0 26.07 99c.5 0 .971-.27 1.214-.72l16.463-30.57a1.35 1.35 0 0 0-.077-1.405Z" clip-rule="evenodd"/><path fill="#000" d="M43.092 27.101a3.83 3.83 0 0 1 7.644-.46l1.38 22.935-3.755.226a3.897 3.897 0 0 1-4.124-3.656L43.092 27.1Z"/><path fill="#000" d="M61.75 41.324a3.83 3.83 0 0 1 .459 7.645l-10.094.607a7.658 7.658 0 0 1-8.104-7.185l17.738-1.067Z"/><path fill="#000" d="M79.472 10.266C71.494 3.19 60.89 0 49.609 1.274 27.336 3.796 9.089 23.328 8.002 45.33c-.056 1.143.877 2.072 2.021 2.072 1.145 0 2.066-.929 2.128-2.072C13.234 25.356 29.832 7.66 50.078 5.365a38.633 38.633 0 0 1 4.348-.247c8.438 0 16.23 2.849 22.287 8.221 7.015 6.223 10.88 15.117 10.88 25.045 0 20.126-15.943 38.427-35.942 41.75-1.123.186-1.937 1.203-1.807 2.334.129 1.129 1.15 1.944 2.272 1.763 22.028-3.554 39.62-23.693 39.62-45.847 0-11.117-4.355-21.102-12.264-28.118Z"/></svg>