<svg xmlns="http://www.w3.org/2000/svg" width="100" height="100" fill="none"><path fill="#000" fill-rule="evenodd" d="M78.53 54.279s1.305-.976 1.907-1.683l.478-.563c1.938-2.291 3.335-4.36 3.335-6.398 0-2.769-2.034-5.18-6.481-4.67-3.273.372-5.975 2.623-6.736 6.115l4.002.626c.478-1.455 1.304-2.696 2.766-2.862 1.206-.138 2 .504 2 1.587 0 1.368-.857 2.293-2.668 4.41l-6.324 7.439v.382l13.599-1.553v-3.66l-3.685.42c-.571.066-2.193.41-2.193.41ZM66.802 40.942c0-.986.477-1.423 1.175-1.503.667-.076 1.048.23 1.367.577l2.318-3.13c-.984-1.035-2.255-1.462-4.162-1.244-3.336.38-4.988 2.352-4.988 5.853v4.552l-4.862.555v-3.978c0-.954.446-1.42 1.112-1.496.573-.066.954.146 1.177.376l1.779-3.292c-.953-.719-2.002-1.044-3.529-.872-3.144.36-4.829 2.335-4.829 5.837v3.916l-2.255.257v3.565l2.255-.258v9.997l4.29-.49v-9.995l4.862-.555v9.995l4.29-.49v-9.996l3.653-.417v-3.565l-3.653.416v-4.615Zm-23.74 7.04c-4.193.478-7.467 3.812-7.467 7.95 0 4.107 3.274 6.662 7.468 6.184 4.193-.48 7.435-3.777 7.435-7.885 0-4.137-3.242-6.728-7.435-6.249Zm0 10.504c-1.906.217-3.081-1.048-3.081-3.054 0-2.038 1.175-3.54 3.082-3.758 1.906-.218 3.051 1.02 3.051 3.058 0 2.005-1.145 3.537-3.051 3.754Zm-11.347-8.923-1.59 4.033c-.474 1.17-.983 3.137-.983 3.137s-.573-1.877-1.175-2.89l-2.352-3.933-.318.036-2.224 4.455c-.604 1.184-1.112 3.151-1.112 3.151s-.508-1.82-.987-2.91l-1.555-3.675-4.735.54 6.26 13.197.35-.04 3.113-5.8c.54-1.016 1.016-2.821 1.016-2.821s.414 1.672.955 2.598l2.921 5.11.382-.044 6.324-14.633-4.29.489Zm59.207-26.417c-.012-.046-.027-.09-.042-.137a2.463 2.463 0 0 0-.203-.464c-.018-.031-.033-.064-.052-.095a2.364 2.364 0 0 0-.39-.461c-.01-.011-.018-.026-.03-.037L72.903 6.592l-.024-.015a2.33 2.33 0 0 0-.527-.347c-.021-.01-.043-.017-.065-.025a2.218 2.218 0 0 0-.53-.16c-.036-.008-.07-.016-.104-.021a2.37 2.37 0 0 0-.58-.011L11.092 12.86A2.361 2.361 0 0 0 9 15.21v77.428a2.357 2.357 0 0 0 2.626 2.348l77.282-8.822A2.363 2.363 0 0 0 91 83.816V23.72c0-.199-.032-.39-.078-.574ZM13.717 89.989V17.318l55.264-6.309v14.686a2.358 2.358 0 0 0 2.626 2.348l14.676-1.675v55.338L13.717 89.99ZM73.7 13.611l9.416 8.361-9.416 1.075v-9.436Z" clip-rule="evenodd"/></svg>