<svg xmlns="http://www.w3.org/2000/svg" width="100" height="100" fill="none"><path fill="#000" fill-rule="evenodd" d="M61.958 51.385c-1.844-.203-2.702-.201-2.702-.964 0-.543.478-.85 1.462-.964 1.016-.115 1.97.252 2.605.72l2.289-2.71c-1.113-1.02-2.702-1.57-4.925-1.316-2.892.33-5.243 1.84-5.243 4.896 0 2.832 2.065 3.615 3.907 3.883 2.193.322 3.052.225 3.052.956 0 .573-.445.879-1.844 1.04-1.27.144-2.446-.264-3.368-1.05l-2.51 2.516c1.177 1.265 3.02 2.233 6.164 1.874 4.258-.486 5.56-2.67 5.56-5.154 0-2.866-2.478-3.506-4.447-3.727Zm-12.743 9.922 4.256-.486V37.838l-4.256.486v22.983Zm-1.75-13.361-4.578.523-1.078 1.81c-.477.786-.985 2.213-.985 2.213s-.54-1.307-1.016-1.985l-1.114-1.56-5.051.576 4.543 5.944-5.21 7.694 4.577-.522 1.523-2.498c.571-.925 1.238-2.56 1.238-2.56s.669 1.482 1.24 2.276l1.557 2.147 5.084-.58-5.21-6.855 4.48-6.623Zm43.457-24.8c-.012-.046-.027-.09-.042-.137a2.463 2.463 0 0 0-.203-.464c-.018-.031-.033-.064-.052-.095a2.364 2.364 0 0 0-.39-.461c-.01-.011-.018-.026-.03-.037L72.903 6.592l-.024-.015a2.33 2.33 0 0 0-.527-.347c-.021-.01-.043-.017-.065-.025a2.218 2.218 0 0 0-.53-.16c-.036-.008-.07-.016-.104-.021a2.37 2.37 0 0 0-.58-.011L11.092 12.86A2.361 2.361 0 0 0 9 15.21v77.428a2.357 2.357 0 0 0 2.626 2.348l77.282-8.822A2.363 2.363 0 0 0 91 83.816V23.72c0-.199-.032-.39-.078-.574ZM13.717 89.989V17.318l55.264-6.309v14.686a2.358 2.358 0 0 0 2.626 2.348l14.676-1.675v55.338L13.717 89.99ZM73.7 13.611l9.416 8.361-9.416 1.075v-9.436Z" clip-rule="evenodd"/></svg>