<svg xmlns="http://www.w3.org/2000/svg" width="100" height="100" fill="none"><path fill="#000" fill-rule="evenodd" d="m33.314 52.76 5.147-.588-5.877 10.413v.35l11.914-1.36v-3.47l-5.496.627 6.004-10.427v-.35l-11.692 1.336v3.469Zm13.155 8.59 4.29-.49V47.297l-4.29.49V61.35Zm2.162-21.448c-1.461.167-2.732 1.426-2.732 2.986 0 1.592 1.27 2.56 2.732 2.394 1.46-.168 2.7-1.423 2.7-3.016 0-1.558-1.24-2.531-2.7-2.364Zm13.5 6.018c-2.097.239-3.527 1.326-4.353 2.884l.096-2.112-4.29.489v20.31l4.29-.489v-8.564c.7 1.162 2.097 1.862 4.163 1.626 3.303-.377 6.131-3.628 6.131-7.798 0-4.171-2.764-6.72-6.037-6.346Zm-1.334 10.53c-1.842.21-3.05-.862-3.05-2.994 0-2.007 1.208-3.386 3.05-3.596 1.812-.207 2.954.904 2.954 2.91 0 2.132-1.142 3.473-2.954 3.68Zm30.125-33.304c-.012-.046-.027-.09-.042-.137a2.463 2.463 0 0 0-.203-.464c-.018-.031-.033-.064-.052-.095a2.364 2.364 0 0 0-.39-.461c-.01-.011-.018-.026-.03-.037L72.903 6.592l-.024-.015a2.33 2.33 0 0 0-.527-.347c-.021-.01-.043-.017-.065-.025a2.218 2.218 0 0 0-.53-.16c-.036-.008-.07-.016-.104-.021a2.37 2.37 0 0 0-.58-.011L11.092 12.86A2.361 2.361 0 0 0 9 15.21v77.428a2.357 2.357 0 0 0 2.626 2.348l77.282-8.822A2.363 2.363 0 0 0 91 83.816V23.72c0-.199-.032-.39-.078-.574ZM13.717 89.989V17.318l55.264-6.309v14.686a2.358 2.358 0 0 0 2.626 2.348l14.676-1.675v55.338L13.717 89.99ZM73.7 13.611l9.416 8.361-9.416 1.075v-9.436Z" clip-rule="evenodd"/></svg>